<svg width="111" height="176" viewBox="0 0 111 176" fill="none" xmlns="http://www.w3.org/2000/svg">
    
    <style>
        /* Animazione SCATTO */
        @keyframes snap-flash {
            0% { fill: #FF00DD; }   /* Acceso Magenta */
            32% { fill: #FF00DD; }  /* Ancora Acceso */
            33% { fill: #252525; }  /* SCATTO: Spento Grigio */
            100% { fill: #252525; } /* Spento */
        }

        /* Configurazione Base */
        .arrow-part {
            animation: snap-flash 1.5s infinite;
        }

        /* Ritardi sequenziali */
        .arrow-top { animation-delay: 0s; }
        .arrow-middle { animation-delay: 0.5s; }
        .arrow-bottom { animation-delay: 1.0s; }
    </style>

    <path class="arrow-part arrow-top" d="M104.912 0.0479828C105.659 -0.0607825 106.746 -0.016241 107.842 0.516733L108.936 1.21986L109.053 1.33705L109.795 1.96205L110.225 2.78236C111.28 4.56952 111.216 6.85753 109.795 8.52455L109.717 8.60267L104.873 14.2667L104.717 13.9542L104.561 14.2277L104.053 15.0089C103.754 15.4796 103.422 15.9287 103.037 16.337L102.373 17.0402L101.748 17.7042L100.42 19.0324L99.7561 19.6574L98.5842 20.8292L98.1936 21.1808L97.8811 21.8058L97.4124 22.6261C97.1389 23.118 96.8037 23.5958 96.4358 24.0324L95.8499 24.7355L95.2249 25.4386C95.1905 25.4794 95.1788 25.5481 95.1467 25.5949L94.5999 26.3761L94.092 27.1574C93.3818 28.2163 92.4108 28.9698 91.3967 29.423L90.928 29.6183L90.8499 29.9308C90.436 30.951 89.767 31.8773 88.8577 32.587L88.5061 32.8214L88.3499 33.5636C88.1029 34.7433 87.4896 35.9567 86.3967 36.923L84.6389 38.4855L83.3108 39.8136C83.1092 40.0116 82.8927 40.2064 82.6858 40.3995L81.9827 41.0636L81.3186 41.6886L81.2795 41.7277L80.6936 42.4699L80.2639 42.9386L79.7952 43.798L79.3655 44.6574C78.5679 46.1899 77.2444 47.1096 75.928 47.548L74.8733 47.8995L74.717 48.9152C74.5844 49.8238 74.2647 50.8333 73.6233 51.7667L73.0764 52.548L72.5686 53.2902C71.8287 54.3669 70.7943 54.9645 69.8342 55.3605C69.7073 56.0695 69.5156 56.8988 68.9749 57.6652C68.2415 58.7 67.2578 59.3503 66.3186 59.6964L65.303 60.048H65.1858L64.8733 60.4386L64.6389 61.0245L64.2874 61.962C63.851 63.0347 63.1098 63.987 62.1389 64.6964L61.3967 65.2433L59.3655 66.7667L58.6233 67.3527C57.6322 68.1248 55.9821 68.8923 53.9748 68.4855L53.2717 68.3292L52.5295 68.173C49.7995 67.6173 48.6604 65.4421 48.3108 64.1886L48.0373 63.173L47.9592 62.8995L47.5686 62.5089L47.0998 62.2745L46.2405 61.7667C44.7054 60.9254 43.6835 59.5345 43.3108 57.9777L43.0764 56.923L43.0373 56.8449L42.4905 56.2589C42.1413 55.9035 41.8038 55.5307 41.5139 55.1261L40.0305 53.007C39.9046 52.8195 39.7848 52.6286 39.678 52.4308L39.2092 52.3527C38.3697 52.1749 37.3141 51.7621 36.3967 50.8683C35.4549 49.9452 34.9725 48.818 34.7952 47.8214L34.678 47.1574L34.4436 47.0011C33.5147 46.3035 32.8657 45.3877 32.4514 44.3839H32.3733C31.4434 44.1615 30.3184 43.6215 29.4045 42.548C28.4949 41.4794 28.1505 40.2914 28.0764 39.3449L28.0374 38.9152C27.6982 38.6743 27.3733 38.4131 27.0608 38.1339L25.6545 36.8839C25.4751 36.7232 25.2875 36.5364 25.1077 36.3761L23.7014 35.1261C22.6849 34.2201 22.0667 33.0919 21.7874 31.962L21.6311 31.337L21.3186 31.1417C20.4572 30.5532 19.7494 29.7714 19.2483 28.837L19.1702 28.6808L18.6624 28.5636C16.8315 28.065 15.1638 26.6706 14.5999 24.5011L14.3264 23.4855L14.1311 22.8214L13.9358 22.548L13.7014 22.2355L13.5061 22.1183L12.6858 21.6105C12.0668 21.2101 11.4985 20.6793 11.0061 20.087L10.3811 19.3839L9.79516 18.6808C9.30836 18.0953 8.94257 17.4346 8.66235 16.7667L8.27173 15.8683L8.1936 15.7511L8.11548 15.673L7.52954 15.1652L6.78735 14.7745L5.88891 14.3058C4.4541 13.5572 3.42349 12.2668 2.95923 10.7511L2.68579 9.85267L1.90454 9.22767L1.55298 8.95423L1.24048 8.60267L1.20141 8.52455C-0.593696 6.42666 -0.349404 3.28878 1.74829 1.4933C3.64432 -0.129089 6.31544 -0.000663757 8.15454 1.57142L8.23266 1.4933L9.63891 2.66517C10.243 3.16109 11.3885 4.20179 11.9045 5.8683L11.9827 6.21986L12.2952 6.37611L13.8186 7.39173L14.5608 7.97767L15.303 8.60267C15.7057 8.94201 16.057 9.32522 16.3577 9.73548L17.0999 11.1027L17.4905 12.0011L17.7249 12.548L18.428 13.4074L18.9358 13.7199L19.7561 14.2667L21.7092 16.1808L22.217 16.962L22.7639 17.7433C23.155 18.3266 23.3489 18.9682 23.5452 19.5792C24.1823 19.764 24.8512 20.0338 25.4592 20.4777L27.1389 22.4308L27.6077 23.2902L27.6467 23.3683L27.7639 23.4464L28.5452 23.9933C29.2044 24.443 29.74 24.9863 30.1467 25.5949L31.0061 27.548L31.2014 28.4074L32.2952 29.423L33.7014 30.673C33.7323 30.7006 33.7727 30.7579 33.8186 30.7902L34.6389 31.337L35.4202 31.8839C36.765 32.8283 37.3282 34.165 37.6077 35.3995C38.63 35.7739 39.6213 36.4453 40.342 37.4699L41.0842 38.8761L41.3577 39.6964L41.9827 40.1652C43.0843 40.9932 43.6757 42.107 44.0139 43.212C45.2824 43.5788 46.6953 44.3736 47.5686 45.9855L48.0373 46.8449L48.5061 47.6652C48.5276 47.705 48.5261 47.7557 48.5452 47.7824L49.092 48.5245L49.5998 49.2667L50.928 50.5949C51.8107 51.4941 52.3214 52.5626 52.5686 53.6027L52.6077 53.837L52.803 53.9542L54.678 55.4386L55.303 56.1417L55.6545 56.5324L55.7717 56.3761L56.8655 54.462L57.4514 53.7199L58.0764 53.0167L59.3655 51.7667C59.641 51.5771 59.9392 51.4368 60.2248 51.298C60.3423 50.4605 60.6687 49.4744 61.3967 48.5636C62.26 47.4879 63.3454 46.907 64.2874 46.6495L64.9514 46.4542L64.9905 46.3761L65.1467 45.2824L65.6155 43.6417C65.8568 43.0825 66.1756 42.5185 66.6311 42.0011L67.8811 40.5949L69.2483 39.423C69.722 39.1259 70.2166 38.9174 70.6936 38.7589L71.2014 38.5636L71.3577 38.3292C71.6273 37.81 71.9562 37.3067 72.3342 36.8449L72.9202 36.1417L73.5452 35.3995C73.8383 35.0426 74.1458 34.6982 74.4827 34.3839L75.1858 33.7589L75.8499 33.0949C75.9907 32.9635 76.1426 32.8385 76.2795 32.7042L76.9827 32.0402L78.7795 30.2433L78.9749 29.423C79.2409 28.1389 79.9597 26.8374 81.2014 25.8683L81.9436 25.2824V25.2433L82.2952 24.3449L83.5842 22.3917C84.113 21.8562 84.7436 21.4445 85.4202 21.1417L86.3577 20.712L86.8264 20.048C87.0629 19.6954 87.3337 19.3577 87.6077 19.0324L88.1936 18.2902L88.7795 17.587L89.1311 16.923L89.5999 16.1027L90.8889 14.3839L91.553 13.7589L94.4827 10.8292L95.1077 10.1652L95.6545 9.54017L96.1233 8.87611L96.6311 8.0558C96.7689 7.83854 96.9214 7.60767 97.0608 7.39173L98.0764 5.82923L99.0139 4.57923L99.6389 3.91517L100.264 3.21205C100.484 2.96839 100.72 2.70436 100.967 2.46986L101.983 1.53236L103.115 0.672983C103.395 0.514409 104.037 0.177721 104.912 0.0479828Z" fill="#252525"/>
        
        <path class="arrow-part arrow-middle" d="M99.9592 59.7039C100.465 59.574 101.743 59.3739 103.123 59.9383L104.53 60.7977L104.647 60.8758L105.545 61.6961L105.819 62.4383C106.786 64.2245 106.65 66.4461 105.233 68.0633L105.194 68.1414L100.467 73.532L100.076 74.0789L99.5295 74.8602C98.8074 75.9104 97.853 76.6453 96.8342 77.0867L96.4045 77.243L96.2874 77.5945C95.8624 78.6085 95.1715 79.5128 94.2561 80.2117L93.9045 80.4461L93.7483 81.1883C93.4889 82.3682 92.8632 83.5914 91.7561 84.5477L91.053 85.1727L90.3108 85.7586C90.1918 85.8614 90.11 86.003 89.9983 86.1102L89.2952 86.7352L88.6311 87.3992C88.4258 87.5963 88.2167 87.7932 88.0061 87.9852L86.5999 89.2352L86.5608 89.2742L85.9749 90.0164L85.5452 90.4852L85.0764 91.3445L84.6077 92.1648C83.7898 93.6959 82.4582 94.6338 81.1311 95.0555L80.1155 95.368L79.9202 96.3836C79.777 97.2906 79.4396 98.3092 78.7874 99.2352L78.2405 99.9773L77.6936 100.759C76.9468 101.814 75.9541 102.405 74.9983 102.79C74.8631 103.493 74.644 104.3 74.0999 105.055C73.3551 106.085 72.349 106.711 71.4045 107.048L70.3889 107.399L70.2717 107.438L69.9592 107.79L69.7249 108.415L69.3342 109.313C68.8857 110.378 68.1624 111.312 67.1858 112.009L66.4045 112.595L65.6233 113.141C65.4642 113.255 65.308 113.376 65.1545 113.493L64.8811 113.649L64.803 114.313C64.4993 116.126 63.3524 117.812 61.4436 118.649L60.5061 119.079L60.2717 119.157L60.2327 119.235L59.6077 119.977C59.0415 120.662 58.1152 121.456 56.7952 121.813C55.4563 122.171 54.2432 121.931 53.3577 121.579L52.4983 121.266L51.678 120.915C49.7987 120.168 48.716 118.626 48.2795 117.165L47.967 116.188L47.928 116.071L47.342 115.524C46.9673 115.184 46.6039 114.825 46.2874 114.43L45.7014 113.688L45.1155 112.985C44.8309 112.631 44.571 112.237 44.3342 111.852L43.8655 111.813C43.013 111.684 41.9073 111.334 40.9358 110.485C39.9395 109.613 39.4098 108.504 39.178 107.516L39.0217 106.93L38.7874 106.774C37.8131 106.128 37.1107 105.221 36.6389 104.235H36.5608C35.6208 104.065 34.4466 103.612 33.4749 102.595C32.5122 101.583 32.1187 100.407 31.9905 99.4695L31.9124 99.0008C31.5657 98.7819 31.2197 98.5551 30.8967 98.2977L29.4124 97.1258C29.2311 96.9813 29.0471 96.8402 28.8655 96.6961L27.3811 95.5242C26.3105 94.6748 25.6142 93.5544 25.2717 92.4383L25.1155 91.8523L24.7639 91.657C23.8743 91.1192 23.1283 90.3706 22.5764 89.4695L22.4983 89.3914L21.9514 89.2742C20.0926 88.8807 18.379 87.5456 17.6936 85.407L17.342 84.4305L17.1467 83.8055L16.9124 83.493L16.717 83.2195L16.4436 83.1023L15.5842 82.6336C14.9454 82.2698 14.3504 81.7888 13.8264 81.2273L13.2014 80.5633L12.5374 79.8602C12.0225 79.3058 11.6031 78.6713 11.2874 78.0242L10.7795 77.0086L10.7014 76.9695L10.0374 76.4617L9.33424 76.1492L8.39674 75.7195C6.92407 75.0538 5.82134 73.845 5.27174 72.3602L4.95924 71.5008L4.09986 70.9148L3.7483 70.6414L3.4358 70.3289L3.39674 70.2508C1.48689 68.2622 1.53122 65.0941 3.51392 63.1805C5.31225 61.4534 7.99417 61.447 9.92017 62.907L9.9983 62.8289L11.4827 63.8836C11.7985 64.1135 12.2731 64.4666 12.7327 64.9773L13.9436 66.9695L14.0608 67.282L14.3342 67.4383L15.9358 68.3758L16.678 68.9227L17.4592 69.5086C17.8898 69.8299 18.2632 70.2014 18.592 70.6023L19.4124 71.8914L19.842 72.7508L20.0764 73.2977L20.5061 73.7273L20.8186 74.0789L21.4045 74.4305L22.2249 74.8992C23.0101 75.3456 23.724 75.9448 24.2952 76.6961L24.8811 77.4383L25.428 78.2195C25.8481 78.7745 26.096 79.3839 26.3264 79.9773C26.9842 80.1268 27.6761 80.3784 28.3186 80.7977L30.0764 82.6336L30.5842 83.4539L30.6233 83.532L30.7405 83.6102L31.5999 84.118C32.274 84.5261 32.8428 85.0252 33.2795 85.6023L34.217 87.5164L34.4905 88.3758L35.6624 89.3133L36.4045 89.8992L37.1077 90.4852C37.1404 90.5112 37.2156 90.5334 37.2639 90.5633L38.9045 91.5789C40.3004 92.4441 40.9373 93.7615 41.2874 94.9773C42.3288 95.2937 43.362 95.9092 44.1389 96.8914L44.9202 98.2586L45.2327 99.0398L45.8967 99.4695C47.0557 100.238 47.7232 101.345 48.1233 102.438C49.4088 102.733 50.8719 103.421 51.8342 104.977L52.8499 106.618C52.8724 106.654 52.9084 106.672 52.928 106.696L53.5139 107.438L54.0608 108.141L54.7639 108.766L55.428 109.391C55.4874 109.445 55.5277 109.531 55.5842 109.587C55.9256 108.544 56.5233 107.499 57.5764 106.696L58.3186 106.11L59.0999 105.524L60.5061 104.43L60.8967 103.61L62.0295 101.735L62.6155 100.993L63.2405 100.29L64.5686 99.0789C64.8475 98.8923 65.1396 98.7455 65.428 98.6102C65.5548 97.7734 65.8604 96.7792 66.5999 95.8758C67.4766 94.8075 68.5834 94.2473 69.5295 94.0008L70.1936 93.8055L70.2327 93.7273L70.3889 92.6336C70.5575 91.5786 71.0021 90.4066 71.9124 89.3914L72.5764 88.6883L73.2014 87.9852L74.5686 86.8523C75.0455 86.5596 75.5349 86.3421 76.0139 86.1883L76.5608 85.993L76.717 85.7586L77.6936 84.3133L78.2795 83.5711L78.9045 82.868C79.204 82.511 79.5376 82.1654 79.8811 81.8523L80.5452 81.2273L81.2483 80.6023C81.3971 80.4667 81.5724 80.3115 81.717 80.1727L82.3811 79.5477L83.0452 78.8836C83.282 78.6563 83.5387 78.4345 83.7874 78.2195L84.217 77.7898L84.4124 76.9695L85.1936 75.0555C85.5607 74.4538 86.0543 73.8901 86.678 73.4148L87.4202 72.8289L87.8108 71.8914C88.4368 70.4034 89.6095 69.3174 90.9749 68.7273L91.8733 68.3367L92.3811 67.6336C92.6181 67.2902 92.8894 66.9737 93.1624 66.657L93.7483 65.9148L94.3733 65.2117L94.7249 64.5867L95.1936 63.7664L96.5217 62.0477L97.0686 61.5398L97.5764 61.0711C97.7034 60.9533 98.0414 60.6437 98.4749 60.368C98.6633 60.2486 99.2134 59.8992 99.9592 59.7039Z" fill="#252525"/>
        
        <path class="arrow-part arrow-bottom" d="M104.912 107.048C105.659 106.939 106.746 106.984 107.842 107.517L108.936 108.22L109.053 108.337L109.795 108.962L110.225 109.782C111.28 111.57 111.216 113.858 109.795 115.525L109.717 115.603L104.873 121.267L104.717 120.954L104.561 121.228L104.053 122.009C103.754 122.48 103.422 122.929 103.037 123.337L102.373 124.04L101.748 124.704L100.42 126.032L99.7561 126.657L98.5842 127.829L98.1936 128.181L97.8811 128.806L97.4124 129.626C97.1389 130.118 96.8037 130.596 96.4358 131.032L95.8499 131.735L95.2249 132.439C95.1905 132.479 95.1788 132.548 95.1467 132.595L94.5999 133.376L94.092 134.157C93.3818 135.216 92.4108 135.97 91.3967 136.423L90.928 136.618L90.8499 136.931C90.436 137.951 89.767 138.877 88.8577 139.587L88.5061 139.821L88.3499 140.564C88.1029 141.743 87.4896 142.957 86.3967 143.923L84.6389 145.485L83.3108 146.814C83.1092 147.012 82.8927 147.206 82.6858 147.4L81.9827 148.064L81.3186 148.689L81.2795 148.728L80.6936 149.47L80.2639 149.939L79.7952 150.798L79.3655 151.657C78.5679 153.19 77.2444 154.11 75.928 154.548L74.8733 154.9L74.717 155.915C74.5844 156.824 74.2647 157.833 73.6233 158.767L73.0764 159.548L72.5686 160.29C71.8287 161.367 70.7943 161.965 69.8342 162.36C69.7073 163.07 69.5156 163.899 68.9749 164.665C68.2415 165.7 67.2578 166.35 66.3186 166.696L65.303 167.048H65.1858L64.8733 167.439L64.6389 168.025L64.2874 168.962C63.851 170.035 63.1098 170.987 62.1389 171.696L61.3967 172.243L59.3655 173.767L58.6233 174.353C57.6322 175.125 55.9821 175.892 53.9748 175.485L53.2717 175.329L52.5295 175.173C49.7995 174.617 48.6604 172.442 48.3108 171.189L48.0373 170.173L47.9592 169.9L47.5686 169.509L47.0998 169.275L46.2405 168.767C44.7054 167.925 43.6835 166.534 43.3108 164.978L43.0764 163.923L43.0373 163.845L42.4905 163.259C42.1413 162.904 41.8038 162.531 41.5139 162.126L40.0305 160.007C39.9046 159.819 39.7848 159.629 39.678 159.431L39.2092 159.353C38.3697 159.175 37.3141 158.762 36.3967 157.868C35.4549 156.945 34.9725 155.818 34.7952 154.821L34.678 154.157L34.4436 154.001C33.5147 153.304 32.8657 152.388 32.4514 151.384H32.3733C31.4434 151.161 30.3184 150.622 29.4045 149.548C28.4949 148.479 28.1505 147.291 28.0764 146.345L28.0374 145.915C27.6982 145.674 27.3733 145.413 27.0608 145.134L25.6545 143.884C25.4751 143.723 25.2875 143.536 25.1077 143.376L23.7014 142.126C22.6849 141.22 22.0667 140.092 21.7874 138.962L21.6311 138.337L21.3186 138.142C20.4572 137.553 19.7494 136.771 19.2483 135.837L19.1702 135.681L18.6624 135.564C16.8315 135.065 15.1638 133.671 14.5999 131.501L14.3264 130.485L14.1311 129.821L13.9358 129.548L13.7014 129.235L13.5061 129.118L12.6858 128.61C12.0668 128.21 11.4985 127.679 11.0061 127.087L10.3811 126.384L9.79516 125.681C9.30836 125.095 8.94257 124.435 8.66235 123.767L8.27173 122.868L8.1936 122.751L8.11548 122.673L7.52954 122.165L6.78735 121.775L5.88891 121.306C4.4541 120.557 3.42349 119.267 2.95923 117.751L2.68579 116.853L1.90454 116.228L1.55298 115.954L1.24048 115.603L1.20141 115.525C-0.593696 113.427 -0.349404 110.289 1.74829 108.493C3.64432 106.871 6.31544 106.999 8.15454 108.571L8.23266 108.493L9.63891 109.665C10.243 110.161 11.3885 111.202 11.9045 112.868L11.9827 113.22L12.2952 113.376L13.8186 114.392L14.5608 114.978L15.303 115.603C15.7057 115.942 16.057 116.325 16.3577 116.735L17.0999 118.103L17.4905 119.001L17.7249 119.548L18.428 120.407L18.9358 120.72L19.7561 121.267L21.7092 123.181L22.217 123.962L22.7639 124.743C23.155 125.327 23.3489 125.968 23.5452 126.579C24.1823 126.764 24.8512 127.034 25.4592 127.478L27.1389 129.431L27.6077 130.29L27.6467 130.368L27.7639 130.446L28.5452 130.993C29.2044 131.443 29.74 131.986 30.1467 132.595L31.0061 134.548L31.2014 135.407L32.2952 136.423L33.7014 137.673C33.7323 137.701 33.7727 137.758 33.8186 137.79L34.6389 138.337L35.4202 138.884C36.765 139.828 37.3282 141.165 37.6077 142.4C38.63 142.774 39.6213 143.445 40.342 144.47L41.0842 145.876L41.3577 146.696L41.9827 147.165C43.0843 147.993 43.6757 149.107 44.0139 150.212C45.2824 150.579 46.6953 151.374 47.5686 152.985L48.0373 153.845L48.5061 154.665C48.5276 154.705 48.5261 154.756 48.5452 154.782L49.092 155.525L49.5998 156.267L50.928 157.595C51.8107 158.494 52.3214 159.563 52.5686 160.603L52.6077 160.837L52.803 160.954L54.678 162.439L55.303 163.142L55.6545 163.532L55.7717 163.376L56.8655 161.462L57.4514 160.72L58.0764 160.017L59.3655 158.767C59.641 158.577 59.9392 158.437 60.2248 158.298C60.3423 157.46 60.6687 156.474 61.3967 155.564C62.26 154.488 63.3454 153.907 64.2874 153.65L64.9514 153.454L64.9905 153.376L65.1467 152.282L65.6155 150.642C65.8568 150.083 66.1756 149.519 66.6311 149.001L67.8811 147.595L69.2483 146.423C69.722 146.126 70.2166 145.917 70.6936 145.759L71.2014 145.564L71.3577 145.329C71.6273 144.81 71.9562 144.307 72.3342 143.845L72.9202 143.142L73.5452 142.4C73.8383 142.043 74.1458 141.698 74.4827 141.384L75.1858 140.759L75.8499 140.095C75.9907 139.964 76.1426 139.838 76.2795 139.704L76.9827 139.04L78.7795 137.243L78.9749 136.423C79.2409 135.139 79.9597 133.837 81.2014 132.868L81.9436 132.282V132.243L82.2952 131.345L83.5842 129.392C84.113 128.856 84.7436 128.445 85.4202 128.142L86.3577 127.712L86.8264 127.048C87.0629 126.695 87.3337 126.358 87.6077 126.032L88.1936 125.29L88.7795 124.587L89.1311 123.923L89.5999 123.103L90.8889 121.384L91.553 120.759L94.4827 117.829L95.1077 117.165L95.6545 116.54L96.1233 115.876L96.6311 115.056C96.7689 114.839 96.9214 114.608 97.0608 114.392L98.0764 112.829L99.0139 111.579L99.6389 110.915L100.264 110.212C100.484 109.968 100.72 109.704 100.967 109.47L101.983 108.532L103.115 107.673C103.395 107.514 104.037 107.178 104.912 107.048Z" fill="#252525"/>
    </svg>
