<?xml version="1.0" encoding="UTF-8"?>
<svg id="Livello_2" data-name="Livello 2" xmlns="http://www.w3.org/2000/svg" viewBox="0 0 83.5 112.73">
  <g id="Livello_1-2" data-name="Livello 1">
    <g>
      <path d="M55.33,57.75c.7.72,2.07.88,2.53,1.71,1.95,3.55.28,10.79-4.59,10.48-3.2-.2-4.03-3.54-5.29-5.11-.65-.81-1.71-1.11-2.12-1.69-1.71-2.43-2.87-5.24-4.06-7.94h-1.12l-1.11,1.63c.12,5-1.16,10.15-1.36,15.01-.18,4.21.23,8.65.08,13.05-.17,4.87.51,9.46.5,14.24,0,1.93-1.46,3.41-1.63,4.96-.34,3.13,2.08,4.72-1.68,7.55-3.97,2.99-8.21-.72-8.71-4.86-.66-5.47.69-13.77.8-19.65.13-6.61-1.03-16.02.39-22.23.25-1.09,1.44-1.8,1.49-2.83.08-1.57-1.05-4.35-.49-6.3-.32-.36-1.93.77-2.3,1.09-.78.69-3.27,3.13-3.92,3.88-2.72,3.14-4.83,10.16-10.3,9.64-3.29-.31-5.46-5.11-4.52-8.09.33-1.04,4.81-5.25,5.97-6.56.63-.71.77-1.74,1.41-2.43,1.3-1.42,4.37-2.45,6.02-4.35,1.73-1.99,1.86-4.9,2.89-6.11s3.82-1.03,4.79-2.57c1.81-2.88-.78-6.73,6.26-6.88,4.47-.09,3.97,3.08,5.68,5.22,2.83,3.56,7.48,7.51,10.31,11.51,1.52,2.14,1.94,5.46,4.08,7.64h0Z" fill="#fd3fb7"/>
      <path d="M68.41,26.49c-1.83,1.32-5.15,4.17-7,5.81-.71.63-1.02,1.79-1.6,2.22-4.7,3.44-11.41-2.09-6.6-8.23.96-1.23,5.32-4.5,6.87-5.68,3.57-2.71,12.55-8.76,16.73-9.45,4.88-.81,8.84,3.49,5.36,7.54-1,1.16-2.8,1.63-4.09,2.45-3.43,2.17-6.51,3.06-9.67,5.34Z" fill="#fd3fb7"/>
      <path d="M9.68,7.94c3.42,2.7,9,10.49,9.41,14.89.31,3.32-1.77,6.93-5.41,5.97-3.37-.9-2.83-3.34-4.35-5.5C6.2,18.86-1.64,15.08.3,8.82c1.27-4.12,6.82-2.91,9.39-.88,0,0-.01,0-.01,0Z" fill="#fd3fb7"/>
      <path d="M37.53.24c7.03-1.56,5.02,4.73,6.2,8.83,1.3,4.52,1.22,4.55,1.08,9.32-.24,8.15-8.88,6.01-10.17-2.42-.13-.88.32-1.67.23-2.41-.42-3.46-2.39-12.2,2.65-13.32h.01Z" fill="#fd3fb7"/>
    </g>
  </g>
</svg>