<?xml version="1.0" encoding="UTF-8"?>
<svg id="Livello_1" data-name="Livello 1" xmlns="http://www.w3.org/2000/svg" xmlns:xlink="http://www.w3.org/1999/xlink" viewBox="0 0 1306.91 907.09">
  <defs>
    <style>
      .cls-1 {
        fill: #fc4087;
      }

      .cls-2 {
        fill: #fc4288;
      }

      .cls-3 {
        fill: #090909;
      }

      .cls-4 {
        fill: #060606;
      }

      .cls-5 {
        fill: none;
      }

      .cls-6 {
        fill: #fc448a;
      }

      .cls-7 {
        fill: #fc4389;
      }

      .cls-8 {
        fill: #fc458a;
      }

      .cls-9 {
        fill: #070707;
      }

      .cls-10 {
        clip-path: url(#clippath);
      }
    </style>
    <clipPath id="clippath">
      <rect class="cls-5" width="1306.91" height="907.09"/>
    </clipPath>
  </defs>
  <g class="cls-10">
    <g>
      <path class="cls-1" d="M1118.73,617.45c1.03.39,3.73,1.92,4.36,2.73,2.17,2.8.48,4.83.57,7.32.02.45.52.77.52.86.05,1.98.05,4.02,0,6-.06,2.13-.03,3.89-.55,6-.03.13-.58.35-.48.75l.48.34c-.08.79-.06,1.92,0,2.73l-.55,1.09c-.25.3.52,2.15.55,2.73.11,2.77-.77,3.19-1.09,4.91s.52,2.64.55,3.27c.02.36,0,.73,0,1.09.01,2.32-1.41,3.7-1.09,6l-.38.66.38.43c1.99,4.08-1.5,7.68-1.66,11.17-.04.83-.1.95.79.84.28-.03.59.04.87-.01l1.09.55c.55.75,1.08.7,1.64,1.09-.06,1.14.74,1.9,1.09,2.73.18.42.27.68.55,1.09,1.17,1.74,1.41,1.43,3.27,2.73.19.13.34.39.55.55-.2,1.56.92,2.58,2.18,3.27.11.66.52.99.55,1.09.63,2.93,1.14,2.51,2.18,4.36.2.35.34.74.55,1.09.56.98,1.72,2.34,1.9,2.74.68,1.54-.2,3.96,1.92,4.9.06.72.41,1.12.55,1.64.65,2.44,1.99,3.9,3.27,6,.03,1.31.22,1.61.55,2.73.25.87.86,1.55,1.09,2.18.99,2.74.77,4.32,3.27,6.55l2.48,7.61,1.88,1.66c.14.58-.11.65.55,1.09-.15,1.36.22,3.08,0,4.36-.44,2.56-1.76,3.33-3.27,4.91-3.8,1.1-8.06-2.5-11.25-2.71-1.77-.12-3.14.88-5.27.42-1.24-.27-5.78-3.72-8.03-4.8-.36-.17-.65-.37-1.09-.55-1.08-.42-1.47-.34-2.18-.55-.11-.03-.57-.8-1.47-.97-1.04-.2-2.39-.23-3.44-.12-.31.03-.71-.14-1,.08-.43.61-.37,1.49-.64,2.1-.69,1.58-1.46,3.15-1.64,4.91-.99.44-.79,1.61-1.09,2.18-1.57,2.96-1.14,2.25-1.64,5.45-.13.84-.46,1.35-.55,2.73-.03.54,0,1.1,0,1.64-.79,2.54-2.96,4.56-3.27,7.09-.21,1.69.13,3.7,0,5.45-2.01-.2-1.88,3.9-2.18,5.45-.25,1.3-1.07,3.64-1.09,4.36l-.55,1.09c-.45.43-1,2.02-1.09,2.73-1.57,1.78-3.23,1.25-4.91,1.64-.47.11-1.26-.14-1.64,0l-3.27-1.64c-1.97-4.26-.93-7.77-2.18-10.36-.48-.99-1.69-2.12-2.18-3.27.12-.41-.08-1.13,0-1.64.15-.96.76-1.64-.55-2.73.1-.25-.09-.77,0-1.09,1.21-4.55-2.92-6.21-3.82-9.27-.28-.95.11-1.64-.55-3.27-.45-1.13-1.06-2.2-1.64-3.27-.21-.4-.19-1.1-.55-1.64-1.45-2.22-2.84-2.06-4.91-.55-1.94-.1-3.12.45-4.36.55-5.52.43-4.63,1.08-8.73,2.18-.44.12-1.14-.09-1.64,0-.76.14-1.39.5-1.64.55-.98.17-2.3-.18-3.27,0-1.78.33-1.82.76-2.73,1.09-4.11,1.48-4.54,1.23-8.73,1.64-2.72.26-5.46.86-7.64,2.73-.9-.08-1.83.07-2.73,0-3.07-.24-1.41.11-2.73.55-2.36.79-4.35.66-6.55-.55-1.11-.61-2.07-2.13-3.27-2.73-.16-1.56.11-3.31,0-4.91l.55-1.09c.2-.2.42-1.07.87-1.58,3.69-4.14,7.65-9,11.13-13.14,1.28-1.52,1.43-2.29,3.27-3.82.59-.49,1.24-.8,2.18-1.64.41-.36,1.47-.51,1.91-1.08l9.54-10.66c.29-1.31-2.03-1.41-2.72-1.9-.19-.14-.34-.42-.55-.55-1.39-.84-3.43-1.79-4.63-2.73-1.64-1.27-2.22-3.37-4.09-4.36-.89-3-.7-1.48-1.64-2.18-.24-.18-.45-1.01-1.09-1.09-.44-1.07-1.91-2.9-2.73-3.82s-1.62-1.62-2.73-2.18c-1.05-1.86-3.04-2.94-4.36-4.36-1.92-2.06-2.85-3-4.91-4.91-.54-.5-.88-1.01-1.64-1.64-1.2-1-.98-1.16-2.73-2.18-.64-1.1-.97-2.4-2.18-3.27.03-.91-.05-1.82,0-2.73.05-.98-.15-1.99.03-2.97s.79-1.32,1.06-1.94c.06-.13.42-.3.55-.55,2.08-1.44,4.43.03,6.32.03.81,0,1.2-.56,1.32-.57,5.77-.69,11.83-1.68,17.45-1.09l.66.37.43-.37c.93.35,2.17-.52,2.73-.55,4.46-.17,7.68.48,11.45.55.36,0,.73-.01,1.09,0,1.75.06,3.79-.21,5.45,0,.99.12,2.97.84,4.36,1.09.16.03.55.49,1.09.55,1.87.19,2.43-.25,3.82-.55,2.69-.57,2.33.13,4.36-2.18,1.72-1.96,3-4.33,4.36-6.55,1.88.12,1.7-1.55,2.18-2.18.87-1.15,1.85-2.13,2.73-3.27,1.36.08,1.55-.98,2.18-1.64,1.42-1.49,1.31-1.9,2.18-3.27.4-.63.94-.41,1.64-2.18.11-.28.37-.61.55-1.09,2.05-1.62,3.67-2.47,5.45-4.36,2.5-2.64,2.36-2.82,5.45-4.91,1.44-.97,1.61-1.09,2.18-2.73.18-.51.35-1.49.55-2.18,1.42-1,2.88-2.35,3.82-3.82.88-1.38,1.13-3.34,2.18-4.36.65-.64,2.63-1.1,3.27-2.18.59.16,1.71-.18,2.18,0ZM1127.4,700.45c-.09-.16-1.86-.75-2.6-2.07-2.95-5.29-1.11-4.35-6.37-8.9-.56-.48-.84-1.64-1.35-1.96-1.25-.79-3.66,1.83-6.54-1.6-4.11-4.89-.08-7.52.9-11.55s.08-7.88.23-11.33c.07-1.57,1.56-3.78,1.52-5.51-.04-1.99-1.48-3.53-.99-6.51.47-2.8.34-2.67.47-5.48.06-1.33,1.41-5.93-.23-6.27-.94.91-3.89,2.27-4.49,2.87-.93.93-2.68,4.73-3.71,5.83-.91.97-2.48,1.13-3.54,2.46-4.25,5.36-8.71,10.89-13.33,16.11-.55.62-.72,1.77-1.37,2.46-3.36,3.55-6.41,5.53-11.34,6.12-4.31.51-11.98-.69-16.25-1.47-2.07-.38-3.64.61-5.41.55-4.12-.14-8.99-1.26-13.59-.95-2.16.15-5.23,1.71-7.97.93.09.86,1.26.83,1.94,1.6,1.47,1.66,2.16,3.68,4.05,5.22,1.36,1.11,3.42,1.61,4.39,2.7,1.05,1.18.95,2.75,1.59,3.72.25.38,5.64,5.78,6.3,6.38,2.69,2.42,6.99,4.51,9.81,6.55,1.13.82,6.07,5.28,6.26,6.28.57,2.98-.2,6.34-2.42,8.46s-3.71,1.02-5.2,1.89c-.45.27-1.3,1.99-2.17,2.74-1.47,1.26-4.17,2.6-5.29,3.71-1.23,1.23-2.58,4.01-4.03,5.53-.53.55-1.68.56-2.02.97-.47.57-.41,2.36-1.47,3.71-1.14,1.45-2.67,1.34-3.57,2.7,1.99.52,3.59-1.48,5.23-1.63,6.79-.62,8.34-1.95,14.26-3.14,3.02-.61,7.01-.18,9.68-.68,1.23-.23,1.98-1.68,3.54-1.97,2.05-.38,3.67-.55,6.01-1.03,4.41-.93,7.19-1.6,9.73,2.84,3.07,5.35,4.66,14.12,7.87,19.4.49.81,1.04,1.44,1.77,2.04,2.05-1.39,1.09-3.68,1.73-5.9,1.31-4.56,4.66-12.16,6.49-16.97.28-.74,2.09-4.66,2.41-5.08.99-1.33,8.95-4.37,10.6-4.21,1.53.15,3.22,1.74,4.81,2.33,2.14.8,4.38.72,6.2,1.44,2.41.94,4.88,5.28,8.41,4.4,1.14-1.06-4.52-10.25-5.08-12.09-.36-1.16-.18-3.07-.49-3.61-.13-.22-1.34-.54-2-1.54-1.18-1.79-.6-4.13-.87-4.56-.39-.61-1.43-.65-2.21-2.19-.86-1.69-.22-3.57-.32-3.74Z"/>
      <path class="cls-8" d="M76.36,534.55c-.16.94.15,1.25,1.09,1.09,2.31,2.16,5.76,5.29,8.73,6-.2.99.11,1.26,1.09,1.09.25.32,3.68,2.96,4.4,3.51,9.58,7.32,17.99,16.38,25.99,25.01.47.51.48,1.45,1.01,1.99,1.46,1.51,5.68,4.92,7.63,4.86,1.06-.03,1.91-.76,2.84-.88,1.1-.14,5.13-.08,5.6-.67l1.06-.03.03-1.07c.73-.07,3.05.16,3.27,0,.8,0,1.4-.3,1.64-1.09.62-.04,2.55.13,2.73,0h1.64s0-1.09,0-1.09c1.89-.11,3.15-.33,4.91-.55,1.01-.12,2.66.45,3.27-.55.34.06.74-.04,1.09,0l1.09-.55c1.07-.07,1.63-.99,2.49-1.1,1.17-.15,2.24.6,3.63.46,3.8-.38,10.81-2.86,15-3.6,2.57-.45,5.4-.23,8.01-1.18,3.09.31,4.67,2.59,4.12,5.66-.16.91-1.01,1.46-1.08,2.49l-.55,1.09c-2.34,1.79-3.09,5.33-4.6,7.13-2.85,3.4-7.05,6.39-10.13,9.78-.8,0-1.36.33-1.64,1.09-.3.17-.78.78-1.09,1.09-1.12.29-2.52.21-2.18,1.64-1.61.89-3.39,1.69-4.91,2.73l-1.64,1.09c-.92.51-1.18,1.56-1.99,2.1-2.36,1.59-4.88,1.72-6.2,4.99h-1.09s0,1.09,0,1.09c-.79.08-1.98-.26-2.61.12-.25.15-1.97,3.07-2.8,3.5-.31,1.77,5.41,2.55,6.98,3.26,3.13,1.42,9.65,5.3,12.98,7.2,7.87,4.51,14.16,9.3,21.16,14.84,4.67,3.69,9.06,8.19,13.92,11.44,0,.8.31,1.4,1.09,1.64.27,3.87,0,4.96-3.82,5.45-.57.07-1.38-.21-1.64.55-.5-.02-2.55.34-2.73.55l-1.09.55c-.57-.04-3.14-.09-3.27,0h-1.09s0,1.09,0,1.09c-4.12.55-9.38.56-13.64.55-.73,0-1.45,0-2.18,0-.66-.44-2.9-1-3.82-1.09-.58-.06-1.39-.11-1.64.55-1.33-.18-3.78-.64-4.91-.55l-1.09-.55c-11.31-.55-21.91-5.47-32.76-7.34-.45-.08-.94-.57-1.34-.83-1.44,1.13.13,2.41-.5,4.38-.33,1.04-1.6,1.7-1.84,2.54-.3,1.03-2.35,11.54-2.29,12.16-.71.26-.52,1.04-.55,1.64-.05,1.07.11,2.22,0,3.27h-1.09s.54,2.18.54,2.18c-.74,4.6-1.58,9.05-2.18,13.64-.07.53.07,1.11,0,1.64-.46,3.53-.72,9.39-2.08,12.38-.96,2.11-2.39,3.27-4.84,3.29-2.02.02-4.44-3.52-5.52-5.14-4.46-6.68-6.16-13.57-7.19-21.44-.11-.87.09-1.85,0-2.73-.11-1.11-.47-2.16-.55-3.27-.11-1.52-.01-2.41,0-3.82,0-.36-.01-.73,0-1.09.03-.68.86-1.7-.55-2.73-.01-.36-.01-.73,0-1.09.02-.59.13-1.38-.55-1.64.16-1.48.73-7.49-.55-8.18l-.55-1.09c.06-.83.06-1.89,0-2.73.89-.61.37-1.35-.55-1.64-.04-.17.05-.38,0-.55-.13-.47,0-1.04-.54-1.4-.57-.59-1.02.31-1.1.31-.36.01-.77-.06-1.09,0-.55.1-1.36-.23-1.64.55-.54-.04-1.09,0-1.64,0-.6,0-1.38-.14-1.64.55-2.49-.16-4.15.53-6.55,1.09-.57-1.13-2.21-.28-2.73.55-.36.02-.73-.01-1.09,0s-.73,0-1.09,0c-1.27.03-2.55-.02-3.82,0-.55,0-1.09-.02-1.64,0-1.27.04-2.55-.02-3.82,0l-1.09.55c-2.4-.34-2.97.74-4.18.92-.81.12-2.67-.4-4-.38l-.81-.54-.28.54c-3.79-.08-11.97,1.19-10.92-5.15.18-1.07,5.43-6.73,6.55-8.22,1.18-1.57,2.97-5.52,3.99-6.65,2.03-2.25,2.17-.05,3.65-4.53,1.51-.19,2.3-1.19,3.27-2.18,2.31-2.34,2.64-4.42,4.36-6.82,2.1-2.91,6.45-7.23,8.97-10.12,1.03-1.17,4.52-3.95,4.95-4.91.49-1.07-.14-1.76-.29-2.7-.17-1.01.36-2.3-1.09-2.73-.19-.96-.39-1.64-.55-2.73.85-.19.59-1.23,0-1.64-.37-4.11-4.63-10.47-4.91-15.27l-.55-1.09c.22-1.63-.22-2.43-.55-3.82-.2-.86.17-1.85-1.09-2.18-.04-.72.07-1.47,0-2.18-.23-2.47-.81-2-1.09-2.73-.22-.58-.39-1.03-.55-1.64-.26-.99.58-2.8-1.09-3.27-.02-.18.02-.37,0-.55-.1-.87-.3-1.67-1.09-2.18.05-.54-.04-1.1,0-1.64.14-2.01-.28-3.16-.55-5.45-.04-.35.01-.73,0-1.09-.02-.6.16-1.37-.55-1.64.03-.54.02-1.1,0-1.64-.07-1.97-.98-4.89-1.09-6.55-.06-.89-.01-1.83,0-2.73,0-.76.13-3.51.55-3.82.14-.1.77.09,1.09,0v-1.09c4.51-.78,3.99-1.27,7.09,1.64ZM103.47,567.44c-5.94-6.08-12.87-11.87-19.17-17.1-.83-.69-6.72-5.59-7.39-4.88-1.01,2.38.18,3.69.4,5.33,1.95,14.53,8.11,29.87,11.3,44.34.61,2.78,3.21,11.69,2.92,13.77-.55,3.88-3.94,1.99-5.66,2.06s-1.6,1.98-2.41,2.96c-4.02,4.81-7.72,9.39-11.73,13.9-3.04,3.42-6.02,8.11-8.42,11.76-.82,1.24-3.56,1.81-3.3,4.06.57.52,8.13-.98,9.6-1.04,2-.08,5.41.62,7.55.51,6.66-.33,12.3-2.89,19.09-3.86,1.12-.16,1.97-.99,3.3-1.1,3.29-.26,3.8,1.57,4.39,4.37,1.6,7.59,3.02,17.32,3.56,24.86.13,1.8-.79,3.5-.62,5.45.26,2.89.84,5.89,1.14,9.21.19,2.16,2.07,4.89,1.88,7.44l1.92.53c-.06-.81-.56-1.48-.45-2.33.53-4.16,1.97-8.72,2.61-12.69.53-3.3.11-7.69.6-10.85.82-5.24,4.01-10.15,4.33-16.4.18-3.58-2.46-7.57,4.11-7.39,9.49.26,22.88,6.11,32.3,8.63,6.3,1.69,22.94,2.48,29.24,1.56,1.64-.24,3.57-.38,4.72-1.7l-18.9-14.91c-6.83-2.31-12.41-7.56-18.36-10.55-4.13-2.08-19.32-5-15.57-12.11,3.64-6.91,12.2-10.92,18.05-15.61.85-.68,1.24-2.01,2.33-2.74,1.5-1.01,3.75-1.05,5.16-2.48.79-.8.87-2.05,1.49-2.46,1.37-.91,3.37-1.19,5.35-2.7,2.61-2,3.41-4.34,5.18-6.27,1.1-1.2,3.01-.83,2.74-2.44-1.59-1.26-11.43,2.64-13.93,2.75-10.43.42-17.97,3.25-28.03,5.2-1.98.38-7.42,1.72-8.88,1.73-6.64.05-11.66-6.91-15.96-11.33-2.46-2.53-4.46-5.41-6.46-7.46ZM59.18,643.64v.55c.35-.18.35-.36,0-.55Z"/>
      <path class="cls-2" d="M1246.01,76.72c.7.72,2.07.88,2.53,1.71,1.95,3.55.28,10.79-4.59,10.48-3.2-.2-4.03-3.54-5.29-5.11-.65-.81-1.71-1.11-2.12-1.69-1.71-2.43-2.87-5.24-4.06-7.94h-1.12s-1.11,1.63-1.11,1.63c.12,5-1.16,10.15-1.36,15.01-.18,4.21.23,8.65.08,13.05-.17,4.87.51,9.46.5,14.24,0,1.93-1.46,3.41-1.63,4.96-.34,3.13,2.08,4.72-1.68,7.55-3.97,2.99-8.21-.72-8.71-4.86-.66-5.47.69-13.77.8-19.65.13-6.61-1.03-16.02.39-22.23.25-1.09,1.44-1.8,1.49-2.83.08-1.57-1.05-4.35-.49-6.3-.32-.36-1.93.77-2.3,1.09-.78.69-3.27,3.13-3.92,3.88-2.72,3.14-4.83,10.16-10.3,9.64-3.29-.31-5.46-5.11-4.52-8.09.33-1.04,4.81-5.25,5.97-6.56.63-.71.77-1.74,1.41-2.43,1.3-1.42,4.37-2.45,6.02-4.35,1.73-1.99,1.86-4.9,2.89-6.11s3.82-1.03,4.79-2.57c1.81-2.88-.78-6.73,6.26-6.88,4.47-.09,3.97,3.08,5.68,5.22,2.83,3.56,7.48,7.51,10.31,11.51,1.52,2.14,1.94,5.46,4.08,7.64Z"/>
      <path class="cls-7" d="M1259.09,45.46c-1.83,1.32-5.15,4.17-7,5.81-.71.63-1.02,1.79-1.6,2.22-4.7,3.44-11.41-2.09-6.6-8.23.96-1.23,5.32-4.5,6.87-5.68,3.57-2.71,12.55-8.76,16.73-9.45,4.88-.81,8.84,3.49,5.36,7.54-1,1.16-2.8,1.63-4.09,2.45-3.43,2.17-6.51,3.06-9.67,5.34Z"/>
      <path class="cls-6" d="M1200.36,26.91c3.42,2.7,9,10.49,9.41,14.89.31,3.32-1.77,6.93-5.41,5.97-3.37-.9-2.83-3.34-4.35-5.5-3.13-4.44-10.97-8.22-9.03-14.48,1.27-4.12,6.82-2.91,9.39-.88Z"/>
      <path class="cls-8" d="M1228.21,19.21c7.03-1.56,5.02,4.73,6.2,8.83,1.3,4.52,1.22,4.55,1.08,9.32-.24,8.15-8.88,6.01-10.17-2.42-.13-.88.32-1.67.23-2.41-.42-3.46-2.39-12.2,2.65-13.32Z"/>
      <path class="cls-6" d="M686.73,243.27c-3.21-2.1-7.84-6.11-10.39-8.97-2.32-2.61-5.12-5.24-4.34-9.03-3.21.96-7.41-.28-8.49-3.79-.47-1.53-.49-8.4-.13-10.01.26-1.16,3.49-5.49,4.36-7.1.67-1.25.67-2.83,1.62-4.38,1.65-2.68,6.03-6.26,8.5-9.5,1.53-2,11.43-9.14,13.91-10.09,3.86-1.47,8.11-2.14,11.99-3.28,1.51-.44,3.72-2.3,5.07-2.56,2.66-.51,5.58.88,8.18.78,6.03-.24,10.25-1.21,16.46,1.27,1.77.71,2.16,2,3.22,2.75,1,.7,2.99,1.14,3.66,1.69.73.61.76,2.89,1.75,3.84s2.85.75,4.08,2.46c1.82,2.51.35,3.59.65,5.34.22,1.29,1.67,1.82,2.05,2.45,1.19,1.96,2.63,7.84,3.17,10.35.44,2.06.36,13.88-.1,16-.11.52-4.11,8.43-4.7,9.51-.51.94-6.55,8.74-7.36,9.55-3.58,3.56-9.57,7-14.45,8.19-.58.14-1.5-.09-2.18,0-1.75.22-.85.94-1.09,1.09-.43.28-8.86,1.52-10.1,1.63-1.35.12-2.73-.05-4.08,0-3.62-1.55-5.29-1.93-9.27-1.09-2.64-1.02-4.52-3.15-6.71-4.48-.84-.51-2.09-.67-2.56-.97-.9-.57-1.84-1.05-2.73-1.64ZM740.18,200.73c-1.5-.19-1.9,1.7-3.11,2.06-2.3.69-5.61-.73-7.45-2.14-3.47-2.67-8.11-7.11-10.28-10.99-1.67-2.99-.47-5.18-5.88-4.75l2.24,5.67c4.34,4.59,9.99,12.63,16.61,13.94,1.3.25,2.77-.13,4.21.15,1.62.32,2.62,1.89,4.21,2.06l-.55-5.99ZM733.63,190.36c1.01-.89-4.88-4.32-5.45-3.81-.19,1.85,4.39,4.75,5.45,3.81ZM714.92,204.73c-5.47-4.24-2.3-2.35-4.48-7.26-.34-.78-2-1.82-2.68-2.78-.76-1.08-3.48-5.87-4.13-6.27-.91-.55-8.15.57-6.87,3.59,2.74,2.64,4.65,7,7.05,9.62.65.71,2.09.99,2.79,1.85.84,1.03,1.06,2.89,1.82,4.18,1.26,2.13,3.37,3.22,5.56,4.26,4.06,1.92,8.34,3.91,12.53,5.47,1.53.57,2.91,2.93,3.13,2.99,1.02.24,2.5-.22,3.69.01,1.81.35,3.92,1.52,5.99,1.55l1.95-4.84c-2.45.88-3.99-1.42-5.77-1.64-2.11-.26-3.01.98-5.52-.43-1.38-.77-1.67-2.16-2.47-2.48-1.37-.56-2.99-.13-4.46-.96-1.34-.75-6.45-5.55-8.14-6.85ZM708.71,221.29c-5.19-5.74-9.85-10.73-14.34-17.02-.83-1.16-2.3-1.64-2.98-2.48-1.42-1.77-1.48-8.38-4.96-4.9-2.8,2.8-.64,5.25,1.17,7.6,3.43,4.46,6.37,9.95,10.62,13.93.85.79,6.17,4.96,7.09,5.46,1.82.98,4.23,1.04,5.63,2.01,1.76,1.22,4.32,4.68,6.38,6.16,2.35,1.69,5.23,2.11,7.46,4.04,1.22.3,5.78-1.89,6.86-2.72.61-.47,1.12-.57.9-1.54-1.92-1.17-4.22-.77-6.03-1.34s-2.9-2.98-4.37-3.81c-2.42-1.37-12.26-4.1-13.43-5.39ZM690.19,224.54c-.87-.74-4.17-4.81-4.77-5.87-1.33-2.33-1.9-6.75-5.23-7.58.22,6.12.67,12.49,4.67,17.42,2.06,2.53,2.64,1.98,4.89,3.29,3.49,2.03,4.75,2.28,8.28,3.72.85.35,1.41,1.41,2.18,1.64,1.62.47,3.89-.09,5.61.11-.32-3.98-5.37-3.76-7.24-5.42-1.15-1.03-1.92-3.51-3.93-4.94-1.39-.99-3.14-1.25-4.46-2.36ZM706.64,237.27v.55c.35-.18.35-.36,0-.55Z"/>
      <g>
        <path class="cls-7" d="M1084.13,140.61c.03.46.01.95.55,1.09-.66,5.33.32,6.95.51,11.22.13,2.81-1.09,6.9-1.06,10.05.01,1.5-.07,3.22,1.09,4.36.01,1.09-.02,2.18,0,3.27.01.73-.02,1.46,0,2.18s-.04,1.46,0,2.18c-.86.18-.64,1.25,0,1.64.08.73.44,1.45.55,2.18l.55,1.09c-.22,2.36-.52,4.72-.55,7.09,0,.54,0,1.09,0,1.64s-.04,1.1,0,1.64c-1.5,1.02-.08,3.13,0,3.82.65,5.46,2.65,20.35-7.12,17.21-2.37-.76-6.48-8.37-7.7-10.84-2.12-4.28-4.17-9.35-4.81-14.01-.12-.9.22-2.02-.08-2.93-.33-1.02-1.17-.67-1.56-.89-.19-.11-.34-.43-.55-.55-.62-1.19-.32-2.72-.55-3.82-.09-.42-3.04-6.49-3.61-7.58-1.21-2.32-3.62-4.72-4.04-7.7-3.86,1.79-1.45,5.14-1.64,7.84-.47,6.61.49,11.5.45,18.06-.01,2.2-.77,4.6-.45,7.1.41,3.23.96,4.76,1.28,8.65.1,1.17.91,2.27.96,3.89.18,5.86-4.62,7.62-8.78,3.83-3.62-3.3-1.79-7.58-2.18-12-.2-2.27-.92-4.19-1.09-6.82-.03-.54.03-1.09,0-1.64-.14-2.34.14-4.75,0-7.09-.03-.54.07-1.11,0-1.64-.12-.89-.62-2.63-1.09-3.27v-2.73c0-.91-.02-1.82,0-2.73s-.04-1.82,0-2.73c.02-.36-.02-.73,0-1.09,0-.05.46.07.53-.81.11-1.34.41-3.64-.53-4.65.71-5.69.84-13.4,7.32-15.86,2.26-.86,4.29-.43,6.29.88,2.48,1.63,9.59,7.34,10.87,9.86.87,1.71.35,3.07.87,4.59,1.12,3.32,3.38,8.44,5.2,11.44.1.17-.09.77,0,1.09h1.09c.05-.54-.06-1.1,0-1.63.08-.71-.05-1.47,0-2.18.01-.14,1.08-1.71.54-2.73h-1.09c-.02-.54,0-1.09,0-1.63-.01-1.09-.03-2.19,0-3.27.08-3.16.51-6.25.55-9.27,0-.69.09-1.54,0-2.18-.48-3.5-.52-4.37-.66-7.91-.16-4.04-2.34-13.24,3.63-13.93s5.98,3.74,6.29,8.21Z"/>
        <path class="cls-7" d="M1174.13,149.88c-1.53-.29-.88.56-1.09,1.09-.34.86-.67.9-.55,2.18l-.55,1.09c-2.99,3.19-7.13,9.23-9.81,12.81-.61.82-1.54,1.4-2.19,2.19,1.77,1.04,2.57,3.79,3.79,4.93.94.87,2.05.8,3,1.9,1.63,1.88,3.92,10.23,5.74,11.99l.55,1.09c-.06.34.04.74,0,1.09l.55,1.09c-.03.36.02.73,0,1.09-.05.85-.27,2.3.55,2.73-.04.54.04,1.1,0,1.64-.06.9.04,1.82,0,2.73-.82,1.28.27,1.87-2.28,2.9-2.36.95-3.63.86-5.63-.72-3.95-3.13-1.49-5.73-3.13-9.41-.78-1.74-3.09-3.76-4.14-5.68-1.47-2.69-1.76-5.7-4.71-7.83-1.07-.77-2.67-.9-3.77-1.69-1.04-.74-1.44-3.02-3.08-1.83-.03.63.05,1.27,0,1.9-.04.54.02,1.09,0,1.64-.03,1.17-.13,2.71,0,3.82.12.98.46,1.27.55,1.64,1.04,4.52,1.18,6.56,1.67,11.15.3,2.82,1.68,2.71.52,6.85h-1.09s0,1.09,0,1.09c-.1.11-.48,1.73-1.09,2.73l-3.27.55c-.15-.1-1.47.13-2.48-.51-4.23-2.67-1.93-11.01-3.01-15-1.18-4.33-1.74-6.15-1.05-11.22.82-.08.82-1.56,0-1.64.51-3.74-1.89-5.81-1.09-9.82.82-.08.82-1.56,0-1.64-.04-13.67.6-19.78,10.08-30.01,2.12-2.29,2.89-2.71,5.74-3.8.4-.15.91-.5,1.09-.55.3-.08.75.06,1.09,0,.9-.16,1.03-.54,1.09-.55,3.24-.29,9.77.55,12.28,2.72,3.62,3.13,6.21,10.55,5.72,15.28ZM1147.41,162.42l7.38-3.25c3.18-4.13,6.43-7.94,8.41-12.84-.71-2.17-2.05-4.63-4.59-4.65-3.74-.02-4.38,3.69-6.27,6.31-.61.85-1.77,1.08-2.22,1.74-.75,1.1-3.32,12-2.7,12.7Z"/>
        <path class="cls-6" d="M1022.5,155.88c-.09-.09.32-.93-.36-1.11-.65-.18-1.64.13-2.37.02-1.95-.29-2.39-.76-4.36,0-.37.14-.85.05-1.09.55-.88-.06-2.36.22-2.73,1.09-.76.27-1.09.84-1.09,1.64-1.8,2.18-3.28,4.61-4.91,7.09-.1.15-.75.22-.99.92-.22.66,0,1.29-.1,1.8-.26,1.36-.4,2.97-.55,4.36-.07.65-.52,1.31-.55,2.73-.1,5.43,5.74,17.89,9.26,22.1.76.91,1.85,1.24,2.46,1.9,1.5,1.63,2.56,4.01,4.91,4.72.32-.02,1.95-1.15,2.16-1.49,1.64-2.58,2.2-7.56,3.58-9.78.03-.05.94.26,1.1-.37s.02-2.11-.01-2.91.11-1.51-.11-2.34c-.18-.66-.84-.74-.98-.93-.08-.11.17-.71-.09-.99-.42-.35-1.52,0-2.09-.1-8.69-1.57-2.66-10.78,4.01-10.33s6.05,3.66,8.11,8.29c.62,1.39,2.47,2.61,2.59,4.53.03.52-1.08,5.39-1.32,6.26-.56,2.01-1.76,5.24-2.52,7.3s-4.31,10.78-5.74,11.71c-5.92,2.1-8.29,3.98-14.04.51-1.73-1.04-9.4-8-10.21-9.43-.74-1.32-.47-2.59-1.36-4.1-1.01-1.72-4-3.76-5.71-6.02.42-1.19-.31-1.93-.55-2.73-.58-1.98-2.38-6.79-3.27-8.18.06-.71-.09-1.48,0-2.18.04-.35-.03-.73,0-1.09.1-1.4-.02-1.89,0-2.73,0-.36,0-.73,0-1.09,0-.45,0-1.7,0-2.18,0-.55,0-1.09,0-1.64,0-.36,0-.73,0-1.09.02-1.53-.06-4.96.1-6.13.39-2.8,10.96-16.25,13.68-17.46,3.68-1.63,11.88-3.08,15.82-2.47,5.86.92,11.4,6.04,7.42,12.07-2.45,3.71-5.75,1.62-8.11-.75Z"/>
        <path class="cls-6" d="M916.13,148.25c2.19-.76,4.91-2.05,7.07-.25s2.01,5.98.5,8.1c-1.09,1.53-2.4,1.04-3.7,1.76-1.79,1-5.18,3.59-7.01,3.94-3.11.58-8.48-1.79-12.11.68,1.28,4.72,1.67,7.12,1.07,11.96-.1.78-.5,1.5,0,2.73.58.22,1.03-.54,1.09-.54,1.86-.2,4.24.24,6.55,0,.46-.05.96,0,1.09-.55.34.03.75.03,1.09,0l1.09.55h1.09l1.09-.55c2.8.19,7.33.39,7.08,4.59-.35,5.88-10.16,5.16-14.17,5.22-.87.01-2.27-.33-2.73.55-.24-.04-1.05-.04-1.09,0h-1.09s0,1.09,0,1.09c-.52.71.28,4.39.55,5.45.21.84.23,1.68,1.09,2.18-1.13,5.35,2.98,8.5,5.42,12.81,4.77.3,5.25-4.85,8.78-7.06,5.1-3.2,9.78,1.34,7.34,6.8-.51,1.14-2.61,5.12-3.26,6.01-1.01,1.4-8.92,5.33-10.9,6.01-3.79,1.28-3.26-.04-5.74-.86-1.01-.33-2.07-.24-3.13-.69-3.12-1.33-3-3-4.29-5.53-1.58-3.09-1.25-2.45-2.23-5.95-.65-2.32-2.26-3.77-2.9-6.64-.1-.45.05-1.11,0-1.64-.04-.36.02-.73,0-1.09.82-.08.82-1.56,0-1.64.06-2.15.04-5.79-1.09-7.64-.17-1.37.55-3.42-.55-4.36.28-2.72.57-5.43.55-8.18-.01-1.42-.52-2.8-.55-3.27-.03-.54.04-1.1,0-1.64s.04-1.1,0-1.64c-.21-3.09-1.62-10.09-.67-12.41,1.65-4.07,10.66-3.83,14.45-4.63,1.94-.41,4.06-1.19,5.86-2.05.3-.14.9.05,1.09-.55.32.05.76.03,1.09,0,1.4-.11,1.67-.91,2.18-1.09Z"/>
        <path class="cls-6" d="M1128.86,143.88c1.01-.05,2.29-.09,3.27,0,.36.03.77-.06,1.09,0,.06.01.94.45,1.09.55,1.6.96,1.12,1.54,1.64,2.18l.55,1.09c-.45,2.06-.83,3.86-2.77,5.14-1.14.75-7.23,3.04-8.64,3.36-1.56.36-3.07.06-4.55.36-2.99.6-5.19,3.15-8.5,2.67-.43.83-.54,1.73-.62,2.65-.13,1.54,0,3.32,0,4.91,0,.97-.52,1.88-.43,2.87.06.58,1.21,4.23,1.52,4.49,2.13,1.81,6.03-2.55,8.97-2.49,6.35.13,5.57,6.1,1.35,9.54-3.51,2.86-6.7,3.17-10.63,4.68-.33.56.77,7.08.82,8.47.13,3.45-1.09,6.23.59,9.52,2.13.4,2.81-2.13,4.49-2.85,1.03-.44,2.28-.26,3.13-.69,1.51-.78,1.35-3.14,5.17-3.55,4.8-.51,5.45,1.47,5.74,5.47l-1.09,2.73c-.73,1.02-2.57,4.61-3.3,5.16-1.25.95-4.29,1.07-5.82,1.81-1.37.67-2.01,2.19-3.29,2.71-1.61.65-7.49,1.94-9.13,1.8-2.55-.22-4.65-2.34-4.64-4.94l-.55-1.09c0-.38-.29-1.44-.55-1.64l-.55-1.09c.1-1.38.05-2.97,0-4.36-.02-.6.16-1.37-.55-1.64.15-2.19.1-4.88,0-7.09-.03-.72.07-1.47,0-2.18-.19-2-.98-3.2-1.09-4.91-.02-.36.03-.73,0-1.09-.08-.9.06-1.83,0-2.73-.05-.72.04-1.46,0-2.18s.03-1.46,0-2.18h1.09s0-1.36,0-1.36l-1.09-.28c-.12-3.9.13-8.04,0-11.72-.2-5.81-2.67-10.58,2.18-15.82,3.56-3.84,4.72-.72,7.37-.86,4.86-.26,11.73-5.12,17.72-5.42Z"/>
        <path class="cls-8" d="M940.68,150.43c2.56-.46,2.63-2.04,6.22-1.59,1.55.19,7.19,2.32,7.9,3.56,2.37,4.12-1.14,7.55-5.19,7.83-2.74.19-4.58-2.59-7.02.6s3.48,4.82,5.01,6.14c2.19,1.9,4.2,6.59,7.29,8.79.93.66,2.36.49,3.08,1.01s1.05,2.49,1.83,3.35c1.14,1.26,3.73,2,5.11,3.61,1.62,1.9,4.96,10.37,4.66,12.74-.08.63-1.94,5.58-2.32,6.44-.74,1.65-3.28,6.43-4.26,7.74s-3.75,1.42-4.19,2.08c-.61.93.26,2.12-1.81,3.36-.42.25-5.42,2.27-5.77,2.33-1.31.22-4.36.5-5.96.67-5.85.62-7.6-4.42-11.12-7.58.18-1.04-.05-1.28-1.09-1.09-.19-.88-.4-1.85-.55-2.73-.11-.67.34-1.79-.55-2.18,1.1-4.33,3.53-5.95,7.82-3.73,2.7,1.4,4.24,6.36,7.03,5.8.69-.14,7.27-3.84,7.89-4.42.47-.43,3.31-6.07,3.42-6.68.82-4.54-2.87-6.24-5.44-8.7-5.33-5.1-14.8-12.09-18.46-18.08-3.03-4.96-3.35-8.4-.85-13.77,1.56-3.35,3.09-3.61,5.68-5.51.52-.06,1.14.09,1.64,0Z"/>
        <path class="cls-7" d="M976.68,149.34c.18.6.85.4,1.09.55,1.26.73,3.62,5.05,4.1,6.53.64,1.99.77,9.89,1.35,10.38l.55,1.09c-.19,2.02,1.29,4.17,1.58,6.33.25,1.9-.24,4.02.18,5.82.34,1.47,1.79,2.05,2.05,3.4.6,3.07-.93,6.42-.53,9.54l.55,1.09c.03,1.14,1.01,2.15,1.13,3.54.21,2.49-.38,5.19.03,8.12.49,3.42,2.36,5.5.59,8.91-1.61,3.11-6.07,3.74-8.32.99-.69-.85-1.39-3.91-1.62-4.11l-.55-1.09c.08-1.25,0-2.56,0-3.82,0-.55,0-1.09,0-1.64-.01-1.96.15-4.09,0-6-.09-1.15-.52-3.35-1.09-4.36.01-.54,0-1.09,0-1.64,0-.7.07-1.51,0-2.18-.19-1.7-.75-3.66-1.09-5.45l.54-1.09h-1.09c-.08-.5.03-1.11,0-1.64-.04-.71.29-1.8-.55-2.18.32-3.35.44-4.06-.55-7.09-.15-.45.26-1.34-.55-1.64.02-1.62-.29-5.84-.57-7.34-.26-1.43-1.84-2.58-2.12-4.42-.32-2.08-.49-8.95,1.44-10.08,1.14-.67,2.29-.39,3.44-.52Z"/>
        <path class="cls-7" d="M849.04,148.79c.91.04,1.82-.05,2.73,0,.36.02.73,0,1.09,0,.18,0,1.02,0,1.09,0,2.53.27,3.65.63,6,1.64.22.1.8.39,1.09.55,1.15.59,1.69.97,2.73,1.64s.42,1.14,2.73,1.09c.36,0,.73.03,1.09,0l1.09.55c1.63,2.73,4.53,5.98,6.81,8.19.76.74,2.04.79,2.71,1.65,1.39,1.77,2.58,4.63,4.66,7.34,2.81,3.64,3.16,8.36,6,12.27.46,1.28.21,3.24,1.64,3.82.08.83,0,1.01,0,1.64.01,1.43.1,2.95,0,4.36-.08,1.1-.41,2.17-.55,3.27h-1.09c-.09,1.07.11,2.21,0,3.27s-.5,2.16-.55,3.27l-.55,1.09c-.09.08-.18,1.27-.61,1.82-2.69,3.42-4.58,6.46-8.28,8.65s-6.51,3.63-9.92,6.44c-1.85,1.52-1.43,2.76-4.65,4.07-4.4,1.8-10.2,3.24-12.11-2.59-.73-2.21.11-4.58-.17-5.34-.16-.43-2.32-2.35-2.99-3.5-4.4-7.5-9.75-22.73-9.77-31.19,0-1.67,1.58-3.17,1.06-5.11l-.55-1.09c.05-.33.02-.75,0-1.09-.06-1.2-.61-2.24-.55-3.82.22-5.3,1.99-10.78,3.55-15.83.82-2.67,3.15-2.23,3-3.81l.55-1.09c1.03-.85,1.64-1.36,2.73-2.18ZM875.11,178.36c-.1-.17-1.47-.72-2.08-1.46-1.11-1.36-1.26-3.29-2.2-4.35-.77-.88-2.61-1.27-3.51-2.49-.75-1.02-.81-2.42-1.45-3.46-2.27-3.63-7.92-5.65-11.62-7.43l-.57.54c-.18,2.02-3.16,5.99-3.4,7.43-.15.92.62,2.76.43,4.31-.16,1.31-1.12,2.01-1.16,3.22-.23,7.85,3.17,15.48,4.37,22.42.4,2.34-.49,4.31.89,6.74.56.98,1.98,1.58,2.3,2.61s.93,7.52,1.21,7.8c1.62.2,4.33-.65,5.6-1.62.79-.61,1.21-1.87,2.33-2.73,2.15-1.65,5.5-3.05,7.08-4.37s3.27-4.61,5.59-5.86c.81-1.59,1.02-9.98.66-11.87-.25-1.29-3.5-4.38-4.11-6.25-.35-1.07-.01-2.57-.36-3.19Z"/>
      </g>
      <g>
        <path class="cls-2" d="M171.27,281.45l-7.32-6.04c-.09-3.66-3.08-5.41-4.17-7.83-3.08-6.83-2.52-15.01-.7-22.05,1.6-6.21,3.35-5.07,8.38-8-1.74-3.24-5.42-4.61-6.28-8.44-1.68-7.44.26-12.43,6.79-16.17.22-.75-2.77-4.72-3.11-6.6s-.79-8.23-.06-9.62c.14-.26,3.47-4.3,3.7-4.48,1.34-1.07,2.56-.58,3.73-1.18,2.6-1.35,3.37-3.55,7.22-2.55l5.43-8.25c4.14-2.9,11.13-3.2,15.5-.71,1.29.74,2.02,2.16,3.77,2.78,2.97,1.05,5.6,1.21,8.34,3.66.98.88.84,2.39,1.62,3.29,1.47,1.7,3.21,2.3,5.19,5.17,1.46,2.12,2.59,5.86,3.56,7.35.88,1.35,6.27,4.47,7.17,5.65,1.17,1.53.01,5.19,2.09,6.93.98.82,2.66.19,4.07,0,.57-.08,1.38.21,1.64-.55,1.08.08,2.19-.05,3.27,0l1.09-.55c1.33.09,3.03.09,4.36,0l1.64.55c.67.66,2.79-.06,3.25,3.04s-1.16,3.5-1.36,4.85c-.08.53.36,1.35.26,2.11-.5,3.81-2.35,2.72-4.1,4.67-2.3,2.57-2.11,5.44-3.28,7.09-.39.55-1.32.83-1.79,1.48-1.52,2.14-1.46,3.6-4.44,4.84-.26,1.1,1.62,1.56,2.19,2.32,2.38,3.17,3.74,9.61,5.03,13.36.78,2.28,2.62,1.75,1.93,6-.9,5.55-5.72,7.21-9.89,9.78-.71.44-1.75.18-1.44,1.54-9.61-3.11-28.95-2.57-39.27-1.09,1.8-2.97,3.91-1.49,6.03-1.88,1.99-.37,5.13-1.74,6.88-1.77,1.6-.03,2.92,1.36,4.18,1.33,1.57-.05,3.45-1.82,5.05-2.03,1.71-.22,3.24.69,4.6.31.56-.16,4.99-2.4,5.42-2.8,1.14-1.05,1.15-2.26,2.17-3.29,1.32-1.33,3.52-1.66,4.99-2.74l-3.46-11.81c-3.86-3.11-1.57-6.34-2.13-9.28-.25-1.33-2.67-6.43-3.42-8.08-.92-2.04-3.12-2.83-2-5.71.48-1.25,1.64-1.63,1.75-3.25.09-1.35-.86-3.36-1.57-4.5-1.2-1.93-3.83-6.47-5.02-7.91-2.18-2.64-5.12-5.14-7.02-8.41-.81-1.38-.92-3.91-1.29-4.43-.13-.19-3.12-1.65-3.97-2.3-.99-.76-1.27-2.04-2.29-2.62-.73-.42-6.82-3.55-7.24-3.67-8.61-2.32-3.52,7.83-11.32,9.99-2.23.61-5.82.5-7.8.92-1.76.37-3.56,2.21-3.03,4.13.64,2.34,5.01,4.46,4.66,9.46-.19,2.7-3.6,11.65-7.62,10.16-1.09,1.04,5.21,9.99,6.3,11.42,1.65,2.16,3.74,1.88,3.55,5.73-.33,6.46-6.44,6.8-11.51,7.63-2.27,3.67-1.2,6.28-1.04,9.87.07,1.46-.83,2.46-.35,4.08.15.49,5.61,7.95,6.04,8.23,1.06.69,1.89-.14,3.03.15,2.71.68,6.05,2.23,8.57,2.93,1.43.4,3.52.43,5.05.67l-3.42.67c-5.81,2.65-11.05,3.3-16.76,6.42ZM237.82,224.19c-4.09-.25-4.12,1.98-3.81,5.45l3.81-5.45Z"/>
        <path class="cls-7" d="M203.3,209.57c12.22-2.79,10.49,19.76-1.66,11.79-4.88-3.2-2.77-10.78,1.66-11.79Z"/>
      </g>
      <g>
        <g>
          <path class="cls-6" d="M1064.19,328.44c.07-.52.36-1.49.77-2.63,1.08-3.34,2.79-6.2,3.59-8.34.58-2.99-.12-5.74-.33-8.53.05-1.53.49-3.16-.42-4.59-.93-1.62-2.63-2.09-3.23-3.2-.64-1.11-.22-2.84-1.16-4.24-.91-1.37-2.7-1.59-3.69-2.83-4.39-4.64-8.33-10.87-14.85-13.09-1.4-.42-2.88-.35-4.13-.96-1.24-.7-2.16-2.46-3.69-2.8-2.8-.43-7.05-1.28-9.16-1.11-1.38.25-3.12,1.39-4.62,1.43-.28-.06-.46-.15-.58-.26-6.25,1.1-12.5,3.54-18.75,3.77-.48.45-1.1.8-1.94.97-1.57,2.05-4.15,2.09-6.51,2.27-3.31.74-7.26,3.26-10.73,4.1-3.42.5-7.16,2.13-9.64,4.4-.72,1.04-4.14,3.59-3.96.94.78-2.49-.13-4.12-.75-6.39-.62-2.66-1.53-4.46-3.16-6.5-.87-1.66-.29-3.69-1.49-5.22-1.55-1.88-3.83-2.85-5.12-4.95-1.62-2.24-4.4-2.58-6.77-3.61-2.72-1.49-5.91-2.53-8.6-3.98-1.15-.83-2.34-1.43-3.8-1.27-8.19-.24-17.11,2.32-24.03,6.39-.29.04-.55.03-.79-.02,1.52,3.18.4,7.21,1.84,10.09.06-.08.13-.16.21-.24,2.72-.5,4.84-2.17,7.34-3.41,4.51-1.31,9.58-3.23,13.93-2.74,4.53,3.09,10.72,3.19,15.2,6.8,3.94,3.89,4.47,10.15,5.92,15.08.43,1.49.68,2.96,1.66,4.41.42.72,1.28,1.77.47,2.48-.32.23-.78.66-.91.91-.78,3.69-4.89,5.92-5.13,9.78.48,6.07,7.21,5.42,8.95.1.36-.55.95-.87,1.45-1.24.73-.76.95-2.15,1.86-2.99,2.21-1.99,5.37-3.07,8.04-4.27.51-.24.49-.51.78-.83.68-.46,1.47-.67,1.97-1.38,2.8-2.62,8.16-2.95,11.51-4.91.79-.18,2.29-.16,2.99-.23.9-.24,1.28-1.35,2.45-1.39,3.32-.62,6.39-2.17,9.51-3.17.81-1.07,1.35-.84,2.64-.9,4.73-.36,7.82-2.16,12.26-2.53,3.41.03,6.43-.54,9.78-1.11,2.15,2.22,5.35,2.29,8.29,3.24,2.92.91,5.09,3.24,6.85,5.63,1.28,1.33,2.83,1.92,3.69,3.56.74,1.59,2.14,2.6,3.15,4.19,1.3,2.46,1.9,5.6,4.05,7.56.16,7.42-2.4,16.34-6.82,22.66-.26.56-.4,1.16-.68,1.72-.62,2.79-3.73,3.2-5.25,5.33-1.45,1.71-1.88,3.18-4.02,3.92-1.53.59-2.61,1.33-3.91,2.21-1.56,2.3-4.53,2.09-6.93,2.67-.85.88-1.71,1.9-2.75,2.59-1.77,2.13-6.73,1.43-7.65,4.9-3.39,1.59-7.74,2.07-10.29,4.91-1.2.97-3.6.48-4.82.86-2.27.76-4.98,2.32-6.91,3.21-1,.67-2.31.91-3.25,1.64-.66,1.23-2.46,1.28-3.58,1.55-.6.47-.95,1.07-1.85,1.08-.15.04-.27.1-.38.18-.01-.05-.37.44-.33.43-1.33,2.51-5.92,1.94-7.69,4.01-3.17-3.68-7.6-7.08-11.13-10.48-.24-.77-.55-1.92-1.36-2.41-1.66-2.07-3.23-4.47-5.6-5.62-7.67-3.8-10.8,4.85-4.1,9.58,1.21,1.28,2.05,2.8,3.13,4.02,1.78,1.75,4.01,3.5,5.26,5.75.92,1.04,2.9.99,3.11,2.68.6,1.86,2.18,3.25,2.7,5.16,1.59.85,3.37,1.43,3.81,3.35,3.17,5.98,8.16,11.36,8.24,18.73,6.71,9.35,7.11,21.86,5.09,32.99-.98,3.37-2.94,6.17-4.51,9-1.22,3.96-5.6,5.93-9.01,7.68-1.11.34-2.73.09-3.6,1.07-3.41,2.16-8.8,3.3-12.98,2.35-3.29-4.24-9.06-3.02-13.34-5.39-1.14-.75-2.13-2.39-3.63-2.45-.61-.03-1.24.43-1.79.09-.94-1.39-2.78-2.1-3.72-3.42-.54-.87-.86-1.93-1.76-2.51-.71-.57-.82-2.01-1.39-2.76-.54-.74-1.65-1.16-1.93-2.07-.17-1.49-1.01-2.85-1.75-4.17-1.09-2.53-.62-5.06-1.13-7.2-.27-2-2.06-2.58-3.03-4.17-1.93-4.43-.99-8.65-3.98-12.28-1.84-3.36.4-7.57-1.23-10.68-.61-.43-.03-1.07-.03-1.81-1.56-4.46,2.46-12.22-3.24-14.29-6.02-1.84-7.19,5.88-7.55,10.14-.17,2.98,2.2,6.96-.84,8.86-2.21,5.37-1.23,13.42-8.07,16.49-.44.43-.94.87-1.25,1.41-.61,2.07-4.58,2.4-5.9,3.17-1.15.05-1.15,1.4-2.16,1.64-3.13-.11-6.73.32-9.11-.95-2.18-.89-1.9-3.78-3.64-5.11-3.63-1.9-9.4-2.7-9.86,2.95-.57,2.01,1.17,2.67,2.35,3.91,1.95,2.7,4.05,5.2,6.93,6.87,5.36.5,10.19,2.51,15.45,1.19,2.62-.52,4.27-2.16,6.35-3.76,3.44-1.57,5.72-3.03,8.93-5.07,1.65-.96,1.02-3.58,2.8-4.5.86-.45.67-2.2,1.91-1.85.93.48.17,1.83,1.18,2.39,2,1.67,1.58,4.81,2.01,7.15.45,2.19,2.27,3.93,3.14,6.73.44,1.62-.16,3.39.97,4.78.32.54.99.67,1.28,1.24.45,1.02-.33,2.62.67,3.4,3.2,2.49,3.69,7.05,7.75,8.57,1.86.84,2.15,2.74,3.26,4.04,1.72,1,4.02.46,5.54,2,1.65,2.26,5.08,3.07,7.68,2.32,1.49-.07,2.35,1.4,3.75,2.01,1.17.3,1.91,1.2,2.79,1.57,2.64.06,6.3,1.57,8.85,1.61.96-.23,1.49-1.4,2.82-1.13,2.33.37,4.4-.62,6.65-1,2.46-.48,4.52-2.19,7.11-2.42,1.1-.57,2.1-1.19,3.27-1.15,3.72-2.17,7.5-3.74,9.91-7.52,0-.13.02-.28.09-.44,1.7-4.25,6.32-6.73,6.53-11.7.46-2.91.57-6,1.03-8.91.75-4.72,1.92-8.95,1.24-14.24-.71-6.45-3.83-12.06-6.23-17.97-2.49-5.9-3.73-12.02-7.48-17.37-.51-.63-1.59-1.29-1.12-2.12,2.37-2.15,5.78-2.79,8.64-4.11,7.72-3.55,15.51-7.96,23.48-11.37,2.28-.86,4.74-.9,6.81-2.45,4.42-3.4,5.87-4.52,11.1-6.18,3.22-.65,4.67-3.66,7.22-5.3,2.78-1.56,7.02-2.44,9.32-5.12,1.71-1.94,4.35-6.01,5.91-8.25.56-.63.77-1.52,1.52-1.58.05.01.09.03.13.06,1.19-3.13,1.37-6.54,3.87-9.5-.13-.04-.22-.12-.19-.32Z"/>
          <path class="cls-9" d="M1073.39,355.29c-.21-1.47-1.96-2.5-1.17-4.14,1.61-4.35-.88-10.01-.94-14.04-.28-2.42,1.99-4.83.68-7.15-.79-1.33-3.09-2.42-4.3-2.02-.9.18-1.85.65-2.79.81-.17.03-.37.05-.51.01-2.5,2.95-2.68,6.37-3.87,9.5.34.21.24.85.11,1.26-1.16,3.5-3.12,5.14-1.89,9.13.19.6.45,1.46-.3,1.68-5.57,1.63-12.83,8.82-5.15,11.84,3.5,1.5,5.32-.24,8.44-.54,2.36-.29,4.71,1.11,7,.24,2.49-.94,4.98-4.06,4.66-6.59Z"/>
          <path class="cls-9" d="M1061.18,337.09c.35.18.35.36,0,.55v-.55Z"/>
          <path class="cls-9" d="M1138.4,342c.59-4.14.51-7.68-.47-11.75-.71-7.47-.38-15.41-3.44-22.4.41-4.25-1.04-7.97-2.69-11.83-3.7-5.98-5.17-15.2-11.4-19.74-1.46-4.6-4.35-9.45-6.77-13.97-1.2-1.54-2.56-3.31-4-4.67-.81-.64-2-.51-2.48-1.53-.23-.46-.58-1.38-1.2-1.65-.49-.73.06-2.3-1.14-2.75-1.41-2.17-4.76-1.56-6.81-2.76-7.22-7.09-14.93-6.84-24.66-5.78-1.62.16-3.28.3-4.83.54-1.11.49-1.7,1.57-3.07,1.41-5.18-.38-8.59,2.75-12.87,4.92-12.51,3.24-22.74,11.29-34.01,17.6-2.88,3.81-7.94,6.2-11.74,8.53-1.23,1.54-1.54,3.64-2.88,4.9,6.25-.23,12.5-2.67,18.75-3.77-1.06-.9,3.18-3.19,4.02-3.44,1.61-.72,2.3-.96,3.52-1.71,13.42-8.29,23.25-12.88,37.46-17.2,4.92-1.84,9.33-3.45,14.53-2.84,6.33.95,13.13,7.05,17.62,11.65l.11.12c4.57,4.78,7.3,11.09,10.58,16.83.57,1.13,1.48,1.84,2.33,2.79,1.66,1.98,1.42,5.64,2.59,7.68.28.5.71.88,1.21,1.24,2.78,1.61,2.11,5.76,3.21,8.11.32.64.86,1.15,1.41,1.7,2.9,2.5,1.39,6.73,2.06,9.9.31,1.38,1.58,2.62,1.91,3.75.25.86.33,1.62.5,2.55.5,3.74,1.72,8.22,1.61,11.74-.17.92-.85,2.01-.76,3.03.09,1.27,1.3,2.38,1.44,3.63.36,3.42-1.65,7.94-1.56,11.5.05,1.28,1.02,2.41,1.03,3.73.03,1.46-1.03,2.8-1.02,4.23-.12,2.81.18,6.49,0,9.61-.67,6.97-2.49,15.12-4.36,22.7-1.74,7.33-4.72,14.2-7.1,21.38-4.29,16.23-8.07,31.34-16.06,46.15-3.04,4.71-7.83,9.79-11.17,13.13-3.54,3.45-7.3,7.46-11.59,9.81-2.69,1.37-8.26,3.01-10.89,3.57-2.49.47-6.9.75-8.69.55-1.35-.36-2.76-1.51-3.89-2.37-1.62-1.23-1.56-3.48-2.88-5.01-.93-1.18-2.54-1.27-3.69-2.14-1.34-1.08-1.66-3.13-3.28-3.93-1.3-.86-3.03-1.52-3.98-2.74-1.23-1.89-1.69-5.33-2.78-7.62-.92-1.9-3.76-5.48-5.05-7.87-.72-2.02-.4-5.04-.84-7.17-1.48-5.36-2.59-6.19.62-11.24,5.84-13.77,11.11-27.76,15.66-41.83.29-1.19.33-2.49-.19-3.63-2.04-3.47-6.49-1.56-8.51,1.16-1.84,2.07-1.88,5.2-2.62,7.49-1.21,3.11-3.74,5.8-4.82,8.94-1.93,5.89-3.41,13.45-6.88,18.61-1.15,1.12-3.2,2.06-3.87,3.66-1.28,2.57-1.24,6.9-3.36,9.65-1.89,2.34-7.17,7.96-10.33,10.78-1.2,1.1-3.75,1.6-5,2.73-2.24,1.96-3.35,5.56-6.91,5.59-.83.06-1.73-.21-1.72-.97-2.41,3.78-6.19,5.35-9.91,7.52.33,0,.68.06,1.05.2,2.76.57,4.45,2.72,7.14,3.66,1.23.59,2.26-.32,3.5-.64,1.28-.34,2.69,0,3.94-.43,2.76-1.18,4.98-3.94,7.8-4.51,1.15-.11,1.99-1.17,2.24-2.2.57-.87,1.49-1.29,2.06-2.24,2.49-2.02,4.58-2.51,5.53-5.46.69-1.47,2.43-1.64,3.69-2.3.38-.17.66-.07.75.39.7,4.96,1.8,9.46,4.24,13.84,3.64,2.42,2.67,6.22,4.29,9.25,1.38,2.33,3.62,3.16,5.87,4.89,1.27.94,2.23,2.44,3.19,3.61,1.4.73,2.93,1.3,3.98,2.58,1.75,1.75,2.7,4.31,4.09,6.24,2.55,1.64,5.6,3.97,8.55,4.93,9.4.29,19.17-3.73,27.9-6.69.94-3.13,5.04-2.95,6.55-5.41,2.68-3.32,5.4-6.34,9-8.52,1.62-3.45,5.17-5.11,7.38-7.51,2.12-4.93,1.63-6.81,6.06-10.17,1-1.71.59-4.59,1.92-5.45.58-.38.85-1.04,1.04-1.69,3.43-5.55,4.38-12.24,6.17-19.02.63-2.02.87-4.75,2.79-6.27,1.57-2.61.78-5.85,1.92-8.57,3.36-2.2,1.75-7.41,3.26-10.16,7.02-18.38,6.29-37.87,11.08-56.56.53-2.15-1.78-4.21-.96-6.6Z"/>
          <path class="cls-9" d="M1061.18,337.09v.55c.35-.18.35-.36,0-.55Z"/>
          <path class="cls-9" d="M913.72,262.45c-.05-.69-.33-1.27-.94-1.65-4.06-2.18-6.63-6.67-11.2-7.46-6.11-3.99-13.31-5.32-20.57-6.16-.77-.13-1.98.1-2.34-.75-.28-.34-.8-.54-1.18-.26-.48.43-.76,1.05-1.6.9-6.93.22-14.91,2.09-19.77,7.48-1.07,1-2.86.97-3.75,2.18-.5.72-1.11,1.47-1.73,2.09-2.28,1.69-4.38,3.67-4.76,6.65-.94,1.58-2.28,2.99-3.18,4.5-.96.97-.74,2.5-1.42,3.49-.78,1.17-2.01,2.16-2.34,3.49,0,1.73-.74,3.04-1.76,4.33-.92,1.82-1.71,4.78-3.18,6.13-.92-.19-.79-2.46-1.02-3.14.04-5.81-1.42-11-4.39-16.17-1.38-1.64-2.57-3.06-2.83-5.28-1.09-1.28-2.37-2.75-2.67-4.6-1.2-2.83-3.11-5.3-5.15-7.52-.66-1-.72-2.56-1.86-3.13-.58-.35-.85-.78-1.12-1.65-.43-1.04-.66-2.52-1.97-2.7-1.01-.33-.97-1.95-2.09-2.45-2.75-1.42-4.73-4.15-6.55-6.6-.68-1.78-2.31-2.52-4.07-3-1.71-.81-2.42-3.06-4.03-4.07-10.64-4.04-22.14-1.41-31.95,2.44-2.14,2.2-4.66,5.39-7.83,6.39-3.75,3.27-7.27,6.91-10.34,10.83-.91,1.78-.8,4-2.28,4.84-.55.34-.9.86-1.01,1.5-1.76,5.74-5.12,11.25-7.98,16.2-1.74.24-3.58-6.28-4.39-7.66-.77-1.84-.27-4.77-2.34-5.72-1.62-.73-2.14-2.49-3.32-3.72-.52-1.01-2.01-1.43-2.81-2.23-1.85.19-6.54,1.12-9.12,1.38-1.27.22-3.02.02-4.3.16-.11.06-.01.16.23.3,5.1,2.61,10.52,9.51,13.79,15.83,2.88,4.42,2.8,9.63,4.28,14.39,4.56,9.08,3.96,19.9,6.06,29.69,1.92,9.58,2.57,19.81,5.39,29.23.18,1.32-.89,2.73-.59,4.05,1,4.24,2.39,7.47.85,11.6,1.52,6.03,2.6,12.3,2.29,18.35,1.45,5.91-1,12.06-1.12,17.49.25,1.37,1.52,2.84.55,4.26-3.27,5.59.84,9.18-5.86,13.19-1.45,2.97-4.87,5.38-8.03,7.18-1.14.28-2.47.22-3.66.39-2.18.23-3.6,2.34-5.59,2.74-4.56,1.48-11.05,3.68-15.18,4.62-2.58-1.23-6.39-.67-8.95-1.24-2.37-2.55-5.31-3.59-8.42-4.99-5.92-3.66-8.9-9.7-13.56-14.42-.18-.34-.23-.82-.25-1.22.22-3.73,3.05-5.78,2.42-9.43-1.25-7.22-3.93-13.9-4.14-21.34-4.08-7.33-2.17-3.63-.28-10.19-1.42-5.25-4.27-11.29-4.92-17.45-.07-5.55,1.19-11.79,1.64-17.23.21-2.79-.74-5.25-.52-7.9.23-2.41,1.72-5.64,1.5-8.13-1.04-6.24-8.77-2.4-10.72,1.19-1.12,1.61-.34,3.8-.19,5.56-.04,6.34-1.83,11.24-1.47,18.27,2.31,12.61-1.19,4.33-4.69-.84-3.51-3.09-5.09-5.32-6.54-9.62-3.12-2.19-6.39-4.81-8.53-7.96,12.93-5.5,24.62-15.37,33.41-26.5,2.09-4.36,4.59-10.29,5.36-14.87-.07-1.77-1.22-3.15-1.07-5.15,1.53-9.65,12.71-13.09,20.42-17.23,1.86-.76,2.88-2.6,4.73-3.29.3-.24,1.12-.18,1-.61-3.24-1.65-5.85-5.56-9.76-5.07-3.83.88-6.94,3.06-9.95,5.45-1.96.59-3.71,1.69-5.15,3.25-.98.91-3.53,2.34-3.38-.08-1.06-3.24-1.12-6.1-1.47-9.39-2.96-3.68-4.43-7.93-6.08-12.39-.62-.96-1.74-1.18-1.93-2.46-2.56-2.41-4.22-6.09-7.66-7.31-2.13-.87-1.99-3.64-3.9-4.92-1.59-1.07-3.92-.64-5.43-2.37-.94-1.17-1.02-2.19-2.47-2.28-6.28-.56-12.21-2.99-18.36-4.03-2.18-1.82-6.14-1.75-8.9-1.92h-.16c-22.56,1.55-45.06,7.22-63.75,19.28-2.17,1.54-4.33,2.56-6.66,3.52-1.42,2.19-4.14,3.85-6.66,4.72-.69.27-.97.95-1.28,1.58-.64,1.92-3.16,1.87-3.97,3.57-.26.54-.83.64-1.03,1.21-.14.37-.16.96-.66.86-3.83-1.66-6.45-5.09-9.63-7.64-2.42-2.21-5.95-3.94-6.67-7.38-.8-1.37-2.95-1.41-3.03-3.35-.3-2.41-2.76-2.58-4.63-3.41-4.77-2.55-7.31-6.78-12.25-7.69-1.69-.58-3.47,0-5.13.04-3.76-.97-7.18-1.84-11.08-1.47-5.51,1.61-12.14,1.99-17.06,4.83-2.36,1.49-5.27,1.18-7.88,2.04-2.48,1.43-5.75,3.85-9,5.2-1.03.55-1.6,1.73-2.83,1.98-.98.34-1.23,1.52-2.37,1.83-4.97,1.91-7.89,6.92-13.15,8.45-6.27,2.46-7.37,11.13-13.41,14.41-.84,1.8-2.32,6.93-3.23,2.42-5.64-5.57-9.18-14.68-18.14-15.5-1.61.11-2.71-.68-4.01-1.39-1.48-.66-3.08.22-4.59.24-5.94-1.1-12.62-.3-18.39,1.48-7.46-1.48-14.98,2.54-21.64,4.67-2.51.96-5.29.55-7.51,1.98-19.92,7.37-39.08,17.98-47.92,39.12-3.44,4.67-2.72,19.34,5.45,12.86,2.66-1.68,1.78-5.27,3.21-7.83,1.43-2.83,3.86-5.02,5.42-7.47,1.01-1.89,1.26-4.73,3.56-5.59,11.09-11.62,26.03-17.66,41.2-21.89,1.48-.44,2.47-1.97,4-2.43,3.01-.97,6.48-.13,9.27-.95,1.3-.43,2.35-1.79,3.69-1.73,1.81,0,3.39,1.65,4.85,1.88,4.27-.72,8.57-.2,12.68,1.34,1.91.44,3.36,1.42,4.66,2.77,3.1,1.82,6.44,1.79,9.45,4.32,7.52,6.31,15.54,17.78,12.15,28.1-1.85,2.85.55,5.38-1.37,8.23-3.07,5.6-3.21,6.32-9.51,8.55-3.95,1.9-11.15,6.12-16.24,6.57-4.74-1.9-9.85-2.04-14.82-3.3-4.92-1.45-8.28-.35-12.78,2.88-1.46.71-.9,1.86-.83,3.43,0,1.84.26,3.08,1.85,3.7,7.9,1.94,15.17,6.76,23.64,5.36,2.24.06,4.55,1.13,6.56,1.99,1.11,1.3,2.67,3.22,4.72,3.02,1.45.23,1.81,2.13,3.03,2.81,2.79,1.38,4.63,3.25,4.94,6.32,5.1,5.44-5.09,5.99-8.24,6.32-4.06,1.08-7.74,2.82-11.84,1.01-1.68-.1-3.84.73-5.67.8-1.77.11-3.51-1.17-5.25-.43-6.86,1.44-6.56,7.54-4.06,12.56,2.41,1.95,8.2,2.23,11.57,2.14,11.58-1.14,23.79-6.56,35.37-3.16,8.4,2.87,21.6,8.38,25.72,17.59,2.06,6.39,5.44,14.18,4.77,21.7-1,3.6-7.51,6.94-10.19,9.61-1.29,1.29-1.71,3.35-3.34,4.34-7.93,5.29-20.07,7.89-28.39,11.2-10.51,4.01-19.74,7.62-29.92,6.1-3.65.8-7.7,1.56-11.23-.54-6.71-3.22-11.4-10.27-17.98-13.46-.42-1.81-1.15-4.02-2.66-5.42-.9-3.38.57-7.53,1.76-10.49.66-6.73-.71-15.71-1.96-22.44-.37-3.19-1.76-4.46-2.6-7.21-.08-.79-.65-1-1.09-1.5-.13-.89-1.01-1.28-1.28-2.11-1.48-4.75-3.76-9.24-5.44-13.98-2.23-2.71-3.11-6.13-4.03-9.42-.37-.62-1.4-.88-1.88-1.62-.88-1.05-.86-2.62-1.79-3.59-2.27-1.67-3.01-4.52-5.31-6.21-2.47-2.37-3.59-5.7-5.52-8.35-.94-.9-3.31-1.9-3.95-3.03-.81-1.86-2.14-3.38-3.37-4.88-1.15-.62-1.77-1.4-2.9-1.92-.87-1.8-2.77-3.12-4.25-4.29-1.08-.88-2.06-2.19-3.14-3.01-1.5-.72-2.21-1.79-3.21-3.15-.96-.91-2.83-1.5-4.02-2.09-1.06-.47-.74-1.43-1.66-2.13-2.17-1.25-4.35-2.47-6.17-4.24-1.48-.68-3.01-1.21-4.44-2.17-8.87-7.62-20.57-9.98-31.65-12.6-23.64-5.58-48.09-2.87-68.36,8.35-7.18,4.19-8.65,15.23-14.06,21.32-1.87,3.51-2,7.62-4.34,10.96-.92,4.08-.19,8.2-.78,12.33-.45,1.76.05,3.67-.27,5.32-1.25,3.72-.63,8.09-.1,11.92-.31,1.64-1.39,3.22-.56,4.82,2.41,5.43.38,12.36,4.22,17.25,3.16,3.31,2.69,7.94,4.56,11.91.96,1.93,3.04,2.9,3.96,4.81,4.1,7.71,9.06,14.29,14.94,20.92-.02.89-1.99,1.25-2.53,1.67-1.31.2-2.72.08-3.76,1.09-15.54,10.16-18.41,17.24-16.9,35.68.3,3.17-.23,6.49.05,9.65.33,1.44,1.36,3.25,1.12,4.8.38,1.9,1.07,3.89,1.28,5.9,3.87,6.12,7.77,12.66,15.12,15.38,1.31.48,1.67,2.07,2.89,2.58.52.6.88,1.32,1.78,1.48,1.24.32,3.12.69,3.7,2.04.51.52,1.57.5,1.93,1.21.6.76,2.12.82,2.65,1.85,2.42,2.04,6.37,1.45,8.83,3.66,1.68.92,3.8-.58,5.43.77,1.87.44,3.25-2.12,4.99-2.31,2.49-.26,5.16,1.87,7.46-.22,1.04-.28,1.5-1.02,2.27-1.58.62-.21,1.95.06,2.69-.17.59-.23.73-.95,1.41-.98,13.93-1.46,27.83-6.3,41.13-11.23,16.98-5.41,30.93-18.03,46.01-26.75.47-.36.8-1.57,1.63-1.75.6-.27.74-.3,1.04-.72.98-1.43,2.93-2.41,3.98-3.79,1.24-.71,2.66-1.86,3.04-3.25.73-.61,1.26-1.39,1.67-2.25.62-.79,1.73-.9,2.42-1.87,1.85-2.97,3.43-6.18,5.9-8.45.66-1.7.6-4.39,2.61-5.18,1.22-1.32,2.48-4.13,3.96-5.43.35-.08.3.83.88,1.27.55.44,1.23.75,1.88,1.06,3.45,1.76,5.95,4.44,8.56,7.19,4.88,6.87,12.92,7.84,20.53,11.34,6.92-1.67,14.16-1.69,20.89-4.08,2.24-.31,3.98-1.12,6.24-.69,1.73-.66,3.63-.26,5.3-.89,3.4-1.73,7.32-3.67,11.11-4.01.49-.07.66-.42.94-.71.38-.41,1.16-.41,1.48-.95,1.62-1.51,4.68-.74,6.77-1.42,7.22-4.92,14.94-7.17,21.95-12.62.43-.46.88-.48,1.42-.24,3.2,1.41,6.85,1.66,10.18,2.78,1.97,1.1,3.64,2.46,5.91,2.97,13.09,5.8,28.49,5.76,42.14,10.06,2.77,2.44,5.38.81,8.79.28,5.15-.38,10.97.03,15.96-1.06,3.59-2.15,8.33-.81,11.97-3.04,1.09-1.09,1.9-2.47,3.64-2.05,4.23-.19,6.69-3.91,10.35-5.44,4.16-.12,7.84,3.83,12.12,4.05,3.99,1.49,8.24.14,12.32,1.19,3.83,3.1,9.15-1.69,14.69-1.38,1.57-.06,2.89-.68,4.27-1.46,1-.62.95-2.16,1.6-2.7,1.74-.59,3.09-1.39,4.33-2.93,2.28-1.67,1.68-4.64,2.4-7.07.49-1.61,2.14-2.54,2.31-4.14.62-2.78.12-6.39,1.85-8.61,1.23,3.7,5.59,10.65,8.75,14.82.68.77,2.65.91,3.36,1.91,2,3.07,6.22,4.92,8.91,6.96,1.86,1.57,4.98.49,6.96,1.62,3.01,1.91,6.94,1.76,10.09,3.35,6.64.71,13.99.18,20.13-2.91,2.24-1.57,3.47-6.56,7.21-5.39.97.12,1.31,1.03,1.66,1.76,1.14.79,1.18,2.15,1.83,3.27.84.84,2.47.61,3.1,1.73.45.92.66,1.09,1.45,1.58,3.62,2.21,7.9,5.62,11.42,7.44,1.04-.08,1.02.88,1.9,1.14,1.85.45,3.81.48,5.65.95,4.65-.14,9,2.33,13.5.41,9.26-3.77,19.56-5.31,27.79-10.44.32-.36.8-.53,1.26-.69,1.99-.91,2.29-3.27,4.81-3.29,2.49-.56,1.94-3.72,3.54-5.23,4.5-1.84,2.05-6.94,4.73-7.27,2.47,2.76,5.8,5.26,8.37,8.18.99.3,1.33,1.56,2.03,1.93.45.25,1.07.21,1.59.64,1.61,2.5,4.86,2.89,7.39,4.15.61.24.88.91,1.41,1.18,4.52.76,8.93,3.22,13.49,4.35,1.31.38,2.64.96,3.46,1.97,3.04.93,6.8.88,9.98.92,6.04.02,12.62.74,17.43-3.49.72-.39,1.42-.88,1.64-1.69.69-2.42,4-5.52,4.07-8.72.2-2.05-1.41-5.6,1.27-6.51,1.73-.17,1.87,2.39,3.21,3.01,1.42,1.37,3.92.51,4.68,2.67.55.64,1.22.73,1.65,1.4.72.65,1.65.52,2.52,1.13,1.34,1.11,3.33,1.19,4.44,2.6.86.32,1.41.78,2.16,1.41,2.73.48,5.41,1.37,8.04,2.29.9,1.07,2.06,1.1,3.43,1.01,11.7-.79,16.42-1.62,25.26-9.89,1.82-.93,3.15-2.38,4.21-4.02.62-.6,1.82-.58,2.35-1.09.52-.8,1.55-1.15,2.09-1.87.27-.43.47-1.13.64-1.69.34-1.06,1.36-1.34,1.66-2.4.35-1.36,1.94-1.66,2.67-2.64.63-1.15.74-2.58,2.03-3.26.71-1.08,1.31-1.92,2.49-2.56,3.41-3.58,5.42-7.33,5.89-12.03,3-3.7,3.71-8.52,5.71-12.66,2.25-2.15,1.29-6,2.64-8.84.48-1.81,2.35-3.13,3.03-4.66.52-1.38-.4-2.96.07-4.35.45-2,1.79-4.29,1.91-6.41.1-.58.61-.77.97-1.17,1.88-6.45,3-13.38,3.94-20.11,1.98-1.97.59-4.69.56-7.17,3.14-11.46,1.76-23.69.32-35.24-.72-.79-2.37-2.39-1.54-3.54-1.44-2.88-.33-6.9-1.84-10.09-2.13-.4-2.37-4.01-2.92-5.73ZM324.98,391.22c-.37.86-1.29,1.73-1.64,2.67-1.29,3.03-.3,7.24-2.38,9.68-.83.72-2.02,1.27-2.59,2.27-1.12,1.91-1.35,5.05-2.51,6.74-1.25,1.87-3.21,3.53-4.29,5.48-.96,1.79-.68,4.34-2.04,5.93-1.87,2.5-4.93,5.16-6.22,7.34-.37.72-.45,1.65-.58,2.4-.41,2.35-3.51,3.01-5.32,4.27-4.67,3.46-8.11,7.22-12.94,10.16-7.11,4.82-13.2,10.01-21.69,13.22-3.19,1.27-6.24,2.23-9.58,3.06-1.81.55-4.03.62-5.69,1.74-4.99,3.87-12.04,3.61-17.72,5.48-2.81.9-5.24,3.1-7.97,3.95-5.19,1.72-11,1.36-16.36,1.18-4.27-.2-8.99-.05-13.57-.48-4.39-.35-9.21-4.26-13.22-5.74-.99-.42-2.42-.3-3.31-.58-1.9-1.18-4.13-3.93-5.81-5.65-2.09-2.3-1.54-5.6-3.21-8.34-.49-.82-1.36-1.47-1.86-2.26-.93-2.62-1.49-5.99-1.9-8.82-.5-8.91,6.29-18.14,12.57-23.55,3.64-3.36,6.98-3.03,12.09-3.63,10.6-1.46,18.74.72,29.17,4.87,8.84,3.47,23.13,9.75,29.52,14.19,1.31.71,1.61,2.23,2.99,2.83,2.07.79,4.76.92,6.8.5,3.47-.5,4.25-4.91,2.57-7.74-1.13-1.78-3.89-2-4.96-4.04-1.32-2.32-4.35-1.45-6.34-2.79-.95-.63-1.17-1.48-2.08-2.2-.51-.41-1.26-.74-1.89-.99-7.2-2.76-11.38-4.29-17.46-7.9-6.41-3.92-10.56-5.25-17.06-6.54-6.68-1.38-12.65-5.97-19.67-4.66-.35.06-.57.08-.7-.01-.54-.63-3.89-5.31-5.3-7.21-.41-.55-.48-.74-1.02-1.17-4.42-3.87-11.3-12.02-11.63-18.14-.07-1.17-.53-2.5-1.62-3.15-.45-.32-.81-.5-1.01-.84-.31-.61-.46-1.41-.69-2.03-3.88-9.03-7.87-19.97-8.85-29.36-.43-9.75,2.78-19.35,5.49-28.51.67-2.01.91-5.34,1.38-7.04.08-.22.21-.4.42-.58.6-.45,1.5-.89,1.95-1.59,2.53-3.59,4.66-7.91,8.79-10.04,4.68-2.76,11.58-6.06,16.67-7.78,7.96-2.3,18.36-2.95,27.11-2.1,12.07,1.41,33.61,6.77,44.4,14.06,2.4,1.59,5.53,3.41,7.75,5.14l.1.08c2.96,2.65,5.85,6.27,8.51,9.24,4.5,4.76,8.95,9.63,13.43,14.6,1.38,1.36,2.27,2.91,4.17,3.87.82.5,2.06.55,2.43,1.54,1.39,5.38,5.08,9.93,7.88,14.54,2.1,3.27,4.16,6.52,5.97,9.96,4.23,8.04,7.29,15.9,9.84,24.79.24.8.26,1.09.34,2.03.14,2.19.44,5.57.32,7.67ZM553.73,394.8c-.99,1.16-.86,2.22-1.71,3.59-1.9,3.13-5.12,3.29-7.6,4.31-3.39,1.82-6.14,6.27-9.81,7.44-1.77.64-3.45.75-5,1.88-5.68,3.91-17.65,6.55-24.38,6.67-1.63-.49-3.7-1.41-5.45-.3-.69.31-1.24.47-1.79.29-1.35-.48-2.64-1.54-3.97-2.08-7.37-2.29-15.56-2.78-22.93-4.87-7.44-2.06-15.21-3.23-22.06-6.91-1.1-.65-2.58-.92-3.53-1.64-.2-.18-.28-.38-.22-.59,1.99-3.44,5.39-9.06,4.5-13.01-.3-.99-.97-1.67-1.43-2.35-1.14-1.47-.14-3.46-.21-5-2.43-5.65-2.36-12.6-6.05-17.96-2.85-3.79-7.46-7.17-11.16-10.46-1.03-.91-2.28-1.87-3.38-2.52-4.15-2.6-9.24-3.17-12.92-6.96-1.45-1.56-3.07-2.15-5.18-1.68-.91.09-2.16.37-2.91-.15-.28-.26-.09-.76.18-1.2.79-1.24,1.98-2.56,1.99-4.19.63-7.17-5.94-15.2-11.41-19.24.04-.17.58-.23.81-.28,2.62-.52,2.87-3.24,4.52-4.5.98-.78,2.66-.96,3.74-1.73,3-2.52,5.88-6.58,8.86-9.71,2.07-2.14,4.1-4.57,4.72-7.3.83-3.28-.39-7.29-.58-12.08-.06-1.44.48-2.54.45-4.21.08-3.1-2.76-4.8-3.19-7.8-.31-1.27-.7-2.6-1.29-3.76-.21-.47.02-.88.31-1.25,1.86-2.21,2.16-5.67,3.99-7.81.96-1.14,2.54-1.46,3.36-2.34,1.01-1.05.96-2.98,2.15-4.37,1.1-1.33,2.77-1.84,3.96-2.93,3.73-3.4,6.23-6.77,9.99-9.68,7.81-5.34,16.09-10.15,25.24-12.69,1.42-.4,2.86-.04,4.39-.54,1.39-.44,2.41-1.81,3.71-2.3,6.42-1.76,22.19,1.11,26.13,6.15,5.88,5.97,14.94,13.72,21.56,22.54,1.91,2.72,2.79,4.06,3.16,6.55.32,2.1,1.19,3.49,1.94,5.43,1.95,5.13,1.21,16.05-1.18,20.72-1.51,2.76-4.07,5.21-5.36,8.04-.59,1.36.08,3.27-1.36,4.14-.63.41-1.5.76-2.05,1.23l-.12.11c-1.19,1.14-1.81,4.23-3.79,4.45-4.09.47-8.11,1.6-12.27,1.82-1.41.06-3.09-.7-4.64-.54-10.86.96-30.03,8.4-38.92,15.31-3.16,3.19-2.47,9.64,2.29,10.34,1.87.4,4.21-.74,4.45-2.7.17-.98.31-1.13,1.15-1.16.63-.06,1.36-.12,1.97-.32,1.96-.77,2.78-3.22,5.08-3.3,4.45-.12,7.96-5.22,12.95-4.38,1.17.23,2.34.58,3.56.32,1.01-.2,1.78-.87,2.62-1.41,1.55-1.09,3.74-.54,5.56-.69,1.14,0,2.16-1.03,3.28-.99.98.12,1.93,1.62,3.5,1.98.41.11.82.15,1.23.16,2.49.04,4.97-1.13,7.32-1.17,2.97.13,6.6,1.24,9.23,2.14.89.33,1.34.6,2.02,1.11,3.84,2.79,7.45,4.57,10.98,7.56,10.13,8.19,19.34,14.22,24.56,26.64.53,1.22.76,1.97,1.02,3.44,1.29,7.7,1.73,25.26.94,30.98-.13,1.1-.47,1.86-.81,2.81-1.09,2.34-3.03,2.84-4.7,4.9ZM660.89,397.96c-.87,2,1.01,5.5-1.59,6.36-1.91.53-2.68,3.18-4.04,4.35-1.15,1-3.76.76-4.71,2.32-1.31,1.93-3.93,1.72-6.17,1.88-1.96.04-3.36-.24-5.14-.87-2.99-.94-7.94-2.66-11.01-3.87-3.53-1.1-4.71-3.31-7.18-5.63-3.99-3.58-7.37-7.56-9.88-12.67-2.06-3.77-4.38-7.5-6.05-11.55-2.48-6.13-4.03-14.22-6.82-21.16-1.77-4.15-4.16-10.11-9.5-8.19-.66.11-1.19.16-1.65-.41-.87-1.12-2.64-3.21-3.39-4.72-1.43-2.73-2.6-5.9-4.57-8.31-1.82-2.11-5.06-4.2-7.84-2.7-1.45.79-2.79,3.09-2.48,4.74.49,3.04,4.27,4.94,5.54,7.86,1.01,2.25,1.91,4.46,3.35,6.38,5.68,8.01,10.61,19.65,12.7,29.38.92,5,.35,11.32-.54,15.81-.46,1.44-1.58,2.91-2.13,4.34-.78,1.99-.65,4.38-1.92,6.14-2.56,3.22-7.34,4.12-10.99,3.82-4.16-.14-9.43.43-13.36-.95-.77-.38-1.6-.98-2.45-1.15-.21-.06-.37-.12-.41-.23-.07-.2.18-.5.29-.69.07-.1.2-.3.27-.39,1.66-2.35,3.8-4.14,5.4-6.3,7.54-9.73,6.4-21.02,6.46-32.79-.24-5.45-2.54-13.14-3.21-18.82-.19-1.39.59-2.96-.09-4.33-1.13-2.07-5.91-6.39-7.81-9.22-.9-1.39-1.4-3.13-2.5-4.32-4.52-4.83-12.01-8.85-16.7-13.4-1.54-1.29-2.27-3.38-3.25-4.88-3.33-3.74-9.81-4.6-13.98-7.41-.4-.28-.44-.63-.22-1.06,3.2-5.5,8.12-11.1,10.84-16.76,1.5-3.36,2.85-7.84,3.64-11.22.18-.89.33-1.34.3-2.31,0-1.04-.55-1.96-.77-2.9-.45-2.98.42-6.38-.28-9.71-.78-3.67-4.41-6.89-2.96-10.85.9-1.76,2.01-5.22,3.42-6.38,7.02-6.68,14.35-11.17,24.32-15.71,1.81-.8,2.64-1.13,4.2-1.5,9.18-2.57,16.3-5.94,26.02-7.23,1.77-.48,4.26-2.02,6.3-2.47,3.74-.82,10.46-1.57,15.46-1.44,6.55-.07,12.66,3.78,19.19,4.6,2.48.05,3.67.55,5.9,2.33,3.26,2.45,8.01,6.65,10.72,9.26,2.56,2.22,4.87,6.72,7.33,10.5.79,1.49,2.81,9.45,3.88,13.65.99,2.63-.26,6.04.03,8.37.4,1.86,1.66,3.55,1.77,5.48.12,1.2-.47,2.24-.74,3.37-.45,1.64.33,3.41.24,4.87-2.09,10.51-15.12,19.24-22.95,25.41l-.14.11c-5.01,3.91-9.01,3.82-15.28,5.31-3.4.92-6.73.86-10.18.82-3.19,0-6.36.12-9.5-.02-3.44-.34-8.26-2.41-10.14,1.81-1.13,3.12,2,7.82,5.31,7.9,5-.38,10.33,1,15.22.7,2.83-.09,5.97-1.98,8.77-1.31.69.23.91,1.07,1.17,1.68,1.36,2.07,5.13,4.91,6.98,7.24.58,1.04.22,2.36,1.13,3.66,1.4,2.05,4.04,1.12,4.23,3.61.18,1.43,1.08,2.61,2.36,3.28,3.51,2.88,5.61,7.22,8.18,11.11,7.66,13.08,13.1,27.72,14.92,42.75.43,1.81-.51,3.13-1.33,4.6ZM906.04,337.48c-.4,3.44-2.4,6.39-3.18,9.39-1.19,7.16-2.78,12.43-5.56,19.76-1.38,3.44-2.21,6.34-3.56,10.21-.57,1.01-1.99,1.64-2.32,2.79-.63,1.72-.75,4.06-1.9,6.02-2.36,3.93-7.32,8.62-10.23,12.32-1.02,1.23-1.44,3.01-2.52,4.18-3.39,3.35-9.69,8.29-13.31,10.74-.64.4-1.08.7-1.72.89-1.62.29-7.41,1.31-9.81,1.05-7.35-3.21-20.64-10.55-26.8-17.06-.54-.64-.65-1.38-1-2.26-.46-1.43-2.07-1.96-3.27-2.61-.92-.66-.16-2.8-.9-4.09-.64-1.12-1.99-1.72-2.94-2.55-1.74-1.44-1.52-4.91-3.15-6.72-.49-.6-1.08-1.07-1.57-1.67-1.31-1.53-1.35-4.11-3.18-5.27-5.49-2.66-7.89,4.11-6.43,8.9.98,3.39,5.47,7.9,7.33,11.12,1.44,2.07-.22,4.8-.04,7.03.03,4.35.37,8.69.03,13.17-.18,2.97-.63,6.01-4.11,6.77-3.84,1.14-8.69.49-13.01.26-2.31-.18-6.05-3.56-9.14-2.75-1.66.41-2.09-.56-3.42-1.48-1.98-1.95-4.81-1.71-7.05-2.54-1.57-.68-2.71-2.54-3.99-3.44-1.85-1.21-3.99-2.17-5.81-3.48-4.53-3.14-7.06-7.88-10.1-12.2-.34-.49-.53-1.02-.5-1.56.09-1.55.95-2.99.89-4.57,0-2.83-2.33-4.23-2.55-6.74-.17-1.62.96-2.98.88-4.35-.14-2.47-1.16-6.1-1.54-8.79-.53-2.89.67-6.18.42-8.55-.29-2.84-1.41-6.65-1.91-9.98-1.05-11.21-2.28-22.88-4.61-34.22-1.28-7.81-2.11-15.73-3.61-23.61-.36-1.46-.04-2.93-.24-4.41.03-1.32-2.52-2.95-.94-3.98,5.52-2.82,3.8-9.99,5.93-14.87,1.24-2.84,3.66-6.02,5.2-8.46,5.02-8.65,8.3-14.68,17.68-19.45,4.47-3.03,8.89-5.62,14.5-5.76,1.63.2,6.17,1.07,8.32,1.7l.06.04c.37.43,1.96,2.84,3.16,3.53,13.53,9.5,15.34,20.57,24.06,33.19,1.11,1.57,1.51,1.98,2.06,3.96,2.23,9.69,4.87,20.47,3.88,30.62-.09,3.13.19,7.08,3.22,8.51,1.78.89,5.09,1.2,6.52-.3,1.97-1.75,2.44-5.69,2.49-8.93-.01-1.33-.71-2.55-.4-3.79.22-.72,1.16-1.37,1.58-2.2,3.12-6.66,7.25-13.2,10.66-19.83,3.98-7.32,8.14-14.88,15.37-20.83,3.21-2.04,7.66-3.41,11.52-3.37,2.93.16,12.14,1.09,13.13,1.36.48.16.78.34,1.4.62,3.45,1.81,9.32,4.37,11.45,6.2,3.64,3.58,4.65,9.15,5.89,13.85,1.19,4.55,1.8,7.84,1.77,10.88.09,1.72.04,4.29.25,6.01.24,1.59,1.29,3.69,1.51,5.6.38,12.09-3.02,24.07-4.83,36.07Z"/>
          <path class="cls-4" d="M245.64,382.7c-.62-.6-1.33-1.95-2.22-2.62-3.45-3-7.92-6.83-11.75-9.12-1.48-.97-3.25-1.25-4.68-2.12-1.8-1.11-2.03-3.73-1.6-5.65,1.28-5.41,9.84-.77,11.17-.99.5-.92.6-2.55,1.17-3.47.96-2.17,3.04-4.17,5.22-4.42,2.97-.62,5.8,2.67,5.82,7.31.11,1.38-.11,2.68-.62,3.96-.3.88-.57,1.53-.39,2.25.7,1.63,2.99,4.55,4.1,6.33,1.62,2.13,2.67,5.2,1.22,7.66-1.31,2.47-4.76,3.17-7.3.99l-.13-.11Z"/>
          <path class="cls-4" d="M452.29,281.76c-.97-.99-1.07-2.9-1.87-4-1.87-2.47-6.89-2.71-8.29-6.14-2.22-6.46,5.58-8.13,9.31-3.9.37.48.97.82,1.33.19.63-1.67,3.26-1.58,4.03-3.03.45-.9,1.25-2.43,2.32-3.14,3.08-2.31,9.2-4.61,11.94-2.9,2.56,1.39,1.24,7.2-1.51,8.55-1.47.99-3.28,1.65-4.49,2.66-1.01.96-1.9,2.42-2.74,3.5-2.07,2.11.68,4.65-.04,7.07-1.06,4.11-7.12,3.48-9.89,1.25l-.11-.11Z"/>
          <path class="cls-3" d="M509.97,359.18c3.93,3.87-2.41,7.53-3.61,9.81-.05.12-.09.23-.12.35-.22.88.9,1.54,1.61,2.83,2.28,5.82-3.66,9-8.54,5.66-1.65-.94-2.12-3.08-3.05-4.5-1.22-1.13-5.41-2.95-7.29-4.6-3.02-2.35-6.59-6.88-1.75-9.2,3.83-1.06,7.97,3.18,11.24,4.18.24,0,.42-.08.58-.3,2.05-3.14,7.53-7.53,10.78-4.38l.14.15Z"/>
          <path class="cls-3" d="M602.56,259.8c1.35,1.51,1.32,2.83,1.44,4.95.19,3.24.39,8.33.28,9.56-.36,1.91-2.26,4.18-4.11,4.83-1.54.43-3.6.18-4.51-1.25-.96-1.39-1.23-3.22-2.15-4.66-2.37-3.66-8.51-3.47-6.9-9.02,1.11-4.48,5.32-1.83,7.95-2.85,1.98-.99,5.08-3.94,7.86-1.66l.13.11Z"/>
        </g>
        <g>
          <path class="cls-9" d="M650.74,472.35c3.3,2.87,8.45,5.81,10.35,10.2.94,2.27,3.85,2.56,4.97,4.59,1.54,3.3,3.91,6.67,4.81,10.21.51,2.12.14,5.24,1.26,7.03,3.42-.13,1.21-3.57,6.54-5.57.33-.55.51-1.28,1.08-1.66,1.13-.78,1.29-3.13,2.9-3.81,1.77-.18,2.31-1.94,3.89-2.36.56-.08,1.08-.23,1.35-.78.77-1.33,2.62-.73,3.59-1.72.5-.6.59-1.69,1.27-2.22,1.72-1.43,3.97-1.01,6-.83,2.99.13,5.48-1.36,8.51-1.12,2.46-.02,4.28,1.56,6.49,2.04,4-.44,5.07-.64,8.09,3.05,4.55,2.55,8.72,1.54,10.65,7.16,4.48,4.09,11.08,6.41,11.92,13.25.45.78,1.28.74,1.67,1.54,5.74,5.43,8.06,13.25,10.43,20.33,2.32.45,1.86-4.32,3.14-5.11,2.73-3.08,7.08-5.74,8.38-9.9,6.33-4.82,13.39-8.98,19.88-13.8,1.71-2.64,5.35-4.19,7.62-6,1.29-.98,3.77-.31,5.27-.09,3.33-.19,8.53-4.25,11.46-5.1,10.03.73,20.47-1.37,30.48-1.86,8.33-.24,15.94,4.99,23.87,6.39,9.86-2.21,16.22.48,24.31,5.63,2.2,3.52,6.19,5.32,8.76,8.6,2.16,2.97,3.74,7,7.07,8.71,1.1.26,1.3,1.38,2.26,2.03,1.96,1.36,2.3,5.03,3.38,6.73.34.98,1.74.33,2.09,1.37.72,2.06,2.78,2.64,3.25,4.74,1.99,3.46,6.16,13.19,7.29,15.07.62,3.56,1.36,7.1,2.38,10.71,2.68,3.58,5.22,7.94,5.68,12.6-.13,1.13-.48,2.36.35,3.3.95,1.16,2.7,1.49,3.72,2.88.59.69,1.66,2.65,2.38,1.14.62-1.94,1.53-5.14,3.16-6.58,2.38-2.55,1.63-5.23,3.14-8.03,4.11-3.31,6.04-8.47,8.32-13.09.63-1.2,1.87-1.91,2.76-2.86.64-.86.75-1.88,1.69-2.21.6-.4.1-1.36.55-1.89,1.4-1.11,3.47-2.12,4.03-3.79.7-.85,1.55-1.46,2.15-2.42,1.54-.89,3.85-1.46,4.7-2.94,8.03-7.33,15.3-7.07,25.35-3.33,2.38.39,3.55,2.27,5.72,3.03,1.71.37,4.15.31,4.78,2.11.06,1.17.99,1.81,1.96,2.21,1.84,1.35,3.33,2.99,5.48,3.8,1.22,2.98,3.94,5.11,4.75,8.31,5.2,5.93,4.63,14.81,7.37,21.95-.18,1.96-1.63,4.31-1.15,6.37.56,4.36-1.42,7.76-3.25,11.72-1.43,3.2-1.7,6.42-2.94,9.49-.99.61-2,1.94-2.34,3.18-.19.4-.51.68-.86.94-.84.64-.61,1.98-1.37,2.68-1.88,1.5-5.04,2.94-5.87,5.55-.64.25-1.35.51-1.3,1.34-.06.31-.28.45-.51.58-.84.35-.39,1.36-.62,2.02-1.05,1.41-4.03,2.07-5.01,3.7-2.51,6.2-9.92,6.62-12.97,12.44-.39,1.14-1.54.82-2.43,1.26-.84.57-1.58,1.65-2.16,2.54-2.07,4.2-9.84,4.91-13.34,7.71-3.85,3.48-9.41,3.82-13.34,6.96-3.86,1.16-8.63,1.34-11.9,3.85-.22.92.44,2.02-.14,2.99-.28.6.51.7.72,1.2,0,.8.44,1.85.61,2.67.79,3.8,2.04,7.84,1.79,11.77,2.92,9.26.09,18.91.41,28.38-.02.44-.2.83-.58,1.06-1.25.68-.96,3.6-2.01,4.88-1.53,1.72-4.24,2.2-4.75,4.86-.49,2.85-2.2,4.61-5.08,5.23-5.92,5.03-12.45,4.14-19.07,4-5.53,1.36-10.64-.9-16.17-1.58-3.28.82-6.32.94-9.63-.59-1.55-.42-3.46.39-5.07-.37-.52-.2-1.04-.13-1.55-.27-.43-.18-.48-.73-.95-.92-1.09-.3-2.67-.22-3.63-.88-.36-.58-.93-.83-1.49-1.1-3.62-3.12-9.15-3.35-12.48-6.99-2.01-3.71-6.2-.23-8.9.68-9.76.14-19.06-2.05-28-5.97-5.36-1.58-8.92-6.46-14.54-7.19-1.85-1.2-2.07-4.6-4.77-4.29-2.23-.84-3.95-2.84-4.56-5.08-4.85-4.35-9.7-9.75-12.7-15.68-2-2.09-2.72,2.11-2.98,3.49-1.76,3.42-5.58,5.55-6.78,9.33-.65,1.79-2.27,1.84-3.92,2.49-3.05,1.56-6.74.91-9.42,3.24-2.74,1.22-6.06.4-8.78,2.04-2.58.66-4.73-.17-7.11-.91-3.54-.18-6.72-1.48-10.47-1.48-2.22-.82-4.96-1.73-6.8-3.37-7.63-3.45-2.13,1.73-10.93,2.12-3.94.15-4.41,3.99-9.37,2.35-.84-.29-.87.54-1.47.88-2.93.42-5.87,1.45-8.78.58-3.49-.94-.99.26-3.3.56-7.28-.26-16.4.91-22.13-4.23-1.89-.21-3.89-.71-5.61-1.7-.96-1.32-2.24-1.26-3.45-2.15-5.64-3.14-11.62-6.35-17.14-9.39-1.21-2.3-1.69-1.33-2.56.39-.94,1.14-2.58,1.28-3.68,2.17-.63.48-.85,1.42-1.15,1.67-.48.24-.89.59-1.24.99-1.07.43-2.93.31-3.73,1.64-2.84,2.01-6.81,1.29-9.33,3.49-.32.01-.67,0-.98.09-.48.2-.49.88-1.05.98-4.94.03-10-.23-14.74,1.65-1.86-.14-3.37-.72-5.21,0-3.33-.08-6.87,0-10.19.04-3.83,1.33-7.76-1.13-11.76-.59-3.13-.36-6.01-1.78-9.11-2.19-.97-.1-1.05-1.38-1.98-1.74-2.81-1.75-1.78,2.14-3.4,2.79-2.58,2.39-5.42,4.76-8.08,7.25-2.38,1.78-6.16.22-8.14,2.86-2.34.86-5.18,1.32-7.52,2.45-3.21-.3-6.75-.36-9.84-1.04-4.1-.29-6.39,1.6-10.29-1.28-3.06-1.34-6.77-2.1-9.97-2.8-2.5-2.31-5.71-3.53-9.03-4.52-1.03-1.61-3.34-1.49-4.37-3.09-.12-.74-.88-.86-1.45-.97-.6-.55-2.15-3.28-2.58-1.08.7,2.85,1.85,5.02-.45,7.34-1.03,1.38-2.05,2.77-2.94,4.13-1.17.72-1.81,1.78-2.62,3-.78,1.29-1.46,2.31-3.05,2.57-.68.25-1.05.95-1.31,1.49-1.39,1-3.48,1.21-5.15,1.23-1.61-.24-2.71,1.25-4.12,1.58-2.66-.13-5.37-.43-7.99-.83-11.18-.63-22.49-4.1-31.8-10.01-.73-.47-1.98-.42-2.79-.64-2.15-1.7-5.81-4.51-7.87-5.72-.81,1.76-.78,4.6-1.46,6.6-2.5,1.61-4.08,4.39-6.37,6.2-.86.88-.48,2.85-1.54,3.99-1.27,1.3-3.23,1.3-4.83,1.81-6.89,8.43-20.08,7.68-29.81,6.24-2.39-.64-4.46-2.34-6.8-2.99-1.14-.25-3.28-.09-4.46-.66-.82-1.17-2.06-1.49-3.02-2.61-1.52-1.91-2.26.27-3.13,1.75-.47.54-1.23.78-1.83,1.23-2.08,1.33-1.44,2.91-3.08,4.15-15.66,10.12-35.1,16.56-53.73,13.9-2.39-.52-5.1.79-7.31.46-4.96-1.65-10.94-3.31-16.26-4.34-3-2.87-8.03-4.1-10.85-6.96-1.47-.47-2.9-.78-3.95-1.94-.78-.87-.76-2.26-2.15-2.51-1.45-.46-1.43-2.42-2.9-2.94-1.18-.49-1.29-1.99-1.91-2.93-.96-2.39-3.74-3.97-5.21-6.15-1.34-3-.59-6.65-3.15-8.96-8.31-25.09,8.91-23.77,2.53-53.1.1-6.2-3.74-12.02-2.77-18.14-.43-1.36-2.22-2.19-2.39-3.77-.21-1.3.33-2.6.33-3.86-.08-3.4-2-8.2-1.35-12.03,1.8-3.71.26-6.65-.06-10.95-.62-2.07,1.79-2.29,1.04-4.52-.5-10.09,2.98-23.38,7.55-33.44,3.05-5.91,6.17-12,11.55-15.96,1.67-1.11,3.07-2.55,4.02-4.38,1.4-1.09,2.9-2.23,4.28-3.4,11.36-9.16,24.53-17.69,38.79-22.68,1.11-.13,1.88-.2,2.76-.67,3.88-2.27,8.47-2.75,12.27-4.81.61-1.32,1.88-1.14,3.09-1.3,2.71-.1,5.04-1.92,7.76-2,.91-.05,2.07.02,2.92-.33.86-.37,1.02-1.37,1.95-1.39,11.21-.87,23.13-2.62,34,.83,3.74.58,7.96,3.81,11.71,4.61,2.26.2,4.81-.5,5.98,1.89.85,4.19,4.86,6.55,7.54,9.14.79,1.46.48,3.79,1.82,4.86,2.67.83,2.57,4.67,2.85,6.79-.35,1.94-1.61,4.08-.64,6.04,2.68,3.35.62,6.98-1.61,9.89-.94,4.4,15.11,7.18,17.13,9.64,3.78,2.99,6.23,8.18,11.43,9.87,1.39,2.55,3.06,4.61,6.08,5.42,1.01.31,1.63,1.07,1.83,2.11.63,2.45,1.05,5.06,3.71,6.13.89.32,1.1,1.44,1.94,1.8,1.57,1.51,2.15,4.74,3.69,6.54,3.94,6.06-.15-14.76-1.31-16.11-.75-4.41,1.23-7.28,2.27-11.39.43-4.18,1.65-9.41,3.12-14.12.77-2.92,4.38-3.47,3.91-6.96.56-1.83,1.84-3.17,2.75-4.71.91-.75,2.29-1.19,2.94-2.1.78-.91.61-3.48,2.04-4.27,1.28-.66,1.78-2.48,2.49-3.69,1.16-.81,2.62-1.48,3.53-2.71,2.2-2.7,3.84-6.01,6.09-8.63.8-1.07,1-2.54,2.07-3.36.95-.35,1.28-.68,1.71-1.47,2.36-2.02,5.33-3.86,8.31-4.82.72-.89,1.66-1.38,2.77-1.64,2.55-2.68,9.43-4.09,12.81-4.95,2.17-.39,5.59,2.62,8.29,2.69,2.61.3,5.95-.98,7.87,1.43,1.49,1.63,4.53.02,5.8,1.93.37.84.62,1.99,1.51,2.42,2.66.58,4.53,2.59,6.58,4.25.56,1.39,1.23,2.26,2.58,2.98.05.02.46.59.58.8.47.77,1.43.81,1.99,1.49,2.82,2.76,4.29,6.92,7.85,9,.52,5.5,5.41,8.92,6.51,14.17.06.36.26.98.63,1.03,1.32.03,1.84-2.45,2.1-3.53,1.05-1.31,3.2-2.83,4.29-4.2,2-4.15,7.86-7.16,10.63-10.42,1.01-1.11,1.56-2.95,3.17-3.29.91-.2.97-1.31,1.82-1.58,1.4-.31,2.04-.69,2.42-1.98.58-.72,1.4-1.16,1.73-2.12.97-2.83,3.93-3.66,5.85-5.86,5.75-5.72,11.67-11.78,14.17-19.65.13-.16.1-.17.42-.42.87-.44.49-1.58,1.32-2.11,2.38-1.44,2.65-5.02,5.23-6.39,2.9-2.2,6.6-2.24,10.07-3.58,1.74-.91,3.5-2.13,5.54-1.42,5.37,3.3,11.42.76,16.5,5.15l.15.11ZM656.69,548.37c3.53-4,2.04-8.06,4.98-11.38.76-.7,1.46-1.5,1.76-2.45,3.5-9.47-1.96-32.06-7.73-40.41-1.59-2.23-5.64-5.82-6.89-7.11-.97-.73-2.41-.56-3.52-1.04-2.21-.79-3.36-3.51-5.81-3.19-1.13.11-2.11.56-3.25.37-3.13-.34-3.83-2.19-7.45-.93-2.32.81-4.77,2.25-6.4,4.05-2.31,2.6-2.77,5.96-5.05,8.93-2.27,3.14-6.46,7.52-9.05,10.62-2.71,3.52-5.44,5.66-8.7,8.77-2.4,2.23-4.16,5.8-6.66,8.26-2.08,2.03-5.04,3-7.21,4.94-3.35,2.99-6.85,7.58-9.63,11.15-.84,1.31-1.31,2.83-2.29,4.04-1.15,1.51-3.53,2.34-4.35,3.43-1.37,3.59,1.71,8.33,2.46,11.89,1.32,6.39,2.52,17.4,2.42,24.32.05,5.03-2.84,9.81-2.56,14.75.12,1.18.55,1.91.69,2.98.14,1.09-.27,2.29-.71,3.32-2.62,5.52-5.11,12.5-8.56,17.68-1.81,2.29-5.32,5.02-6.79,7.28.24,1.19,7.85,10.59,9.07,11.13.13.04.2-.16.28-.56.73-3.87,2.9-7.33,4.25-10.99,1.57-4.47,2.42-9.7,3.98-14.22,1.1-3.1,3.25-5.98,4.29-9.09.27-.55.72-.95,1.3-1.21,2.63-1.08,7.15-.11,8.23,2.97,1.36,3.12-1.01,5.33-2.33,7.93-2.45,5.16-3.55,11.36-4.43,16.74-1.29,5.18-5.42,12.15-5.59,17.3,0,3.1,1.1,6.34.16,9.41-.51,2.14-1.23,4.38-1.17,6.58.14,2.11,1.18,5.59,2.08,8.14.4,1.01.61,1.57,1.12,2.08,2.02,1.91,7.51,4.27,10.94,5.01,1.74.37,3.46-.41,5.46-.19,1.72.19,3.22,1.29,5.08,1.53,4.05.27,13.59-.89,17.69-1.53,1.43-.21,2.81-1.37,4.12-1.6,2.12-.22,4.8,1.5,6.7-.5,2.99-2.75,9.54-.38,10.8-5.58.36-1.09,1.19-1.42,2.16-1.95.8-.46,1.65-1.26,2.16-2.07,1.74-2.75,2.64-8.74,2.62-12.12.06-1.24-.67-2.32-1.01-3.45-.49-1.65.54-3.38.35-4.96-.19-1.31-1.16-5.92-1.81-8.92-.39-2.24-1.1-4.57-2.54-6.23-.65-.88-1.27-1.6-1.62-2.56-.52-1.35-.3-3.09-.89-4.17-1.28-2.01-4.1-3.2-4.91-5.54-1.54-3.23-2.17-6.72-3.87-9.9-.82-1.15-1.96-1.74-2.75-2.88-1.01-1.32-1.03-3.56-1.58-4.88-1.11-2-3.83-2.94-4.84-5.05-1.64-2.8-4.62-8.42-5.31-10.06-1.44-3.79,1.32-7.41,4.89-8.7,3.02-1.36,5.32-2.56,8.3-2.53.3-.04.48-.1.61-.21.62-.61,2.39-4.28,4.46-6.16,4.53-2.9,9.98-5.68,13.74-9.85,1.61-1.53,2.09-3.8,3.57-5.33,1.71-1.79,4.89-4,6.43-5.94l.12-.16ZM669.91,676.17c2.48,1.35,5.62,2.68,8.22,4.01,7.52,3.68,14.02,4.89,20.95,4.64,6.46-.34,14.65-1.63,21.26-3.75,2.88-1.49,11.71-7.01,15.31-10.28,1.37-1.37,2.08-3.71,2.98-5.36,2.39-3.91,4.06-7.12,5.58-10.48,1.57-4.08,4.31-7.12,6.98-10.59.92-1.31,1.63-2.96,2.01-4.56,3.75-14.65,4.66-28.92,5.52-44.16.02-2.11.97-4.71,1.03-6.68-.05-3.22-1.69-7.57-1.58-11.95-.26-5.76-1.18-10.95-1.91-16.76-.99-3.79-2.84-9.44-4.13-13.45-.77-2.62-1.29-3.64-3.03-5.32-2.93-2.86-2.86-7.19-4.63-10.96-5.53-10.78-13.28-22.53-24.47-28.24-2.96-1.67-6.44-1.12-9.58-1.76-1.67-.43-2.35-2.28-4.1-2.56-.73-.13-1.55-.03-2.26.16-1.2.34-2.45,1.91-3.76,2.35-1.29.47-2.69-.47-4.02-.2-5.48,1.22-8.69,8.53-13.5,10.9-1.15.49-2.24,1.26-3,2.33-1.39,1.88-.96,3.56-1.79,5.74-.44,1.22-1.59,2.19-2.35,3.17-.24.34-.32.58-.33.9.12,2.87.81,7.1.2,10.03-.43,3.24-1.26,7.66-2.09,9.95-.6,1.89-2.32,3.28-3.5,4.95-6.02,9.58-10.63,18.21-19.76,25.2-3.13,2.46-8.11,4.87-11.33,7.66-.95.83-1.29,2.26-2.54,3.48-6.78,5.83-11.37.15-3.05,10.45,1.68,2.51,3.78,5.36,5.38,8.03,1.27,2.08,1.93,5.67,3.36,7.94.47.7,1.61,1.15,2.2,2.24.73,1.33.39,2.84.83,4.19.56,1.72,2.4,2.68,3.26,4.24,2.11,3.53,4.25,9.13,5.56,13.5,2.1,7.33,2.37,20.28,1.84,27.88-.03,1.18-.3,2.54.12,3.66.12.18.3.31.52.41,1.25.38,2.46.95,3.55,1.67,3.36,2.19,7.13,4.91,9.95,7.28l.1.07ZM874.64,594.71c.97-.97,2.65-1.9,3.44-3.14,3.32-4.63,8.44-11.9,10.15-17.05,1.06-5.09,1.62-11.92,1.5-17.16-.13-2.69-2.16-5.69-2.51-8.47-.42-3.69-.48-7.19-1.54-10.88-1.34-4.29-3.33-9.5-6.06-12.7-.75-.65-1.71-1.23-2.27-2.14-.93-1.6-1.15-3.35-2.4-4.81-2.3-2.63-10.98-8.14-15.94-10.71-1.35-.54-2.19-1.42-3.77-1.25-4.2,1.17-7.81-2.16-11.63-2.91-.99-.08-2.76,1.89-4.45,2.08-3.66.42-7.51-2.24-11.03-1.45-1.21.33-2.28.92-3.57,1.01-6.63.69-13.99-.57-19.49,4.78-.96.79-1.65,1.41-2.81,1.6-1.72.32-2.73-.5-4.47.01-.63.18-1.26.52-1.81.88-1.22.91-1.93,2.12-3.18,2.84-5.05,3.28-9.49,5.99-14.28,9.62-2.03,1.66-4.46,2.5-6.16,4.53-3.58,4.03-4.98,10.29-9.05,14.13-.37.33-.77.76-.77,1.23.34,3.61,3.48,6.98,4.34,10.38,3.1,12.31,3.61,25.42,3.82,37.97-.17,2.01-.65,3.54-.59,5.51.1,1.51.89,3.21,1.08,5.02.15,1.59.09,3.07,0,4.77-.55,8.44-2.81,17.92-5.19,26.2-1.42,4.89-2.76,10.28-4.88,14.99-3.96,7.98-9.37,15.28-13.75,23.36-.75,2-1.08,3.89-2.94,5.33-.74.78-1.33,1.39-.58,2.03,2.52,2.21,6.31,1.77,9.55,2.04,1.55.07,2.62,1.06,4.27,1.11,3.28-.14,9.85-2.46,13.88-4.33,2.69-1.32,5.77-6.33,7.76-10.11,1.91-3.75-.14-7.67-.37-11.34-.05-1.1.45-2.13.49-3.22.16-3.26-1.95-8.3,2.27-9.57,3.19-.72,7.37.49,9.43,2.72,4.2,4.42,4.69,12.22,7.95,17.46,1.53,2.87,3.55,4.56,6.07,7.44,1.57,1.87,2.71,4.78,4.14,7,2.58,3.48,7.87,7.61,11.94,10.81,1.3,1.3,3.38.77,5.24,1.78,1.3.78,1.94,2.58,3.03,3.31,1.18.8,2.96.49,4.4,1,1.72.54,3.4,2.1,5.21,2.38,4.04.65,12.73,1.24,16.42,1.06,1.22-.15,3.42-1.22,4.29-1.61.25-.17.41-.33.49-.67.45-1.49-.21-4.75-.09-6.39.14-1.65,1.37-2.79,2.04-4.31,1.88-5.72,3.66-11.49,6.4-17,.53-1.01,1.41-1.94,1.83-2.8.73-1.48.15-3.79-.32-5.31-1.25-3.82-6.94-15.31-9.47-17.89-.87-.89-2.33-1.17-3.21-2.14-.92-.91-1.19-3.17-1.94-3.96-2.72-2.52-6.67-5.61-9.77-7.81-3.92-1.64-9.4-2.14-13.32-2.84-2.22-.54-4.29-1.86-6.66-1.97-2.97-.41-5.02,1.83-7.88.85-5.03-1.61-5.95-9.96-1.25-12.67,2.7-1.61,5.9-.37,8.82-.34,3.81.03,8.47-.97,12.15-.74,2.7.18,5.54,1.8,8.27,1.31,1.27-.27,1.94-1.9,3.31-2.15,12.14.83,18.7-8.38,25.3-16.56l.1-.12ZM554.59,612.95c.93-1.43,2.53-4.21,3.23-5.58,2.15-6.6,2.6-13.66,4.26-20.38,1.48-6.53-.05-14.2-.73-21.01-.3-1.96-.38-3.28-.76-4.83-.43-1.47-1.74-2.55-2.04-4.14-.53-2.21-.26-4.92-.6-6.98-.41-2.2-1.18-4.32-1.82-6.49-.58-1.62-.87-3.32-1.64-4.77-1.02-1.8-2.71-3.22-3.73-5.01-2.67-6.36-4.76-11.15-9.55-15.76-3.86-3.69-11.96-9.41-17.04-10.49-1.33-.16-2.7.43-4.14.09-1.63-.34-2.56-1.68-3.83-1.89-4.49-.18-12.45,2.57-16.04,4.5-3.02,1.83-4.29,5.16-6.28,7.87-6.89,8.85-18.26,22.83-20.72,31.57-.48,1.57-.09,3.32-.25,4.96-1.2,6.91-2.36,11.15-1.82,16.55.16,2.18.57,4.77.93,6.98.98,6.1.93,11.9,1.94,17.9.19,1.76,1.67,2.84,2.07,4.42.54,2.06-.8,4.1.09,5.62.58,1.22,1.5,2.35,1.66,3.74.31,2.38-.77,4.24-.14,6.39.43,1.87,2.33,2.69,3.05,4.39,1.83,3.81,3.21,10.97,4.56,15.6.37,2.18,2.09,3.73,3.22,5.53,1.99,3.84,1.66,9.88,3.58,13.4.73,1.38,2.59,1.63,3.46,2.91.93,1.3,1.09,3.04,1.78,4.36,4.68,7.96,11.22,16.43,18.67,21.61,4.52,2.93,10.73,4.66,15.91,6.06,1.2.28,1.91.48,3.04.34.87-.12,1.62-.41,2.46-.39,3.9.24,7.43,1.31,10.95.77,3.86-.28,9.09-4.19,11.88-6.03,1.14-1.05,2.66-2.93,3.6-3.98.76-.77,1.25-2.74,1.24-3.86.01-1.81-.83-3.34-1.42-4.99-1.59-4.36-.59-9.53-1.39-13.83-1.48-5.68-6.63-15.4-11.57-20.49-1.6-1.63-2.79-1.68-5.2-1.44-1.62.14-3.05.28-4.5.54-2.97.51-9.31,4.68-12.31,1.52-1.2-1.39-1.65-3.94-.55-5.49.34-.72,1.37-1.67,1.22-2.5-.5-.45-1.44-.31-2.04-.69-1.54-.68-2.75-1.99-4.17-2.81-1.76-.98-4.03-1.27-5.71-2.75-5.8-4.17-16.87-26.5-11.22-32.65,1.64-1.6,4.39-1.57,6.82.49,3.15,2.53,1.94,6.84,2.89,10.25,1.43,3.34,3.93,6.75,5.94,9.92,2.56,3.6,6.65,6.35,10.8,8.01,2.13.81,5.11,1.62,7.19,2.2,3.25.45,6.97-2.37,10.07-3.17.14-.14.18-.05.32-.52-.01-3.4,2.38-3.87,4.35-5.48l.06-.07ZM394.18,513.97c-1.19-.76-5.24-.76-7.08-1.93-.88-.56-1.52-1.65-2.54-1.95-1.52-.42-3.68,0-5.65-.3-1.7-.09-2.95-1.51-4.49-1.96-1.79-.29-3.75.49-5.57.54-4.76.05-8.68-1.47-13.58-.6-16.81,3.6-35.01,10.43-49.51,18.56-12.52,7.34-25.89,16.64-32.18,30.05-.97,2.52-.24,5.14-2.29,7.1-3.02,2.96.13,9.54-3.51,12.74-1.04,1.09.37,2.3.5,3.55.17,2.46.29,6.53-.12,9.03-.5,1.7-2.27,3.28-2.44,4.72-.15,1.95.74,4.34.91,6.22.37,5.6.12,10.6,1.29,16.16.3,1.46,1.35,2.96,1.45,4.58.18,2.06.05,4.08.47,5.68,1.51,5.54,1.23,11.52,2.45,17.41.33,1.78,1.83,3.28,1.95,5.18,1.41,10.01-2.41,20.49-5.35,29.88-.25,1.03-1.07,1.89-1.43,2.8-.5,2.37.04,5.49.54,7.77.56,1.34,2.31,2.11,2.93,3.51,1.36,2.83-.62,5.63,1.75,7.85,1.47,1.49,3.9,2.47,4.49,4.79.21.59.44,1.19.87,1.62.8.74,2.1,1.04,2.93,1.91,4.83,4.85,7.88,7.56,14.01,8.96,9.59,2.53,17.59,1.82,27.2,1.06,1.83-.27,3.7.61,5.37.2.83-.2,1.54-.77,2.06-1.28,1.4-1.78,3.62-.85,5.54-1.15,9.5-1.71,18.2-7.13,26.05-12.63,3.06-2.57,4.48-8.12,3.04-12.02-.56-1.04-2-1.46-2.53-2.58-1.29-2.34-.94-5.63-2.49-8.02-1.05-1.64-2.84-2.2-3.88-3.43-3.38-6.37-9.08-11.42-14.06-16.59-10.72-10.29-20.15-21.42-27.62-34.45-1.28-2.22-2.44-4.4-3.55-6.65-1.8-3.71-3.82-6.69-3.9-10.86-.08-2.82.59-6.98,3.66-8.06,2.21-.78,4.72,1.09,5.2,3.27.54,2.5.88,5.28,2.58,7.4,2.18,3.12,4.35,6.77,7.04,8.97,1.47,1.12,3.21.98,4.89,1.5,6.41,2.52,12.87,8.04,19.15,10.52,1.86.72,3.93.9,5.79,1.58,1.74.64,3.27,2.39,5.47,2.39,1.71.05,2.93-.95,4.47-1.01,1.24-.06,2.46.6,3.58,1.08,1.42.6,1.57.34,3.18.09,1.36-.25,2.9-.53,4.2-.79,1.99-.55,3.36-2.67,5.23-3.6,3.4-1.98,6.72-2.79,9.92-5.42,3.39-3.14,9.78-6.38,9.84-11.9-.11-2.22-1.62-2.99-2.3-5.04-.91-2.56-.62-4.36-1.73-6.48-5.26-7.05-12.71-13.58-20.27-18.1-2.14-1.11-4.62-1.91-7.04-1.71-1.71.05-3.32,1.56-4.9,1.52-1.7-.05-3.46-.73-5.15-.17-1.55.48-3.35,1.64-4.24,1.19-.86-.41-3.66-2.84-4.3-3.6-.51-.95-.69-2.94-.81-3.83.1-1.16,1.52-2.51,2.62-3.95.61-.72.95-1.05,1.74-1.56,4.66-3.19,10.83-2.3,14.06-6.61.78-.87,1.56-1.79,2.52-2.41,2.39-1.47,4.98-1.58,7.16-3.19,4.83-3.13,14.14-9.73,16.35-11.85,1.7-1.83,2.24-5.09,4.29-6.73,1.09-.88,2.55-1.49,3.64-2.32.44-.34.61-.59.85-1.15.41-1.06,1.13-2.88,1.29-3.93.12-1.31-1.07-2.79-1.13-4.2-.88-6.55-2.13-10.56-7.08-15.16-.65-.54-1.34-1.74-1.7-2.16l-.09-.08ZM889.1,517.08c.27-1.05-3.62-5.7-4.85-5.49-.91,1.74,3.78,6.01,4.82,5.52l.03-.03ZM891.57,519.34c-.36-.19-.8,0-.82.36,0,.41.05.41.1.62l.12.33c.96,2.36,2.91,4.44,3.71,6.88.94,3.19,1.36,7.45,2.41,10.77.99,3.2,2.95,7.56,3.78,11.05,1.04,5.09.03,13.71-1,20.62-.82,8.79-5.14,18.88-10.32,26.51-1.74,2.07-4.14,4.35-5.94,6.62-1,1.48-2.25,2.52-.95,3.65,2.65,2.51,3.43,5.82,5.7,8.61,1.38,1.71,3.36,2.9,5.1,4.25,3.33,2.25,4.3,6.67,6.66,9.66.81.9,2.62.98,3.46,1.99,1.18,1.35,1.49,3.21,1.3,5.09-.23,1.88-1.03,3.64-2.56,4.53-1.43.89-3.5.24-4.86,1.32-1.32,1.02-1.76,2.8-2.5,4.22-.93,1.92-3.14,2.97-4.27,5.1-.74,1.38-.81,3.02-1.74,4.32-2.28,3.04-5.18,5.4-6.31,9.6-1.19,4.56.84,10.97.22,14.52-.12,1.09-1.2,2.21-1.7,3.09-1.9,4.89-3.27,11.32-5.89,15.88-.79,1.25-2.17,2.03-2.86,3.32-.24.46-.18.72.21,1.06.96.93,3.23,2.85,3.79,3.24,2.1,1.17,5.11,2.52,7.34,3.48,1.01.26,3-.55,4.14-.28,1.96.48,5.02,2.61,7.94,2.69,6.15.53,23.97,1.34,28.97-.45.89-.26,1.14-1.23,2.07-1.85,1.3-.86,3.02-.8,4.11-1.71,4.78-4.32,3.77-11.68,6.6-17,1.19-8.66-3.45-23.35-5.63-33.61-.7-2.67-2.38-4.06-.87-7.55,1.36-3.86,4.85-3.93,8.34-5.11,1.65-.62,3.02-2.05,4.74-2.48,1.25-.32,3.07.5,4.2.27,3.25-1.13,7.71-2.96,10.81-4.36,1.29-.76,2.59-2.87,4.2-3.44,8.11-3.52,11.88-7.24,18.41-12.88,2.09-1.72,5.01-3.27,7.05-5.02,1.47-1.26,2.3-3.79,4.23-5.21,1-.74,2.44-1.8,3.28-2.54,1.9-1.55,2.91-3.95,4.68-5.96,1.82-2.26,5.89-4.11,6.42-7.53.24-1.54.25-3.17.91-4.66,1.46-3.74,2.83-3.98,3.47-8.27.11-.6.15-1.27.24-1.8.15-1.4,1.5-2.88,1.49-4.47.02-1.57-1.24-2.74-1.54-4.23-.37-1.87.55-3.55.45-5.27-.21-2.37-2.6-6.7-4.59-10.82-1.02-1.83-1.55-3.18-2.83-4.62-2.06-2.08-6.5-3.93-9.05-5.36-1.07-.6-1.66-1.72-2.74-2.36-.71-.42-1.65-.72-2.45-.91-3.79-.92-6.88.98-10.73,1.96-1.07.25-2.56.03-3.42.77-.24.2-.58.51-.99.88-1.32,1.2-2.42,2.18-3.65,3.25-3.57,2.9-4.27,5.3-6.65,8.92-1.4,1.83-3.54,3.16-4.78,4.71-1.74,2.49-3.95,5.92-5.08,8.23-.57,1.41-.57,3.14-1.38,4.7-.89,1.77-2.71,2.82-3.58,4.58-1.69,3.4-2.54,8.26-3.92,11.74-1.15,3.04-3.87,5.46-5.19,9.17-1.06,2.82-.7,6.2-2.97,8.47-6.97,6.16-10.26-4.32-10.03-9.91.04-3.63.92-7.65.16-10.1-.62-1.65-3.89-4.91-4.92-7.24-1.9-4.34-1.62-10.35-3.56-14.47-1.4-2.58-4.63-6.28-4.31-9.81.04-1.29.13-2.67-.55-3.79-1.18-2.15-3.34-4.84-4.26-6.79-.89-1.94-.99-4.22-1.68-6.13-1.95-4.06-4.95-8.34-7.54-12.17-3.01-3.75-7.69-6.67-10.1-10.76l-.13-.08ZM468.69,625.26c-1.16-1.75-1.25-3.5-1.74-5.18-.45-1.8-1.76-2.93-2.83-4.33-2.14-2.64-1.94-7.9-2.89-10.18-.4-.86-1.95-1.75-2.46-2.88-3.68-6.46-8.23-12.03-12.2-18.35-1.84-2.87-3.53-6.3-5.76-8.6-.99-.88-2.62-.96-3.66-1.92-1.28-1.14-1.67-2.95-2.91-4.12-1.84-1.85-5.01-3.74-6.77-5.59-1.38-1.42-1.75-4.16-4.03-4.45-1.03-.15-2.21-.18-3.16-.66-2.49-1.18-5.99-4.49-9.08-5.22-1.52-.42-3.32.6-5.14.24-.29-.04-.64-.14-.91-.03-.21.06-.39.21-.55.42-2.24,3.27-5.99,4.82-8.46,7.48-1.48,1.57-2.77,3.55-4.36,4.98-2.7,2.44-7.78,3.96-10.09,6.3-.41.41-.48,1.02.09,1.37,1.19.65,2.89,1.26,3.97,2,.79.53,1.43,1.38,1.72,2.28.43,1.63,1.58,2.36,2.93,3.3,2.99,2.02,7.23,4.02,9.06,5.72,1.79,1.71,1.68,4.44,3.63,6.12,2.09,2.41,4.84,5.17,6.02,8.28,2.09,5.41,3.55,14.12,2.58,18.65-.4,1.44-1.69,2.59-2.24,4.01-.63,1.62-.11,3.77-1.81,5.16-1.39,1.19-3.25.78-4.42,1.77-1.53,1.32-2.18,4.03-3.35,5.39-.88.97-3.55,1.79-5.16,2.74-1.85,1.07-3.18,2.93-5.04,3.87-4.11,2.12-14.02,4.41-18.53,4.71-1.57.25-3.3-.83-4.75-1-1.26-.04-3.27,1.91-4.99,1.23-5.56-1.98-11.82-2.77-17.22-5.11-1.62-.9-2.79-3.02-4.81-3.16-1.93-.24-1,2.45-.21,3.01,11.46,8.73,17.59,21.35,26.25,32.58,2.45,3.31,5.3,6.41,7.55,9.9.35.56.71,1.21.96,1.81.81,1.84.22,3.54.38,5.43.29,2.24,2.51,4.69,2.24,7.18.04.21.15.36.32.46,2.23.52,4.41,1.57,6.55,2.43,1.48.56,2.38.71,3.84,1.08,3.97.78,8.58,2.28,11.14,1.93,2.09-.65,3.91-2.38,5.89-3.14,2.57-1.28,5.32-2.41,7.98-3.7,1.24-.9,1.28-2.94,2.15-4.08,1.12-1.57,3.13-3.26,4.51-4.68.3-.28.48-.53.49-.95.07-.98-.67-2.34-.43-3.38.36-1.47,1.93-2.64,1.99-4.21.13-2.35-1.84-5.18-1.53-7.69.09-1.61,1.81-3.15,3.31-3.47,4.09-.55,7.66,3.31,10.41,5.98,3.24,3.44,6.44,7.56,10.66,10.2,11.8,7.65,23.45,11.92,37.32,9.28.68-.1,1.05-.16,1.45-.44,1.19-.81,5.04-3.8,6.18-4.76,3.21-2.98,1.13-5.99.13-9.26-.49-2.33-.92-4.3-1.94-6.49-4.45-10.54-5.98-21.87-10.68-32.28-1.13-2.41-1.33-5.15-2.07-7.6-1.23-3.25-4-7.87-5.45-10.23l-.09-.14ZM865.87,633.17c3.33,3.68,6.55,7.14,9.05,11.55.91,1.64,1.28,4.7,3.21,5.42,1.35-.14,4.64-5.24,6.68-8.25,1.21-2.38,4.26-4.45,5.78-6.74.14-.32.18-.6.14-1-.08-1.68-1.59-2.37-2.69-3.34-3.46-3.72-8.21-7.63-11.07-11.63-1.05-1.51-1.3-4.29-3.62-4.37-4.7,1.16-12.49,7.03-17.66,8.03-.17.05-.38.1-.37.33.27,1.67,2.67,1.65,3.87,2.52,1.94,1.45,4.85,5.51,6.58,7.35l.1.11Z"/>
          <path class="cls-3" d="M822.34,571.24c-1.2-1.07-5.08-2.45-7.06-2.27-3.63.61-6.25,4.02-9.51.35-2.6-3.41.03-10.17,3.08-11.57,4.68-1.19,9.75-1.17,14.53.42,1.21.24,2.16,2.11,3.4,1.77.39-.21.51-.91.65-1.47.53-2.27.55-4.67,1.16-6.91,1.12-5.37,11.48-10.37,14.15-4.26.8,1.91.91,4.41-.39,6.11-1.16,1.56-2.92,2.19-3.3,3.33-.59,2.18-.39,4.71-.83,6.91-.37,2.02-1.78,3.8-1.98,5.87-.33,3.09.43,8.99-1.81,11.91-2.8,3.74-8.45.36-9.85-3.02-.95-2.16-.65-5.2-2.12-7.09l-.09-.1Z"/>
          <path class="cls-9" d="M680.82,603.56c-1.35-1.38-1.53-3.91-.95-5.72,1.14-3.33,6.62-3.58,9.83-2.52.34.08.89.45.93-.06.43-1.67,2.06-8.13,2.82-11.14.07-.31.1-.42.4-.62,4.43-2.75,7.05-10.83,13.47-6.88,3.03,2.59,1.57,7.98-.24,10.9-1.2,1.73-3.22,3.35-4.3,5.03-.78,2.46-1.1,7.63-1.23,9.58.19,3.12,2.3,6.81,2.97,9.9.94,3.42-.26,7.33-4.45,7.12-6.04-.11-9.47-8.5-14.01-12.64-1.28-1.41-3.61-1.76-5.13-2.84l-.11-.1Z"/>
          <path class="cls-3" d="M413.13,626.31c.29-.22.77-.39,1.13-.52,1.7-.49,1.3-2.5,2.41-3.59,4.53-3.4,8.92,1.27,9.74,5.72,1.33,6.72-.75,9.04-6.44,9.95-3.61,1-6.4-2.59-7.71-6.58-.53-1.91-.47-3.72.75-4.89l.11-.09Z"/>
        </g>
      </g>
    </g>
  </g>
</svg>