<?xml version="1.0" encoding="UTF-8"?>
<svg id="Livello_1" xmlns="http://www.w3.org/2000/svg" version="1.1" viewBox="0 0 1120.5 521.2">
  <!-- Generator: Adobe Illustrator 30.0.0, SVG Export Plug-In . SVG Version: 2.1.1 Build 123)  -->
  <defs>
    <style>
      .st0 {
        fill: #070707;
      }

      .st1 {
        fill: #060606;
      }

      .st2, .st3 {
        fill: #fd3fb7;
      }

      .st3 {
        stroke: #fd3fb7;
        stroke-miterlimit: 10;
        stroke-width: 2px;
      }

      .st4 {
        fill: #090909;
      }
    </style>
  </defs>
  <path class="st2" d="M1106.1,262.7c.8.5,2.8,2.1,3.2,2.9,1.4,2.6-.3,4.1-.6,6.1,0,.4.3.7.3.8-.2,1.6-.5,3.3-.9,5-.4,1.8-.6,3.2-1.3,4.9,0,.1-.5.2-.5.6l.3.3c-.2.6-.3,1.6-.4,2.3l-.6.8c-.2.2.1,1.9,0,2.3-.3,2.3-1.1,2.5-1.6,3.9s0,2.3,0,2.8c0,.3-.1.6-.2.9-.3,1.9-1.7,2.9-1.8,4.8l-.4.5.3.4c1.1,3.7-2.3,6.1-3,9-.2.7-.2.8.5.8.2,0,.5.1.7.1l.8.6c.3.7.8.7,1.2,1.1-.2.9.3,1.7.5,2.4,0,.4.1.6.3,1,.7,1.6,1,1.4,2.3,2.7.1.1.2.4.4.5-.4,1.3.4,2.3,1.3,3,0,.6.3.9.3,1,.1,2.5.6,2.2,1.2,3.9.1.3.2.7.3,1,.3.9,1.1,2.2,1.2,2.5.3,1.4-.7,3.2.9,4.3,0,.6.2,1,.2,1.4.2,2.1,1.1,3.5,1.8,5.4-.2,1.1,0,1.4,0,2.3,0,.8.5,1.4.6,2,.4,2.4,0,3.7,1.8,5.9l1,6.6,1.3,1.6c0,.5-.2.5.3,1-.3,1.1-.3,2.6-.6,3.6-.7,2.1-1.9,2.5-3.4,3.6-3.3.4-6.3-3.2-8.9-3.8-1.4-.4-2.7.3-4.4-.4-1-.4-4.2-3.9-6-5.1-.3-.2-.5-.4-.8-.6-.8-.5-1.2-.5-1.7-.8,0,0-.4-.7-1.1-1-.8-.3-1.9-.5-2.8-.6-.3,0-.6-.2-.8,0-.4.4-.5,1.2-.8,1.6-.8,1.2-1.7,2.4-2.1,3.8-.9.2-.9,1.2-1.2,1.6-1.7,2.2-1.3,1.7-2.1,4.3-.2.7-.6,1.1-.8,2.2-.1.4-.2.9-.2,1.4-1,2-3.1,3.3-3.7,5.4-.4,1.4-.4,3.1-.8,4.5-1.6-.5-2.1,3-2.6,4.2-.4,1-1.4,2.9-1.5,3.4l-.6.8c-.4.3-1.1,1.5-1.3,2.1-1.6,1.2-2.8.6-4.3.7-.4,0-1-.3-1.4-.2l-2.5-1.8c-1-3.8.3-6.6-.3-8.9-.3-.9-1.1-2-1.3-3,.2-.3,0-.9.2-1.4.3-.8.9-1.2,0-2.3.1-.2,0-.6.2-.9,1.6-3.6-1.5-5.5-1.8-8.2,0-.8.3-1.3,0-2.8-.2-1-.6-2-.9-2.9-.1-.4,0-.9-.2-1.4-.9-2-2.1-2.1-4-1.2-1.6-.4-2.6,0-3.7-.2-4.6-.4-4,.2-7.5.6-.4,0-.9-.2-1.4-.2-.6,0-1.2.2-1.4.2-.8,0-1.9-.5-2.7-.5-1.5,0-1.6.4-2.4.5-3.6.6-3.9.4-7.5.1-2.3-.2-4.6,0-6.7,1.2-.7-.2-1.5-.2-2.3-.4-2.5-.6-1.2-.1-2.3,0-2.1.3-3.7,0-5.3-1.4-.8-.7-1.4-2.1-2.3-2.7,0-1.3.6-2.7.7-4.1l.6-.8c.2-.1.5-.8.9-1.2,3.6-2.9,7.6-6.4,11.1-9.3,1.3-1.1,1.5-1.7,3.2-2.7.6-.3,1.1-.5,2-1,.4-.2,1.3-.2,1.7-.6l9.4-7.5c.4-1-1.5-1.5-2-2-.1-.1-.2-.4-.4-.5-1-.9-2.6-2-3.4-2.9-1.2-1.3-1.4-3.1-2.8-4.2-.3-2.6-.4-1.3-1-2-.2-.2-.2-.9-.7-1.1-.2-.9-1.2-2.7-1.7-3.5s-1.1-1.6-1.9-2.2c-.6-1.7-2.1-2.9-3-4.2-1.3-2-1.9-2.9-3.4-4.8-.4-.5-.6-1-1.1-1.6-.8-1-.6-1.1-1.9-2.2-.4-1-.5-2.1-1.3-3,.2-.7.2-1.5.4-2.3.2-.8.2-1.7.4-2.5s.8-1,1.2-1.5c0,0,.4-.2.5-.4,1.9-.9,3.7.7,5.2.9s1.1-.3,1.2-.3c4.9.3,10,.3,14.6,1.6l.5.4.4-.2c.7.4,1.9-.1,2.3,0,3.7.5,6.3,1.5,9.4,2.1.3,0,.6,0,.9.2,1.4.3,3.2.4,4.5.8.8.2,2.3,1.1,3.4,1.5.1,0,.4.5.8.6,1.5.4,2,.1,3.2,0,2.3,0,1.9.4,3.9-1.2,1.7-1.4,3.1-3.2,4.5-4.8,1.5.4,1.6-1,2.1-1.5.9-.8,1.8-1.5,2.7-2.3,1.1.3,1.4-.6,2-1,1.4-1,1.4-1.4,2.3-2.4.4-.5.8-.2,1.7-1.6.1-.2.4-.5.6-.8,1.9-1,3.4-1.5,5.1-2.8,2.4-1.8,2.4-2,5.2-3.3,1.3-.6,1.5-.7,2.2-1.9.2-.4.5-1.2.8-1.7,1.3-.6,2.7-1.5,3.7-2.6.9-1,1.4-2.6,2.4-3.3.6-.4,2.3-.5,3-1.3.5.2,1.4,0,1.8.3h0ZM1101.4,332.5c0-.1-1.4-.9-1.9-2.1-1.7-4.8-.3-3.8-4-8.3-.4-.5-.5-1.5-.8-1.8-.9-.8-3.3,1-5.2-2.3-2.7-4.6,1-6.2,2.4-9.4s1.2-6.5,1.8-9.3c.3-1.3,1.8-2.9,2-4.3.3-1.7-.7-3.1.1-5.5.8-2.2.7-2.2,1.2-4.5.2-1.1,2-4.7.7-5.2-.9.6-3.5,1.3-4.1,1.7-.9.6-2.9,3.5-3.9,4.3-.9.7-2.2.6-3.3,1.5-4.3,3.8-8.8,7.8-13.3,11.4-.5.4-.8,1.4-1.5,1.8-3.3,2.5-6.1,3.7-10.2,3.4-3.6-.2-9.8-2.3-13.2-3.5-1.7-.6-3.1,0-4.6-.3-3.4-.7-7.3-2.3-11.1-2.7-1.8-.2-4.6.7-6.7-.4,0,.7.9.9,1.4,1.6,1,1.6,1.3,3.3,2.6,4.9,1,1.1,2.6,1.8,3.2,2.9.7,1.1.4,2.4.8,3.3.2.3,3.8,5.6,4.3,6.2,1.9,2.4,5.1,4.7,7.2,6.8.8.8,4.3,5.2,4.3,6.1,0,2.5-1.1,5.2-3.2,6.6s-3.2.3-4.6.8c-.4.2-1.4,1.5-2.2,2-1.4.8-3.8,1.6-4.9,2.3-1.2.8-2.7,2.9-4.1,4-.5.4-1.5.2-1.8.5-.5.4-.7,1.9-1.7,2.9-1.1,1-2.4.7-3.3,1.7,1.6.7,3.2-.7,4.6-.6,5.7.5,7.2-.4,12.2-.6,2.6,0,5.8.8,8.1.8,1,0,1.9-1.1,3.2-1.1,1.7,0,3.1,0,5.1,0,3.8-.1,6.2-.3,7.6,3.7,1.8,4.9,1.8,12.3,3.7,17.2.3.7.7,1.3,1.2,1.9,1.9-.9,1.4-2.9,2.3-4.6,1.7-3.6,5.6-9.4,7.8-13.1.3-.6,2.4-3.6,2.7-3.9,1-1,8-2.3,9.4-2,1.2.3,2.4,1.9,3.6,2.6,1.7,1,3.5,1.2,4.9,2.1,1.9,1.1,3.3,5.1,6.3,4.8,1.1-.7-2.3-9.1-2.5-10.7-.1-1,.3-2.6.1-3.1,0-.2-1-.6-1.4-1.6-.7-1.6,0-3.5,0-3.9-.2-.6-1.1-.7-1.5-2.1-.5-1.5.3-3,.3-3.1h0Z"/>
  <path class="st3" d="M918,420c.4-.2,1.6-.8,2-.8,1.5,0,1.7,1,2.6,1.6.2.1.4,0,.4,0,.7.5,1.4,1,2,1.5.7.6,1.3,1,1.9,1.7,0,0,0,.3.1.3h.2c.2.1.6.4.9.6l.2.5c0,.2.9.4,1.1.5,1,.7.9,1.1,1.4,1.6s1,.5,1.2.6c.1,0,.2.2.4.3.8.6.9,1.4,1.7,1.9v.3c.1,0,.4,0,.4,0,1.9.4,2.2,2.4,3.3,3.4.3.2.3.3.5,0,0-.1.2-.2.2-.3l.5-.2c.4,0,.5-.2.8-.3.4.3.8.2,1.2.3.2,0,.3,0,.5,0,.9,0,.8-.1,1.7-.4,0,0,.2,0,.3,0,.5.5,1.1.3,1.6,0,.2.1.5,0,.5,0,1.1.5,1.1.2,2,.4.2,0,.3,0,.5,0,.5,0,1.2,0,1.4,0,.7.2,1.3,1.1,2.1.6.3.2.5.1.7.2,1,.4,1.8.3,2.8.4.4.3.6.3,1.1.5.4.1.7,0,1,.2,1.2.4,1.6.8,3,.5l3.2,1.1,1-.2c.2,0,.2.2.5,0,.4.4,1.1.7,1.5,1.1.8.8.7,1.4.8,2.3-.6,1.6-2.9,2.1-3.7,3.1-.5.6-.5,1.3-1.2,1.9-.4.3-2.7,1-3.6,1.5-.1,0-.3.1-.5.2-.4.3-.5.4-.7.6,0,0-.4,0-.7.3-.3.3-.7.7-.9,1.1,0,.1-.2.2-.2.4,0,.3.4.5.5.7.4.6.7,1.3,1.2,1.8-.1.4.3.7.5.9.6,1.3.5.9,1.4,1.9.2.3.3.5.8.9.2.1.4.3.6.4.7.9.8,2.1,1.6,2.9.5.5,1.3.9,1.8,1.4-.6.6.8,1.6,1.3,2.1.4.4,1,1.3,1.2,1.5l.2.5c0,.3.4.8.6,1.1.2,1-.4,1.4-.7,2.1,0,.2-.4.4-.4.6l-1.4.7c-1.9-.4-2.8-1.6-4-1.9-.5,0-1.1,0-1.6,0-.1-.1-.4-.3-.6-.4-.3-.3-.4-.7-1.1-.5,0,0-.3-.2-.4-.3-1.2-1.5-2.8-.6-4.1-1-.4-.1-.5-.4-1.2-.6-.5-.1-1-.2-1.5-.3-.2,0-.4-.2-.7-.2-1.1,0-1.4.4-1.4,1.5-.5.6-.6,1.2-.9,1.6-1.2,2-.8,1.8-1.5,3.5,0,.2-.3.4-.4.6-.1.3-.2.6-.2.7-.2.4-.6.7-.8,1.1-.3.7-.2.8-.3,1.2-.5,1.8-.7,1.8-1.6,3.3-.6,1-1.1,2.1-1,3.3-.3.3-.4.6-.7.9-.9,1-.3.5-.5,1.1-.3,1-.9,1.6-1.8,2.1-.5.2-1.2.2-1.7.4-.6-.3-1.1-.9-1.7-1.2l-.2-.5c0-.1-.3-.4-.3-.7-.5-2.3-1.1-4.8-1.6-7-.2-.8-.4-1.1-.5-2.1,0-.3,0-.6,0-1.1,0-.2.2-.6.1-.9l-1.2-5.9c-.4-.4-1,.3-1.3.4,0,0-.2,0-.3,0-.6.3-1.5.7-2.1.9-.8.2-1.7,0-2.5.3-1.2-.5-.7-.1-1.1,0-.1,0-.5-.1-.6,0-.5-.1-1.5,0-2,0s-1,.1-1.4.4c-.9-.1-1.8.3-2.6.4-1.2.1-1.7.2-2.9.4-.3,0-.6,0-1,.1-.6.2-.6,0-1.4.4-.5,0-1.1-.3-1.6,0-.3-.2-.6-.4-.9-.7-.3-.3-.7-.4-1-.8s-.2-.6-.4-.8c0,0,0-.2,0-.3,0-1.1,1.1-1.5,1.6-2.1s.1-.5.1-.6c1.2-2.1,2.4-4.4,4-6.1h.3c0-.1,0-.4,0-.4.4-.2.4-.9.5-1.1,1.1-1.5,2.1-2.5,3.1-3.7,0-.1.2-.2.3-.4.5-.6.9-1.3,1.4-1.8.3-.3,1-.8,1.5-1.2,0,0,.3,0,.5-.2.5-.6.5-.9.8-1.4.5-1,.6-.8.4-2-.2-1.1-.7-2.1-1.1-3.1.5-.6,0-1-.2-1.3-.2-.6-.3-1.2-.4-1.7.4-.4,0-.8,0-1.1-.1-.9-.3-.9-.6-1.6-.1-.3,0-.4-.3-1.1,0-.1-.1-.3-.2-.5,0-1.1,0-1.9-.1-2.9-.3-1.5-.4-1.5-.3-3.1,0-.7,0-.8-.4-1.4-.1-.2-.4-.5-.6-.7,0-.7,0-1.6-.3-2.2-.2-.6-.8-1.2-.9-1.8,0-.4.3-1.2,0-1.6.2-.2.4-.6.5-.7h0ZM948.1,437.9c0,0-.7.4-1.3.4-2.5-.3-1.7-.7-4.6,0-.3,0-.8-.1-1,0-.6.2-.3,1.7-2.2,1.8-2.7.2-2.5-1.9-3.7-3.2s-2.6-2-3.8-2.9c-.5-.4-.9-1.5-1.5-1.9-.7-.5-1.6-.4-2.4-1.3-.8-.9-.8-.8-1.7-1.5-.4-.4-1.6-2-2.2-1.5,0,.5-.2,1.9-.2,2.2,0,.5.9,2.1,1,2.7,0,.5-.2,1.1,0,1.8.7,2.8,1.5,5.7,2.1,8.5,0,.3.4.7.5,1.1.4,2,.3,3.5-.8,5.3-.9,1.6-3.2,3.9-4.6,5.1-.6.6-.7,1.4-1.2,2-1.1,1.4-2.7,2.7-3.7,4.3-.5.8-.7,2.2-1.7,2.9.3.2.6-.2,1-.3.9,0,1.8.2,2.8,0,.7-.2,1.4-.7,2-.8.7,0,1.2.4,1.6.4.2,0,3.4-.4,3.7-.5,1.5-.3,3.3-1.2,4.7-1.7.6-.2,3.3-.7,3.7-.5,1.1.6,2.1,1.7,2.2,2.9s-.6,1.5-.7,2.2c0,.2.3.9.4,1.4,0,.8-.2,2.1,0,2.7.1.7.7,1.9.8,2.7,0,.3-.2.7-.2.9,0,.3.7.7.9,1.4.2.7-.2,1.2,0,1.9.7-.5.4-1.6.8-2.2,1.5-2.4,1.4-3.3,2.5-5.6.6-1.2,1.7-2.4,2.2-3.4.2-.5,0-1.1.2-1.7.4-.8.7-1.4,1.2-2.3.8-1.7,1.3-2.8,3.4-2.6,2.6.3,5.9,2,8.5,2.2.4,0,.7,0,1.1,0,0-1-1-1.3-1.6-2.1-1.2-1.6-2.9-4.6-4.1-6.4-.2-.3-1-1.9-1.1-2.1-.2-.7.8-4.1,1.2-4.6.4-.5,1.4-.6,2-1,.8-.5,1.3-1.3,2-1.7.9-.6,3-.3,3.6-1.7,0-.6-4.6-1-5.3-1.3-.5-.2-1.1-.7-1.3-.7-.1,0-.5.3-1,.3-.9,0-1.5-.8-1.8-.9-.3,0-.6.3-1.3.2-.8-.1-1.3-.8-1.3-.8h0Z"/>
  <path class="st2" d="M23.1,377c-.1.6.1.9.7.7,1.6,1.5,4,3.6,6,4.1-.1.7,0,.9.7.7.2.2,2.5,2,3,2.4,6.6,5,12.3,11.2,17.8,17.2.3.3.3,1,.7,1.4,1,1,3.9,3.4,5.2,3.3.7,0,1.3-.5,1.9-.6.8,0,3.5,0,3.8-.5h.7s0-.8,0-.8c.5,0,2.1.1,2.2,0,.5,0,1-.2,1.1-.7.4,0,1.7,0,1.9,0h1.1v-.7c1.3,0,2.2-.2,3.4-.4.7,0,1.8.3,2.2-.4.2,0,.5,0,.7,0l.7-.4c.7,0,1.1-.7,1.7-.8.8-.1,1.5.4,2.5.3,2.6-.3,7.4-2,10.3-2.5,1.8-.3,3.7-.2,5.5-.8,2.1.2,3.2,1.8,2.8,3.9-.1.6-.7,1-.7,1.7l-.4.7c-1.6,1.2-2.1,3.7-3.2,4.9-2,2.3-4.8,4.4-6.9,6.7-.5,0-.9.2-1.1.7-.2.1-.5.5-.7.7-.8.2-1.7.1-1.5,1.1-1.1.6-2.3,1.2-3.4,1.9l-1.1.7c-.6.3-.8,1.1-1.4,1.4-1.6,1.1-3.3,1.2-4.3,3.4h-.7v.7c-.5,0-1.4-.2-1.8,0-.2.1-1.4,2.1-1.9,2.4-.2,1.2,3.7,1.7,4.8,2.2,2.1,1,6.6,3.6,8.9,4.9,5.4,3.1,9.7,6.4,14.5,10.2,3.2,2.5,6.2,5.6,9.6,7.8,0,.5.2,1,.7,1.1.2,2.7,0,3.4-2.6,3.7-.4,0-.9-.1-1.1.4-.3,0-1.7.2-1.9.4l-.7.4c-.4,0-2.2,0-2.2,0h-.7v.7c-2.8.4-6.4.4-9.4.4h-1.5c-.5-.3-2-.7-2.6-.7-.4,0-1,0-1.1.4-.9-.1-2.6-.4-3.4-.4l-.7-.4c-7.8-.4-15-3.8-22.5-5-.3,0-.6-.4-.9-.6-1,.8,0,1.7-.3,3-.2.7-1.1,1.2-1.3,1.7-.2.7-1.6,7.9-1.6,8.3-.5.2-.4.7-.4,1.1,0,.7,0,1.5,0,2.2h-.7l.4,1.5c-.5,3.2-1.1,6.2-1.5,9.4,0,.4,0,.8,0,1.1-.3,2.4-.5,6.4-1.4,8.5-.7,1.4-1.6,2.2-3.3,2.3-1.4,0-3-2.4-3.8-3.5-3.1-4.6-4.2-9.3-4.9-14.7,0-.6,0-1.3,0-1.9,0-.8-.3-1.5-.4-2.2,0-1,0-1.7,0-2.6,0-.2,0-.5,0-.7,0-.5.6-1.2-.4-1.9,0-.2,0-.5,0-.7,0-.4,0-.9-.4-1.1.1-1,.5-5.1-.4-5.6l-.4-.7c0-.6,0-1.3,0-1.9.6-.4.3-.9-.4-1.1,0-.1,0-.3,0-.4,0-.3,0-.7-.4-1-.4-.4-.7.2-.8.2-.2,0-.5,0-.7,0-.4,0-.9-.2-1.1.4-.4,0-.7,0-1.1,0s-.9,0-1.1.4c-1.7-.1-2.8.4-4.5.7-.4-.8-1.5-.2-1.9.4-.2,0-.5,0-.7,0s-.5,0-.7,0c-.9,0-1.7,0-2.6,0-.4,0-.7,0-1.1,0-.9,0-1.7,0-2.6,0l-.7.4c-1.6-.2-2,.5-2.9.6-.6,0-1.8-.3-2.7-.3l-.6-.4-.2.4c-2.6,0-8.2.8-7.5-3.5.1-.7,3.7-4.6,4.5-5.6.8-1.1,2-3.8,2.7-4.6,1.4-1.5,1.5,0,2.5-3.1,1-.1,1.6-.8,2.2-1.5,1.6-1.6,1.8-3,3-4.7,1.4-2,4.4-5,6.2-6.9.7-.8,3.1-2.7,3.4-3.4.3-.7,0-1.2-.2-1.9-.1-.7.2-1.6-.7-1.9-.1-.7-.3-1.1-.4-1.9.6-.1.4-.8,0-1.1-.3-2.8-3.2-7.2-3.4-10.5l-.4-.7c.2-1.1-.2-1.7-.4-2.6-.1-.6.1-1.3-.7-1.5,0-.5,0-1,0-1.5-.2-1.7-.6-1.4-.7-1.9-.2-.4-.3-.7-.4-1.1-.2-.7.4-1.9-.7-2.2,0-.1,0-.3,0-.4,0-.6-.2-1.1-.7-1.5,0-.4,0-.8,0-1.1,0-1.4-.2-2.2-.4-3.7,0-.2,0-.5,0-.7,0-.4.1-.9-.4-1.1,0-.4,0-.8,0-1.1,0-1.4-.7-3.4-.7-4.5,0-.6,0-1.3,0-1.9,0-.5,0-2.4.4-2.6,0,0,.5,0,.7,0v-.7c3.1-.5,2.7-.9,4.9,1.1h0ZM41.7,399.5c-4.1-4.2-8.8-8.1-13.2-11.7-.6-.5-4.6-3.8-5.1-3.3-.7,1.6.1,2.5.3,3.7,1.3,10,5.6,20.5,7.8,30.4.4,1.9,2.2,8,2,9.4-.4,2.7-2.7,1.4-3.9,1.4s-1.1,1.4-1.7,2c-2.8,3.3-5.3,6.4-8,9.5-2.1,2.3-4.1,5.6-5.8,8.1-.6.9-2.4,1.2-2.3,2.8.4.4,5.6-.7,6.6-.7,1.4,0,3.7.4,5.2.3,4.6-.2,8.4-2,13.1-2.6.8-.1,1.4-.7,2.3-.8,2.3-.2,2.6,1.1,3,3,1.1,5.2,2.1,11.9,2.4,17.1,0,1.2-.5,2.4-.4,3.7.2,2,.6,4,.8,6.3.1,1.5,1.4,3.4,1.3,5.1l1.3.4c0-.6-.4-1-.3-1.6.4-2.9,1.4-6,1.8-8.7.4-2.3,0-5.3.4-7.4.6-3.6,2.8-7,3-11.3.1-2.5-1.7-5.2,2.8-5.1,6.5.2,15.7,4.2,22.2,5.9,4.3,1.2,15.7,1.7,20.1,1.1,1.1-.2,2.4-.3,3.2-1.2l-13-10.2c-4.7-1.6-8.5-5.2-12.6-7.2-2.8-1.4-13.3-3.4-10.7-8.3,2.5-4.7,8.4-7.5,12.4-10.7.6-.5.9-1.4,1.6-1.9,1-.7,2.6-.7,3.5-1.7.5-.5.6-1.4,1-1.7.9-.6,2.3-.8,3.7-1.9,1.8-1.4,2.3-3,3.6-4.3.8-.8,2.1-.6,1.9-1.7-1.1-.9-7.8,1.8-9.6,1.9-7.2.3-12.3,2.2-19.2,3.6-1.4.3-5.1,1.2-6.1,1.2-4.6,0-8-4.7-10.9-7.8-1.7-1.7-3.1-3.7-4.4-5.1h0ZM11.3,451.8v.4c.2-.1.2-.2,0-.4Z"/>
  <g>
    <path class="st2" d="M93.5,337.8c-.6,0-1-.4-1.4-.8,0,0,0,0-.1-.1h-.2c0,0-.1-.3-.1-.3,0,0-.3-.3-.4-.4l-.5-.3h0c0-.2-.3-.6-.5-.8h0s-.2.2-.2.2l-.3-.3c-.9-1-1.8-2.3-2.7-3.6l-.5-.7v-.2c0-.2-.2-.7-.4-1,0,0,0,0,0,0h-.3c0,0-.1-.3-.1-.3l-.2-.3c-.2-.3-.4-.8-.5-1h0c0-.1,0-.5,0-.5-1.1-1.9-1.8-3.9-2.5-6-.5-1.4-.9-2.7-1.5-4-.2.2-.4.3-.7.4-.1,0-.2,0-.4,0s-.3,0-.4,0-.1,0-.2,0c-.3.1-3.2,1.4-3.5,1.6l-.3.2h-.2c0-.1,0,0,0,0-.1,0-.2.2-.3.2-.2.1-.4.3-.5.4l-.4.2h0c0-.1-.1,0-.1,0,0,0-1,.5-1.4.7-.9.4-1.8.8-2.7,1.3,0,0,0,0-.1,0,0,0-.2.1-.3.2-.2.1-.5.3-.8.4-1,.6-2.1,1.2-3,1.3-.2,0-.4,0-.5,0-.7,0-1.3-.3-1.7-.9-.5-.7-.1-1.8.3-2.9,1.1-2.7,2.8-4.5,4.5-6,.1-.1.3-.2.4-.3.1,0,.2-.1.3-.2.1,0,.2-.2.3-.3.1-.2.3-.3.5-.4.3-.2.5-.4.7-.5l.6-.4c.1,0,.2,0,.3-.1,0,0,.1,0,.1,0v-.2s.2-.2.2-.2c.1,0,.2-.1.3-.2,0,0,0,0,0,0v-.2c0,0,.3-.2.3-.2,1.1-.6,1.7-1.1,1.8-1.2h0c0,0,.3-.7.3-.7h.1c.2-.2.5-.4.7-.5h.1c0,0,0-.1,0-.1l.2-.3h0c0,0,0,0,0,0,0,0,0-.1-.1-.2,0,0,0,0,0,0,0,0,0-.1-.1-.2h-.2c0,0-.1-.3-.1-.3,0,0-.1-.2-.2-.2,0,0-.2-.2-.2-.3h-.3c0,0-.1-.3-.1-.3-.3-.5-.6-.7-1-1.1-.1-.1-.3-.2-.4-.4l-.3-.3v-.2c0,0,0,0,0,0h-.2l-.2-.2c0,0,0-.1-.1-.2l-.3-.4c-.1-.2-.3-.4-.4-.5-.1-.2-.2-.3-.3-.5v-.2c-.2,0-.2-.2-.3-.3-.1-.2-.3-.4-.4-.6,0-.1-.2-.2-.2-.3l-.4-.2h0c-.2-.5-.3-.5-.5-.6-.1,0-.3-.2-.4-.3-.1-.2-.3-.4-.4-.6,0-.2-.2-.4-.3-.5h0s0,0,0,0l-.2-.3c0-.1-.2-.3-.3-.5-.6-.9-1.4-1.9-1.2-2.9.1-.5.5-.9,1.1-1.2.1,0,.3,0,.5,0,.5,0,1.3,0,2.1.2.4,0,.8,0,1,0h0c.4,0,.7,0,1.1,0,.4,0,.8,0,1.1,0s.2,0,.3,0c.4,0,.6.2.8.3h0c.1,0,.4,0,.7-.1h.3c0,0,.2.1.2.1.2.2.4.2.7.3h.2c.2,0,.4,0,.6,0,.3,0,.6,0,.8,0,.3,0,.6,0,1,0,.9,0,2,.2,3,.3.5,0,1,.2,1.5.2.2,0,.6.1.9.2.4,0,.9.2,1.1.2,0,0,0,0,.2-.2,0,0,.1-.2.2-.3,0,0,.2-.1.3-.2,0,0,.1,0,.1-.1v-.3c0,0,0-.2,0-.2l.2-.2c.1-.1.3-.3.4-.4l.3-.3h0s0,0,0,0c.4-.3.8-1,1.3-1.7.5-.9,1.1-1.7,1.8-2.3l.2-.4h.1c.3-.2.4-.3.6-.6,0,0,.1-.2.2-.2,0,0,.1-.1.2-.2,0,0,0,0,0,0v-.3c-.1,0,.2-.2.2-.2,0,0,.2-.1.3-.2,0,0,.2-.1.3-.2.2-.2.3-.3.3-.3,0,0,0-.2.1-.4.1-.2.2-.3.4-.5.1-.1.3-.2.4-.3,0,0,.2-.1.2-.1v-.3c-.1,0,.2-.2.2-.2h.1c.2-.2.2-.3.2-.4v-.3s.3-.1.3-.1c0,0,.1,0,.2-.1,0,0,.2-.1.3-.2.3-.2.5-.4.8-.6.1-.1.3-.3.5-.4,0,0,.2-.1.2-.2h.2c0-.1,0-.3,0-.3l.3-.2c.1,0,.3-.2.4-.3.2-.2.5-.5.8-.8.3-.3.5-.5.7-.7.2-.1.4-.3.6-.4h.2c.2-.2,1-.8,1.4-.8h.2c0,0,.1,0,.1.1l.2-.2s.6.6.7.7c.8.8.8,1,.6,2.1v.3c.1,0,0,.1,0,.1v.2c-.1.8-.3,2.3,0,3.2l.2.5h-.2c0,0,0,.4,0,.4,0,.1,0,1.1-.1,1.7-.2,3.9-1.1,7.8-1.9,11.6,0,.2-.2.4-.2.5,0,0,0,.1,0,.1-.2.8-.2,2.2,0,2.5,0,0,.2.1.3.2.1,0,.3.2.4.3,0,0,.2.2.3.4.2.2.5.6.6.8h.1s0,0,0,0l.3-.2.3.3c0,0,.2.3.3.5,0,.1.1.2.2.3h0s0,.1,0,.1h.3c0-.1.2.2.2.2,0,0,.1.2.2.4,0,0,.1.2.2.2h0s.1.2.1.2l.3-.2.3.4c.3.3.5.6.7.9l.3.3c0,0,.2.2.2.4,0,0,.1.2.2.3h.3s0,.3,0,.3c0,0,0,0,0,.1l.3.2h0c0,.1.1.1.2.2.1,0,.4.1.5.3.2.2.3.4.3.6,0,.2.1.3.2.4.4.5,1.2,1.2,2,1.8.6.5,1.3,1.1,1.7,1.5.2.2.4.5.7.8.3.4.7.8,1.1,1.1h0c0,0,0,.2,0,.2.3.5.4,1.1.2,1.6-.2.5-.6,1-1.2,1.2-.2,0-.4.1-.6.1-.1,0-.2,0-.2,0h0c0,0-.6.1-.6.1h-.1c-.2,0-.3-.1-.6-.1s-.6,0-.9,0c-.3,0-.6,0-.9,0s-.1,0-.2,0c-.8,0-1.6-.3-2.4-.5-.7-.2-1.4-.3-2-.4h-.2s-.1-.2-.1-.2h-.2s-.2,0-.2,0c0,0-.4,0-.4,0h-.1s-.1-.1-.1-.1c0,0-.1-.1-.2-.2,0,0,0,0,0,0v.2c-.1,0-.5-.2-.5-.2-.2,0-.3-.2-.5-.3-.3-.2-.7-.4-1.1-.5l-.6-.2c0,0-.2,0-.3,0-.2,0-.4,0-.6,0-.3-.1-.5-.2-.7-.4-.4-.2-.7-.4-1.1-.4s-.2,0-.4,0h-.3c0,0-.1,0-.1,0l-.3.2-.3-.3c0,0-.2-.2-.2-.3,0,0,0-.1-.1-.2,0,0-.3,0-.3,0-.2,0-.4,0-.6,0,0,.3.2.8.3,1,.1.3.2.6.2.8.2.9.3,2.6.4,3.9v.9c.3,3,.2,5.7,0,8.4,0,.8-.1,1.5-.2,2.3-.1,1.2-.3,2.3-.3,3.5v.3s-.2.2-.2.2v.3c.1,0-.2.2-.2.2-.5.4-1,.7-1.5.7ZM81.7,312.4c.7,0,1.2.6,1.5,1.1,1.2,1.8,2,4.6,2.7,7.1.3,1.2.6,2.3,1,3.2.7,1.9,3.4,6.3,4.8,7.9h.1c.1.3.3.4.4.5l.4-6.9c-.4-1.4-.4-2.8-.4-4.2,0-.9,0-1.8-.1-2.6,0-.3-.2-.7-.3-1.3-.5-1.7-1-3.7-.2-4.9.3-.4.8-.7,1.4-.8.2,0,.5,0,.7,0,1.7,0,3.3.6,4.9,1.3.7.3,1.4.5,2,.7,0,0,.1,0,.2,0h.3c.2,0,.5,0,.7.1.3.1.5.3.8.5.3.2.5.4.7.4,0,0,0,0,0,0,.1,0,.2,0,.3,0,.1,0,.2,0,.4,0s.2,0,.3,0c.3.1.5.2.7.4.3.2.6.4,1,.5.4.1.8.2,1.2.2h.5c.2,0,.4,0,.6,0-.4-.3-.8-.6-1.1-.9-.7-.6-1.1-.9-1.3-1.2-1.3-1.8-2.7-3-4.2-4.4-.7-.6-1.5-1.3-2.2-2.1-.1-.1-.4-.3-.6-.6-.8-.7-1.3-1.2-1.5-1.5-1.2-1.6-.6-3.9-.2-5.7,0-.3.2-.7.2-1,.1-.6.3-1.2.4-1.7.1-.5.3-.9.4-1.3.5-2.8.8-5.8,1-8.2,0-1.1.1-1.7,0-2.1-.1,0-.2.2-.3.3-.1.2-.2.3-.4.4-2,1.9-3.9,4.2-5.8,6.5-1.3,1.6-2.6,3.2-3.9,4.6-.2.2-.4.5-.7.8-1.1,1.3-2.1,2.4-2.6,2.6-.3.1-.5.2-.7.2-.8,0-1.1-.7-1.3-1.1,0-.1-.1-.3-.2-.3,0,0,0,0,0,0,0,0-.1,0-.2,0-.1,0-.3,0-.5,0h-.1s-1.5-.1-1.5-.1c-1.5-.1-2.9-.3-4.3-.4-.6,0-1.4-.1-2.4-.1s-1.2,0-1.8,0c0,0-.5,0-.5,0-.3,0-.5,0-.7-.2.2.3.5.6.7.8.3.4.6.7.7.8.2.3.4.7.6,1.1.2.4.4.8.6,1,.7.9,1.6,1.6,2.4,2.4.7.6,1.4,1.2,2,1.9,0,0,.2.1.3.2.2.1.4.2.6.5,1,1.2.2,2-.4,2.6-1.8,1.9-4.1,4-6,5.5-.3.2-.6.3-.9.5-.3.1-.5.2-.7.4-.3.3-.7.6-1,.9-.4.4-.8.7-1.2,1.1-.2.1-.4.4-.5.7.4-.2.9-.4,1.3-.5.6-.2,1.2-.5,1.7-.7.5-.2,1-.6,1.5-.9.5-.3,1-.7,1.5-.9.7-.3,1.5-.5,2.2-.7,1-.3,2-.5,2.9-1.1.2-.1.4-.3.6-.5.4-.4.8-.7,1.3-.7Z"/>
    <path class="st2" d="M100.8,279.8s0,0,0,0c0,0,.1.2.2.3l.3-.2c1,1.1,1.1.8.9,2.2h0c-.3.2-.3.3,0,.5-.2,1-.3,2.5,0,3.4-.3.1-.3.3,0,.5,0,.1-.1,1.5-.1,1.8-.2,3.9-1.1,7.8-1.9,11.5,0,.2-.3.4-.3.6-.1.7-.3,2.4.1,2.9.2.3.6.4.8.6.2.3,1,1.3,1.2,1.4l.2.3.3-.2c.2.2.5.8.6.9.1.2.3.3.4.3s.1,0,.2,0c.1.2.4.7.5.7l.3.4.3-.2c.4.5.7.8,1,1.2.2.2.4.8.7.8s0,0,0,0c0,.1.1.2.2.3l.3.2c.2.3.6.3.7.5.3.3.3.7.5,1,.8.9,2.7,2.3,3.7,3.3.6.6,1,1.4,1.8,1.9.5.9.2,1.7-.7,2.1-.3.1-.6,0-.9.2h-.4c-.2,0-.5,0-.7,0-.6,0-1.3.2-1.9.2s-.1,0-.2,0c-1.4-.1-3-.7-4.4-.9-.1-.2-.3-.3-.4-.3s-.1,0-.2,0c0,0-.3,0-.5,0-.2-.2-.4-.4-.6-.4,0,0-.2,0-.3.1-.5-.3-1.1-.6-1.6-.8l-.6-.2c-.3-.2-.6,0-.9-.1-.7-.3-1.2-.8-2-.8-.1,0-.3,0-.5,0l-.2-.3-.3.2c-.2-.2-.3-.6-.5-.7,0,0-.1,0-.3,0s-.2,0-.3,0c-.4,0-.8,0-.9,0-.5.2.3,1.9.4,2.4.2,1.1.4,3.5.5,4.8.2,2.9.1,5.5,0,8.3-.1,1.9-.5,3.9-.5,5.8-.2.1-.3.3-.2.6-.5.4-.8.6-1.2.6s-.6-.2-1-.6c-.1-.1-.2-.3-.4-.3s0,0,0,0c0-.1-.6-.6-.6-.6l-.3-.2c0-.2-.6-.8-.6-.9l-.2-.3-.3.2c-.9-1-1.9-2.4-2.6-3.5-.1-.2-.3-.4-.4-.6,0-.3-.3-1-.4-1.2,0-.1-.2-.3-.4-.3s0,0,0,0c-.2-.4-.5-1.1-.8-1.4v-.4c-2-3.1-2.6-6.8-4.1-10,0-.1,0-.4,0-.5,0,0-.1,0-.2,0-.4,0-.5.5-1.1.7,0,0-.1,0-.2,0-.2,0-.5,0-.6,0,0,0-.1,0-.2,0-.3.1-3.5,1.5-3.6,1.6,0,0,0,0-.1,0-.1,0-.3.1-.4.2-.3.2-.6.4-.9.6l-.2-.3-.5.5c-1.4.6-2.7,1.2-4,1.9-.2,0-.3.2-.4.3-1,.5-2.6,1.5-3.7,1.7-.2,0-.3,0-.4,0-.5,0-1-.2-1.3-.7-.4-.5.1-1.8.4-2.4,1-2.4,2.5-4.1,4.4-5.8.2-.2.5-.3.7-.5.3-.2.5-.5.8-.7.4-.3.6-.4,1-.7,0,0,.2-.1.3-.2.2-.1.6,0,.6-.6,0,0,.2-.1.3-.2.2-.1.4-.2.3-.4.4-.2,2.1-1.2,2.1-1.6l.2-.3c.2-.1.5-.3.7-.5,0,0,.1,0,.1,0,.2,0,.3-.2.2-.5,0,0,.1,0,.1-.1.1-.1.3-.2.3-.4,0-.3-.3-.2-.3-.2,0,0-.1-.2-.2-.3-.1-.1-.2-.3-.4-.3,0,0,0,0,0,0,0-.2-.2-.3-.3-.4,0-.1-.2-.3-.4-.3,0,0,0,0,0,0-.4-.7-.9-1-1.5-1.5.2-.3-.3-.6-.6-.6,0,0,0,0,0,0,0,0-.1-.2-.2-.3,0,0-.1-.2-.2-.3-.2-.3-.5-.7-.7-1-.1-.1-.2-.3-.3-.4-.2-.3-.5-.7-.7-1l-.3-.2c-.3-.7-.7-.7-1-.9-.2-.2-.4-.8-.6-1.1v-.3s-.2,0-.2,0c-.7-1-2.5-3-.6-3.8,0,0,.2,0,.3,0,.8,0,2.6.2,3,.3,0,0,0,0,0,0,.6,0,1.6-.2,2.2-.2s.1,0,.2,0c.7,0,.6.3,1,.3s.4,0,.9-.2c.3.4.7.4,1.2.5.3,0,.5,0,.7,0,.6,0,1.2-.2,1.8-.2s0,0,0,0c1.2,0,3.1.4,4.3.5.5,0,1.7.4,2.1.4s0,0,0,0c.4,0,.4-.4.7-.6.2-.2.7-.3.5-.8.2-.2.4-.4.6-.6,0,0,.1,0,.2,0,.2,0,.3-.2.3-.4,1-.9,1.9-3.1,3.2-4.1l.2-.3c.5-.2.6-.5.9-.8.2-.2.5-.3.4-.7.2-.1.4-.3.6-.4.6-.5.4-.6.5-.8.1-.2.2-.3.3-.4.2-.3.8-.4.7-.9,0,0,.1,0,.1-.1.2-.2.4-.4.4-.7.2,0,.3-.2.4-.3.6-.3.8-.7,1.3-1.1,0,0,.2-.1.3-.2.2-.1.4-.2.3-.4.1,0,.3-.2.4-.3.5-.4,1.1-1.2,1.5-1.5.2-.2.5-.3.7-.5.2-.1.9-.6,1.1-.6M84.8,299.8c-.7,0-.8-.9-1.1-1.3-.1-.2-.3-.2-.4-.2-.2,0-.5.1-.7.1s0,0,0,0c-2-.2-3.9-.3-5.8-.6-.8,0-1.6-.1-2.4-.1s-1.6,0-2.2,0c0,0,0,0,0,0-.3,0-.8-.3-1.2-.3-.2,0-.3,0-.5.2,0,.2,1.7,2,2,2.4.4.5.8,1.5,1.2,2.1,1.3,1.7,3,2.7,4.5,4.4.2.3.6.3.9.7.7.8.3,1.3-.4,2-1.7,1.8-4,4-5.9,5.5-.5.4-1.1.4-1.6.8-.7.6-1.4,1.3-2.2,2-.5.4-.9,1.4-1.6,1.9l.2.6c.2-.2.3-.4.5-.5,1.2-.6,2.7-1.1,3.8-1.6,1-.5,2.1-1.4,3-1.8,1.5-.7,3.4-.8,5.1-1.9.6-.4,1.1-1.1,1.7-1.1s.6.2,1.1.9c1.7,2.6,2.6,7.2,3.6,10.1.7,2,3.5,6.5,4.9,8,.4.4.8.9,1.3.9l.5-7.7c-.6-2.2-.3-4.7-.6-6.8-.2-1.5-2.2-6,.4-6.3.2,0,.4,0,.7,0,2.3,0,4.7,1.3,6.8,2,.1,0,.2,0,.4,0s.2,0,.3,0c.2,0,.3,0,.5,0,.5.2,1,.8,1.6.9,0,0,0,0,.1,0,.2,0,.5,0,.6,0s0,0,.1,0c.5.2.9.7,1.7.9.5.2,1,.2,1.4.2s.4,0,.5,0,.4,0,.7,0c.4,0,.6.4.9.4s.2,0,.3-.1c0-.7-2.8-2.5-3.3-3.2-2-2.7-4.2-4.2-6.5-6.5-.5-.5-1.8-1.7-2.1-2-1.2-1.8-.3-4.4,0-6.3.2-1.1.6-2.2.8-3.1h0c.5-2.7.8-5.6,1-8.2,0-.3.3-2.8,0-2.9-.8.2-.9.7-1.3,1.1-3.5,3.2-6.4,7.6-9.7,11.1-.6.7-2.5,3-3.1,3.3-.2.1-.4.1-.5.1M70.1,297.6s0,0,0-.1h-.1c0,.1,0,.1,0,.1M101.5,278.6l-.4.2h0s-.2,0-.2,0c-.5,0-1.2.4-1.7.7h-.2c-.2.3-.4.4-.6.5-.2.2-.5.5-.8.7-.3.3-.5.6-.7.7-.1,0-.2.2-.4.2l-.6.4v.2s0,0-.1.1c-.2.2-.4.3-.5.5-.3.3-.4.4-.7.6-.1,0-.2.1-.3.2,0,0,0,0-.1,0l-.5.3v.5c0,0-.1,0-.2.1l-.5.4v.2c0,0-.2.2-.3.3-.2.2-.3.4-.4.5-.1.2-.2.3-.2.5,0,0,0,0-.1.1,0,0-.1,0-.2.1-.1,0-.2.2-.3.2l-.6.4v.3c0,0,0,0,0,0,0,0-.2.2-.2.3-.2.2-.2.3-.4.4h-.3c0,.1-.1.4-.1.4v.2c-.8.6-1.4,1.5-1.9,2.3-.3.5-.7,1-1,1.4h0s-.7.6-.7.6c-.2.2-.3.3-.5.5,0,0-.1.1-.2.2l-.4.4v.2s0,0,0,.1c0,0-.2.2-.2.3-.2,0-.6-.1-.8-.2-.4,0-.7-.2-1-.2-.4,0-.9-.1-1.4-.2-1.1-.2-2.2-.3-3-.3h-.1c-.4,0-.8,0-1.1,0-.3,0-.5,0-.8,0s-.3,0-.5,0h-.2c-.3,0-.4,0-.4-.1l-.4-.5-.6.2c-.3,0-.4.1-.5.1-.2-.1-.5-.2-.9-.3,0,0-.2,0-.3,0-.3,0-.7,0-1.2,0-.4,0-.8,0-1,0h0c-.2,0-.6,0-1,0-.8,0-1.6-.2-2.1-.2s-.6,0-.8.1c-.9.4-1.2,1-1.3,1.5-.3,1.2.6,2.5,1.2,3.4.1.2.2.3.3.5h0c0,0,0,0,0,0h0c0,0,.2.4.2.4,0,0,.1.2.2.3.1.3.3.6.5.8.2.2.4.3.6.4.2,0,.2.1.3.3v.3c.1,0,.4.2.4.2h.1c0,.2.1.2.2.3.1.2.3.4.4.6,0,0,.1.2.2.3v.2c.2.2.3.3.4.5.1.2.3.4.4.6h0c0,.1.1.2.2.3,0,0,0,0,0,0,0,0,.1.2.2.2l.3.4h0s.4.3.4.3c.1.1.3.3.4.4.4.3.7.6.9.9l.4.6h.2s0,0,.1.1l.3.5h0c0,0,0,.1,0,.1-.1.1-.3.2-.5.3h-.2c0,.1-.1.4-.1.4l-.2.3v.3c-.4.2-.9.6-1.7,1l-.7.4v.3s0,0,0,0l-.4.3v.2c0,0-.1,0-.2,0,0,0-.2.1-.2.2h0c-.1.1-.2.2-.3.3-.2.1-.5.3-.8.5-.2.2-.4.3-.5.5,0,0-.2.2-.3.3,0,0-.1.1-.2.2-.2,0-.3.2-.5.4-1.8,1.6-3.5,3.4-4.6,6.2-.5,1.2-.9,2.5-.2,3.3.5.8,1.3,1.1,2.1,1.1s.4,0,.6,0c1-.2,2.1-.8,3.2-1.4.3-.2.6-.3.8-.4.2,0,.3-.2.4-.3,0,0,0,0,0,0,.9-.4,1.7-.8,2.7-1.3.4-.2.8-.4,1.2-.6h0c0,0,.8-.3.8-.3.2-.1.4-.3.6-.4,0,0,.1,0,.2-.1l.2.2.5-.4c.4-.2,2.7-1.2,3.3-1.5,0,0,0,0,0,0,.1,0,.3,0,.5,0s.3,0,.5,0c.1,0,.2,0,.3-.1.5,1.1.8,2.2,1.2,3.4.7,2,1.4,4.1,2.5,6v.2s0,.3,0,.3l.2.2c.1.1.4.6.5.9,0,.1.1.2.2.3l.4.7h.2c0,.1.1.4.2.4v.3s.2.2.2.2v.2c.1,0,.4.4.4.4.9,1.3,1.8,2.6,2.7,3.6l.6.6h.2c0,0,.2,0,.2.1v.2c.1,0,.4.1.4.1l.3.2c0,0,.3.3.3.3l.4.6h.2c.4.4.9.8,1.6.8s1.2-.4,1.8-.9l.5-.4v-.3c0,0,0-.1,0-.1v-.5c0-1.1.1-2.2.2-3.4,0-.8.2-1.5.2-2.3.2-2.7.3-5.4,0-8.5,0-.3,0-.6,0-.9-.1-1.4-.2-3-.4-3.9,0-.2-.1-.5-.3-.8,0,0,0,0,0-.1,0,0,0,0,.1.1l.6.7h.2c0-.1,0-.1,0-.1h.7c0-.2.2-.2.3-.2.2,0,.4.1.8.3.2.1.5.3.8.4.3.1.6.1.8.1,0,0,0,0,0,0,0,0,0,0,0,0,0,0,0,0,0,0h0s.6.2.6.2c.3.1.7.3,1,.5.2,0,.4.2.5.3l.7.3h0c0,0,0,0,0,0h.3c0,0,.1,0,.2,0,0,0,0,0,.1,0h.3c0,.1,0,.1,0,.1h0c0,.1.4.2.4.2.6,0,1.3.2,2,.4.8.2,1.7.4,2.5.5,0,0,.2,0,.3,0,.3,0,.7,0,1-.1.3,0,.6,0,.9,0s.3,0,.4,0h.2c0,0,.2,0,.2,0h.4c0,0,.2,0,.2,0h.1c0,0,0,0,0,0,.2,0,.5,0,.8-.2.7-.3,1.2-.9,1.4-1.5.2-.6.1-1.3-.2-2v-.2c-.1,0-.3-.1-.3-.1-.3-.2-.6-.6-1-1-.2-.3-.4-.5-.7-.8-.5-.5-1.1-1-1.7-1.5-.7-.6-1.5-1.3-1.9-1.7,0,0,0-.2-.1-.3,0-.2-.2-.5-.4-.8-.2-.3-.5-.4-.7-.5,0,0,0,0,0,0h0c0,0-.2-.2-.2-.2h-.1c0,0-.3-.6-.3-.6h-.3c0-.1-.2-.3-.3-.4l-.3-.3c-.2-.3-.5-.5-.7-.8l-.6-.7-.2.2c-.1-.2-.2-.3-.3-.4l-.4-.5h-.3c0,0,0,0,0,0,0,0,0,0,0-.1-.2-.2-.3-.4-.4-.5l-.6-.7-.3.2c-.1-.2-.3-.4-.4-.6-.1-.2-.3-.4-.4-.5-.2-.2-.4-.3-.6-.4,0,0,0,0-.1,0,0-.3,0-1.4,0-2,0,0,0,0,0,0,.1-.1.3-.4.3-.7.8-3.8,1.7-7.7,1.9-11.6,0-.5,0-1.4.1-1.6h0s.4-.2.4-.2l-.3-.9c-.3-.7,0-2.2,0-2.9l.3-.2-.2-.6c.2-1.2,0-1.6-.8-2.4-.1-.1-.2-.2-.4-.4l-.6-.6h0ZM84.8,300.8c.3,0,.6,0,1-.2.5-.3,1.3-1.1,2.7-2.7.3-.3.5-.6.7-.8,1.3-1.4,2.7-3.1,3.9-4.6,1.8-2.2,3.6-4.4,5.5-6.2,0,.2,0,.5,0,.7-.2,2.4-.5,5.4-1,8.1,0,.4-.2.8-.3,1.3-.2.6-.3,1.1-.5,1.8,0,.3-.1.6-.2,1-.4,1.9-1,4.3.3,6.1.2.3.8.9,1.6,1.6.2.2.5.4.6.6.8.8,1.5,1.4,2.3,2.1,1.5,1.3,2.8,2.5,4.2,4.3.2.3.7.7,1.4,1.3-.3,0-.5,0-.8-.1-.3-.1-.6-.3-.8-.5-.2-.2-.5-.3-.8-.5-.2,0-.3,0-.5,0s-.3,0-.5,0c0,0-.1,0-.2,0-.1,0-.3-.2-.5-.3-.2-.2-.5-.4-.9-.5-.3-.1-.6-.1-.9-.1h-.2s-.1,0-.1,0c0,0,0,0,0,0,0,0,0,0,0,0-.6-.2-1.3-.4-2-.7-1.6-.6-3.3-1.3-5.1-1.3s-.5,0-.8,0c-.9.1-1.4.6-1.7,1-.9,1.4-.3,3.5.2,5.3.1.5.3.9.3,1.2.1.8.1,1.6.1,2.5,0,1.4,0,2.8.4,4.2l-.4,5.7c-1.4-1.7-3.8-5.7-4.4-7.4-.3-.9-.6-2-1-3.2-.7-2.5-1.5-5.3-2.8-7.2-.2-.3-.9-1.3-1.9-1.3s-1.3.5-1.7.9c-.2.2-.3.3-.5.4-.9.5-1.8.8-2.8,1-.8.2-1.6.4-2.3.8-.5.3-1.1.6-1.6,1-.5.3-1,.7-1.4.9-.2.1-.4.2-.7.3,0,0,0,0,0,0,.3-.3.7-.6,1-.9.1-.1.3-.2.6-.3.3-.1.7-.3,1-.5,1.9-1.5,4.3-3.7,6-5.6.6-.6,1.7-1.7.4-3.3-.3-.3-.6-.5-.8-.6,0,0-.1,0-.2-.1-.7-.7-1.4-1.4-2.1-1.9-.9-.7-1.7-1.4-2.4-2.3-.2-.2-.4-.6-.6-1-.2-.4-.4-.8-.7-1.1-.1-.1-.3-.3-.6-.6.5,0,1.1,0,1.7,0,.9,0,1.7,0,2.3.1,1.4.2,2.8.3,4.3.4.5,0,1,0,1.5.1,0,0,.1,0,.1,0,.2,0,.3,0,.5,0,.2.5.6,1.4,1.8,1.4h0Z"/>
  </g>
  <g>
    <path class="st2" d="M177,404.1c-.4,0-.7-.2-1-.5-.1-.1-.2-.3-.2-.3h0c0,0,0-.2,0-.2v-.3c-.1,0-.1-.1-.1-.1,0-.2-.1-.4-.2-.6,0-.2-.2-.4-.3-.6-.1-.4-.1-.9-.2-1.3,0-.4,0-.7-.1-1v-.2s0,0,0,0h0s0-.2,0-.2h0c0-.1,0-.3,0-.3h0c0,0,0,0,0,0v-.7c.1-.2.2-.4.2-.6v-.3c0-.2,0-.3,0-.5,0-.2,0-.3,0-.5,0-.3,0-.4,0-.6l-.2-.3h0s-.1,0-.1,0l.2-.4c0,0,0-.1.1-.2,0,0,0,0,0,0,0,0-.1,0-.2.1-.1.1-.3.2-.4.2-.4.2-1.2.5-1.9.7l-.4.2c-1.5.5-2.8.9-4.2,1.1-.4,0-.8.1-1.2.2-.6,0-1.2.2-1.7.3h-.2c0,0,0,0,0,0h-.1c0,0-.3-.1-.3-.1-.6-.4-1-.8-.5-1.7h0c0-.1.3-.4.3-.4,0,0,0-.1,0-.2v-.3c0,0,.2-.2.3-.2h-.1c0,0,.2-.5.2-.5.3-.6.8-1.2,1.3-1.8l.3-.4h.2c0,0,.1-.1.2-.2h0c0-.1.4-.5.4-.5,0,0,.3-.3.3-.3h0c0-.1.2-.2.2-.2.7-.8,1.6-1.4,2.5-2.1.5-.4,1-.7,1.5-1.1,0,0,0,0-.1-.2-.1-.2-.2-.4-.2-.5,0-.2-1.2-1.4-1.3-1.5l-.3-.2h0c0-.1,0-.1,0-.2-.1,0-.2-.2-.3-.2l-.3-.3h0s-.5-.6-.5-.6c-.4-.4-.7-.8-1.1-1.2-.1,0-.2-.1-.2-.2,0,0-.2-.2-.3-.3-.5-.4-1-.9-1.2-1.4-.3-.5-.3-1.1,0-1.5.3-.3.8-.4,1.1-.4s.4,0,.6,0c1.5.2,2.7.8,3.8,1.4,0,0,.2.1.3.2,0,0,0,0,.1,0,0,0,.1,0,.2.1.1,0,.2.1.3.2.2.1.3.2.4.3l.4.3h0c0,0,.1,0,.1,0l.3.2h.1c0,0,.3.2.3.2.4.3.6.6.8.6h.5c0,.1,0,.2,0,.2,0,0,.2.1.3.2h0s0,0,0,0l.2-.2s0,0,0,0h0c0-.1.3-.4.3-.4.1-.2.2-.3.3-.6l.2-.5h0s.2-.3.2-.3c0,0,.8-1,.8-1,0-.1.2-.2.2-.3h0c0-.1,0-.3,0-.3h.1c0-.2,0-.2,0-.3,0,0,0-.2.1-.3,0-.1.2-.2.3-.3,0,0,0,0,.1-.1l.2-.2c0,0,.1-.1.2-.2.3-.5.8-1.1,1.5-1.1s.6.1.9.4c.2.2.2.5.5,1.4,0,.2,0,.4.1.5,0,.1.1.3.2.5.2.3.3.6.3.7,0,.2,0,.4,0,.5,0,0,0,.1.2.2l.2.3-.2.3s0,.1,0,.2c0,.3.1.5.2.7,0,.2.2.3.2.6.1.4.2,1,.3,1.5,0,.3,0,.5.1.7,0,.1,0,.3,0,.5,0,.1,0,.3,0,.5,0,0,.1,0,.2,0,0,0,0,0,.1,0h0c0,0,.4.1.4.1,0,0,.2,0,.3.2h.1c0,0,0,0,0,0h0s.2.2.2.2h0c.2.1.6.2.9.3.5.1,1,.3,1.5.6h.3c0,0,.1.2.1.2,0,0,.1.1.3.2,0,0,.2,0,.2,0h.1c0,0,.3.1.3.1,0,0,.1,0,.2.1,0,0,0,0,.1,0,0,0,.1,0,.1,0,0,0,0,0,0,0,0,0,.1,0,.2,0,.1,0,.2,0,.3.1,0,0,.2,0,.2.1h.1c0,0,.3.1.3.1h0c0,0,.3,0,.3,0l.2.2c.1,0,.2.1.2.2.1.1.2.2.4.3,0,0,.2.1.3.2,0,0,0,0,.1,0h0c0,0,.3.2.3.2,0,0,.1,0,.2.1.1,0,.3.2.5.3.2,0,.4.2.5.3.1,0,.2.2.3.2h0c.6.6.6.8.6.9h.2c0,.1-.3.7-.3.7-.3.6-.4.7-1.1.7l-.3.2h-.1c0-.1,0-.1,0-.1-.3,0-1.1.1-1.4.4l-.4.3v-.2c-.1,0-.2,0-.2,0,0,0-.7.1-.8.2-2,.5-4,.6-6,.7h0c-.2,0-.3,0-.4,0-.3,0-.9.2-1.1.3,0,.1,0,.3-.1.4,0,0,0,.1-.2.2,0,0-.1.2-.2.3h.2c0,.1-.2.5-.2.5,0,0-.1.2-.2.3,0,0,0,0,0,0h0s0,.2,0,.2l-.2.3s0,.1-.1.2h.1c0,0-.3.5-.3.5-.1.2-.2.3-.3.5v.2c-.2,0-.2.1-.3.2v.2c0,0-.2.2-.2.2v.2s0,0,0,0c0,0,0,.2,0,.4,0,.2-.2.3-.3.3,0,0,0,0-.1,0-.2.3-.3.7-.5,1.2-.2.4-.3.8-.5,1.1,0,.2-.2.3-.3.4-.1.2-.3.4-.3.6h0c0,.1,0,.2,0,.2-.3.3-.6.4-.9.4ZM175.6,391.5c.5,0,.9.3,1.2.7.5,1,.4,2.1.4,3.1,0,.4,0,.7,0,1.1,0,0,0,0,0,0,0,.1.1.3.1.5,0,.2,0,.4-.1.5,0,.1,0,.2,0,.3.1.2.2.3.2.6,0,.2,0,.3,0,.5,0,.2,0,.3,0,.5,0,.2,0,.3,0,.5,0,0,0,0,0,0,.2-.5.3-.7.4-.9.6-.9,1-1.7,1.4-2.6.2-.5.4-.9.6-1.4,0,0,.1-.2.2-.4.2-.5.4-.9.5-1,.7-.9,1.9-.9,2.9-1,.2,0,.4,0,.5,0,.2,0,.4,0,.7,0h.5c.2,0,.3,0,.4,0,1.4-.1,2.9-.4,4.2-.6.1,0,.3,0,.4,0-1.2-.7-2.6-1.3-4-1.9-1-.4-2-.8-2.9-1.3-.1,0-.3-.1-.5-.2-1.1-.5-1.6-.7-1.8-.9-.2-.2-.3-.5-.3-.7,0-.4.3-.6.5-.8,0-.1-.1-.2-.1-.3l-.2-.8c-.2-.7-.4-1.5-.5-2.2-.1-.6-.4-1.4-.6-2h0c-.1.2-.2.3-.2.4-.1.1-.3.3-.4.5-.1.1-.3.3-.4.4-.3.5-.5,1-.8,1.5-.2.4-.4.9-.6,1.3,0,.2,0,.4-.2.6-.2.3-.5.5-.9.5s-.5-.1-.8-.3c-1.2-.6-2.7-1.5-3.8-2.2-.2-.1-.3-.3-.4-.4,0-.1-.2-.2-.2-.2-.2-.1-.4-.2-.6-.4h0c0,0,.2.2.3.3.2.2.4.4.7.6.3.2.5.4.7.6.3.3.5.7.8,1,.3.4.6.9,1,1.2,0,0,.2.1.3.2.3.2.6.4.7.8,0,.4-.2.8-.4,1-.7.9-2,1.7-3.1,2.4-.5.3-1,.6-1.4.9-.7.5-2.3,2.3-2.9,3.2l2.9-.6c.6-.4,1.3-.6,2-.8.4-.1.9-.3,1.2-.4.1,0,.3-.2.5-.3.6-.4,1.4-.9,2.1-.9Z"/>
    <path class="st2" d="M179.9,377.1c.2,0,.3,0,.5.3.1.1.4,1.4.5,1.7,0,.3.4,1,.5,1.2.1.5-.2.3.2.9-.1.2,0,.4,0,.6,0,.5.3.8.5,1.3.2.6.3,1.6.5,2.2,0,.3,0,1,.2,1.1,0,.2.3.2.4.2.1,0,.2.2.3.2s0,0,.1,0c.1,0,.3.1.4.2,0,.1,0,.2.2.2s0,0,0,0c.6.4,1.9.5,2.5,1h.2c.2.2.3.3.6.4,0,0,.2.1.3.1s0,0,.1,0c.1,0,.2.2.3.2.2.1.3.1.3.1s0,0,0,0,0,0,0,0c0,0,.2,0,.3.1.1,0,.3.3.4.3s0,0,.1,0c0,0,0,0,0,0,0,0,.2.1.3.1s0,0,.1,0c0,0,.2.1.2.2.3.2.5.3.8.5,0,0,0,0,.1.1,0,0,.1.1.2.1s0,0,0,0c0,0,.1.1.2.2.3.2.8.4,1,.6.1,0,.2.2.4.3.1,0,.5.4.5.5,0,0,0,0-.1.1h.1c-.3.8-.2.8-.9.8h0c0,0,0,0-.1,0,0,0,0,0-.1.1-.5,0-1.3.2-1.7.5,0,0,0,0-.1,0s0,0-.1.1c0,0,0,0,0,0,0,0-.8.2-.9.2-1.9.4-4,.6-6,.7,0,0,0,0,0,0-.1,0-.2,0-.3,0s0,0,0,0c-.3,0-1.2.2-1.4.5-.1.1,0,.3-.2.5,0,.2-.5.7-.5.8h-.1c0,.1.1.3.1.3,0,0-.3.4-.3.4,0,.1,0,.2,0,.3,0,0-.3.3-.3.3l-.2.2h.1c-.2.4-.3.5-.4.8,0,.1-.3.3-.3.5,0,0,0,0-.1.1v.2c-.1.1,0,.3-.1.4,0,.2-.3.2-.4.4-.3.5-.7,1.7-1,2.3-.2.4-.5.7-.6,1.1-.2.2-.3.2-.5.2s-.4-.1-.6-.3c-.1-.1,0-.3-.2-.4v-.2c0-.5-.5-1-.6-1.3-.2-.7-.2-1.6-.3-2.3,0-.1,0-.2,0-.3,0,0,0-.2,0-.3,0-.2.2-.3,0-.4,0-.3.1-.6.1-.9v-.3c0-.2,0-.3,0-.5,0-.5.3-.8,0-1.3h.1c0-.1-.1-.3-.1-.3,0-.1.2-.2.2-.3,0,0-.2-.6-.2-.7,0,0,0,0-.1,0-.3,0-.8.5-1,.6-.5.2-1.7.7-2.3.9-1.4.5-2.7.8-4.1,1.1-1,.2-2,.3-2.9.6,0,0-.1,0-.2,0s0,0-.1,0c-.5-.4-.7-.5-.4-1.1,0,0,.2-.2,0-.3,0,0,.2-.4.2-.4v-.2c0,0,.4-.4.4-.4h.1c0-.1-.1-.3-.1-.3.3-.6.9-1.2,1.3-1.8,0,0,.1-.2.2-.3.1,0,.4-.3.5-.4,0,0,.2-.2,0-.3.2-.1.5-.4.6-.6h.2c1.2-1.5,2.9-2.3,4.3-3.5,0,0,.2,0,.2,0,0-.3-.3-.2-.5-.5-.1-.2,0-.4-.2-.5-.1-.1-1.3-1.5-1.4-1.6,0-.1,0-.2-.2-.2-.1-.1-.3-.2-.4-.3h.1c0-.1-.3-.3-.3-.3-.5-.6-1.1-1.2-1.6-1.7,0,0-.2-.1-.2-.2-.4-.4-1.2-1.1-1.5-1.6-.2-.3-.2-.6,0-1,.1-.2.4-.2.7-.2s.4,0,.5,0c1.3.1,2.4.7,3.6,1.4.1,0,.2.2.4.3.2.1.3.2.5.3.2.1.3.3.5.4,0,0,0,0,.1.1,0,0,.1.2.3.2s0,0,.1,0c0,0,0,0,.1.1,0,0,.1.1.2.1s0,0,0,0c.2.2.8.8,1.1.8s0,0,0,0h.2c.1.1.2.3.4.3,0,.1,0,.2.1.2s.1,0,.2,0c0,0,0,0,0,0,0,0,.1,0,.2,0s0,0,0,0c.1,0,0-.2,0-.2,0,0,0,0,.1-.1,0,0,.2-.1,0-.3,0,0,.1-.1.2-.2,0,0,.2-.2,0-.3.3-.3.3-.6.5-.9,0,0,0,0,0,0,.2,0,.2-.3.2-.4,0,0,0,0,.1-.1s0,0,.1-.1c.1-.2.3-.3.4-.5,0,0,.1-.1.2-.2.1-.2.3-.3.4-.5v-.2c.3-.3.2-.5.3-.6,0-.1.3-.3.4-.5h.2s0-.1,0-.1c.3-.4.7-1.1,1.3-1.1M179.6,379.2s0,0,0,0h0s0,0,0,0M175.9,385.2c-.2,0-.4,0-.6-.2-1.2-.6-2.6-1.4-3.7-2.2-.3-.2-.4-.5-.7-.7-.4-.3-.9-.5-1.4-.8-.3-.2-.9-.3-1.2-.5l-.3.2c.1,0,.3,0,.4.2.5.5,1,1.2,1.4,1.7.4.4,1,.8,1.4,1.2.6.7,1,1.6,1.8,2.3.5.4,1.3.5.6,1.3-1,1.2-3.1,2.3-4.4,3.2-.9.6-2.6,2.6-3.1,3.5-.1.2-.3.5-.2.8l3.9-.8c1-.6,2.3-.8,3.2-1.2.5-.2,1.7-1.1,2.5-1.1s.5.1.7.5c.6,1.2.3,2.7.3,3.9,0,.2.1.4.1.6,0,.3-.2.6-.2.9,0,.2.2.3.2.4,0,.3-.2.6-.2,1,0,.5.2.9.3,1.3,0,.3-.2.5,0,.6.3,0,.8-1.7,1-2.1,1-1.4,1.4-2.6,2.1-4.1.1-.3.5-1.1.7-1.3.7-.8,2.1-.7,3.1-.8.2,0,.4,0,.6,0s.4,0,.5,0,.3,0,.5,0h0c1.4-.1,2.9-.4,4.2-.6.2,0,1.4-.3,1.4-.4-.2-.4-.5-.4-.8-.5-2.1-1.3-4.8-2.1-7.1-3.3-.4-.2-1.9-.8-2.1-1.1-.5-.5.1-.7.3-.9.2-.2-.1-.4-.2-.6-.2-1-.5-2-.7-3-.2-.7-.5-1.6-.7-2.3,0-.2.1-.6-.2-.8-.1,0-.7,1.1-.8,1.3-.2.3-.6.6-.8.9-.6.9-.8,1.9-1.4,2.8,0,.2,0,.4-.2.5-.1.2-.3.3-.4.3M179.9,376.1c-.9,0-1.5.8-1.9,1.3,0,0,0,0,0,.1h0s-.1.2-.1.2h-.1c0,.2,0,.2,0,.2-.1.1-.3.3-.4.5,0,.2-.1.3-.2.4l-.2.2v.3c0,0,0,0,0,0,0,.1-.2.2-.2.3,0,0,0,0,0,.1h0c0,.2-.1.2-.2.3,0,0-.2.2-.2.3,0,0,0,0-.1.1h0s-.1.3-.1.3l-.2.3h0c0,0,0,.1,0,.1,0,0,0,.2-.1.3,0,.2-.1.3-.2.4l-.3.3h0s-.3,0-.3,0h-.2s0,0,0,0c-.1,0-.3-.3-.6-.5l-.5-.5h-.2c0,0-.2,0-.2,0h0s0,0,0,0h0s-.1-.1-.1-.1c-.1-.1-.3-.2-.4-.3-.1,0-.2-.1-.4-.2,0,0,0,0-.1,0,0,0,0,0,0,0,0,0-.2-.2-.3-.2-1.1-.7-2.4-1.3-4-1.5-.2,0-.4,0-.6,0s-1,0-1.5.6c-.3.4-.7,1.1-.1,2.1.3.5.8,1,1.3,1.5.1.1.2.2.3.3,0,0,.2.1.2.2,0,0,0,0,0,0,0,0,0,0,0,0,.4.4.7.7,1,1.1,0,0,.1.1.2.2h0c0,0,.7.7.7.7,0,0,.1,0,.2.1v.2s.5.4.5.4c.2.2.9,1,1.1,1.3,0,.1,0,.2.1.4-.3.3-.7.5-1.1.8-.9.6-1.8,1.2-2.5,2.1h-.3c0,.1-.2.4-.2.4,0,0-.2.2-.3.3h-.1c0,.1-.5.6-.5.6h0s0,0,0,0h0c0,0,0,0,0,0v.2c-.1,0-.2,0-.2,0l-.2.2c-.5.6-1,1.3-1.4,1.9l-.4.8h0c0,0,0,.2,0,.2h0c0,.1,0,.2,0,.2l-.5.5v.2c-.3,1.2.6,1.8,1,2l.6.4h.1c0,0,0,0,0,0h.5c.5-.3,1.1-.4,1.7-.5.4,0,.8-.1,1.2-.2,1.4-.3,2.8-.6,4.3-1.2l.4-.2c.5-.2,1.1-.4,1.6-.6l.2.2c0,0,0,.2,0,.2,0,.1,0,.3,0,.5,0,.2,0,.4,0,.5v.2c0,.2,0,.3,0,.5,0,.1,0,.2,0,.3v.7c0,0,0,0,0,0,0,0,0,0,0,0h0c0,0,0,.5,0,.5,0,.3,0,.6.1,1,0,.5,0,.9.2,1.4,0,.3.2.5.3.7,0,.1.2.3.2.4v.2s.1.2.1.2v.2c0,0,.2.2.2.2h0c0,.2.1.3.3.5.4.4.9.6,1.4.6s.9-.2,1.3-.5l.2-.2v-.2c.1-.1.2-.3.3-.5.1-.2.2-.3.3-.5.2-.3.3-.7.5-1.1.2-.4.3-.8.5-1h0c.1,0,.3-.2.5-.5.1-.2.2-.4.2-.5h0s0-.1,0-.1l.4-.3v-.2c0,0,0,0,0,0v-.2c.2-.1.3-.3.4-.4l.5-.8h-.1c0,0,.3-.5.3-.5h0c0-.1,0-.2,0-.2l.5-.7h-.2c0-.2.1-.3.1-.3,0-.1,0-.2.1-.3.2,0,.4,0,.5-.1.1,0,.3,0,.4,0h0c1.9-.1,4.1-.2,6.1-.7.2,0,.4,0,.5-.1l.3.3.4-.3h0s0,0,0,0l.2-.2c0,0,.3-.1.9-.2l.3.3.5-.4c.6,0,.9-.3,1.3-1,0,0,0-.1.1-.2l.4-.7-.4-.3c0-.3-.3-.6-.8-1h0c-.1-.2-.2-.2-.3-.3-.2-.1-.3-.2-.5-.3-.2,0-.3-.2-.4-.2,0,0-.1,0-.2-.1l-.5-.5h-.1c0,0-.1,0-.2,0-.2,0-.2-.1-.3-.2,0,0-.1-.1-.2-.1l-.4-.4h-.3c0,0-.5-.2-.5-.2h-.1c-.1,0-.2,0-.4,0,0,0-.2,0-.3,0,0,0,0,0,0,0,0,0-.1-.1-.2-.2l-.6-.4h-.2c0,.1,0,.1,0,.1l-.2-.2h-.3c0,0,0,0,0,0-.5-.3-1-.4-1.5-.6-.2,0-.4-.1-.6-.2l-.6-.3c-.1,0-.2-.1-.3-.2h-.1c0,0-.4-.3-.4-.3,0,0,0,0,0,0,0-.2,0-.4,0-.6,0-.2,0-.5-.1-.7-.1-.6-.2-1.1-.3-1.6,0-.3-.2-.5-.3-.6,0-.2-.2-.3-.2-.5h0c0,0,0-.1,0-.1l.2-.4-.4-.5s0,0,0,0c0-.1,0-.3,0-.5,0-.2-.2-.5-.3-.8,0-.2-.2-.4-.2-.5,0,0,0-.3-.1-.5-.2-1.1-.3-1.4-.6-1.6-.5-.5-.9-.6-1.3-.6h0ZM177.4,384.8c.2-.4.4-.9.6-1.3.2-.5.4-1,.7-1.4,0,0,.2-.2.3-.3,0,0,.1-.1.2-.2.1.4.2.7.3,1.1.2.7.3,1.5.5,2.2l.2.8s0,0,0,0c-.2.2-.3.5-.4.8,0,.3,0,.7.5,1.1.3.3.7.5,1.9,1.1.2,0,.4.2.5.2,1,.5,2,.9,3,1.3.9.4,1.8.8,2.7,1.2-1,.2-2,.3-3.1.4-.1,0-.3,0-.4,0h-.3s-.3,0-.3,0c-.2,0-.5,0-.7,0-.2,0-.3,0-.5,0-1.1,0-2.5.1-3.3,1.2-.2.2-.3.5-.6,1.1,0,.1-.1.3-.2.4-.3.5-.5,1-.7,1.4-.3.6-.5,1.2-.9,1.8,0,0,0,0,0-.1,0,0,0,0,0,0,0-.2.1-.4.1-.7,0-.3,0-.6-.1-.7h0c0-.3,0-.6,0-1,0-1,0-2.2-.4-3.3-.3-.7-.9-1-1.6-1s-1.7.5-2.4,1c-.2.1-.4.2-.5.3-.3.1-.7.3-1.2.4-.7.2-1.4.4-2.1.8l-1.6.3c.7-.8,1.5-1.7,2-2.1.4-.3.9-.6,1.4-.9,1.1-.7,2.4-1.5,3.2-2.5.1-.2.6-.7.5-1.4-.1-.7-.6-1-.9-1.2,0,0-.2-.1-.2-.1-.2-.2-.4-.4-.5-.6.5.3,1.1.6,1.6.9.3.1.6.3,1,.3s.9-.1,1.3-.7c.2-.3.2-.5.2-.6h0Z"/>
  </g>
  <g>
    <path class="st2" d="M451.2,62.5c-.4,0-.6-.2-.8-.5h-.3c0-.1,0-.3,0-.3-.3-.5-.5-.7-.6-.8l-.4-.2v-.2c0,0,0,0,0,0,0,0-.3-.4-.4-.5-1-1.2-1.8-2.6-2.5-4,0-.1,0-.2,0-.3,0-.1-.3-.4-.4-.5,0,0-.2,0-.3,0s-.1,0-.2,0c0,0,0,0-.1,0v.2s-.5,0-.5,0c0,0-.1,0-.2,0h0c0,.1-.4,0-.4,0h0c0,.1-.5,0-.5,0-.1,0-.2,0-.3,0h-.2c0,0-.1,0-.1,0h0c0,.1-.3,0-.3,0h-.1s0,0,0,0c0,0-.2.1-.4.1s-.3,0-.4-.1c0,0,0,0-.1,0-.2,0-.5,0-.8,0-.3,0-.6.1-.9.1h-.1c0,0-.2,0-.3,0,0,0-.2,0-.2,0s-.2,0-.2,0h-.1s-.1,0-.1,0c-.3,0-.5-.3-.6-.5-.2-.3-.2-.6,0-1,0-.1.1-.2.2-.3h0c0,0,0-.1,0-.1v-.2c.1,0,.2,0,.2,0,0,0,.2-.2.3-.4,0-.2.2-.3.3-.4.2-.2.5-.5.8-.7.2-.2.4-.3.6-.5l.2-.2h0s.1,0,.1,0h.1c0,0,0-.1,0-.1h0c0,0,.5-.3.5-.3.1,0,.2-.1.4-.2h.2c0-.2.1-.3.3-.4.1,0,.2-.1.3-.2.2,0,.2,0,.3-.2v-.3c.1,0,.2-.1.2-.1h.2s0,0-.1,0c-.3-.2-.7-.7-1.1-1l-.3-.2c-.9-.8-1.5-1.6-2.2-2.5-.2-.2-.4-.5-.5-.7-.3-.4-.5-.7-.8-1l-.2-.2h0c0,0,0-.1,0-.1v-.3c0-.4.1-1.1.9-1.1h0c0-.1.4,0,.4,0,0,0,0,0,0,0h.3c0-.1.1,0,.1,0h0c0,0,.4,0,.4,0,.5,0,1.1,0,1.7.2h.4c0,0,0,.2,0,.2h0c0,0,.5.1.5.1.1,0,.2,0,.3,0h.1s.2.1.2.1c.8.2,1.5.6,2.2.9.3.2.7.4,1,.5,0,0,0,0,0,0,0-.2.2-.3.3-.3,0-.1.4-1.3.5-1.5v-.4s.1,0,.1,0c0,0,0,0,0,0,0-.1,0-.2,0-.3v-.4c.1,0,.2,0,.2,0v-.5c.3-.4.4-.8.5-1.2,0,0,0-.2,0-.2v-.4c.2-.5.3-1.1.5-1.4.2-.4.6-.6,1-.6h.2c.5,0,.7.6.9,1.1.4,1.2.4,2.3.4,3.3,0,0,0,.2,0,.3,0,0,0,0,0,.1,0,0,0,.1,0,.2,0,0,0,.2,0,.3,0,.2,0,.3,0,.4v.4c0,0,0,0,0,0h0c0,0,0,.3,0,.3h0c0,0,0,.4,0,.4,0,.4-.1.6-.1.8v.4c0,0,0,.2,0,.3h0s0,0,0,0h0s0,0,0,0h.4c0,.1,0,.1.1.1,0,0,.2,0,.3,0h.3s0,0,0,0h.2s.1,0,.1,0h0s.9.2.9.2c0,0,.2,0,.3,0h0s.2,0,.2,0h.2c0,0,.2,0,.3,0h0c.1,0,.3,0,.4,0,0,0,0,0,.1,0,0,0,.3,0,.3,0,.4,0,1,.1,1.3.6.1.2.2.5,0,.9,0,.2-.2.4-.8.9-.1.1-.2.2-.3.3,0,0-.2.2-.3.4-.2.3-.3.4-.4.5-.1.1-.2.2-.3.2,0,0,0,0,0,.2v.3c-.1,0-.4,0-.4,0,0,0,0,0,0,0-.2.2-.3.3-.4.4,0,.1-.2.3-.3.4-.2.3-.5.6-.9.9-.2.1-.3.3-.4.4,0,0-.2.2-.3.3,0,0-.2.1-.2.2,0,0,0,.1,0,.2,0,0,0,0,0,0h0s0,.5,0,.5c0,0,0,.2,0,.3v.4s0,0,0,0c0,.2,0,.4.1.7,0,.4.2.9.1,1.3v.2c0,0,0,.1,0,.1,0,0,0,.1,0,.2h0c0,.1.1.2.1.2v.3c0,0,0,.2,0,.3,0,0,0,0,0,0h0s0,.2,0,.2c0,.1,0,.2,0,.3,0,0,0,.1,0,.2h0s0,.4,0,.4h0s.1.2.1.2v.3c0,.1,0,.2,0,.2,0,.1,0,.3,0,.4,0,0,0,.3,0,.3h0s0,0,0,0v.3c0,0,0,.1,0,.2,0,.1,0,.3,0,.4,0,.2,0,.3,0,.5,0,.1,0,.2,0,.3-.1.7-.2.8-.3.9v.2s-.8,0-.8,0ZM446.3,53.1c.9.1,1.4,1,1.8,1.7,0,.1.1.2.2.4.1.2.2.4.3.7,0,.2.2.3.2.5.5.9,1.2,1.8,1.7,2.5,0-1,0-2.2-.2-3.2,0-.9-.2-1.7-.2-2.6,0-.1,0-.3,0-.5,0-.9,0-1.4,0-1.6.2-.6.6-.7.8-.7s.2,0,.3,0c0,0,0,0,.1-.1l.4-.5c.4-.4.8-.8,1.2-1.3.3-.3.7-.7,1-1.1h0c-.1,0-.3,0-.5-.1-.1,0-.3,0-.4,0,0,0-.2,0-.2,0-.3,0-.6,0-.9,0-.3,0-.7.1-1.1.1,0,0-.2,0-.4,0-.9,0-.9-.8-.9-1.2,0-.8,0-1.7,0-2.6,0,.2-.1.3-.2.5-.2.4-.4.8-.4,1.2,0,0,0,.2,0,.3,0,.3,0,1.1-.9,1.1s-.2,0-.3,0c-.8-.2-1.7-.7-2.6-1.2-.4-.2-.7-.4-1-.6-.5-.3-1.9-.6-2.8-.7l1.3,1.6c.5.3.8.7,1.2,1.1.2.3.4.5.7.7,0,0,.2.1.4.2.5.3,1.3.8,1.4,1.5,0,.3,0,.6-.2.9-.5.7-1.2,1.2-1.9,1.5-.2.1-.5.3-.7.4,0,.1-.2.3-.4.4-.1,0-.3.1-.4.1,0,0-.1,0-.2,0,0,.1-.1.3-.3.4-.1,0-.2.1-.4.1-.1,0-.2,0-.3.1,0,0,0,0,0,0,.1,0,.2,0,.3,0,.3,0,.5,0,.7,0,.5,0,1,0,1.5-.1.4,0,.7,0,1.1-.1,0,0,.2,0,.3,0,.3,0,.6,0,.7,0h.2Z"/>
    <path class="st2" d="M450.2,37.3s0,0,0,0c.2,0,.4.6.5.8.4,1,.4,2,.4,3.1,0,.1,0,.3,0,.4,0,.2,0,.3,0,.5,0,.2,0,.3,0,.5,0,0,0,.1,0,.2,0,0-.1.2,0,.4,0,0,0,.1,0,.2,0,0,0,.2,0,.2,0,.2-.2,1-.1,1.1v.2c0,.1,0,.3,0,.4-.1,0,0,.2,0,.2,0,0,0,0,0,0,0,0,0,.1,0,.2,0,0,0,0,0,0,0,0,0,0,0,0h0s0,0,.1,0,0,0,0,0c0,0,0,0,0,0,0,0,0,0,.1,0s0,0,0,0c0,0,.1,0,.2,0,0,0,0,0,.1,0s0,0,0,0c0,0,.2,0,.2,0,.2,0,.3,0,.5,0,0,0,0,0,.1,0,0,0,.2,0,.2-.1,0,0,0,0,.1,0s0,0,.1,0c.1,0,.3,0,.4,0,0,0,.1,0,.2,0,.1,0,.3,0,.4,0h.1c0,0,.1,0,.2,0,.1,0,.2,0,.3,0,0,0,0,0,0,0,0,0,.3.1.4.1h0c0,0,0,0,0,0,.4,0,1.4,0,1.1.9,0,.1-.8.8-.9,1-.2.2-.5.7-.6.8-.3.3-.3,0-.5.6h0c-.2,0-.3.1-.4.2-.3.3-.4.6-.6.9-.3.4-.9.9-1.2,1.2-.1.1-.6.5-.7.6,0,.1,0,.2,0,.4,0,.1,0,.3,0,.4,0,.1,0,.2,0,.4-.1,0,0,.2,0,.2,0,.6.3,1.5.2,2.2v.2c0,.2,0,.3,0,.5,0,.1,0,.3,0,.3,0,0,0,.2,0,.3,0,.3,0,.3,0,.4,0,0,0,.1,0,.2,0,.1-.1.4,0,.5,0,0,0,0,0,0,0,.1,0,.2,0,.3,0,0,0,.2,0,.2,0,.3,0,.4,0,.8,0,0,0,.1,0,.2,0,0,0,.2,0,.2,0,0,0,.2,0,.2,0,.3,0,.7,0,.9,0,.1,0,.3,0,.4,0,.1,0,.5-.1.5,0,0,0,0,0,0,0,0,0,0-.1,0s0,0,0,0v.2c-.2,0-.3,0-.4,0-.2,0-.2,0-.4-.4h0c0-.1,0-.2,0-.2s0,0,0,0c-.2-.3-.5-.8-.9-1,0-.1,0-.2,0-.2s0,0,0,0c0,0-.4-.5-.4-.6-.9-1.2-1.7-2.6-2.5-3.9,0,0,0-.2,0-.3-.1-.2-.5-.8-.8-.8,0,0,0,0,0,0-.1,0-.2,0-.3,0,0,0-.3,0-.5,0s-.1,0-.2,0h-.1s0,.1,0,.1c0,0-.3,0-.4,0s0,0,0,0c0,0,0,0,0,0,0,0-.1,0-.2.1,0,0-.2,0-.3,0,0,0,0,0,0,0h-.2s0,.1,0,.1c-.1,0-.2,0-.3,0s-.1,0-.2,0,0,0,0,0c0,0-.2,0-.3,0s0,0-.1,0c0,0,0,0-.1,0h-.1c0,0,0,0,0,0-.1,0-.2.1-.3.1h0c-.1,0-.2-.1-.4-.1,0,0,0,0,0,0-.5,0-1.3.2-1.8.2,0,0,0,0,0,0-.2,0-.3,0-.5,0s-.2,0-.3,0c-.3,0-.5-.4-.4-.9,0-.1.1-.2.2-.3h0c.3-.3.5-.8.7-1,.4-.4.9-.8,1.4-1.2,0,0,0,0,0,0,0,0,.1,0,.2-.1,0,0,.1,0,.1-.1.1,0,.3,0,.3-.2.2,0,.4-.2.6-.3h.2c.1-.2.2-.3.3-.4.3-.2.6-.2.8-.6h.1s0-.1,0-.1c0,0,.2,0,.2,0s0,0,0,0c0,0,.3-.4.4-.4,0-.2-.6-.4-.7-.6-.3-.3-1-.9-1.3-1.2-.8-.8-1.4-1.5-2.1-2.4-.5-.6-.9-1.3-1.4-1.8,0-.1,0-.2,0-.2,0-.5.1-.7.6-.7h0s0,0,.1,0,0,0,0,0c0,0,0,0,0,0,0,0,.2,0,.3,0h.1c0,0,.3,0,.4,0s0,0,0,0h.1s0-.1,0-.1c0,0,0,0,0,0,.5,0,1.1,0,1.6.2,0,0,.2,0,.3,0,0,0,.3.2.4.2,0,0,0,0,0,0s0,0,.1,0c.1,0,.4.2.6.2h.1c1.3.4,2.4,1.2,3.6,1.7,0,0,0,0,.1.1.2-.1,0-.3.2-.6,0-.1.2-.2.3-.3,0-.1.5-1.5.5-1.6,0,0,0-.1,0-.2,0-.1,0-.3,0-.5h.1s0-.3,0-.3c.2-.6.4-1.2.5-1.8,0,0,0-.2,0-.2.1-.5.3-1.3.5-1.7.1-.2.3-.4.5-.4M447.9,46.2c0,0-.1,0-.2,0-1.1-.2-2.5-1.2-3.5-1.8-.7-.3-2.5-.7-3.3-.7,0,0,0,0,0,0-.2,0-.4,0-.6.2l1.9,2.4c.7.4,1.3,1.3,1.9,1.8.4.4,2.1,1,1.5,1.9-.6.9-1.6,1.3-2.4,1.8-.1,0-.2.3-.3.3-.2.1-.5,0-.6.2-.1,0-.1.3-.2.3-.2.1-.4.1-.7.3-.3.2-.5.5-.7.8-.2.1-.4,0-.4.3,0,0,.1,0,.2,0,.4,0,1.1-.2,1.4-.2s0,0,0,0c.2,0,.5,0,.7,0,.9,0,1.7-.2,2.7-.3.2,0,.7,0,1,0s0,0,0,0c.8.1,1.2,1.2,1.6,1.8.2.4.4.8.6,1.1h0c.6.9,1.2,1.9,1.8,2.7,0,.1.6.8.7.8s0,0,0,0c.2-.3,0-.5,0-.7,0-2-.3-4.3-.4-6.3,0-.4-.1-1.7,0-1.9,0-.2.2-.3.3-.3s.3.1.4.1c0,0,0,0,0,0,.2,0,.2-.2.3-.4.6-.6,1.1-1.2,1.6-1.7.4-.4.9-1,1.2-1.5.1-.2.4-.2.5-.5,0,0-.2,0-.3,0s-.5,0-.7,0,0,0,0,0c-.2,0-.6-.2-.9-.2,0,0-.2,0-.3,0-.7,0-1.3.2-2,.2-.1,0-.2,0-.4,0s0,0,0,0c-.4,0-.4-.3-.4-.7,0-1.1,0-2.4.1-3.5,0-.3.2-.5.2-.7,0-.4,0-.8,0-1.3,0-.3-.1-.7,0-1.1h-.2s0,.1,0,.2c-.1.6-.4,1.2-.6,1.7-.1.4-.2,1.1-.3,1.5-.2.7-.7,1.3-.8,2.2,0,.4,0,1-.4,1M455.1,46.8s0,0,0,0h0M450.2,36.3c-.3,0-1,.1-1.4.9-.2.4-.4,1-.5,1.5,0,.1,0,.3,0,.4,0,0,0,.2,0,.3-.1.4-.2.8-.3,1.2h0c0,0,0,0,0,0l-.2.9s0,0,0,0h-.1s0,.7,0,.7c0,.2-.3.9-.4,1.3,0,0,0,0,0,0-.2,0-.4-.2-.6-.3-.7-.4-1.4-.7-2.2-.9l-.2-.2h-.3c0,0-.1,0-.2,0h-.1s-.4-.2-.4-.2h0s0,0,0,0h-.3c0,0,0,0,0,0h-.2c-.6-.1-1.2-.2-1.7-.2h-.9c0,.1,0,.1,0,.1h0s-.7-.1-.7-.1v.2c-1,.2-1.1,1.2-1.2,1.5v.7c0,0,0,0,0,0l.3.3c.3.3.5.6.8,1,.2.3.4.5.5.8.7.9,1.3,1.7,2.2,2.5l.2.2c.3.3.6.5.8.8h0c0,.1,0,.1,0,.1-.1,0-.2,0-.4.2-.2,0-.3.2-.4.3h-.1c-.1.1-.2.2-.3.2,0,0-.2,0-.2.1l-.6.3h0s-.3.3-.3.3c-.2.2-.4.3-.6.5-.3.2-.6.4-.8.7-.2.2-.3.4-.4.5,0,0-.1.2-.2.3h-.2c0,.1,0,.3,0,.3h0c0,.1,0,.3,0,.3h0c0,.1-.1.2-.2.4-.2.5-.1,1,.1,1.4.2.4.5.6.9.7h.3c0,0,.3,0,.3,0,0,0,0,0,0,0s.1,0,.2,0c.1,0,.2,0,.3,0s0,0,.1,0c.3,0,.6,0,.9-.1.2,0,.5,0,.7-.1.1,0,.3.1.5.1.2,0,.3,0,.5,0h0s0,0,0,0l.4.2.2-.2h0s0,0,0,0c0,0,.1,0,.2,0h.9c0,0,0,0,0,0h.3s0,0,0,0h.7s0-.1,0-.1c0,0,0,0,0,0,0,0,0,0,0,.1,0,.1,0,.2.1.4.7,1.3,1.5,2.8,2.5,4,0,0,.1.2.2.3v.4c-.1,0,.3.2.3.2h0c0,.1.2.1.2.1h.1c0,0,.1.2.3.4v.4c-.1,0,.4.3.4.3h0c0,0,0,0,0,0,.2.3.5.5,1,.5s.1,0,.2,0h.2s.8,0,.8,0v-.5c.2-.2.3-.5.4-1h0c0-.2,0-.3,0-.4,0-.1,0-.3,0-.5,0-.1,0-.3,0-.4,0,0,0-.1,0-.2v-.7c.1,0,0,0,0,0,0,0,0,0,0-.1,0-.2,0-.2,0-.3,0,0,0-.1,0-.2v-.5c.1,0,0-.2,0-.2v-.5s0,0,0,0c0,0,0-.1,0-.2,0,0,0-.1,0-.2h0c0,0,0-.2,0-.2v-.7c0,0,0,0,0,0v-.2c0,0,0-.2,0-.2h0c0-.4,0-.9-.1-1.3,0-.1,0-.3,0-.5v-.5c0-.1,0-.2,0-.3h0c0-.1,0-.5,0-.5.1-.1.3-.2.3-.3.1-.1.3-.3.4-.4.3-.3.7-.6.9-.9.1-.2.2-.3.3-.5,0-.1.1-.2.2-.3h.4s.3-.6.3-.6c0,0,0,0,0,0,0,0,.2-.1.3-.2.2-.1.3-.4.4-.6,0-.1.2-.2.2-.3,0,0,.1-.1.2-.3.6-.6.8-.8.9-1.1.2-.6,0-1.1-.2-1.4-.4-.6-1.1-.7-1.6-.8h0s-.3,0-.3,0h0s0,0,0,0c-.1,0-.3-.1-.5-.1-.1,0-.3,0-.3,0h-.2c0,0-.2,0-.2,0,0,0-.1,0-.2,0h0s0,0,0,0c0,0-.1,0-.2,0,0,0-.1,0-.2,0h0c0-.1-.5,0-.5,0h-.4s0,0,0,0c0,0,0,0-.1,0,0,0-.1,0-.2,0h0s0,0,0,0v-.2s0,0,0,0c0-.1,0-.3.1-.6l.2-.7h-.1c0,0,0-.2,0-.2h0c0,0,0-.2,0-.2,0-.1,0-.3,0-.4,0-.1,0-.2,0-.4,0,0,0,0,0-.1h0c0-.2,0-.3,0-.4,0-1.1,0-2.2-.4-3.5-.2-.4-.5-1.3-1.3-1.4,0,0-.2,0-.2,0h0ZM442.8,45.5l-.4-.6c.6.1,1.1.3,1.4.4.3.1.6.4,1,.6.9.5,1.9,1.1,2.8,1.3.1,0,.3,0,.4,0,.3,0,.8,0,1.1-.5.2.9.8,1.2,1.3,1.2h0s0,0,0,0c.2,0,.4,0,.5,0,.4,0,.7,0,1-.1.3,0,.6,0,.8,0s.1,0,.2,0c0,0,0,0,.1,0-.1.2-.3.3-.4.5-.4.4-.8.8-1.2,1.3l-.4.4s0,0,0,0c-.5,0-1,.3-1.2,1,0,.3,0,.7,0,1.8,0,.2,0,.3,0,.4,0,.9.1,1.8.2,2.6,0,.5,0,1,.1,1.6-.3-.4-.5-.8-.7-1.2,0-.1-.1-.3-.2-.4-.1-.2-.2-.5-.4-.7,0-.1-.1-.2-.2-.3-.4-.8-1-1.8-2.1-2,0,0-.1,0-.2,0-.2,0-.5,0-.8,0-.1,0-.2,0-.3,0-.4,0-.8,0-1.2.1-.1,0-.3,0-.4,0,.1-.1.2-.2.3-.3.2-.1.4-.2.6-.4.7-.4,1.5-.9,2-1.7.3-.4.3-.8.2-1.3-.2-.9-1-1.4-1.7-1.8-.1,0-.2-.1-.3-.2-.2-.2-.4-.4-.6-.6-.3-.4-.7-.8-1.2-1.1h0Z"/>
  </g>
  <path class="st2" d="M595.2,112.5c-2.7-1.8-6.6-5.1-8.7-7.5-1.9-2.2-4.3-4.4-3.6-7.6-2.7.8-6.2-.2-7.1-3.2-.4-1.3-.4-7-.1-8.4.2-1,2.9-4.6,3.7-6,.6-1,.6-2.4,1.4-3.7,1.4-2.2,5.1-5.3,7.1-8,1.3-1.7,9.6-7.7,11.7-8.5,3.2-1.2,6.8-1.8,10.1-2.8,1.3-.4,3.1-1.9,4.3-2.1,2.2-.4,4.7.7,6.9.7,5.1-.2,8.6-1,13.8,1.1,1.5.6,1.8,1.7,2.7,2.3.8.6,2.5,1,3.1,1.4.6.5.6,2.4,1.5,3.2s2.4.6,3.4,2.1c1.5,2.1.3,3,.5,4.5.2,1.1,1.4,1.5,1.7,2.1,1,1.6,2.2,6.6,2.7,8.7.4,1.7.3,11.6,0,13.4,0,.4-3.4,7.1-3.9,8-.4.8-5.5,7.3-6.2,8-3,3-8,5.9-12.1,6.9-.5.1-1.3,0-1.8,0-1.5.2-.7.8-.9.9-.4.2-7.4,1.3-8.5,1.4-1.1.1-2.3,0-3.4,0-3-1.3-4.4-1.6-7.8-.9-2.2-.9-3.8-2.6-5.6-3.8-.7-.4-1.8-.6-2.1-.8-.8-.5-1.5-.9-2.3-1.4h0ZM640.1,76.8c-1.3-.2-1.6,1.4-2.6,1.7-1.9.6-4.7-.6-6.2-1.8-2.9-2.2-6.8-6-8.6-9.2-1.4-2.5-.4-4.3-4.9-4l1.9,4.8c3.6,3.9,8.4,10.6,13.9,11.7,1.1.2,2.3-.1,3.5.1,1.4.3,2.2,1.6,3.5,1.7l-.5-5h0ZM634.6,68.1c.8-.7-4.1-3.6-4.6-3.2-.2,1.6,3.7,4,4.6,3.2ZM618.9,80.1c-4.6-3.6-1.9-2-3.8-6.1-.3-.7-1.7-1.5-2.2-2.3-.6-.9-2.9-4.9-3.5-5.3-.8-.5-6.8.5-5.8,3,2.3,2.2,3.9,5.9,5.9,8.1.5.6,1.8.8,2.3,1.6.7.9.9,2.4,1.5,3.5,1.1,1.8,2.8,2.7,4.7,3.6,3.4,1.6,7,3.3,10.5,4.6,1.3.5,2.4,2.5,2.6,2.5.9.2,2.1-.2,3.1,0,1.5.3,3.3,1.3,5,1.3l1.6-4.1c-2.1.7-3.3-1.2-4.8-1.4-1.8-.2-2.5.8-4.6-.4-1.2-.6-1.4-1.8-2.1-2.1-1.1-.5-2.5-.1-3.7-.8-1.1-.6-5.4-4.7-6.8-5.7h0ZM613.7,94c-4.4-4.8-8.3-9-12-14.3-.7-1-1.9-1.4-2.5-2.1-1.2-1.5-1.2-7-4.2-4.1-2.3,2.3-.5,4.4,1,6.4,2.9,3.7,5.3,8.3,8.9,11.7.7.7,5.2,4.2,5.9,4.6,1.5.8,3.5.9,4.7,1.7,1.5,1,3.6,3.9,5.4,5.2,2,1.4,4.4,1.8,6.3,3.4,1,.3,4.8-1.6,5.8-2.3.5-.4.9-.5.8-1.3-1.6-1-3.5-.6-5.1-1.1s-2.4-2.5-3.7-3.2c-2-1.1-10.3-3.4-11.3-4.5h0ZM598.2,96.8c-.7-.6-3.5-4-4-4.9-1.1-2-1.6-5.7-4.4-6.4.2,5.1.6,10.5,3.9,14.6,1.7,2.1,2.2,1.7,4.1,2.8,2.9,1.7,4,1.9,6.9,3.1.7.3,1.2,1.2,1.8,1.4,1.4.4,3.3,0,4.7,0-.3-3.3-4.5-3.2-6.1-4.5-1-.9-1.6-2.9-3.3-4.1-1.2-.8-2.6-1-3.7-2h0ZM612,107.4v.5c.3-.2.3-.3,0-.5Z"/>
  <g>
    <path class="st2" d="M952.6,16.4c0,.4,0,.8.5.9-.6,4.5.3,5.8.4,9.4.1,2.4-.9,5.8-.9,8.4,0,1.3,0,2.7.9,3.7,0,.9,0,1.8,0,2.7,0,.6,0,1.2,0,1.8s0,1.2,0,1.8c-.7.2-.5,1,0,1.4,0,.6.4,1.2.5,1.8l.5.9c-.2,2-.4,4-.5,5.9v1.4c0,.5,0,.9,0,1.4-1.3.9,0,2.6,0,3.2.5,4.6,2.2,17.1-6,14.4-2-.6-5.4-7-6.5-9.1-1.8-3.6-3.5-7.8-4-11.8-.1-.8.2-1.7,0-2.5-.3-.9-1-.6-1.3-.7-.2,0-.3-.4-.5-.5-.5-1-.3-2.3-.5-3.2,0-.4-2.6-5.4-3-6.4-1-1.9-3-4-3.4-6.5-3.2,1.5-1.2,4.3-1.4,6.6-.4,5.5.4,9.6.4,15.1,0,1.8-.6,3.9-.4,6,.3,2.7.8,4,1.1,7.3,0,1,.8,1.9.8,3.3.2,4.9-3.9,6.4-7.4,3.2-3-2.8-1.5-6.4-1.8-10.1-.2-1.9-.8-3.5-.9-5.7,0-.5,0-.9,0-1.4-.1-2,.1-4,0-5.9,0-.5,0-.9,0-1.4-.1-.7-.5-2.2-.9-2.7v-2.3c0-.8,0-1.5,0-2.3s0-1.5,0-2.3c0-.3,0-.6,0-.9,0,0,.4,0,.4-.7,0-1.1.3-3.1-.4-3.9.6-4.8.7-11.2,6.1-13.3,1.9-.7,3.6-.4,5.3.7,2.1,1.4,8,6.2,9.1,8.3.7,1.4.3,2.6.7,3.9.9,2.8,2.8,7.1,4.4,9.6,0,.1,0,.6,0,.9h.9c0-.5,0-.9,0-1.4,0-.6,0-1.2,0-1.8,0-.1.9-1.4.5-2.3h-.9c0-.5,0-.9,0-1.4,0-.9,0-1.8,0-2.7,0-2.7.4-5.2.5-7.8,0-.6,0-1.3,0-1.8-.4-2.9-.4-3.7-.6-6.6-.1-3.4-2-11.1,3-11.7s5,3.1,5.3,6.9h0Z"/>
    <path class="st2" d="M1028.1,24.1c-1.3-.2-.7.5-.9.9-.3.7-.6.8-.5,1.8l-.5.9c-2.5,2.7-6,7.7-8.2,10.7-.5.7-1.3,1.2-1.8,1.8,1.5.9,2.2,3.2,3.2,4.1.8.7,1.7.7,2.5,1.6,1.4,1.6,3.3,8.6,4.8,10.1l.5.9c0,.3,0,.6,0,.9l.5.9c0,.3,0,.6,0,.9,0,.7-.2,1.9.5,2.3,0,.5,0,.9,0,1.4,0,.8,0,1.5,0,2.3-.7,1.1.2,1.6-1.9,2.4-2,.8-3,.7-4.7-.6-3.3-2.6-1.2-4.8-2.6-7.9-.7-1.5-2.6-3.2-3.5-4.8-1.2-2.3-1.5-4.8-4-6.6-.9-.6-2.2-.8-3.2-1.4-.9-.6-1.2-2.5-2.6-1.5,0,.5,0,1.1,0,1.6,0,.5,0,.9,0,1.4,0,1-.1,2.3,0,3.2.1.8.4,1.1.5,1.4.9,3.8,1,5.5,1.4,9.4.3,2.4,1.4,2.3.4,5.7h-.9v.9c0,0-.4,1.5-.9,2.3l-2.7.5c-.1,0-1.2.1-2.1-.4-3.5-2.2-1.6-9.2-2.5-12.6-1-3.6-1.5-5.2-.9-9.4.7,0,.7-1.3,0-1.4.4-3.1-1.6-4.9-.9-8.2.7,0,.7-1.3,0-1.4,0-11.5.5-16.6,8.5-25.2,1.8-1.9,2.4-2.3,4.8-3.2.3-.1.8-.4.9-.5.3,0,.6,0,.9,0,.8-.1.9-.5.9-.5,2.7-.2,8.2.5,10.3,2.3,3,2.6,5.2,8.8,4.8,12.8h0ZM1005.7,34.7l6.2-2.7c2.7-3.5,5.4-6.7,7.1-10.8-.6-1.8-1.7-3.9-3.9-3.9-3.1,0-3.7,3.1-5.3,5.3-.5.7-1.5.9-1.9,1.5-.6.9-2.8,10.1-2.3,10.7h0Z"/>
    <path class="st2" d="M900.9,29.2c0,0,.3-.8-.3-.9-.5-.2-1.4.1-2,0-1.6-.2-2-.6-3.7,0-.3.1-.7,0-.9.5-.7,0-2,.2-2.3.9-.6.2-.9.7-.9,1.4-1.5,1.8-2.8,3.9-4.1,5.9,0,.1-.6.2-.8.8-.2.6,0,1.1,0,1.5-.2,1.1-.3,2.5-.5,3.7,0,.5-.4,1.1-.5,2.3,0,4.6,4.8,15,7.8,18.5.6.8,1.6,1,2.1,1.6,1.3,1.4,2.1,3.4,4.1,4,.3,0,1.6-1,1.8-1.2,1.4-2.2,1.8-6.3,3-8.2,0,0,.8.2.9-.3s0-1.8,0-2.4,0-1.3,0-2c-.2-.6-.7-.6-.8-.8,0,0,.1-.6,0-.8-.4-.3-1.3,0-1.8,0-7.3-1.3-2.2-9,3.4-8.7s5.1,3.1,6.8,7c.5,1.2,2.1,2.2,2.2,3.8,0,.4-.9,4.5-1.1,5.3-.5,1.7-1.5,4.4-2.1,6.1s-3.6,9-4.8,9.8c-5,1.8-7,3.3-11.8.4-1.5-.9-7.9-6.7-8.6-7.9-.6-1.1-.4-2.2-1.1-3.4-.8-1.4-3.4-3.2-4.8-5,.4-1-.3-1.6-.5-2.3-.5-1.7-2-5.7-2.7-6.9,0-.6,0-1.2,0-1.8,0-.3,0-.6,0-.9,0-1.2,0-1.6,0-2.3v-5c0-1.3,0-4.2,0-5.1.3-2.3,9.2-13.6,11.5-14.6,3.1-1.4,10-2.6,13.3-2.1,4.9.8,9.6,5.1,6.2,10.1-2.1,3.1-4.8,1.4-6.8-.6h0Z"/>
    <path class="st2" d="M811.7,22.8c1.8-.6,4.1-1.7,5.9-.2s1.7,5,.4,6.8c-.9,1.3-2,.9-3.1,1.5-1.5.8-4.3,3-5.9,3.3-2.6.5-7.1-1.5-10.2.6,1.1,4,1.4,6,.9,10,0,.7-.4,1.3,0,2.3.5.2.9-.5.9-.5,1.6-.2,3.6.2,5.5,0,.4,0,.8,0,.9-.5.3,0,.6,0,.9,0l.9.5h.9l.9-.5c2.3.2,6.1.3,5.9,3.9-.3,4.9-8.5,4.3-11.9,4.4-.7,0-1.9-.3-2.3.5-.2,0-.9,0-.9,0h-.9v.9c-.4.6.2,3.7.5,4.6.2.7.2,1.4.9,1.8-.9,4.5,2.5,7.1,4.5,10.7,4,.3,4.4-4.1,7.4-5.9,4.3-2.7,8.2,1.1,6.2,5.7-.4,1-2.2,4.3-2.7,5-.8,1.2-7.5,4.5-9.1,5-3.2,1.1-2.7,0-4.8-.7-.8-.3-1.7-.2-2.6-.6-2.6-1.1-2.5-2.5-3.6-4.6-1.3-2.6-1-2.1-1.9-5-.5-1.9-1.9-3.2-2.4-5.6,0-.4,0-.9,0-1.4,0-.3,0-.6,0-.9.7,0,.7-1.3,0-1.4,0-1.8,0-4.9-.9-6.4-.1-1.1.5-2.9-.5-3.7.2-2.3.5-4.6.5-6.9,0-1.2-.4-2.3-.5-2.7,0-.5,0-.9,0-1.4s0-.9,0-1.4c-.2-2.6-1.4-8.5-.6-10.4,1.4-3.4,8.9-3.2,12.1-3.9,1.6-.3,3.4-1,4.9-1.7.3-.1.8,0,.9-.5.3,0,.6,0,.9,0,1.2,0,1.4-.8,1.8-.9h0Z"/>
    <path class="st2" d="M990.1,19.1c.8,0,1.9,0,2.7,0,.3,0,.6,0,.9,0,0,0,.8.4.9.5,1.3.8.9,1.3,1.4,1.8l.5.9c-.4,1.7-.7,3.2-2.3,4.3-1,.6-6.1,2.6-7.2,2.8-1.3.3-2.6,0-3.8.3-2.5.5-4.4,2.6-7.1,2.2-.4.7-.5,1.5-.5,2.2-.1,1.3,0,2.8,0,4.1s-.4,1.6-.4,2.4c0,.5,1,3.5,1.3,3.8,1.8,1.5,5.1-2.1,7.5-2.1,5.3.1,4.7,5.1,1.1,8-2.9,2.4-5.6,2.7-8.9,3.9-.3.5.6,5.9.7,7.1.1,2.9-.9,5.2.5,8,1.8.3,2.4-1.8,3.8-2.4.9-.4,1.9-.2,2.6-.6,1.3-.7,1.1-2.6,4.3-3,4-.4,4.6,1.2,4.8,4.6l-.9,2.3c-.6.9-2.2,3.9-2.8,4.3-1,.8-3.6.9-4.9,1.5-1.1.6-1.7,1.8-2.8,2.3-1.4.5-6.3,1.6-7.7,1.5-2.1-.2-3.9-2-3.9-4.1l-.5-.9c0-.3-.2-1.2-.5-1.4l-.5-.9c0-1.2,0-2.5,0-3.7,0-.5.1-1.1-.5-1.4.1-1.8,0-4.1,0-5.9,0-.6,0-1.2,0-1.8-.2-1.7-.8-2.7-.9-4.1,0-.3,0-.6,0-.9,0-.8,0-1.5,0-2.3,0-.6,0-1.2,0-1.8s0-1.2,0-1.8h.9v-1.1l-.9-.2c-.1-3.3.1-6.7,0-9.8-.2-4.9-2.2-8.9,1.8-13.3,3-3.2,4-.6,6.2-.7,4.1-.2,9.8-4.3,14.9-4.5h0Z"/>
    <path class="st2" d="M832.3,24.6c2.1-.4,2.2-1.7,5.2-1.3,1.3.2,6,1.9,6.6,3,2,3.5-1,6.3-4.4,6.6-2.3.2-3.8-2.2-5.9.5s2.9,4,4.2,5.2c1.8,1.6,3.5,5.5,6.1,7.4.8.6,2,.4,2.6.8s.9,2.1,1.5,2.8c1,1.1,3.1,1.7,4.3,3,1.4,1.6,4.2,8.7,3.9,10.7,0,.5-1.6,4.7-1.9,5.4-.6,1.4-2.8,5.4-3.6,6.5s-3.1,1.2-3.5,1.7c-.5.8.2,1.8-1.5,2.8-.4.2-4.5,1.9-4.8,2-1.1.2-3.7.4-5,.6-4.9.5-6.4-3.7-9.3-6.4.2-.9,0-1.1-.9-.9-.2-.7-.3-1.6-.5-2.3,0-.6.3-1.5-.5-1.8.9-3.6,3-5,6.6-3.1,2.3,1.2,3.6,5.3,5.9,4.9.6-.1,6.1-3.2,6.6-3.7.4-.4,2.8-5.1,2.9-5.6.7-3.8-2.4-5.2-4.6-7.3-4.5-4.3-12.4-10.1-15.5-15.2-2.5-4.2-2.8-7-.7-11.6,1.3-2.8,2.6-3,4.8-4.6.4,0,1,0,1.4,0h0Z"/>
    <path class="st2" d="M862.5,23.7c.2.5.7.3.9.5,1.1.6,3,4.2,3.4,5.5.5,1.7.6,8.3,1.1,8.7l.5.9c-.2,1.7,1.1,3.5,1.3,5.3.2,1.6-.2,3.4.2,4.9.3,1.2,1.5,1.7,1.7,2.9.5,2.6-.8,5.4-.4,8l.5.9c0,1,.8,1.8.9,3,.2,2.1-.3,4.4,0,6.8.4,2.9,2,4.6.5,7.5-1.4,2.6-5.1,3.1-7,.8-.6-.7-1.2-3.3-1.4-3.4l-.5-.9c0-1,0-2.1,0-3.2v-1.4c0-1.6.1-3.4,0-5,0-1-.4-2.8-.9-3.7,0-.5,0-.9,0-1.4s0-1.3,0-1.8c-.2-1.4-.6-3.1-.9-4.6l.5-.9h-.9c0-.4,0-.9,0-1.4,0-.6.2-1.5-.5-1.8.3-2.8.4-3.4-.5-5.9-.1-.4.2-1.1-.5-1.4,0-1.4-.2-4.9-.5-6.2-.2-1.2-1.5-2.2-1.8-3.7-.3-1.7-.4-7.5,1.2-8.5,1-.6,1.9-.3,2.9-.4h0Z"/>
    <path class="st2" d="M755.4,23.2c.8,0,1.5,0,2.3,0,.3,0,.6,0,.9,0h.9c2.1.2,3.1.5,5,1.4.2,0,.7.3.9.5,1,.5,1.4.8,2.3,1.4s.4,1,2.3.9c.3,0,.6,0,.9,0l.9.5c1.4,2.3,3.8,5,5.7,6.9.6.6,1.7.7,2.3,1.4,1.2,1.5,2.2,3.9,3.9,6.2,2.4,3.1,2.7,7,5,10.3.4,1.1.2,2.7,1.4,3.2,0,.7,0,.8,0,1.4,0,1.2,0,2.5,0,3.7,0,.9-.3,1.8-.5,2.7h-.9c0,.9,0,1.9,0,2.7s-.4,1.8-.5,2.7l-.5.9c0,0-.2,1.1-.5,1.5-2.3,2.9-3.8,5.4-6.9,7.3s-5.5,3-8.3,5.4c-1.6,1.3-1.2,2.3-3.9,3.4-3.7,1.5-8.6,2.7-10.2-2.2-.6-1.9,0-3.8-.1-4.5-.1-.4-1.9-2-2.5-2.9-3.7-6.3-8.2-19.1-8.2-26.2,0-1.4,1.3-2.7.9-4.3l-.5-.9c0-.3,0-.6,0-.9,0-1-.5-1.9-.5-3.2.2-4.4,1.7-9,3-13.3.7-2.2,2.6-1.9,2.5-3.2l.5-.9c.9-.7,1.4-1.1,2.3-1.8h0ZM777.3,48c0-.1-1.2-.6-1.7-1.2-.9-1.1-1.1-2.8-1.8-3.6-.6-.7-2.2-1.1-2.9-2.1-.6-.9-.7-2-1.2-2.9-1.9-3-6.6-4.7-9.7-6.2l-.5.5c-.2,1.7-2.7,5-2.9,6.2-.1.8.5,2.3.4,3.6-.1,1.1-.9,1.7-1,2.7-.2,6.6,2.7,13,3.7,18.8.3,2-.4,3.6.7,5.7.5.8,1.7,1.3,1.9,2.2s.8,6.3,1,6.5c1.4.2,3.6-.5,4.7-1.4.7-.5,1-1.6,2-2.3,1.8-1.4,4.6-2.6,5.9-3.7s2.7-3.9,4.7-4.9c.7-1.3.9-8.4.6-10-.2-1.1-2.9-3.7-3.4-5.2-.3-.9,0-2.2-.3-2.7h0Z"/>
  </g>
  <g>
    <path class="st2" d="M162.9,144.5l-6.1-5.1c0-3.1-2.6-4.5-3.5-6.6-2.6-5.7-2.1-12.6-.6-18.5,1.3-5.2,2.8-4.3,7-6.7-1.5-2.7-4.5-3.9-5.3-7.1-1.4-6.2.2-10.4,5.7-13.6.2-.6-2.3-4-2.6-5.5s-.7-6.9,0-8.1c.1-.2,2.9-3.6,3.1-3.8,1.1-.9,2.1-.5,3.1-1,2.2-1.1,2.8-3,6.1-2.1l4.6-6.9c3.5-2.4,9.3-2.7,13-.6,1.1.6,1.7,1.8,3.2,2.3,2.5.9,4.7,1,7,3.1.8.7.7,2,1.4,2.8,1.2,1.4,2.7,1.9,4.4,4.3,1.2,1.8,2.2,4.9,3,6.2.7,1.1,5.3,3.7,6,4.7,1,1.3,0,4.4,1.8,5.8.8.7,2.2.2,3.4,0,.5,0,1.2.2,1.4-.5.9,0,1.8,0,2.7,0l.9-.5c1.1,0,2.5,0,3.7,0l1.4.5c.6.6,2.3,0,2.7,2.6s-1,2.9-1.1,4.1c0,.4.3,1.1.2,1.8-.4,3.2-2,2.3-3.4,3.9-1.9,2.2-1.8,4.6-2.8,5.9-.3.5-1.1.7-1.5,1.2-1.3,1.8-1.2,3-3.7,4.1-.2.9,1.4,1.3,1.8,1.9,2,2.7,3.1,8.1,4.2,11.2.7,1.9,2.2,1.5,1.6,5-.8,4.7-4.8,6-8.3,8.2-.6.4-1.5.2-1.2,1.3-8.1-2.6-24.3-2.2-32.9-.9,1.5-2.5,3.3-1.2,5.1-1.6,1.7-.3,4.3-1.5,5.8-1.5,1.3,0,2.4,1.1,3.5,1.1,1.3,0,2.9-1.5,4.2-1.7,1.4-.2,2.7.6,3.9.3.5-.1,4.2-2,4.5-2.3,1-.9,1-1.9,1.8-2.8,1.1-1.1,3-1.4,4.2-2.3l-2.9-9.9c-3.2-2.6-1.3-5.3-1.8-7.8-.2-1.1-2.2-5.4-2.9-6.8-.8-1.7-2.6-2.4-1.7-4.8.4-1,1.4-1.4,1.5-2.7,0-1.1-.7-2.8-1.3-3.8-1-1.6-3.2-5.4-4.2-6.6-1.8-2.2-4.3-4.3-5.9-7.1-.7-1.2-.8-3.3-1.1-3.7-.1-.2-2.6-1.4-3.3-1.9-.8-.6-1.1-1.7-1.9-2.2-.6-.4-5.7-3-6.1-3.1-7.2-1.9-3,6.6-9.5,8.4-1.9.5-4.9.4-6.5.8-1.5.3-3,1.9-2.5,3.5.5,2,4.2,3.7,3.9,7.9-.2,2.3-3,9.8-6.4,8.5-.9.9,4.4,8.4,5.3,9.6,1.4,1.8,3.1,1.6,3,4.8-.3,5.4-5.4,5.7-9.7,6.4-1.9,3.1-1,5.3-.9,8.3,0,1.2-.7,2.1-.3,3.4.1.4,4.7,6.7,5.1,6.9.9.6,1.6-.1,2.5.1,2.3.6,5.1,1.9,7.2,2.5,1.2.3,3,.4,4.2.6l-2.9.6c-4.9,2.2-9.3,2.8-14.1,5.4h0ZM218.7,96.5c-3.4-.2-3.5,1.7-3.2,4.6l3.2-4.6Z"/>
    <path class="st2" d="M189.7,84.2c10.3-2.3,8.8,16.6-1.4,9.9-4.1-2.7-2.3-9,1.4-9.9Z"/>
  </g>
  <g>
    <g>
      <path class="st2" d="M911.9,183.9c0-.4.3-1.2.6-2.2.9-2.8,2.3-5.2,3-7,.5-2.5-.1-4.8-.3-7.2,0-1.3.4-2.7-.4-3.9-.8-1.4-2.2-1.8-2.7-2.7-.5-.9-.2-2.4-1-3.6-.8-1.1-2.3-1.3-3.1-2.4-3.7-3.9-7-9.1-12.5-11-1.2-.4-2.4-.3-3.5-.8-1-.6-1.8-2.1-3.1-2.3-2.3-.4-5.9-1.1-7.7-.9-1.2.2-2.6,1.2-3.9,1.2-.2,0-.4-.1-.5-.2-5.2.9-10.5,3-15.7,3.2-.4.4-.9.7-1.6.8-1.3,1.7-3.5,1.8-5.5,1.9-2.8.6-6.1,2.7-9,3.4-2.9.4-6,1.8-8.1,3.7-.6.9-3.5,3-3.3.8.7-2.1-.1-3.5-.6-5.4-.5-2.2-1.3-3.7-2.7-5.5-.7-1.4-.2-3.1-1.2-4.4-1.3-1.6-3.2-2.4-4.3-4.2-1.4-1.9-3.7-2.2-5.7-3-2.3-1.2-5-2.1-7.2-3.3-1-.7-2-1.2-3.2-1.1-6.9-.2-14.4,1.9-20.2,5.4-.2,0-.5,0-.7,0,1.3,2.7.3,6,1.5,8.5,0,0,.1-.1.2-.2,2.3-.4,4.1-1.8,6.2-2.9,3.8-1.1,8-2.7,11.7-2.3,3.8,2.6,9,2.7,12.8,5.7,3.3,3.3,3.7,8.5,5,12.6.4,1.2.6,2.5,1.4,3.7.4.6,1.1,1.5.4,2.1-.3.2-.7.6-.8.8-.7,3.1-4.1,5-4.3,8.2.4,5.1,6,4.5,7.5,0,.3-.5.8-.7,1.2-1,.6-.6.8-1.8,1.6-2.5,1.9-1.7,4.5-2.6,6.7-3.6.4-.2.4-.4.7-.7.6-.4,1.2-.6,1.7-1.2,2.3-2.2,6.8-2.5,9.7-4.1.7-.2,1.9-.1,2.5-.2.8-.2,1.1-1.1,2.1-1.2,2.8-.5,5.4-1.8,8-2.7.7-.9,1.1-.7,2.2-.8,4-.3,6.6-1.8,10.3-2.1,2.9,0,5.4-.5,8.2-.9,1.8,1.9,4.5,1.9,7,2.7,2.4.8,4.3,2.7,5.7,4.7,1.1,1.1,2.4,1.6,3.1,3,.6,1.3,1.8,2.2,2.6,3.5,1.1,2.1,1.6,4.7,3.4,6.3.1,6.2-2,13.7-5.7,19-.2.5-.3,1-.6,1.4-.5,2.3-3.1,2.7-4.4,4.5-1.2,1.4-1.6,2.7-3.4,3.3-1.3.5-2.2,1.1-3.3,1.9-1.3,1.9-3.8,1.8-5.8,2.2-.7.7-1.4,1.6-2.3,2.2-1.5,1.8-5.6,1.2-6.4,4.1-2.8,1.3-6.5,1.7-8.6,4.1-1,.8-3,.4-4,.7-1.9.6-4.2,1.9-5.8,2.7-.8.6-1.9.8-2.7,1.4-.6,1-2.1,1.1-3,1.3-.5.4-.8.9-1.6.9-.1,0-.2,0-.3.2,0,0-.3.4-.3.4-1.1,2.1-5,1.6-6.5,3.4-2.7-3.1-6.4-5.9-9.3-8.8-.2-.6-.5-1.6-1.1-2-1.4-1.7-2.7-3.7-4.7-4.7-6.4-3.2-9.1,4.1-3.4,8,1,1.1,1.7,2.3,2.6,3.4,1.5,1.5,3.4,2.9,4.4,4.8.8.9,2.4.8,2.6,2.2.5,1.6,1.8,2.7,2.3,4.3,1.3.7,2.8,1.2,3.2,2.8,2.7,5,6.8,9.5,6.9,15.7,5.6,7.8,6,18.3,4.3,27.7-.8,2.8-2.5,5.2-3.8,7.5-1,3.3-4.7,5-7.6,6.4-.9.3-2.3,0-3,.9-2.9,1.8-7.4,2.8-10.9,2-2.8-3.6-7.6-2.5-11.2-4.5-1-.6-1.8-2-3-2.1-.5,0-1,.4-1.5,0-.8-1.2-2.3-1.8-3.1-2.9-.5-.7-.7-1.6-1.5-2.1-.6-.5-.7-1.7-1.2-2.3-.5-.6-1.4-1-1.6-1.7-.1-1.2-.8-2.4-1.5-3.5-.9-2.1-.5-4.2-.9-6-.2-1.7-1.7-2.2-2.5-3.5-1.6-3.7-.8-7.3-3.3-10.3-1.5-2.8.3-6.4-1-9-.5-.4,0-.9,0-1.5-1.3-3.7,2.1-10.3-2.7-12-5-1.5-6,4.9-6.3,8.5-.1,2.5,1.8,5.8-.7,7.4-1.9,4.5-1,11.3-6.8,13.8-.4.4-.8.7-1,1.2-.5,1.7-3.8,2-4.9,2.7-1,0-1,1.2-1.8,1.4-2.6,0-5.6.3-7.6-.8-1.8-.7-1.6-3.2-3.1-4.3-3-1.6-7.9-2.3-8.3,2.5-.5,1.7,1,2.2,2,3.3,1.6,2.3,3.4,4.4,5.8,5.8,4.5.4,8.5,2.1,13,1,2.2-.4,3.6-1.8,5.3-3.2,2.9-1.3,4.8-2.5,7.5-4.3,1.4-.8.9-3,2.3-3.8.7-.4.6-1.8,1.6-1.6.8.4.1,1.5,1,2,1.7,1.4,1.3,4,1.7,6,.4,1.8,1.9,3.3,2.6,5.6.4,1.4-.1,2.8.8,4,.3.5.8.6,1.1,1,.4.9-.3,2.2.6,2.9,2.7,2.1,3.1,5.9,6.5,7.2,1.6.7,1.8,2.3,2.7,3.4,1.4.8,3.4.4,4.6,1.7,1.4,1.9,4.3,2.6,6.4,1.9,1.2,0,2,1.2,3.1,1.7,1,.3,1.6,1,2.3,1.3,2.2,0,5.3,1.3,7.4,1.4.8-.2,1.2-1.2,2.4-.9,2,.3,3.7-.5,5.6-.8,2.1-.4,3.8-1.8,6-2,.9-.5,1.8-1,2.7-1,3.1-1.8,6.3-3.1,8.3-6.3,0-.1,0-.2,0-.4,1.4-3.6,5.3-5.6,5.5-9.8.4-2.4.5-5,.9-7.5.6-4,1.6-7.5,1-11.9-.6-5.4-3.2-10.1-5.2-15.1-2.1-4.9-3.1-10.1-6.3-14.6-.4-.5-1.3-1.1-.9-1.8,2-1.8,4.8-2.3,7.2-3.4,6.5-3,13-6.7,19.7-9.5,1.9-.7,4-.8,5.7-2.1,3.7-2.9,4.9-3.8,9.3-5.2,2.7-.5,3.9-3.1,6.1-4.4,2.3-1.3,5.9-2,7.8-4.3,1.4-1.6,3.6-5,5-6.9.5-.5.6-1.3,1.3-1.3,0,0,0,0,.1,0,1-2.6,1.1-5.5,3.2-8-.1,0-.2-.1-.2-.3h0Z"/>
      <path class="st0" d="M919.6,206.4c-.2-1.2-1.6-2.1-1-3.5,1.4-3.6-.7-8.4-.8-11.8-.2-2,1.7-4.1.6-6-.7-1.1-2.6-2-3.6-1.7-.8.2-1.6.5-2.3.7-.1,0-.3,0-.4,0-2.1,2.5-2.2,5.3-3.2,8,.3.2.2.7,0,1.1-1,2.9-2.6,4.3-1.6,7.7.2.5.4,1.2-.3,1.4-4.7,1.4-10.8,7.4-4.3,9.9,2.9,1.3,4.5-.2,7.1-.5,2-.2,4,.9,5.9.2,2.1-.8,4.2-3.4,3.9-5.5h0Z"/>
      <path class="st0" d="M933.4,191.2c.3.2.3.3,0,.5v-.5Z"/>
      <path class="st0" d="M974.1,195.3c.5-3.5.4-6.4-.4-9.9-.6-6.3-.3-12.9-2.9-18.8.3-3.6-.9-6.7-2.3-9.9-3.1-5-4.3-12.8-9.6-16.6-1.2-3.9-3.6-7.9-5.7-11.7-1-1.3-2.1-2.8-3.4-3.9-.7-.5-1.7-.4-2.1-1.3-.2-.4-.5-1.2-1-1.4-.4-.6,0-1.9-1-2.3-1.2-1.8-4-1.3-5.7-2.3-6.1-5.9-12.5-5.7-20.7-4.8-1.4.1-2.8.3-4.1.5-.9.4-1.4,1.3-2.6,1.2-4.3-.3-7.2,2.3-10.8,4.1-10.5,2.7-19.1,9.5-28.5,14.8-2.4,3.2-6.7,5.2-9.8,7.2-1,1.3-1.3,3.1-2.4,4.1,5.2-.2,10.5-2.2,15.7-3.2-.9-.8,2.7-2.7,3.4-2.9,1.4-.6,1.9-.8,3-1.4,11.3-7,19.5-10.8,31.4-14.4,4.1-1.5,7.8-2.9,12.2-2.4,5.3.8,11,5.9,14.8,9.8h0c3.8,4.1,6.1,9.4,8.9,14.2.5.9,1.2,1.5,2,2.3,1.4,1.7,1.2,4.7,2.2,6.4.2.4.6.7,1,1,2.3,1.4,1.8,4.8,2.7,6.8.3.5.7,1,1.2,1.4,2.4,2.1,1.2,5.6,1.7,8.3.3,1.2,1.3,2.2,1.6,3.1.2.7.3,1.4.4,2.1.4,3.1,1.4,6.9,1.4,9.8-.1.8-.7,1.7-.6,2.5,0,1.1,1.1,2,1.2,3,.3,2.9-1.4,6.7-1.3,9.6,0,1.1.9,2,.9,3.1,0,1.2-.9,2.3-.9,3.5-.1,2.4.2,5.4,0,8.1-.6,5.8-2.1,12.7-3.7,19-1.5,6.1-4,11.9-6,17.9-3.6,13.6-6.8,26.3-13.5,38.7-2.6,4-6.6,8.2-9.4,11-3,2.9-6.1,6.3-9.7,8.2-2.3,1.1-6.9,2.5-9.1,3-2.1.4-5.8.6-7.3.5-1.1-.3-2.3-1.3-3.3-2-1.4-1-1.3-2.9-2.4-4.2-.8-1-2.1-1.1-3.1-1.8-1.1-.9-1.4-2.6-2.8-3.3-1.1-.7-2.5-1.3-3.3-2.3-1-1.6-1.4-4.5-2.3-6.4-.8-1.6-3.2-4.6-4.2-6.6-.6-1.7-.3-4.2-.7-6-1.2-4.5-2.2-5.2.5-9.4,4.9-11.6,9.3-23.3,13.1-35.1.2-1,.3-2.1-.2-3-1.7-2.9-5.4-1.3-7.1,1-1.5,1.7-1.6,4.4-2.2,6.3-1,2.6-3.1,4.9-4,7.5-1.6,4.9-2.9,11.3-5.8,15.6-1,.9-2.7,1.7-3.2,3.1-1.1,2.2-1,5.8-2.8,8.1-1.6,2-6,6.7-8.7,9-1,.9-3.1,1.3-4.2,2.3-1.9,1.6-2.8,4.7-5.8,4.7-.7,0-1.5-.2-1.4-.8-2,3.2-5.2,4.5-8.3,6.3.3,0,.6,0,.9.2,2.3.5,3.7,2.3,6,3.1,1,.5,1.9-.3,2.9-.5,1.1-.3,2.3,0,3.3-.4,2.3-1,4.2-3.3,6.5-3.8,1,0,1.7-1,1.9-1.8.5-.7,1.2-1.1,1.7-1.9,2.1-1.7,3.8-2.1,4.6-4.6.6-1.2,2-1.4,3.1-1.9.3-.1.6,0,.6.3.6,4.2,1.5,7.9,3.6,11.6,3.1,2,2.2,5.2,3.6,7.8,1.2,2,3,2.7,4.9,4.1,1.1.8,1.9,2,2.7,3,1.2.6,2.5,1.1,3.3,2.2,1.5,1.5,2.3,3.6,3.4,5.2,2.1,1.4,4.7,3.3,7.2,4.1,7.9.2,16.1-3.1,23.4-5.6.8-2.6,4.2-2.5,5.5-4.5,2.2-2.8,4.5-5.3,7.5-7.1,1.4-2.9,4.3-4.3,6.2-6.3,1.8-4.1,1.4-5.7,5.1-8.5.8-1.4.5-3.9,1.6-4.6.5-.3.7-.9.9-1.4,2.9-4.7,3.7-10.3,5.2-16,.5-1.7.7-4,2.3-5.3,1.3-2.2.7-4.9,1.6-7.2,2.8-1.8,1.5-6.2,2.7-8.5,5.9-15.4,5.3-31.8,9.3-47.4.4-1.8-1.5-3.5-.8-5.5h0Z"/>
      <path class="st0" d="M933.4,191.2v.5c.3-.2.3-.3,0-.5Z"/>
      <path class="st0" d="M785.7,128.6c0-.6-.3-1.1-.8-1.4-3.4-1.8-5.6-5.6-9.4-6.3-5.1-3.3-11.2-4.5-17.3-5.2-.6-.1-1.7,0-2-.6-.2-.3-.7-.5-1-.2-.4.4-.6.9-1.3.8-5.8.2-12.5,1.8-16.6,6.3-.9.8-2.4.8-3.1,1.8-.4.6-.9,1.2-1.5,1.8-1.9,1.4-3.7,3.1-4,5.6-.8,1.3-1.9,2.5-2.7,3.8-.8.8-.6,2.1-1.2,2.9-.7,1-1.7,1.8-2,2.9,0,1.5-.6,2.6-1.5,3.6-.8,1.5-1.4,4-2.7,5.1-.8-.2-.7-2.1-.9-2.6,0-4.9-1.2-9.2-3.7-13.6-1.2-1.4-2.2-2.6-2.4-4.4-.9-1.1-2-2.3-2.2-3.9-1-2.4-2.6-4.4-4.3-6.3-.6-.8-.6-2.1-1.6-2.6-.5-.3-.7-.7-.9-1.4-.4-.9-.6-2.1-1.7-2.3-.8-.3-.8-1.6-1.8-2.1-2.3-1.2-4-3.5-5.5-5.5-.6-1.5-1.9-2.1-3.4-2.5-1.4-.7-2-2.6-3.4-3.4-8.9-3.4-18.6-1.2-26.8,2-1.8,1.8-3.9,4.5-6.6,5.4-3.1,2.7-6.1,5.8-8.7,9.1-.8,1.5-.7,3.4-1.9,4.1-.5.3-.8.7-.8,1.3-1.5,4.8-4.3,9.4-6.7,13.6-1.5.2-3-5.3-3.7-6.4-.6-1.5-.2-4-2-4.8-1.4-.6-1.8-2.1-2.8-3.1-.4-.8-1.7-1.2-2.4-1.9-1.6.2-5.5.9-7.7,1.2-1.1.2-2.5,0-3.6.1,0,0,0,.1.2.3,4.3,2.2,8.8,8,11.6,13.3,2.4,3.7,2.3,8.1,3.6,12.1,3.8,7.6,3.3,16.7,5.1,24.9,1.6,8,2.2,16.6,4.5,24.5.2,1.1-.7,2.3-.5,3.4.8,3.6,2,6.3.7,9.7,1.3,5.1,2.2,10.3,1.9,15.4,1.2,5-.8,10.1-.9,14.7.2,1.1,1.3,2.4.5,3.6-2.7,4.7.7,7.7-4.9,11.1-1.2,2.5-4.1,4.5-6.7,6-1,.2-2.1.2-3.1.3-1.8.2-3,2-4.7,2.3-3.8,1.2-9.3,3.1-12.7,3.9-2.2-1-5.4-.6-7.5-1-2-2.1-4.5-3-7.1-4.2-5-3.1-7.5-8.1-11.4-12.1-.2-.3-.2-.7-.2-1,.2-3.1,2.6-4.8,2-7.9-1-6.1-3.3-11.7-3.5-17.9-3.4-6.1-1.8-3-.2-8.5-1.2-4.4-3.6-9.5-4.1-14.6,0-4.7,1-9.9,1.4-14.5.2-2.3-.6-4.4-.4-6.6.2-2,1.4-4.7,1.3-6.8-.9-5.2-7.4-2-9,1-.9,1.4-.3,3.2-.2,4.7,0,5.3-1.5,9.4-1.2,15.3,1.9,10.6-1,3.6-3.9-.7-2.9-2.6-4.3-4.5-5.5-8.1-2.6-1.8-5.4-4-7.2-6.7,10.8-4.6,20.7-12.9,28-22.2,1.8-3.7,3.9-8.6,4.5-12.5,0-1.5-1-2.6-.9-4.3,1.3-8.1,10.7-11,17.1-14.5,1.6-.6,2.4-2.2,4-2.8.3-.2.9-.2.8-.5-2.7-1.4-4.9-4.7-8.2-4.3-3.2.7-5.8,2.6-8.3,4.6-1.6.5-3.1,1.4-4.3,2.7-.8.8-3,2-2.8,0-.9-2.7-.9-5.1-1.2-7.9-2.5-3.1-3.7-6.7-5.1-10.4-.5-.8-1.5-1-1.6-2.1-2.1-2-3.5-5.1-6.4-6.1-1.8-.7-1.7-3.1-3.3-4.1-1.3-.9-3.3-.5-4.6-2-.8-1-.9-1.8-2.1-1.9-5.3-.5-10.2-2.5-15.4-3.4-1.8-1.5-5.2-1.5-7.5-1.6h-.1c-18.9,1.3-37.8,6.1-53.5,16.2-1.8,1.3-3.6,2.1-5.6,3-1.2,1.8-3.5,3.2-5.6,4-.6.2-.8.8-1.1,1.3-.5,1.6-2.7,1.6-3.3,3-.2.5-.7.5-.9,1-.1.3-.1.8-.6.7-3.2-1.4-5.4-4.3-8.1-6.4-2-1.9-5-3.3-5.6-6.2-.7-1.1-2.5-1.2-2.5-2.8-.3-2-2.3-2.2-3.9-2.9-4-2.1-6.1-5.7-10.3-6.5-1.4-.5-2.9,0-4.3,0-3.2-.8-6-1.5-9.3-1.2-4.6,1.4-10.2,1.7-14.3,4.1-2,1.2-4.4,1-6.6,1.7-2.1,1.2-4.8,3.2-7.5,4.4-.9.5-1.3,1.5-2.4,1.7-.8.3-1,1.3-2,1.5-4.2,1.6-6.6,5.8-11,7.1-5.3,2.1-6.2,9.3-11.2,12.1-.7,1.5-1.9,5.8-2.7,2-4.7-4.7-7.7-12.3-15.2-13-1.4,0-2.3-.6-3.4-1.2-1.2-.6-2.6.2-3.9.2-5-.9-10.6-.3-15.4,1.2-6.3-1.2-12.6,2.1-18.2,3.9-2.1.8-4.4.5-6.3,1.7-16.7,6.2-32.8,15.1-40.2,32.8-2.9,3.9-2.3,16.2,4.6,10.8,2.2-1.4,1.5-4.4,2.7-6.6,1.2-2.4,3.2-4.2,4.5-6.3.8-1.6,1.1-4,3-4.7,9.3-9.7,21.8-14.8,34.6-18.4,1.2-.4,2.1-1.7,3.4-2,2.5-.8,5.4-.1,7.8-.8,1.1-.4,2-1.5,3.1-1.5,1.5,0,2.8,1.4,4.1,1.6,3.6-.6,7.2-.2,10.6,1.1,1.6.4,2.8,1.2,3.9,2.3,2.6,1.5,5.4,1.5,7.9,3.6,6.3,5.3,13,14.9,10.2,23.6-1.6,2.4.5,4.5-1.1,6.9-2.6,4.7-2.7,5.3-8,7.2-3.3,1.6-9.4,5.1-13.6,5.5-4-1.6-8.3-1.7-12.4-2.8-4.1-1.2-6.9-.3-10.7,2.4-1.2.6-.8,1.6-.7,2.9,0,1.5.2,2.6,1.6,3.1,6.6,1.6,12.7,5.7,19.8,4.5,1.9,0,3.8.9,5.5,1.7.9,1.1,2.2,2.7,4,2.5,1.2.2,1.5,1.8,2.5,2.4,2.3,1.2,3.9,2.7,4.1,5.3,4.3,4.6-4.3,5-6.9,5.3-3.4.9-6.5,2.4-9.9.8-1.4,0-3.2.6-4.8.7-1.5,0-2.9-1-4.4-.4-5.8,1.2-5.5,6.3-3.4,10.5,2,1.6,6.9,1.9,9.7,1.8,9.7-1,20-5.5,29.7-2.7,7,2.4,18.1,7,21.6,14.8,1.7,5.4,4.6,11.9,4,18.2-.8,3-6.3,5.8-8.5,8.1-1.1,1.1-1.4,2.8-2.8,3.6-6.7,4.4-16.8,6.6-23.8,9.4-8.8,3.4-16.6,6.4-25.1,5.1-3.1.7-6.5,1.3-9.4-.5-5.6-2.7-9.6-8.6-15.1-11.3-.4-1.5-1-3.4-2.2-4.5-.8-2.8.5-6.3,1.5-8.8.6-5.6-.6-13.2-1.6-18.8-.3-2.7-1.5-3.7-2.2-6,0-.7-.5-.8-.9-1.3-.1-.7-.8-1.1-1.1-1.8-1.2-4-3.2-7.8-4.6-11.7-1.9-2.3-2.6-5.1-3.4-7.9-.3-.5-1.2-.7-1.6-1.4-.7-.9-.7-2.2-1.5-3-1.9-1.4-2.5-3.8-4.5-5.2-2.1-2-3-4.8-4.6-7-.8-.8-2.8-1.6-3.3-2.5-.7-1.6-1.8-2.8-2.8-4.1-1-.5-1.5-1.2-2.4-1.6-.7-1.5-2.3-2.6-3.6-3.6-.9-.7-1.7-1.8-2.6-2.5-1.3-.6-1.9-1.5-2.7-2.6-.8-.8-2.4-1.3-3.4-1.8-.9-.4-.6-1.2-1.4-1.8-1.8-1-3.6-2.1-5.2-3.6-1.2-.6-2.5-1-3.7-1.8-7.4-6.4-17.3-8.4-26.5-10.6-19.8-4.7-40.3-2.4-57.3,7-6,3.5-7.3,12.8-11.8,17.9-1.6,2.9-1.7,6.4-3.6,9.2-.8,3.4-.2,6.9-.7,10.3-.4,1.5,0,3.1-.2,4.5-1,3.1-.5,6.8,0,10-.3,1.4-1.2,2.7-.5,4,2,4.6.3,10.4,3.5,14.5,2.7,2.8,2.3,6.7,3.8,10,.8,1.6,2.6,2.4,3.3,4,3.4,6.5,7.6,12,12.5,17.5,0,.7-1.7,1-2.1,1.4-1.1.2-2.3,0-3.2.9-13,8.5-15.4,14.5-14.2,29.9.3,2.7-.2,5.4,0,8.1.3,1.2,1.1,2.7.9,4,.3,1.6.9,3.3,1.1,4.9,3.2,5.1,6.5,10.6,12.7,12.9,1.1.4,1.4,1.7,2.4,2.2.4.5.7,1.1,1.5,1.2,1,.3,2.6.6,3.1,1.7.4.4,1.3.4,1.6,1,.5.6,1.8.7,2.2,1.6,2,1.7,5.3,1.2,7.4,3.1,1.4.8,3.2-.5,4.6.6,1.6.4,2.7-1.8,4.2-1.9,2.1-.2,4.3,1.6,6.3-.2.9-.2,1.3-.9,1.9-1.3.5-.2,1.6,0,2.3-.1.5-.2.6-.8,1.2-.8,11.7-1.2,23.3-5.3,34.5-9.4,14.2-4.5,25.9-15.1,38.6-22.4.4-.3.7-1.3,1.4-1.5.5-.2.6-.3.9-.6.8-1.2,2.5-2,3.3-3.2,1-.6,2.2-1.6,2.6-2.7.6-.5,1.1-1.2,1.4-1.9.5-.7,1.5-.8,2-1.6,1.6-2.5,2.9-5.2,4.9-7.1.6-1.4.5-3.7,2.2-4.3,1-1.1,2.1-3.5,3.3-4.6.3,0,.3.7.7,1.1.5.4,1,.6,1.6.9,2.9,1.5,5,3.7,7.2,6,4.1,5.8,10.8,6.6,17.2,9.5,5.8-1.4,11.9-1.4,17.5-3.4,1.9-.3,3.3-.9,5.2-.6,1.5-.6,3-.2,4.4-.7,2.9-1.5,6.1-3.1,9.3-3.4.4,0,.6-.4.8-.6.3-.3,1-.3,1.2-.8,1.4-1.3,3.9-.6,5.7-1.2,6.1-4.1,12.5-6,18.4-10.6.4-.4.7-.4,1.2-.2,2.7,1.2,5.7,1.4,8.5,2.3,1.7.9,3.1,2.1,5,2.5,11,4.9,23.9,4.8,35.3,8.4,2.3,2,4.5.7,7.4.2,4.3-.3,9.2,0,13.4-.9,3-1.8,7-.7,10-2.6.9-.9,1.6-2.1,3.1-1.7,3.5-.2,5.6-3.3,8.7-4.6,3.5-.1,6.6,3.2,10.2,3.4,3.3,1.2,6.9.1,10.3,1,3.2,2.6,7.7-1.4,12.3-1.2,1.3,0,2.4-.6,3.6-1.2.8-.5.8-1.8,1.3-2.3,1.5-.5,2.6-1.2,3.6-2.5,1.9-1.4,1.4-3.9,2-5.9.4-1.4,1.8-2.1,1.9-3.5.5-2.3.1-5.4,1.6-7.2,1,3.1,4.7,8.9,7.3,12.4.6.6,2.2.8,2.8,1.6,1.7,2.6,5.2,4.1,7.5,5.8,1.6,1.3,4.2.4,5.8,1.4,2.5,1.6,5.8,1.5,8.5,2.8,5.6.6,11.7.2,16.9-2.4,1.9-1.3,2.9-5.5,6-4.5.8.1,1.1.9,1.4,1.5,1,.7,1,1.8,1.5,2.7.7.7,2.1.5,2.6,1.5.4.8.6.9,1.2,1.3,3,1.9,6.6,4.7,9.6,6.2.9,0,.9.7,1.6,1,1.6.4,3.2.4,4.7.8,3.9-.1,7.5,2,11.3.3,7.8-3.2,16.4-4.5,23.3-8.8.3-.3.7-.4,1.1-.6,1.7-.8,1.9-2.7,4-2.8,2.1-.5,1.6-3.1,3-4.4,3.8-1.5,1.7-5.8,4-6.1,2.1,2.3,4.9,4.4,7,6.9.8.3,1.1,1.3,1.7,1.6.4.2.9.2,1.3.5,1.4,2.1,4.1,2.4,6.2,3.5.5.2.7.8,1.2,1,3.8.6,7.5,2.7,11.3,3.6,1.1.3,2.2.8,2.9,1.7,2.6.8,5.7.7,8.4.8,5.1,0,10.6.6,14.6-2.9.6-.3,1.2-.7,1.4-1.4.6-2,3.4-4.6,3.4-7.3.2-1.7-1.2-4.7,1.1-5.5,1.5-.1,1.6,2,2.7,2.5,1.2,1.1,3.3.4,3.9,2.2.5.5,1,.6,1.4,1.2.6.5,1.4.4,2.1.9,1.1.9,2.8,1,3.7,2.2.7.3,1.2.7,1.8,1.2,2.3.4,4.5,1.1,6.7,1.9.8.9,1.7.9,2.9.8,9.8-.7,13.8-1.4,21.2-8.3,1.5-.8,2.6-2,3.5-3.4.5-.5,1.5-.5,2-.9.4-.7,1.3-1,1.8-1.6.2-.4.4-.9.5-1.4.3-.9,1.1-1.1,1.4-2,.3-1.1,1.6-1.4,2.2-2.2.5-1,.6-2.2,1.7-2.7.6-.9,1.1-1.6,2.1-2.1,2.9-3,4.5-6.1,4.9-10.1,2.5-3.1,3.1-7.1,4.8-10.6,1.9-1.8,1.1-5,2.2-7.4.4-1.5,2-2.6,2.5-3.9.4-1.2-.3-2.5,0-3.6.4-1.7,1.5-3.6,1.6-5.4,0-.5.5-.6.8-1,1.6-5.4,2.5-11.2,3.3-16.9,1.7-1.7.5-3.9.5-6,2.6-9.6,1.5-19.9.3-29.6-.6-.7-2-2-1.3-3-1.2-2.4-.3-5.8-1.5-8.5-1.8-.3-2-3.4-2.4-4.8h-.1ZM291.8,236.6c-.3.7-1.1,1.5-1.4,2.2-1.1,2.5-.3,6.1-2,8.1-.7.6-1.7,1.1-2.2,1.9-.9,1.6-1.1,4.2-2.1,5.7-1,1.6-2.7,3-3.6,4.6-.8,1.5-.6,3.6-1.7,5-1.6,2.1-4.1,4.3-5.2,6.2-.3.6-.4,1.4-.5,2-.3,2-2.9,2.5-4.5,3.6-3.9,2.9-6.8,6.1-10.9,8.5-6,4-11.1,8.4-18.2,11.1-2.7,1.1-5.2,1.9-8,2.6-1.5.5-3.4.5-4.8,1.5-4.2,3.2-10.1,3-14.9,4.6-2.4.8-4.4,2.6-6.7,3.3-4.4,1.4-9.2,1.1-13.7,1-3.6-.2-7.5,0-11.4-.4-3.7-.3-7.7-3.6-11.1-4.8-.8-.4-2-.3-2.8-.5-1.6-1-3.5-3.3-4.9-4.7-1.8-1.9-1.3-4.7-2.7-7-.4-.7-1.1-1.2-1.6-1.9-.8-2.2-1.2-5-1.6-7.4-.4-7.5,5.3-15.2,10.5-19.8,3.1-2.8,5.9-2.5,10.1-3,8.9-1.2,15.7.6,24.5,4.1,7.4,2.9,19.4,8.2,24.8,11.9,1.1.6,1.4,1.9,2.5,2.4,1.7.7,4,.8,5.7.4,2.9-.4,3.6-4.1,2.2-6.5-.9-1.5-3.3-1.7-4.2-3.4-1.1-1.9-3.6-1.2-5.3-2.3-.8-.5-1-1.2-1.7-1.8-.4-.3-1.1-.6-1.6-.8-6-2.3-9.5-3.6-14.6-6.6-5.4-3.3-8.9-4.4-14.3-5.5-5.6-1.2-10.6-5-16.5-3.9-.3,0-.5,0-.6,0-.5-.5-3.3-4.5-4.4-6-.3-.5-.4-.6-.9-1-3.7-3.2-9.5-10.1-9.8-15.2,0-1-.4-2.1-1.4-2.6-.4-.3-.7-.4-.8-.7-.3-.5-.4-1.2-.6-1.7-3.3-7.6-6.6-16.8-7.4-24.6-.4-8.2,2.3-16.2,4.6-23.9.6-1.7.8-4.5,1.2-5.9,0-.2.2-.3.4-.5.5-.4,1.3-.7,1.6-1.3,2.1-3,3.9-6.6,7.4-8.4,3.9-2.3,9.7-5.1,14-6.5,6.7-1.9,15.4-2.5,22.7-1.8,10.1,1.2,28.2,5.7,37.2,11.8,2,1.3,4.6,2.9,6.5,4.3h0c2.5,2.3,4.9,5.3,7.1,7.8,3.8,4,7.5,8.1,11.3,12.2,1.2,1.1,1.9,2.4,3.5,3.2.7.4,1.7.5,2,1.3,1.2,4.5,4.3,8.3,6.6,12.2,1.8,2.7,3.5,5.5,5,8.4,3.5,6.7,6.1,13.3,8.3,20.8.2.7.2.9.3,1.7.1,1.8.4,4.7.3,6.4h0ZM483.7,239.6c-.8,1-.7,1.9-1.4,3-1.6,2.6-4.3,2.8-6.4,3.6-2.8,1.5-5.2,5.3-8.2,6.2-1.5.5-2.9.6-4.2,1.6-4.8,3.3-14.8,5.5-20.5,5.6-1.4-.4-3.1-1.2-4.6-.3-.6.3-1,.4-1.5.2-1.1-.4-2.2-1.3-3.3-1.7-6.2-1.9-13.1-2.3-19.2-4.1-6.2-1.7-12.8-2.7-18.5-5.8-.9-.5-2.2-.8-3-1.4-.2-.2-.2-.3-.2-.5,1.7-2.9,4.5-7.6,3.8-10.9-.3-.8-.8-1.4-1.2-2-1-1.2-.1-2.9-.2-4.2-2-4.7-2-10.6-5.1-15.1-2.4-3.2-6.3-6-9.4-8.8-.9-.8-1.9-1.6-2.8-2.1-3.5-2.2-7.8-2.7-10.8-5.8-1.2-1.3-2.6-1.8-4.3-1.4-.8,0-1.8.3-2.4-.1-.2-.2,0-.6.2-1,.7-1,1.7-2.1,1.7-3.5.5-6-5-12.8-9.6-16.1,0-.1.5-.2.7-.2,2.2-.4,2.4-2.7,3.8-3.8.8-.7,2.2-.8,3.1-1.5,2.5-2.1,4.9-5.5,7.4-8.1,1.7-1.8,3.4-3.8,4-6.1.7-2.8-.3-6.1-.5-10.1,0-1.2.4-2.1.4-3.5,0-2.6-2.3-4-2.7-6.5-.3-1.1-.6-2.2-1.1-3.2-.2-.4,0-.7.3-1,1.6-1.9,1.8-4.8,3.3-6.6.8-1,2.1-1.2,2.8-2,.8-.9.8-2.5,1.8-3.7.9-1.1,2.3-1.5,3.3-2.5,3.1-2.9,5.2-5.7,8.4-8.1,6.6-4.5,13.5-8.5,21.2-10.6,1.2-.3,2.4,0,3.7-.5,1.2-.4,2-1.5,3.1-1.9,5.4-1.5,18.6.9,21.9,5.2,4.9,5,12.5,11.5,18.1,18.9,1.6,2.3,2.3,3.4,2.7,5.5.3,1.8,1,2.9,1.6,4.6,1.6,4.3,1,13.5-1,17.4-1.3,2.3-3.4,4.4-4.5,6.7-.5,1.1,0,2.7-1.1,3.5-.5.3-1.3.6-1.7,1h-.1c-1,1-1.5,3.6-3.2,3.8-3.4.4-6.8,1.3-10.3,1.5-1.2,0-2.6-.6-3.9-.5-9.1.8-25.2,7-32.6,12.8-2.7,2.7-2.1,8.1,1.9,8.7,1.6.3,3.5-.6,3.7-2.3.1-.8.3-.9,1-1,.5,0,1.1-.1,1.7-.3,1.6-.6,2.3-2.7,4.3-2.8,3.7-.1,6.7-4.4,10.9-3.7,1,.2,2,.5,3,.3.8-.2,1.5-.7,2.2-1.2,1.3-.9,3.1-.5,4.7-.6,1,0,1.8-.9,2.8-.8.8.1,1.6,1.4,2.9,1.7.3,0,.7.1,1,.1,2.1,0,4.2-.9,6.1-1,2.5.1,5.5,1,7.7,1.8.7.3,1.1.5,1.7.9,3.2,2.3,6.2,3.8,9.2,6.3,8.5,6.9,16.2,11.9,20.6,22.3.4,1,.6,1.7.9,2.9,1.1,6.5,1.5,21.2.8,26-.1.9-.4,1.6-.7,2.4-.9,2-2.5,2.4-3.9,4.1h0ZM573.6,242.2c-.7,1.7.8,4.6-1.3,5.3-1.6.4-2.2,2.7-3.4,3.6-1,.8-3.2.6-4,1.9-1.1,1.6-3.3,1.4-5.2,1.6-1.6,0-2.8-.2-4.3-.7-2.5-.8-6.7-2.2-9.2-3.2-3-.9-4-2.8-6-4.7-3.3-3-6.2-6.3-8.3-10.6-1.7-3.2-3.7-6.3-5.1-9.7-2.1-5.1-3.4-11.9-5.7-17.8-1.5-3.5-3.5-8.5-8-6.9-.6,0-1,.1-1.4-.3-.7-.9-2.2-2.7-2.8-4-1.2-2.3-2.2-4.9-3.8-7-1.5-1.8-4.2-3.5-6.6-2.3-1.2.7-2.3,2.6-2.1,4,.4,2.6,3.6,4.1,4.6,6.6.8,1.9,1.6,3.7,2.8,5.4,4.8,6.7,8.9,16.5,10.7,24.6.8,4.2.3,9.5-.5,13.3-.4,1.2-1.3,2.4-1.8,3.6-.7,1.7-.5,3.7-1.6,5.2-2.1,2.7-6.2,3.5-9.2,3.2-3.5-.1-7.9.4-11.2-.8-.6-.3-1.3-.8-2.1-1-.2,0-.3-.1-.3-.2,0-.2.2-.4.2-.6,0,0,.2-.3.2-.3,1.4-2,3.2-3.5,4.5-5.3,6.3-8.2,5.4-17.6,5.4-27.5-.2-4.6-2.1-11-2.7-15.8-.2-1.2.5-2.5,0-3.6-.9-1.7-5-5.4-6.6-7.7-.8-1.2-1.2-2.6-2.1-3.6-3.8-4.1-10.1-7.4-14-11.2-1.3-1.1-1.9-2.8-2.7-4.1-2.8-3.1-8.2-3.9-11.7-6.2-.3-.2-.4-.5-.2-.9,2.7-4.6,6.8-9.3,9.1-14.1,1.3-2.8,2.4-6.6,3.1-9.4.2-.7.3-1.1.3-1.9,0-.9-.5-1.6-.6-2.4-.4-2.5.4-5.4-.2-8.1-.7-3.1-3.7-5.8-2.5-9.1.8-1.5,1.7-4.4,2.9-5.4,5.9-5.6,12-9.4,20.4-13.2,1.5-.7,2.2-.9,3.5-1.3,7.7-2.2,13.7-5,21.8-6.1,1.5-.4,3.6-1.7,5.3-2.1,3.1-.7,8.8-1.3,13-1.2,5.5,0,10.6,3.2,16.1,3.9,2.1,0,3.1.5,4.9,2,2.7,2.1,6.7,5.6,9,7.8,2.1,1.9,4.1,5.6,6.1,8.8.7,1.2,2.4,7.9,3.3,11.5.8,2.2-.2,5.1,0,7,.3,1.6,1.4,3,1.5,4.6.1,1-.4,1.9-.6,2.8-.4,1.4.3,2.9.2,4.1-1.8,8.8-12.7,16.1-19.3,21.3h-.1c-4.2,3.4-7.6,3.3-12.8,4.5-2.9.8-5.6.7-8.5.7-2.7,0-5.3.1-8,0-2.9-.3-6.9-2-8.5,1.5-.9,2.6,1.7,6.6,4.5,6.6,4.2-.3,8.7.8,12.8.6,2.4,0,5-1.7,7.4-1.1.6.2.8.9,1,1.4,1.1,1.7,4.3,4.1,5.9,6.1.5.9.2,2,.9,3.1,1.2,1.7,3.4.9,3.5,3,.2,1.2.9,2.2,2,2.8,2.9,2.4,4.7,6.1,6.9,9.3,6.4,11,11,23.3,12.5,35.9.4,1.5-.4,2.6-1.1,3.9h0ZM779.2,191.5c-.3,2.9-2,5.4-2.7,7.9-1,6-2.3,10.4-4.7,16.6-1.2,2.9-1.9,5.3-3,8.6-.5.8-1.7,1.4-1.9,2.3-.5,1.4-.6,3.4-1.6,5-2,3.3-6.1,7.2-8.6,10.3-.9,1-1.2,2.5-2.1,3.5-2.8,2.8-8.1,7-11.2,9-.5.3-.9.6-1.4.7-1.4.2-6.2,1.1-8.2.9-6.2-2.7-17.3-8.8-22.5-14.3-.5-.5-.5-1.2-.8-1.9-.4-1.2-1.7-1.6-2.7-2.2-.8-.6-.1-2.3-.8-3.4-.5-.9-1.7-1.4-2.5-2.1-1.5-1.2-1.3-4.1-2.6-5.6-.4-.5-.9-.9-1.3-1.4-1.1-1.3-1.1-3.4-2.7-4.4-4.6-2.2-6.6,3.4-5.4,7.5.8,2.8,4.6,6.6,6.1,9.3,1.2,1.7-.2,4,0,5.9,0,3.6.3,7.3,0,11-.2,2.5-.5,5-3.4,5.7-3.2,1-7.3.4-10.9.2-1.9-.2-5.1-3-7.7-2.3-1.4.3-1.8-.5-2.9-1.2-1.7-1.6-4-1.4-5.9-2.1-1.3-.6-2.3-2.1-3.3-2.9-1.6-1-3.3-1.8-4.9-2.9-3.8-2.6-5.9-6.6-8.5-10.2-.3-.4-.4-.9-.4-1.3,0-1.3.8-2.5.7-3.8,0-2.4-2-3.5-2.1-5.7-.1-1.4.8-2.5.7-3.6-.1-2.1-1-5.1-1.3-7.4-.4-2.4.6-5.2.4-7.2-.2-2.4-1.2-5.6-1.6-8.4-.9-9.4-1.9-19.2-3.9-28.7-1.1-6.6-1.8-13.2-3-19.8-.3-1.2,0-2.5-.2-3.7,0-1.1-2.1-2.5-.8-3.3,4.6-2.4,3.2-8.4,5-12.5,1-2.4,3.1-5,4.4-7.1,4.2-7.3,7-12.3,14.8-16.3,3.7-2.5,7.5-4.7,12.2-4.8,1.4.2,5.2.9,7,1.4h0c.3.4,1.6,2.4,2.7,3,11.3,8,12.9,17.3,20.2,27.8.9,1.3,1.3,1.7,1.7,3.3,1.9,8.1,4.1,17.2,3.3,25.7,0,2.6.2,5.9,2.7,7.1,1.5.7,4.3,1,5.5-.3,1.7-1.5,2-4.8,2.1-7.5,0-1.1-.6-2.1-.3-3.2.2-.6,1-1.1,1.3-1.8,2.6-5.6,6.1-11.1,8.9-16.6,3.3-6.1,6.8-12.5,12.9-17.5,2.7-1.7,6.4-2.9,9.7-2.8,2.5.1,10.2.9,11,1.1.4.1.7.3,1.2.5,2.9,1.5,7.8,3.7,9.6,5.2,3.1,3,3.9,7.7,4.9,11.6,1,3.8,1.5,6.6,1.5,9.1,0,1.4,0,3.6.2,5,.2,1.3,1.1,3.1,1.3,4.7.3,10.1-2.5,20.2-4.1,30.3h0Z"/>
      <path class="st1" d="M225.2,229.4c-.5-.5-1.1-1.6-1.9-2.2-2.9-2.5-6.6-5.7-9.9-7.7-1.2-.8-2.7-1-3.9-1.8-1.5-.9-1.7-3.1-1.3-4.7,1.1-4.5,8.3-.6,9.4-.8.4-.8.5-2.1,1-2.9.8-1.8,2.6-3.5,4.4-3.7,2.5-.5,4.9,2.2,4.9,6.1,0,1.2,0,2.2-.5,3.3-.3.7-.5,1.3-.3,1.9.6,1.4,2.5,3.8,3.4,5.3,1.4,1.8,2.2,4.4,1,6.4-1.1,2.1-4,2.7-6.1.8h-.1c0,0,0,0,0,0Z"/>
      <path class="st1" d="M398.6,144.8c-.8-.8-.9-2.4-1.6-3.4-1.6-2.1-5.8-2.3-7-5.2-1.9-5.4,4.7-6.8,7.8-3.3.3.4.8.7,1.1.2.5-1.4,2.7-1.3,3.4-2.5.4-.8,1-2,1.9-2.6,2.6-1.9,7.7-3.9,10-2.4,2.1,1.2,1,6-1.3,7.2-1.2.8-2.8,1.4-3.8,2.2-.8.8-1.6,2-2.3,2.9-1.7,1.8.6,3.9,0,5.9-.9,3.4-6,2.9-8.3,1h0c0,0,0,0,0,0Z"/>
      <path class="st4" d="M447,209.7c3.3,3.2-2,6.3-3,8.2,0,.1,0,.2-.1.3-.2.7.8,1.3,1.4,2.4,1.9,4.9-3.1,7.5-7.2,4.7-1.4-.8-1.8-2.6-2.6-3.8-1-.9-4.5-2.5-6.1-3.9-2.5-2-5.5-5.8-1.5-7.7,3.2-.9,6.7,2.7,9.4,3.5.2,0,.4,0,.5-.3,1.7-2.6,6.3-6.3,9-3.7h.1c0,.1,0,.1,0,.1Z"/>
      <path class="st4" d="M524.6,126.3c1.1,1.3,1.1,2.4,1.2,4.2.2,2.7.3,7,.2,8-.3,1.6-1.9,3.5-3.4,4.1-1.3.4-3,.2-3.8-1-.8-1.2-1-2.7-1.8-3.9-2-3.1-7.1-2.9-5.8-7.6.9-3.8,4.5-1.5,6.7-2.4,1.7-.8,4.3-3.3,6.6-1.4h.1c0,0,0,0,0,0Z"/>
    </g>
    <g>
      <path class="st0" d="M571.4,304.8c2.7,2.4,7,5,8.6,8.7.8,1.9,3.2,2.2,4.1,3.9,1.3,2.8,3.2,5.6,3.9,8.6.4,1.8,0,4.4,1,5.9,2.9,0,1.1-3,5.5-4.6.3-.5.4-1.1.9-1.4,1-.6,1.1-2.6,2.5-3.2,1.5-.1,2-1.6,3.3-1.9.5,0,.9-.2,1.1-.6.7-1.1,2.2-.6,3-1.4.4-.5.5-1.4,1.1-1.8,1.5-1.2,3.3-.8,5-.6,2.5.1,4.6-1.1,7.1-.9,2.1,0,3.6,1.4,5.4,1.8,3.4-.3,4.3-.5,6.8,2.6,3.8,2.2,7.3,1.4,8.9,6.1,3.7,3.5,9.2,5.5,9.9,11.2.4.7,1.1.6,1.4,1.3,4.8,4.6,6.6,11.2,8.5,17.2,1.9.4,1.6-3.6,2.7-4.3,2.3-2.6,6-4.7,7.1-8.2,5.4-4,11.3-7.4,16.8-11.4,1.5-2.2,4.5-3.5,6.5-5,1.1-.8,3.2-.2,4.4,0,2.8-.1,7.2-3.5,9.7-4.2,8.4.7,17.2-.9,25.6-1.2,7-.1,13.3,4.4,20,5.6,8.3-1.8,13.6.6,20.3,5,1.8,3,5.1,4.5,7.3,7.3,1.8,2.5,3.1,5.9,5.8,7.4.9.2,1.1,1.2,1.9,1.7,1.6,1.2,1.9,4.2,2.8,5.7.3.8,1.5.3,1.7,1.2.6,1.7,2.3,2.2,2.7,4,1.6,2.9,5,11.1,6,12.7.5,3,1.1,6,1.9,9,2.2,3,4.3,6.7,4.6,10.6-.1.9-.4,2,.3,2.8.8,1,2.2,1.3,3.1,2.5.5.6,1.4,2.2,2,1,.5-1.6,1.3-4.3,2.7-5.5,2-2.1,1.4-4.4,2.7-6.7,3.5-2.7,5.2-7,7.1-10.9.5-1,1.6-1.6,2.3-2.4.5-.7.6-1.6,1.4-1.8.5-.3,0-1.1.5-1.6,1.2-.9,2.9-1.7,3.4-3.1.6-.7,1.3-1.2,1.8-2,1.3-.7,3.2-1.2,4-2.4,6.8-6.1,12.9-5.8,21.3-2.5,2,.4,3,1.9,4.8,2.6,1.4.3,3.5.3,4,1.8,0,1,.8,1.5,1.6,1.9,1.5,1.2,2.8,2.5,4.6,3.2,1,2.5,3.3,4.3,3.9,7,4.3,5,3.7,12.5,6,18.5-.2,1.6-1.4,3.6-1,5.3.4,3.7-1.3,6.5-2.8,9.8-1.2,2.7-1.5,5.4-2.6,7.9-.8.5-1.7,1.6-2,2.6-.2.3-.4.6-.7.8-.7.5-.5,1.7-1.2,2.2-1.6,1.2-4.3,2.4-5,4.6-.5.2-1.1.4-1.1,1.1,0,.3-.2.4-.4.5-.7.3-.3,1.1-.5,1.7-.9,1.2-3.4,1.7-4.2,3.1-2.2,5.2-8.4,5.5-11,10.3-.3,1-1.3.7-2.1,1-.7.5-1.3,1.4-1.8,2.1-1.8,3.5-8.3,4-11.3,6.3-3.3,2.9-7.9,3.1-11.3,5.7-3.2.9-7.3,1-10,3.1-.2.8.3,1.7-.1,2.5-.2.5.4.6.6,1,0,.7.3,1.6.5,2.2.6,3.2,1.6,6.6,1.4,9.9,2.4,7.8-.1,15.9,0,23.8,0,.4-.2.7-.5.9-1.1.6-.8,3-1.7,4.1-1.3,1.4-3.6,1.8-4,4-.4,2.4-1.9,3.8-4.3,4.3-5,4.2-10.5,3.3-16,3.2-4.7,1.1-8.9-.9-13.5-1.5-2.8.7-5.3.7-8.1-.6-1.3-.4-2.9.3-4.2-.4-.4-.2-.9-.1-1.3-.2-.4-.2-.4-.6-.8-.8-.9-.3-2.2-.2-3-.8-.3-.5-.8-.7-1.2-.9-3-2.7-7.6-2.9-10.4-6-1.6-3.1-5.2-.3-7.5.5-8.2,0-16-1.9-23.4-5.3-4.5-1.4-7.4-5.5-12.1-6.2-1.5-1-1.7-3.9-4-3.6-1.9-.7-3.3-2.4-3.8-4.3-4-3.7-8-8.3-10.5-13.3-1.7-1.8-2.3,1.7-2.5,2.9-1.5,2.9-4.7,4.6-5.8,7.8-.6,1.5-1.9,1.5-3.3,2-2.6,1.3-5.7.7-7.9,2.6-2.3,1-5.1.3-7.4,1.6-2.2.5-4-.2-6-.8-3-.2-5.6-1.3-8.8-1.3-1.9-.7-4.1-1.5-5.7-2.9-6.4-3-1.8,1.4-9.2,1.7-3.3,0-3.7,3.3-7.9,1.9-.7-.3-.7.4-1.2.7-2.5.3-4.9,1.2-7.4.4-2.9-.8-.8.2-2.8.4-6.1-.3-13.8.6-18.5-3.8-1.6-.2-3.3-.6-4.7-1.5-.8-1.1-1.9-1.1-2.9-1.8-4.7-2.7-9.7-5.4-14.3-8.1-1-1.9-1.4-1.1-2.2.3-.8.9-2.2,1-3.1,1.8-.5.4-.7,1.2-1,1.4-.4.2-.8.5-1.1.8-.9.3-2.5.2-3.1,1.3-2.4,1.7-5.7,1-7.9,2.8-.3,0-.6,0-.8,0-.4.2-.4.7-.9.8-4.1,0-8.4-.3-12.4,1.2-1.6-.1-2.8-.6-4.4,0-2.8-.1-5.8,0-8.5,0-3.2,1.1-6.5-1-9.9-.6-2.6-.3-5-1.6-7.6-1.9-.8,0-.9-1.2-1.6-1.5-2.3-1.5-1.5,1.8-2.9,2.3-2.2,2-4.6,3.9-6.9,6-2,1.5-5.2.1-6.9,2.3-2,.7-4.4,1.1-6.3,2-2.7-.3-5.7-.4-8.2-1-3.4-.3-5.4,1.3-8.6-1.2-2.6-1.2-5.7-1.8-8.3-2.5-2.1-2-4.8-3-7.5-3.9-.8-1.4-2.8-1.3-3.6-2.6,0-.6-.7-.7-1.2-.8-.5-.5-1.8-2.8-2.2-.9.6,2.4,1.5,4.2-.5,6.2-.9,1.1-1.7,2.3-2.5,3.4-1,.6-1.5,1.5-2.2,2.5-.7,1.1-1.2,1.9-2.6,2.1-.6.2-.9.8-1.1,1.2-1.2.8-2.9,1-4.3,1-1.3-.2-2.3,1-3.5,1.3-2.2-.1-4.5-.4-6.7-.8-9.4-.6-18.8-3.7-26.6-8.7-.6-.4-1.7-.4-2.3-.6-1.8-1.4-4.8-3.8-6.5-4.9-.7,1.5-.7,3.9-1.3,5.5-2.1,1.3-3.5,3.6-5.4,5.1-.7.7-.4,2.4-1.3,3.3-1.1,1.1-2.7,1.1-4.1,1.5-5.9,7-16.9,6.2-25.1,4.9-2-.6-3.7-2-5.7-2.6-1-.2-2.8-.1-3.7-.6-.7-1-1.7-1.3-2.5-2.2-1.3-1.6-1.9.2-2.6,1.4-.4.4-1,.6-1.5,1-1.8,1.1-1.2,2.4-2.6,3.4-13.2,8.3-29.6,13.5-45.2,11.1-2-.5-4.3.6-6.1.3-4.1-1.4-9.1-2.9-13.6-3.8-2.5-2.4-6.7-3.5-9-6-1.2-.4-2.4-.7-3.3-1.7-.6-.7-.6-1.9-1.8-2.1-1.2-.4-1.2-2-2.4-2.5-1-.4-1.1-1.7-1.6-2.5-.8-2-3.1-3.4-4.3-5.2-1.1-2.5-.4-5.6-2.5-7.5-6.7-21.1,7.7-19.8,2.7-44.5.1-5.2-3-10.1-2.1-15.2-.3-1.1-1.8-1.9-2-3.2-.2-1.1.3-2.2.3-3.2,0-2.9-1.6-6.9-1-10.1,1.5-3.1.3-5.6,0-9.2-.5-1.7,1.5-1.9.9-3.8-.3-8.5,2.7-19.6,6.7-28,2.6-4.9,5.3-10,9.9-13.3,1.4-.9,2.6-2.1,3.4-3.6,1.2-.9,2.5-1.8,3.6-2.8,9.6-7.6,20.8-14.6,32.8-18.6.9,0,1.6-.1,2.3-.5,3.3-1.9,7.1-2.2,10.3-3.9.5-1.1,1.6-.9,2.6-1.1,2.3,0,4.2-1.6,6.5-1.6.8,0,1.7,0,2.5-.2.7-.3.9-1.1,1.7-1.1,9.4-.6,19.4-2,28.5,1,3.1.5,6.6,3.3,9.8,4,1.9.2,4-.4,5,1.6.7,3.5,4,5.5,6.2,7.7.6,1.2.4,3.2,1.5,4.1,2.2.7,2.1,3.9,2.3,5.7-.3,1.6-1.4,3.4-.6,5.1,2.2,2.8.4,5.9-1.5,8.3-.8,3.7,12.6,6.2,14.3,8.3,3.1,2.5,5.1,6.9,9.5,8.4,1.1,2.2,2.5,3.9,5,4.6.8.3,1.4.9,1.5,1.8.5,2.1.8,4.3,3,5.2.7.3.9,1.2,1.6,1.5,1.3,1.3,1.8,4,3,5.5,3.2,5.1,0-12.4-.9-13.5-.6-3.7,1.1-6.1,2-9.5.4-3.5,1.5-7.9,2.8-11.8.7-2.4,3.7-2.9,3.4-5.8.5-1.5,1.6-2.6,2.4-3.9.8-.6,1.9-1,2.5-1.7.7-.8.5-2.9,1.8-3.6,1.1-.5,1.5-2.1,2.1-3.1,1-.7,2.2-1.2,3-2.2,1.9-2.2,3.3-5,5.2-7.2.7-.9.9-2.1,1.8-2.8.8-.3,1.1-.6,1.4-1.2,2-1.7,4.5-3.2,7-4,.6-.7,1.4-1.1,2.3-1.3,2.2-2.2,8-3.3,10.8-4,1.8-.3,4.7,2.3,6.9,2.3,2.2.3,5-.8,6.6,1.3,1.2,1.4,3.8,0,4.8,1.7.3.7.5,1.7,1.2,2,2.2.5,3.8,2.2,5.5,3.6.5,1.2,1,1.9,2.1,2.5,0,0,.4.5.5.7.4.7,1.2.7,1.7,1.3,2.3,2.3,3.5,5.8,6.5,7.6.4,4.6,4.4,7.5,5.3,12,0,.3.2.8.5.9,1.1,0,1.6-2,1.8-2.9.9-1.1,2.7-2.3,3.6-3.5,1.7-3.5,6.7-5.9,9-8.6.9-.9,1.3-2.5,2.7-2.7.8-.2.8-1.1,1.5-1.3,1.2-.2,1.7-.6,2.1-1.6.5-.6,1.2-1,1.5-1.8.8-2.4,3.3-3,5-4.9,4.9-4.7,9.9-9.8,12.1-16.3.1-.1,0-.1.4-.3.7-.4.4-1.3,1.1-1.8,2-1.2,2.3-4.2,4.5-5.3,2.5-1.8,5.6-1.8,8.5-2.9,1.5-.7,3-1.8,4.7-1.1,4.5,2.8,9.6.8,13.8,4.5h.1c0,0,0,0,0,0ZM575.6,368.6c3-3.3,1.8-6.7,4.3-9.5.6-.6,1.2-1.2,1.5-2,3-7.9-1.3-26.9-6.1-34-1.3-1.9-4.7-4.9-5.7-6-.8-.6-2-.5-2.9-.9-1.8-.7-2.8-3-4.8-2.7-.9,0-1.8.4-2.7.3-2.6-.3-3.2-1.9-6.2-.9-2,.7-4,1.8-5.4,3.3-2,2.2-2.4,5-4.3,7.4-1.9,2.6-5.5,6.2-7.7,8.8-2.3,2.9-4.6,4.7-7.4,7.3-2,1.8-3.5,4.8-5.7,6.9-1.8,1.7-4.3,2.5-6.1,4.1-2.8,2.5-5.8,6.3-8.2,9.3-.7,1.1-1.1,2.4-2,3.4-1,1.3-3,1.9-3.7,2.8-1.2,3,1.3,7,1.9,10,1,5.4,1.9,14.6,1.8,20.4,0,4.2-2.5,8.2-2.3,12.3,0,1,.4,1.6.5,2.5.1.9-.3,1.9-.6,2.8-2.3,4.6-4.4,10.4-7.4,14.7-1.5,1.9-4.5,4.2-5.8,6,.2,1,6.5,9,7.5,9.4.1,0,.2-.1.2-.5.7-3.2,2.5-6.1,3.7-9.2,1.4-3.7,2.1-8.1,3.5-11.9,1-2.6,2.8-5,3.7-7.6.2-.5.6-.8,1.1-1,2.2-.9,6,0,6.9,2.6,1.1,2.6-.9,4.5-2,6.6-2.1,4.3-3.1,9.5-3.9,14-1.1,4.3-4.7,10.1-4.9,14.5,0,2.6.9,5.3,0,7.9-.4,1.8-1.1,3.7-1,5.5,0,1.8.9,4.7,1.7,6.8.3.9.5,1.3.9,1.8,1.7,1.6,6.3,3.7,9.1,4.3,1.5.3,2.9-.3,4.6-.1,1.4.2,2.7,1.1,4.2,1.3,3.4.3,11.4-.6,14.9-1.1,1.2-.2,2.4-1.1,3.5-1.3,1.8-.2,4,1.3,5.6-.4,2.5-2.3,8-.2,9.1-4.6.3-.9,1-1.2,1.8-1.6.7-.4,1.4-1,1.8-1.7,1.5-2.3,2.3-7.3,2.3-10.1,0-1-.5-2-.8-2.9-.4-1.4.5-2.8.3-4.2-.1-1.1-.9-5-1.4-7.5-.3-1.9-.9-3.8-2.1-5.3-.5-.7-1-1.4-1.3-2.2-.4-1.1-.2-2.6-.7-3.5-1.1-1.7-3.4-2.7-4.1-4.7-1.3-2.7-1.8-5.7-3.1-8.3-.7-1-1.6-1.5-2.3-2.4-.8-1.1-.8-3-1.3-4.1-.9-1.7-3.2-2.5-4-4.3-1.3-2.4-3.8-7.1-4.4-8.5-1.2-3.2,1.2-6.2,4.2-7.2,2.5-1.1,4.5-2.1,7-2,.3,0,.4,0,.5-.2.5-.5,2-3.6,3.8-5.1,3.8-2.4,8.4-4.7,11.6-8.1,1.4-1.3,1.8-3.2,3-4.4,1.5-1.5,4.1-3.3,5.5-4.9h.1c0-.1,0-.1,0-.1ZM585.3,475.9c2.1,1.2,4.7,2.3,6.9,3.4,6.3,3.2,11.7,4.2,17.5,4.1,5.4-.2,12.3-1.2,17.9-2.9,2.4-1.2,9.9-5.8,12.9-8.5,1.2-1.1,1.8-3.1,2.6-4.5,2-3.3,3.5-5.9,4.8-8.7,1.4-3.4,3.7-5.9,6-8.8.8-1.1,1.4-2.5,1.7-3.8,3.3-12.2,4.2-24.2,5.1-37,0-1.8.9-3.9.9-5.6,0-2.7-1.3-6.4-1.2-10-.2-4.8-.9-9.2-1.4-14.1-.8-3.2-2.3-7.9-3.3-11.3-.6-2.2-1-3.1-2.5-4.5-2.4-2.4-2.3-6.1-3.8-9.2-4.5-9.1-10.9-19-20.2-23.9-2.5-1.4-5.4-1-8-1.6-1.4-.4-1.9-1.9-3.4-2.2-.6-.1-1.3,0-1.9.1-1,.3-2.1,1.6-3.2,1.9-1.1.4-2.3-.4-3.4-.2-4.6,1-7.4,7.1-11.4,9-1,.4-1.9,1-2.5,1.9-1.2,1.6-.8,3-1.6,4.8-.4,1-1.4,1.8-2,2.6-.2.3-.3.5-.3.8,0,2.4.6,6,0,8.4-.4,2.7-1.1,6.4-1.9,8.3-.5,1.6-2,2.7-3,4.1-5.1,8-9.1,15.2-16.8,20.9-2.7,2-6.9,4-9.6,6.3-.8.7-1.1,1.9-2.2,2.9-5.7,4.8-9.5,0-2.7,8.7,1.4,2.1,3.1,4.5,4.4,6.8,1,1.8,1.6,4.8,2.7,6.7.4.6,1.3,1,1.8,1.9.6,1.1.3,2.4.7,3.5.5,1.4,2,2.3,2.7,3.6,1.7,3,3.5,7.7,4.5,11.4,1.7,6.2,1.8,17,1.3,23.4,0,1-.3,2.1,0,3.1,0,.2.2.3.4.3,1,.3,2.1.8,3,1.4,2.8,1.9,5.9,4.2,8.3,6.2h0c0,0,0,0,0,0ZM757.9,409.7c.8-.8,2.2-1.6,2.9-2.6,2.8-3.8,7.2-9.9,8.7-14.2.9-4.3,1.5-10,1.4-14.4,0-2.3-1.8-4.8-2-7.1-.3-3.1-.3-6-1.2-9.1-1.1-3.6-2.7-8-5-10.7-.6-.6-1.4-1-1.9-1.8-.8-1.4-.9-2.8-2-4.1-1.9-2.2-9.1-6.9-13.3-9.1-1.1-.5-1.8-1.2-3.1-1.1-3.5.9-6.5-1.9-9.7-2.6-.8,0-2.3,1.6-3.8,1.7-3.1.3-6.3-2-9.2-1.3-1,.3-1.9.7-3,.8-5.6.5-11.7-.6-16.4,3.8-.8.7-1.4,1.2-2.4,1.3-1.4.3-2.3-.4-3.7,0-.5.1-1.1.4-1.5.7-1,.8-1.6,1.8-2.7,2.3-4.3,2.7-8,4.9-12.1,7.9-1.7,1.4-3.8,2.1-5.2,3.7-3,3.3-4.3,8.6-7.7,11.8-.3.3-.7.6-.7,1,.2,3,2.8,5.9,3.5,8.8,2.5,10.4,2.8,21.4,2.8,31.9-.2,1.7-.6,3-.6,4.6,0,1.3.7,2.7.9,4.2.1,1.3,0,2.6,0,4-.5,7.1-2.5,15-4.6,21.9-1.2,4.1-2.4,8.6-4.2,12.5-3.4,6.7-8,12.7-11.8,19.5-.6,1.7-.9,3.3-2.5,4.4-.6.6-1.1,1.2-.5,1.7,2.1,1.9,5.3,1.5,8,1.8,1.3,0,2.2.9,3.6,1,2.8,0,8.3-2,11.7-3.5,2.3-1.1,4.9-5.2,6.6-8.4,1.6-3.1,0-6.4-.2-9.5,0-.9.4-1.8.4-2.7.2-2.7-1.5-7,2-8,2.7-.6,6.2.5,7.9,2.4,3.5,3.8,3.8,10.3,6.5,14.7,1.3,2.4,2.9,3.9,5,6.3,1.3,1.6,2.2,4,3.4,5.9,2.1,2.9,6.5,6.5,9.9,9.2,1.1,1.1,2.8.7,4.4,1.5,1.1.7,1.6,2.2,2.5,2.8,1,.7,2.5.4,3.7.9,1.4.5,2.8,1.8,4.3,2.1,3.4.6,10.7,1.2,13.8,1.1,1-.1,2.9-1,3.6-1.3.2-.1.3-.3.4-.6.4-1.2-.1-4,0-5.4.1-1.4,1.2-2.3,1.8-3.6,1.6-4.8,3.2-9.6,5.5-14.2.5-.8,1.2-1.6,1.6-2.3.6-1.2.2-3.2-.2-4.5-1-3.2-5.7-12.9-7.8-15.1-.7-.8-1.9-1-2.7-1.8-.8-.8-1-2.7-1.6-3.3-2.3-2.1-5.5-4.8-8.1-6.7-3.3-1.4-7.9-1.9-11.1-2.5-1.9-.5-3.6-1.6-5.6-1.7-2.5-.4-4.2,1.5-6.6.6-4.2-1.4-4.9-8.4-.9-10.6,2.3-1.3,5-.2,7.4-.2,3.2,0,7.1-.7,10.2-.5,2.3.2,4.6,1.6,6.9,1.2,1.1-.2,1.6-1.6,2.8-1.8,10.2.8,15.8-6.8,21.4-13.6h0c0,0,0-.1,0-.1ZM489.3,421.7c.8-1.2,2.2-3.5,2.8-4.6,1.9-5.5,2.3-11.4,3.8-17.1,1.3-5.5.1-11.9-.4-17.6-.2-1.6-.3-2.8-.6-4.1-.3-1.2-1.4-2.2-1.7-3.5-.4-1.9-.2-4.1-.4-5.9-.3-1.8-.9-3.6-1.5-5.5-.5-1.4-.7-2.8-1.3-4-.8-1.5-2.2-2.7-3.1-4.2-2.2-5.4-3.9-9.4-7.8-13.3-3.2-3.1-9.9-8-14.2-9-1.1-.1-2.3.3-3.5,0-1.4-.3-2.1-1.4-3.2-1.6-3.8-.2-10.5,2-13.5,3.6-2.6,1.5-3.7,4.3-5.3,6.5-5.9,7.4-15.6,19-17.7,26.3-.4,1.3-.1,2.8-.3,4.2-1.1,5.8-2.1,9.3-1.7,13.9.1,1.8.4,4,.7,5.9.8,5.1.7,10,1.4,15,.1,1.5,1.4,2.4,1.7,3.7.4,1.7-.7,3.4,0,4.7.5,1,1.2,2,1.4,3.2.2,2-.7,3.5-.2,5.4.3,1.6,1.9,2.3,2.5,3.7,1.5,3.2,2.6,9.2,3.7,13.1.3,1.8,1.7,3.2,2.6,4.7,1.6,3.2,1.3,8.3,2.9,11.3.6,1.2,2.2,1.4,2.9,2.5.8,1.1.9,2.6,1.4,3.7,3.8,6.7,9.2,13.9,15.4,18.3,3.8,2.5,9,4,13.3,5.2,1,.2,1.6.4,2.5.3.7,0,1.4-.3,2.1-.3,3.3.2,6.2,1.2,9.2.8,3.2-.2,7.7-3.4,10-4.9,1-.9,2.3-2.4,3.1-3.3.6-.6,1.1-2.3,1.1-3.2,0-1.5-.7-2.8-1.1-4.2-1.3-3.7-.4-8-1-11.6-1.2-4.8-5.4-13-9.5-17.3-1.3-1.4-2.3-1.4-4.3-1.3-1.4.1-2.6.2-3.8.4-2.5.4-7.9,3.8-10.3,1.1-1-1.2-1.3-3.3-.4-4.6.3-.6,1.2-1.4,1-2.1-.4-.4-1.2-.3-1.7-.6-1.3-.6-2.3-1.7-3.5-2.4-1.5-.8-3.4-1.1-4.8-2.4-4.8-3.6-13.9-22.4-9.1-27.5,1.4-1.3,3.7-1.3,5.7.5,2.6,2.2,1.6,5.8,2.3,8.6,1.2,2.8,3.2,5.7,4.9,8.4,2.1,3,5.5,5.4,9,6.8,1.8.7,4.3,1.4,6,1.9,2.7.4,5.9-1.9,8.5-2.6.1-.1.2,0,.3-.4,0-2.9,2-3.2,3.7-4.6h0c0,0,0,0,0,0ZM355.7,337c-1-.6-4.4-.7-5.9-1.7-.7-.5-1.3-1.4-2.1-1.7-1.3-.4-3.1,0-4.7-.3-1.4,0-2.5-1.3-3.7-1.7-1.5-.3-3.2.4-4.7.4-4,0-7.3-1.3-11.4-.6-14.1,2.8-29.5,8.4-41.7,15.1-10.6,6-21.9,13.7-27.3,24.9-.8,2.1-.3,4.3-2,5.9-2.6,2.5,0,8-3.1,10.6-.9.9.3,1.9.4,3,.1,2.1.2,5.5-.2,7.6-.4,1.4-1.9,2.7-2.1,3.9-.1,1.6.6,3.6.7,5.2.3,4.7,0,8.9.9,13.6.2,1.2,1.1,2.5,1.2,3.9.1,1.7,0,3.4.3,4.8,1.2,4.7.9,9.7,1.9,14.6.3,1.5,1.5,2.8,1.6,4.4,1.1,8.4-2.2,17.2-4.8,25-.2.9-.9,1.6-1.2,2.3-.4,2,0,4.6.4,6.5.5,1.1,1.9,1.8,2.4,3,1.1,2.4-.6,4.7,1.4,6.6,1.2,1.3,3.2,2.1,3.7,4.1.2.5.4,1,.7,1.4.7.6,1.8.9,2.4,1.6,4,4.1,6.5,6.4,11.7,7.7,8,2.2,14.7,1.7,22.8,1.2,1.5-.2,3.1.5,4.5.2.7-.2,1.3-.6,1.7-1.1,1.2-1.5,3-.7,4.7-.9,8-1.3,15.3-5.8,22-10.3,2.6-2.1,3.8-6.8,2.7-10.1-.5-.9-1.7-1.2-2.1-2.2-1.1-2-.7-4.7-2-6.8-.9-1.4-2.4-1.9-3.2-2.9-2.8-5.4-7.5-9.7-11.6-14.1-8.9-8.7-16.7-18.2-22.8-29.2-1.1-1.9-2-3.7-2.9-5.6-1.5-3.1-3.1-5.7-3.2-9.1,0-2.4.6-5.8,3.2-6.7,1.9-.6,3.9,1,4.3,2.8.4,2.1.7,4.4,2.1,6.2,1.8,2.6,3.6,5.7,5.8,7.6,1.2,1,2.7.9,4.1,1.3,5.4,2.2,10.7,6.9,16,9,1.6.6,3.3.8,4.8,1.4,1.5.6,2.7,2,4.6,2.1,1.4,0,2.5-.8,3.8-.8,1,0,2.1.5,3,.9,1.2.5,1.3.3,2.7.1,1.1-.2,2.4-.4,3.5-.6,1.7-.4,2.8-2.2,4.4-3,2.9-1.6,5.7-2.3,8.4-4.4,2.9-2.6,8.3-5.3,8.4-9.9,0-1.9-1.3-2.5-1.9-4.3-.7-2.2-.5-3.7-1.4-5.5-4.3-6-10.5-11.5-16.8-15.4-1.8-1-3.9-1.6-5.9-1.5-1.4,0-2.8,1.3-4.1,1.2-1.4,0-2.9-.6-4.3-.2-1.3.4-2.8,1.3-3.6,1-.7-.4-3-2.4-3.6-3.1-.4-.8-.5-2.5-.6-3.2,0-1,1.3-2.1,2.2-3.3.5-.6.8-.9,1.5-1.3,3.9-2.6,9.1-1.8,11.9-5.4.7-.7,1.3-1.5,2.1-2,2-1.2,4.2-1.3,6-2.6,4.1-2.6,12-8,13.8-9.8,1.4-1.5,1.9-4.2,3.7-5.6.9-.7,2.2-1.2,3.1-1.9.4-.3.5-.5.7-1,.4-.9,1-2.4,1.1-3.3.1-1.1-.9-2.4-.9-3.5-.7-5.5-1.7-8.9-5.8-12.8-.5-.5-1.1-1.5-1.4-1.8h0c0,0,0,0,0,0ZM770.8,344.7c.2-.9-3-4.8-4-4.7-.8,1.5,3.1,5.1,4,4.7h0s0,0,0,0ZM772.9,346.7c-.3-.2-.7,0-.7.3,0,.3,0,.3,0,.5v.3c.9,2,2.5,3.8,3.1,5.8.8,2.7,1.1,6.3,1.9,9.1.8,2.7,2.4,6.4,3.1,9.3.8,4.3-.1,11.5-1.1,17.3-.8,7.4-4.5,15.8-8.9,22.1-1.5,1.7-3.5,3.6-5.1,5.5-.9,1.2-1.9,2.1-.8,3.1,2.2,2.1,2.8,4.9,4.7,7.3,1.1,1.4,2.8,2.5,4.2,3.6,2.8,1.9,3.5,5.6,5.5,8.2.7.8,2.2.8,2.9,1.7,1,1.1,1.2,2.7,1,4.3-.2,1.6-.9,3-2.2,3.8-1.2.7-2.9.2-4.1,1.1-1.1.8-1.5,2.3-2.1,3.5-.8,1.6-2.7,2.5-3.6,4.2-.6,1.1-.7,2.5-1.5,3.6-1.9,2.5-4.4,4.5-5.4,8-1,3.8.6,9.2,0,12.2-.1.9-1,1.8-1.5,2.6-1.6,4.1-2.9,9.5-5.1,13.3-.7,1-1.8,1.7-2.4,2.8-.2.4-.2.6.2.9.8.8,2.7,2.4,3.1,2.8,1.7,1,4.3,2.2,6.1,3,.8.2,2.5-.4,3.5-.2,1.6.4,4.2,2.2,6.6,2.3,5.2.5,20.1,1.4,24.3,0,.7-.2,1-1,1.8-1.5,1.1-.7,2.5-.6,3.5-1.4,4.1-3.6,3.3-9.8,5.7-14.2,1.1-7.3-2.7-19.6-4.4-28.2-.6-2.2-2-3.4-.7-6.3,1.2-3.2,4.1-3.2,7-4.2,1.4-.5,2.6-1.7,4-2,1.1-.3,2.6.5,3.5.3,2.7-.9,6.5-2.4,9.1-3.5,1.1-.6,2.2-2.4,3.6-2.8,6.8-2.9,10-6,15.6-10.6,1.8-1.4,4.2-2.7,6-4.1,1.2-1,2-3.2,3.6-4.3.8-.6,2.1-1.5,2.8-2.1,1.6-1.3,2.5-3.3,4-5,1.5-1.9,5-3.4,5.5-6.2.2-1.3.2-2.7.8-3.9,1.3-3.1,2.4-3.3,3-6.9,0-.5.1-1.1.2-1.5.1-1.2,1.3-2.4,1.3-3.7,0-1.3-1-2.3-1.2-3.6-.3-1.6.5-3,.4-4.4-.2-2-2.1-5.6-3.7-9.1-.8-1.5-1.3-2.7-2.3-3.9-1.7-1.8-5.4-3.4-7.5-4.6-.9-.5-1.4-1.5-2.3-2-.6-.4-1.4-.6-2-.8-3.2-.8-5.8.8-9,1.5-.9.2-2.1,0-2.9.6-.2.2-.5.4-.8.7-1.1,1-2.1,1.8-3.1,2.7-3,2.4-3.6,4.4-5.7,7.4-1.2,1.5-3,2.6-4.1,3.9-1.5,2.1-3.4,4.9-4.3,6.9-.5,1.2-.5,2.6-1.2,3.9-.8,1.5-2.3,2.3-3.1,3.8-1.5,2.8-2.2,6.9-3.4,9.8-1,2.5-3.3,4.5-4.4,7.6-.9,2.4-.7,5.2-2.6,7.1-5.9,5.1-8.6-3.7-8.3-8.4,0-3,.9-6.4.2-8.5-.5-1.4-3.2-4.2-4.1-6.1-1.5-3.7-1.3-8.7-2.8-12.2-1.1-2.2-3.8-5.3-3.5-8.3,0-1.1.1-2.2-.4-3.2-1-1.8-2.8-4.1-3.5-5.7-.7-1.6-.8-3.5-1.3-5.2-1.6-3.4-4.1-7-6.2-10.3-2.5-3.2-6.4-5.7-8.4-9.1h-.1c0,0,0,0,0,0ZM417.1,431.1c-1-1.5-1-2.9-1.4-4.4-.4-1.5-1.4-2.5-2.3-3.7-1.8-2.2-1.5-6.6-2.3-8.6-.3-.7-1.6-1.5-2-2.4-3-5.5-6.8-10.2-10-15.5-1.5-2.4-2.9-5.3-4.7-7.3-.8-.7-2.2-.8-3.1-1.6-1.1-1-1.4-2.5-2.4-3.5-1.5-1.6-4.2-3.2-5.6-4.8-1.1-1.2-1.4-3.5-3.3-3.8-.9-.1-1.9-.2-2.6-.6-2.1-1-5-3.8-7.6-4.5-1.3-.4-2.8.5-4.3.1-.2,0-.5-.1-.8,0-.2,0-.3.2-.5.3-1.9,2.7-5.1,4-7.2,6.2-1.3,1.3-2.4,2.9-3.7,4.1-2.3,2-6.6,3.2-8.5,5.2-.3.3-.4.9,0,1.2,1,.6,2.4,1.1,3.3,1.7.7.5,1.2,1.2,1.4,1.9.3,1.4,1.3,2,2.4,2.8,2.5,1.7,6,3.4,7.5,4.9,1.5,1.5,1.4,3.7,3,5.2,1.7,2,4,4.4,5,7,1.7,4.6,2.8,11.9,2,15.7-.4,1.2-1.4,2.2-1.9,3.3-.5,1.4-.1,3.2-1.6,4.3-1.2,1-2.7.6-3.7,1.4-1.3,1.1-1.9,3.4-2.9,4.5-.7.8-3,1.5-4.4,2.2-1.6.9-2.7,2.4-4.3,3.2-3.5,1.7-11.8,3.6-15.6,3.8-1.3.2-2.8-.7-4-.9-1.1,0-2.8,1.6-4.2,1-4.6-1.7-9.9-2.4-14.4-4.5-1.3-.8-2.3-2.6-4-2.7-1.6-.2-.9,2-.2,2.5,9.5,7.4,14.5,18.1,21.7,27.6,2,2.8,4.4,5.4,6.2,8.4.3.5.6,1,.8,1.5.7,1.6.1,3,.3,4.6.2,1.9,2.1,4,1.8,6,0,.2.1.3.3.4,1.9.5,3.7,1.4,5.5,2.1,1.2.5,2,.6,3.2.9,3.3.7,7.2,2,9.3,1.7,1.8-.5,3.3-2,5-2.6,2.2-1,4.5-2,6.7-3,1-.7,1.1-2.5,1.8-3.4,1-1.3,2.7-2.7,3.8-3.9.3-.2.4-.4.4-.8,0-.8-.5-2-.3-2.8.3-1.2,1.6-2.2,1.7-3.5.1-2-1.5-4.4-1.2-6.5,0-1.3,1.6-2.6,2.8-2.9,3.4-.4,6.4,2.9,8.7,5.1,2.7,2.9,5.3,6.4,8.8,8.7,9.8,6.5,19.5,10.2,31.2,8.2.6,0,.9-.1,1.2-.4,1-.7,4.3-3.1,5.2-3.9,2.7-2.5,1-5,.2-7.8-.4-2-.7-3.6-1.6-5.5-3.6-8.9-4.8-18.4-8.6-27.2-.9-2-1.1-4.3-1.7-6.4-1-2.7-3.3-6.6-4.5-8.6h0c0-.1,0-.1,0-.1ZM750.2,441.9c2.8,3.1,5.4,6.1,7.5,9.8.7,1.4,1,4,2.6,4.6,1.1-.1,3.9-4.3,5.7-6.9,1-2,3.6-3.7,4.9-5.6.1-.3.2-.5.1-.8,0-1.4-1.3-2-2.2-2.8-2.9-3.2-6.8-6.5-9.2-9.9-.9-1.3-1-3.6-3-3.7-4,.9-10.5,5.8-14.9,6.6-.1,0-.3,0-.3.3.2,1.4,2.2,1.4,3.2,2.2,1.6,1.2,4,4.7,5.4,6.2h0c0,0,0,.1,0,.1Z"/>
      <path class="st4" d="M714.3,389.5c-1-.9-4.2-2.1-5.9-2-3.1.5-5.3,3.3-8,.2-2.1-2.9.1-8.5,2.7-9.7,3.9-.9,8.2-.9,12.2.5,1,.2,1.8,1.8,2.8,1.5.3-.2.4-.8.6-1.2.5-1.9.5-3.9,1-5.8,1-4.5,9.7-8.6,11.9-3.4.7,1.6.7,3.7-.4,5.1-1,1.3-2.5,1.8-2.8,2.8-.5,1.8-.4,3.9-.8,5.8-.3,1.7-1.5,3.2-1.7,4.9-.3,2.6.3,7.5-1.6,10-2.4,3.1-7.1.2-8.2-2.6-.8-1.8-.5-4.4-1.7-6h0c0,0,0,0,0,0Z"/>
      <path class="st0" d="M595.2,415.1c-1.1-1.2-1.2-3.3-.7-4.8,1-2.8,5.6-2.9,8.3-2,.3,0,.7.4.8,0,.4-1.4,1.8-6.8,2.5-9.3,0-.3,0-.4.3-.5,3.7-2.3,6-9,11.4-5.6,2.5,2.2,1.2,6.7-.3,9.1-1,1.4-2.7,2.8-3.7,4.2-.7,2.1-1,6.4-1.1,8,.1,2.6,1.9,5.7,2.4,8.3.8,2.9-.3,6.1-3.8,5.9-5.1-.2-7.9-7.2-11.6-10.7-1.1-1.2-3-1.5-4.3-2.4h0c0,0,0,0,0,0Z"/>
      <path class="st4" d="M370.5,431.4c.2-.2.6-.3,1-.4,1.4-.4,1.1-2.1,2.1-3,3.8-2.8,7.5,1.2,8.1,4.9,1,5.7-.7,7.6-5.5,8.3-3,.8-5.3-2.2-6.4-5.6-.4-1.6-.4-3.1.7-4.1h0c0,0,0,0,0,0Z"/>
    </g>
  </g>
</svg>