<svg width="32" height="32" viewBox="0 0 32 32" fill="none" xmlns="http://www.w3.org/2000/svg">
<rect width="32" height="32" rx="16" fill="#FAFAFA"/>
<path d="M27.1483 15.155C26.5511 15.7522 26.1801 17.5756 25.2566 18.357C25.0277 18.5517 24.7251 18.549 24.5304 18.778C24.5304 18.8437 25.3092 19.5015 25.446 19.7251C25.8775 20.4197 26.1801 21.9484 26.459 22.7324C26.5721 23.0561 26.9563 23.3744 27.0457 23.7296C27.3088 24.7478 26.5248 25.745 25.7223 26.2923C25.5381 26.4186 23.8174 27.3999 23.7043 27.4315C23.4675 27.5026 23.1307 27.4026 22.9413 27.5289C22.815 27.6131 22.7887 27.9498 22.6598 28.1103C21.9388 28.997 20.8548 28.7839 19.905 28.9312C19.363 29.0154 18.6658 29.3259 18.1291 29.3338C17.6213 29.3417 17.3818 29.0286 16.8688 29.0496C15.7979 29.097 15.3165 29.6995 14.6613 29.8705C13.3353 30.2152 10.4937 29.8074 9.16768 29.3995C8.93088 29.3285 8.77828 29.0654 8.5178 29.0417C8.23102 29.0154 8.05737 29.2206 7.61798 29.0943C7.45222 29.047 5.74204 27.7315 5.66047 27.5946C5.46051 27.2579 5.48419 26.829 5.3237 26.4975C5.12373 26.087 4.73171 25.8792 4.50544 25.3056C3.76348 23.4297 3.90555 21.1749 4.49754 19.2779C4.85537 18.136 5.56838 18.2254 6.58397 17.8439C6.83392 17.5492 5.31054 16.2679 5.09216 15.8206C4.74223 15.105 4.75012 13.5237 5.04217 12.787C5.39473 11.9004 6.2814 11.7214 6.73658 11.0295C6.37612 10.4875 6.01303 9.93233 5.8999 9.27194C5.84991 8.97989 5.70257 7.39862 5.74467 7.18813C5.78676 6.97765 6.76815 5.77262 6.95758 5.66212C7.08651 5.58582 8.49412 4.87543 8.58358 4.84912C8.99666 4.7202 9.48077 4.89911 9.82281 4.65442C10.1306 4.43604 10.8594 2.72848 11.3251 2.42591C11.9592 2.01546 13.6352 1.89444 14.3693 2.0944C15.1033 2.29436 15.6006 2.97318 16.0584 3.13104C16.3978 3.24681 16.7136 3.16787 17.053 3.28627C18.0133 3.61779 20.1497 6.44091 20.7075 7.3802C20.8785 7.66699 20.8575 8.0406 21.0706 8.30897C21.3968 8.71941 22.4914 9.30877 22.8018 9.735C23.2412 10.3454 22.8781 11.6609 23.8674 11.682C24.8567 11.703 28.0376 10.4849 28.5086 12.0635C28.7691 12.9344 28.2113 13.0186 28.1297 13.3527C28.0482 13.6869 28.3876 13.9368 28.0245 14.534C27.7482 14.984 27.3457 14.9524 27.1405 15.1576L27.1483 15.155ZM17.7476 7.1171C17.5529 6.87767 16.3268 6.40144 16.1163 5.80683C15.4612 5.73842 14.4061 4.70704 13.8694 4.68073C12.196 4.59654 13.0169 6.59878 11.5961 7.28285C10.7858 7.67225 7.99422 7.4223 8.33363 8.84833C8.46781 9.41401 9.636 10.006 9.57023 11.2794C9.53076 12.024 8.64936 14.2578 7.59693 13.9763C7.58378 14.1368 7.57062 14.3051 7.59956 14.4656C7.63903 14.6709 9.02823 16.8125 9.25713 17.1151C9.61233 17.5782 10.228 17.5624 10.1859 18.4912C10.1122 20.0856 8.29416 20.3961 7.0181 20.4329C7.12597 20.9512 6.7813 21.3169 6.72605 21.7905C6.64186 22.5298 6.95758 23.2744 6.75236 24.0559L8.33889 26.3554C9.80702 26.3317 12.1355 27.6946 13.5168 27.2894C13.801 27.2052 14.072 26.7448 14.614 26.6633C15.0455 26.5975 17.1924 26.287 17.4082 26.3186C17.7134 26.3633 17.916 26.608 18.2659 26.5975C18.7263 26.5817 19.1657 26.116 19.6104 26.0528C20.055 25.9897 20.4312 26.2502 20.8259 26.1423C20.9338 26.1133 22.3519 25.3819 22.4124 25.3161C22.6124 25.103 22.5361 24.782 22.8071 24.5242C23.0544 24.2874 23.8753 23.8901 24.2358 23.8717C23.8174 22.8561 23.5964 21.7037 23.1939 20.6828C22.8755 19.8751 22.1072 19.441 22.7729 18.3728L21.2495 15.3023C21.0706 14.0841 21.9836 14.4209 21.5337 13.1554C20.8917 11.3584 18.9631 9.86392 18.0843 8.28265C17.8975 7.94851 17.8765 7.28285 17.7423 7.1171H17.7476ZM24.9593 14.1157L24.02 14.3946L23.9542 15.4049L24.9567 14.1157H24.9593Z" fill="#FF00DD"/>
<path d="M16.0269 10.2691C18.8553 9.8034 18.7211 15.1155 15.6401 13.4579C14.0983 12.6292 14.6693 10.4927 16.0269 10.2691Z" fill="#FF00DD"/>
</svg>
