<svg width="100" height="114" viewBox="0 0 100 114" fill="none" xmlns="http://www.w3.org/2000/svg">
<path d="M94.1857 53.5249C91.7556 55.9549 90.2462 63.3736 86.4886 66.5531C85.5573 67.3453 84.3262 67.3345 83.534 68.2659C83.534 68.5335 86.7027 71.2099 87.2594 72.1198C89.0151 74.946 90.2462 81.1657 91.3809 84.3559C91.8412 85.6726 93.4042 86.9679 93.7682 88.4131C94.8387 92.5561 91.6485 96.6133 88.3834 98.84C87.6341 99.3539 80.6329 103.347 80.1725 103.475C79.2091 103.764 77.8388 103.358 77.068 103.871C76.5542 104.214 76.4471 105.584 75.9226 106.237C72.9893 109.845 68.5788 108.978 64.7142 109.577C62.5089 109.92 59.672 111.183 57.4882 111.215C55.4221 111.247 54.4479 109.974 52.3604 110.059C48.0033 110.252 46.0443 112.703 43.3787 113.399C37.9832 114.802 26.4216 113.142 21.0262 111.483C20.0627 111.194 19.4418 110.123 18.382 110.027C17.2151 109.92 16.5086 110.755 14.7208 110.241C14.0464 110.048 7.08797 104.696 6.75611 104.139C5.94251 102.769 6.03885 101.024 5.38583 99.6751C4.57224 98.005 2.97716 97.1593 2.05651 94.8256C-0.962364 87.1927 -0.384281 78.0184 2.02439 70.2999C3.48031 65.6539 6.38142 66.0178 10.5136 64.4656C11.5306 63.2666 5.33231 58.0531 4.44378 56.2332C3.01998 53.3214 3.0521 46.8876 4.24038 43.8901C5.67488 40.2825 9.28254 39.5545 11.1345 36.739C9.66793 34.5337 8.19061 32.275 7.73028 29.588C7.52688 28.3997 6.92739 21.9658 7.09868 21.1094C7.26996 20.253 11.263 15.35 12.0338 14.9004C12.5583 14.5899 18.2856 11.6995 18.6496 11.5925C20.3303 11.0679 22.3001 11.7959 23.6918 10.8003C24.9443 9.91173 27.9096 2.96404 29.8045 1.73294C32.3844 0.0629236 39.2036 -0.429495 42.1904 0.384102C45.1772 1.1977 47.2004 3.95965 49.0632 4.60196C50.4441 5.07299 51.7288 4.75183 53.1097 5.23357C57.0171 6.58243 65.7098 18.0691 67.9793 21.8909C68.6751 23.0578 68.5895 24.5779 69.4566 25.6698C70.7841 27.3399 75.2374 29.7378 76.5006 31.4721C78.2884 33.9557 76.8111 39.3083 80.8363 39.3939C84.8614 39.4796 97.804 34.5231 99.7203 40.9462C100.78 44.4896 98.5106 44.8322 98.1787 46.1917C97.8469 47.5513 99.2278 48.5683 97.7505 50.9984C96.6265 52.829 94.9886 52.7005 94.1536 53.5355L94.1857 53.5249ZM55.9359 20.8204C55.1437 19.8462 50.1551 17.9085 49.2987 15.4892C46.6331 15.2108 42.3403 11.0144 40.1564 10.9073C33.3479 10.5648 36.6879 18.7114 30.9071 21.4948C27.6099 23.0792 16.2516 22.0622 17.6326 27.8644C18.1786 30.166 22.9317 32.5747 22.6641 37.756C22.5035 40.7856 18.9172 49.8743 14.6351 48.7289C14.5816 49.3819 14.5281 50.067 14.6459 50.72C14.8064 51.555 20.4588 60.2691 21.3902 61.5002C22.8354 63.3843 25.3404 63.3201 25.1691 67.0991C24.8693 73.5864 17.472 74.8497 12.28 74.9995C12.7189 77.1085 11.3165 78.5965 11.0917 80.5234C10.7492 83.5316 12.0338 86.5611 11.1988 89.7406L17.654 99.0969C23.6275 99.0006 33.1017 104.546 38.7219 102.897C39.8781 102.555 40.9807 100.681 43.186 100.349C44.9416 100.082 53.6771 98.8187 54.5549 98.9471C55.7967 99.1291 56.621 100.125 58.0448 100.082C59.9183 100.018 61.706 98.1228 63.5152 97.8659C65.3244 97.609 66.8552 98.6687 68.461 98.2298C68.8999 98.1121 74.6701 95.1361 74.9163 94.8684C75.7299 94.0013 75.4194 92.6953 76.5221 91.6461C77.5283 90.6827 80.8684 89.0661 82.335 88.9912C80.6329 84.859 79.7336 80.1701 78.0957 76.0165C76.8004 72.73 73.6745 70.9636 76.3829 66.6173L70.1846 54.1243C69.4566 49.1678 73.1713 50.5381 71.3407 45.3888C68.7287 38.0772 60.8817 31.9966 57.3062 25.5628C56.5461 24.2032 56.4605 21.4948 55.9145 20.8204H55.9359ZM85.2789 49.2963L81.4572 50.431L81.1895 54.5418L85.2682 49.2963H85.2789Z" fill="#FAFAFA"/>
<path d="M48.9348 33.6452C60.4429 31.7504 59.8969 53.3642 47.3611 46.6199C41.0878 43.2478 43.4109 34.5551 48.9348 33.6452Z" fill="#FAFAFA"/>
</svg>
