<svg xmlns="http://www.w3.org/2000/svg" version="1.1" xmlns:xlink="http://www.w3.org/1999/xlink" width="32" height="32"><svg width="32" height="32" viewBox="0 0 32 32" fill="none" xmlns="http://www.w3.org/2000/svg">
<circle cx="16" cy="16" r="16" fill="#FF73C8"></circle>
<path d="M25.5969 15.2757C25.085 15.7876 24.767 17.3505 23.9754 18.0203C23.7792 18.1872 23.5199 18.1849 23.353 18.3811C23.353 18.4375 24.0206 19.0013 24.1378 19.193C24.5077 19.7884 24.767 21.0986 25.0061 21.7707C25.103 22.0481 25.4323 22.3209 25.509 22.6254C25.7345 23.4981 25.0625 24.3529 24.3746 24.8219C24.2168 24.9302 22.7419 25.7714 22.6449 25.7984C22.4419 25.8593 22.1532 25.7736 21.9909 25.8819C21.8826 25.9541 21.8601 26.2427 21.7496 26.3803C21.1316 27.1403 20.2025 26.9576 19.3884 27.0839C18.9238 27.1561 18.3262 27.4222 17.8661 27.4289C17.4309 27.4357 17.2256 27.1674 16.7859 27.1854C15.868 27.226 15.4553 27.7424 14.8938 27.889C13.7572 28.1844 11.3215 27.8349 10.1849 27.4853C9.98196 27.4244 9.85116 27.1989 9.6279 27.1786C9.38208 27.1561 9.23324 27.332 8.85662 27.2237C8.71454 27.1831 7.24867 26.0555 7.17876 25.9383C7.00736 25.6496 7.02766 25.282 6.89009 24.9979C6.71869 24.646 6.38267 24.4679 6.18872 23.9762C5.55276 22.3683 5.67454 20.4356 6.18196 18.8096C6.48866 17.8308 7.09982 17.9075 7.97033 17.5805C8.18457 17.3279 6.87881 16.2296 6.69163 15.8463C6.39169 15.2329 6.39846 13.8775 6.64878 13.246C6.95098 12.486 7.71098 12.3327 8.10113 11.7395C7.79217 11.275 7.48095 10.7991 7.38398 10.2331C7.34113 9.98276 7.21484 8.62739 7.25092 8.44697C7.287 8.26655 8.12819 7.23368 8.29057 7.13896C8.40107 7.07356 9.6076 6.46466 9.68428 6.44211C10.0383 6.3316 10.4533 6.48495 10.7465 6.27522C11.0103 6.08804 11.635 4.62441 12.0342 4.36507C12.5777 4.01326 14.0143 3.90952 14.6435 4.08092C15.2726 4.25231 15.6989 4.83415 16.0913 4.96946C16.3822 5.06869 16.6528 5.00104 16.9437 5.10252C17.7669 5.38667 19.5981 7.8065 20.0762 8.6116C20.2228 8.85742 20.2048 9.17766 20.3874 9.40769C20.6671 9.7595 21.6052 10.2647 21.8713 10.63C22.248 11.1532 21.9368 12.2808 22.7847 12.2988C23.6327 12.3169 26.3592 11.2727 26.7629 12.6259C26.9861 13.3723 26.508 13.4445 26.4381 13.7309C26.3682 14.0173 26.6591 14.2315 26.3479 14.7435C26.1111 15.1291 25.7661 15.102 25.5902 15.278L25.5969 15.2757ZM17.5391 8.38608C17.3722 8.18086 16.3213 7.77267 16.1409 7.26299C15.5794 7.20436 14.675 6.32032 14.215 6.29777C12.7807 6.2256 13.4843 7.94181 12.2665 8.52816C11.5719 8.86193 9.17911 8.64768 9.47003 9.87C9.58505 10.3549 10.5864 10.8623 10.53 11.9538C10.4961 12.592 9.74066 14.5067 8.83858 14.2654C8.8273 14.4029 8.81603 14.5473 8.84083 14.6848C8.87466 14.8607 10.0654 16.6965 10.2616 16.9558C10.5661 17.3527 11.0938 17.3392 11.0577 18.1353C10.9945 19.5019 9.4362 19.7681 8.34244 19.7996C8.4349 20.2439 8.13947 20.5574 8.09211 20.9633C8.01994 21.597 8.29057 22.2352 8.11466 22.905L9.47454 24.8761C10.7329 24.8558 12.7288 26.024 13.9128 25.6767C14.1563 25.6045 14.3886 25.2098 14.8532 25.1399C15.223 25.0835 17.0633 24.8174 17.2482 24.8445C17.5098 24.8828 17.6835 25.0926 17.9834 25.0835C18.3781 25.07 18.7547 24.6708 19.1358 24.6167C19.5169 24.5626 19.8394 24.7859 20.1777 24.6934C20.2702 24.6686 21.4857 24.0417 21.5376 23.9853C21.709 23.8026 21.6436 23.5275 21.8759 23.3065C22.0878 23.1035 22.7915 22.7629 23.1004 22.7472C22.7419 21.8767 22.5524 20.8889 22.2074 20.0139C21.9345 19.3215 21.276 18.9494 21.8465 18.0338L20.5408 15.402C20.3874 14.3578 21.17 14.6465 20.7843 13.5618C20.2341 12.0215 18.581 10.7405 17.8278 9.38513C17.6677 9.09872 17.6496 8.52816 17.5346 8.38608H17.5391ZM23.7206 14.3849L22.9155 14.624L22.8591 15.4899L23.7184 14.3849H23.7206Z" fill="white"></path>
<path d="M16.0643 11.0878C18.4886 10.6886 18.3736 15.2419 15.7328 13.8211C14.4112 13.1107 14.9006 11.2795 16.0643 11.0878Z" fill="white"></path>
</svg><style>@media (prefers-color-scheme: light) { :root { filter: none; } }
@media (prefers-color-scheme: dark) { :root { filter: none; } }
</style></svg>