<?xml version="1.0" standalone="no"?>
<!DOCTYPE svg PUBLIC "-//W3C//DTD SVG 1.1//EN" "http://www.w3.org/Graphics/SVG/1.1/DTD/svg11.dtd">
<svg xmlns="http://www.w3.org/2000/svg">
  <defs>
    <font id="PlusJakartaSans" horiz-adv-x="556">
      <font-face font-family="Plus Jakarta Sans Medium" units-per-em="1000" panose-1="0 0 0 0 0 0 0 0 0 0" ascent="1038" descent="-222" alphabetic="0" />
      <glyph unicode=" " glyph-name="gid178" horiz-adv-x="173" />
      <glyph unicode="!" glyph-name="gid189" horiz-adv-x="312" d="M113,218l-6,527h98l-7-527H113ZM107,0V120h98V0H107Z" />
      <glyph unicode="&quot;" glyph-name="gid220" horiz-adv-x="429" d="M101,505L87,745h92L166,505H101Zm162,0L249,745h93L328,505H263Z" />
      <glyph unicode="#" glyph-name="gid197" horiz-adv-x="832" d="M114,0l53,185H47v85H191l60,206H131v85H275l53,184h97L372,561H567l53,184h98L665,561H785V476H640L581,270H701V185H557L504,0H406l53,185H264L211,0H114ZM289,270H484l59,206H348L289,270Z" />
      <glyph unicode="$" glyph-name="gid236" horiz-adv-x="646" d="M339-12q-71,0-130,26.5T109,87T50,190l85,35q27-72 80.5-110.5T341,76q44,0 77,14t51.5,39.5T488,189q0,47-26.5,74.5T384,305L247,347q-81,25-124,79T80,550q0,61 29.5,107.5t82,73T311,757t121.5-24T525,668.5T581,576l-84-35q-24,63-72,95.5T312,669q-40,0-70.5-13.5t-47-39T178,556q0-41 26-73t79-49l125-37q88-27 133-77t45-124q0-61-31.5-108t-87-73.5T339-12Zm-45-88V845h75V-100H294Z" />
      <glyph unicode="%" glyph-name="gid253" horiz-adv-x="998" d="M143,0L751,745H862L254,0H143ZM255,367q-55,0-99,26.5T85.5,464T59,562t26.5,98.5T156,731t99,26q54,0 98-26t70-70.5T449,562t-26-98t-70-70.5T255,367Zm-1,82q34,0 58,16t38,42t14,55q0,30-14,55.5t-38,42T254,676q-32,0-57-16.5T158,617t-14-55q0-28 14-54.5T197,465t57-16ZM744-12q-55,0-99,26.5T574.5,85T548,183t26.5,98.5T645,352t99,26q54,0 98-26t70-70.5T938,183T912,85T842,14.5T744-12Zm0,82q33,0 57.5,16t38,42T853,183q0,30-13.5,55.5t-38,42T744,297q-32,0-57.5-16.5T647,238t-14-55q0-28 14-54.5T686.5,86T744,70Z" />
      <glyph unicode="&amp;" glyph-name="gid223" horiz-adv-x="754" d="M279-12q-63,0-112,23.5t-76.5,67T63,179q0,49 18,86.5T125.5,330t54,45.5T225,405l57,33q29,17 56,37t45,46.5T401,581q0,39-26,65t-65,26t-65-26t-26-66q0-27 13-53t32-49.5T302,434L707,0H584L229,374q-24,25-48,55t-40.5,66.5T124,576q0,54 25.5,94.5T217,734t93,23q50,0 91.5-22.5T468,672t25-92q0-53-25-92.5t-60-67T342,375l-56-34q-25-16-53-37.5t-48-51T165,181q0-50 32.5-78T282,75q33,0 59,11t46.5,29T424,154.5T454,197L569,368H676L541,162q-15-25-38-55T449,50T376.5,5.5T279-12Z" />
      <glyph unicode="&apos;" glyph-name="gid221" horiz-adv-x="267" d="M101,505L87,745h92L166,505H101Z" />
      <glyph unicode="(" glyph-name="gid204" horiz-adv-x="323" d="M218-150Q137-57 95,56.5T53,298q0,129 42,242T218,745h80Q226,643 189,529.5T152,298T189,66.5T298-150H218Z" />
      <glyph unicode=")" glyph-name="gid205" horiz-adv-x="323" d="M26-150Q97-47 134,66.5T171,298T134,529.5T26,745h80q81-92 122.5-205T270,298q0-128-41.5-241.5T106-150H26Z" />
      <glyph unicode="*" glyph-name="gid196" horiz-adv-x="499" d="M167,377l-66,47l82,109L60,575l25,77l124-41V745h81V611l124,41l25-77L316,533l81-109l-65-47L249,486L167,377Z" />
      <glyph unicode="+" glyph-name="gid241" horiz-adv-x="624" d="M269,0V207H62v87H269V500h87V294H562V207H356V0H269Z" />
      <glyph unicode="," glyph-name="gid185" horiz-adv-x="299" d="M88-139v45q31,8 47,31T153,0H108V120h97V35q0-72-29.5-116T88-139Z" />
      <glyph unicode="-" glyph-name="gid200" horiz-adv-x="532" d="M79,227v85H454V227H79Z" />
      <glyph unicode="." glyph-name="gid184" horiz-adv-x="317" d="M110,0V120h97V0H110Z" />
      <glyph unicode="/" glyph-name="gid198" horiz-adv-x="455" d="M7-120L343,704H448L112-120H7Z" />
      <glyph unicode="0" glyph-name="gid128" horiz-adv-x="724" d="M363-12q-89,0-155.5,48.5T104,171.5T67,373t37,201.5T207,709t155,48t155-48T620.5,574.5T658,373T621,171T517.5,36T363-12Zm0,91q60,0 104,36.5T535.5,218T560,373T535.5,528t-69,102T362,666T258,630T189.5,528T165,373q0-88 24.5-154t69-103T363,79Z" />
      <glyph unicode="1" glyph-name="gid129" horiz-adv-x="382" d="M178,0V660H37v85H277V0H178Z" />
      <glyph unicode="2" glyph-name="gid130" horiz-adv-x="599" d="M54,0V68L260,291q61,65 97.5,107T411,473t17,70q0,61-36,94t-95,33q-60,0-102-34.5T137,538L48,561q13,60 48,104t87,68t114,24q68,0 119.5-26.5t81-73.5T527,548q0-41-17-80t-50-82.5T374,285L190,85H543V0H54Z" />
      <glyph unicode="3" glyph-name="gid131" horiz-adv-x="610" d="M294-12Q235-12 184,9T96,68.5T41,160l83,34q21-56 66-87T294,76q46,0 82,18t56.5,52T453,228q0,49-20.5,82.5T376,362t-83,18q-15,0-32.5-2T231,372l-21,45L409,660H79v85H520V663L330,429l-6,26q67-2 118-31t80-78.5T551,230q0-68-33-123T427,20T294-12Z" />
      <glyph unicode="4" glyph-name="gid132" horiz-adv-x="638" d="M409,0V172H43v81L407,745h94V253h97V172H501V0H409ZM117,218l-14,35H409V663l29-8L117,218Z" />
      <glyph unicode="5" glyph-name="gid133" horiz-adv-x="616" d="M300-12Q242-12 191,8.5t-88.5,59T48,158l80,34q21-55 68.5-85.5T300,76q46,0 81.5,20.5t55.5,57T457,235q0,47-20.5,83T381,374.5T301,395q-46,0-84-21t-55-53L83,338l57,407H526V660H177l38,38L171,382l-34,20q33,42 77.5,60.5T311,481q73,0 128-33t86-88t31-125T522.5,109t-91-88.5T300-12Z" />
      <glyph unicode="6" glyph-name="gid134" horiz-adv-x="599" d="M301-12q-72,0-127.5,32T86,107.5T54,234q0,39 9,77t29,77t51,81L353,745H471L214,411l-18,2q15,20 33.5,31t40,16t45.5,5q66,0 118.5-30.5t83-83.5T547,229T515,105.5t-87.5-86T301-12Zm0,88q42,0 75,19.5T428.5,150T448,228q0,45-19,78.5T377,360t-76,20q-42,0-76-20t-53-53.5T153,228q0-43 19.5-78t53-54.5T301,76Z" />
      <glyph unicode="7" glyph-name="gid135" horiz-adv-x="548" d="M77,0L404,660H39v85H507V660L183,0H77Z" />
      <glyph unicode="8" glyph-name="gid136" horiz-adv-x="629" d="M315-12q-75,0-132.5,30t-90,81.5T60,215q0,72 40,126t110,77l-2-25q-53,21-82.5,67.5T96,561q0,57 28.5,101t78,69.5T315,757t112-25t77.5-69.5T533,561T502.5,459T422,392l-3,26q71-23 111-77.5T570,215q0-64-32.5-115.5T447.5,18T315-12Zm0,85q47,0 82,18t54.5,50.5T471,216q0,43-19.5,75.5t-54.5,50T315,359t-82.5-17.5t-54.5-50T159,216q0-42 19-74.5T232.5,91T315,73Zm0,371q34,0 60.5,15T418,499.5T434,559t-16,59t-42.5,39.5T315,672q-35,0-62-14.5T210,618t-16-59t16-59.5T253,459t62-15Z" />
      <glyph unicode="9" glyph-name="gid137" horiz-adv-x="599" d="M128,0L385,335l18-2q-15-20-33-31.5T330.5,285T284,280q-66,0-118.5,30.5t-83,84T52,517T84,640t88,85.5T298,757q72,0 127.5-31.5t87.5-87T545,511q0-39-9-77t-28.5-77T456,276L246,0H128ZM298,366q43,0 76.5,19.5t52.5,54T446,517q0,45-19.5,79T374,650t-76,20q-42,0-75-20t-52.5-54T151,517q0-43 19-77.5t52.5-54T298,366Z" />
      <glyph unicode=":" glyph-name="gid186" horiz-adv-x="317" d="M110,0V120h97V0H110Zm0,419V539h97V419H110Z" />
      <glyph unicode=";" glyph-name="gid187" horiz-adv-x="337" d="M110-139v42q31,8 48.5,32.5T179,0H130V120h97V35q0-72-29.5-116T110-139Zm20,558V539h97V419H130Z" />
      <glyph unicode="&lt;" glyph-name="gid247" horiz-adv-x="624" d="M542,30L115,225v88L542,509V410L187,252v35L542,129V30Z" />
      <glyph unicode="=" glyph-name="gid245" horiz-adv-x="624" d="M87,321v88H537V321H87ZM87,84v87H537V84H87Z" />
      <glyph unicode="&gt;" glyph-name="gid246" horiz-adv-x="624" d="M83,30v99L437,287V252L83,410v99L509,313V225L83,30Z" />
      <glyph unicode="?" glyph-name="gid191" horiz-adv-x="527" d="M182,218v13q0,45 15.5,79.5t39,62T286,424q35,35 63.5,68T378,570q0,26-13,49t-38.5,37T264,670q-51,0-88-32t-46-85L42,573q9,55 39.5,96.5t78,64.5T265,757q65,0 112.5-26.5T451,662t26-91q0-44-18-77.5T413.5,432T359,376q-33-32-57.5-66.5T277,229V218H182ZM183,0V120h97V0H183Z" />
      <glyph unicode="@" glyph-name="gid222" horiz-adv-x="928" d="M483-211q-90,0-167,31.5T181.5-91T92.5,42.5T61,209q0,89 32,165t89,132.5t134,88T482,626q92,0 168-33t131.5-90.5t86-132T898,212q0-64-20.5-111.5T819,26.5T729,0q-32,0-62,12T616.5,48T591,107l19-25q-14-27-37.5-45t-53-27.5T456,0Q398,0 351.5,28t-74,76T250,213t27,109.5T351.5,400T458,429q49,0 89-19.5T607,356l-8-20v83h74V151q0-37 15.5-54.5T731,79q39,0 60,32.5T812,212q0,71-23.5,131.5T722,449.5t-103.5,71T483,546q-73,0-134.5-25.5T241.5,450t-70-106T147,210q0-72 24.5-134T241-32.5T347.5-105T484-131q46,0 88.5,10.5T649-90l37-69q-88-52-203-52ZM462,79q37,0 66,18t45.5,48.5T590,215q0,58-36,95.5T462,349q-36,0-65.5-17.5t-46-48T334,214q0-38 17-68.5T397,97t65-18Z" />
      <glyph unicode="A" glyph-name="gid1" horiz-adv-x="672" d="M11,0L278,745H394L661,0H556L495,175H177L116,0H11ZM208,265H464L322,674h28L208,265Z" />
      <glyph unicode="B" glyph-name="gid10" horiz-adv-x="692" d="M83,0V745H396q67,0 115.5-24t75-67.5T613,550q0-55-28.5-99.5T501,381l-1,37q48-18 79.5-47.5t47.5-68T643,221q0-103-66-162T397,0H83Zm98,90H401q65,0 104,35t39,95t-39,95.5T401,351H181V90Zm0,349H394q54,0 87,31.5T514,551q0,51-33,78t-87,27H181V439Z" />
      <glyph unicode="C" glyph-name="gid11" horiz-adv-x="779" d="M426-12q-79,0-145.5,28.5T164.5,97T88,219T61,372q0,84 27,154t76,122t116,80.5T426,757q77,0 138.5-27t104-70T729,568l-90-41q-26,62-81,100.5T426,666q-78,0-138.5-37T193,526T159,372q0-87 34-153t94.5-103T426,79q77,0 132,38.5T639,218l90-41q-18-49-60.5-92t-104-70T426-12Z" />
      <glyph unicode="D" glyph-name="gid13" horiz-adv-x="741" d="M83,0V745H327q113,0 197-46T654,569.5T700,373q0-112-46-196T524,46.5T327,0H83Zm98,90H328q83,0 143.5,35T565,223.5T598,373q0,87-33.5,150t-94,97.5T328,655H181V90Z" />
      <glyph unicode="E" glyph-name="gid15" horiz-adv-x="606" d="M83,0V745H568V655H181V419H548V329H181V90H568V0H83Z" />
      <glyph unicode="F" glyph-name="gid20" horiz-adv-x="583" d="M83,0V745H555V655H181V414H520V324H181V0H83Z" />
      <glyph unicode="G" glyph-name="gid21" horiz-adv-x="817" d="M427-12q-79,0-146,28.5T165,97T88.5,219T61,372q0,84 27,154t76,122t116,80.5T426,757q77,0 138.5-27t104-70T729,568l-88-43q-26,65-81,103T426,666q-78,0-138.5-37T193,526T159,372q0-87 34.5-153t95-103T427,79q68,0 123,29t87,80t32,118v46l45-42H426v85H768V329q0-78-27-141T667,80.5T558,12T427-12Z" />
      <glyph unicode="H" glyph-name="gid22" horiz-adv-x="735" d="M83,0V745h98V413H554V745h99V0H554V323H181V0H83Z" />
      <glyph unicode="I" glyph-name="gid23" horiz-adv-x="264" d="M83,0V745h98V0H83Z" />
      <glyph unicode="J" glyph-name="gid28" horiz-adv-x="386" d="M50,0V95H91q53,0 84,31.5T206,212V745h99V214q0-65-26.5-113T204,26.5T91,0H50Z" />
      <glyph unicode="K" glyph-name="gid29" horiz-adv-x="662" d="M83,0V745h98V326l-24,10L513,745H636L337,400l5,70L651,0H534L298,354L181,220V0H83Z" />
      <glyph unicode="L" glyph-name="gid30" horiz-adv-x="535" d="M83,0V745h98V90H508V0H83Z" />
      <glyph unicode="M" glyph-name="gid31" horiz-adv-x="855" d="M83,0V745h90L452,348H406L683,745h90V0H674V621l35-11L432,220h-8L150,610l31,11V0H83Z" />
      <glyph unicode="N" glyph-name="gid32" horiz-adv-x="738" d="M83,0V745h82L593,143l-37-4V745h99V0H573L147,606l34,4V0H83Z" />
      <glyph unicode="O" glyph-name="gid34" horiz-adv-x="878" d="M439-12q-79,0-148,28.5T170.5,97T90,219.5T61,373q0,84 29,154t80.5,122t120,80T439,757t148.5-28.5t120-80t81-121.5T818,373q0-83-29.5-153.5T707.5,97t-120-80.5T439-12Zm0,91q62,0 113,22.5t88.5,63t58,94T719,373T698.5,487t-58,93.5t-88.5,63T439,666q-61,0-112-22.5t-88.5-63T180,487T159,373t21-114.5t58.5-94t88.5-63T439,79Z" />
      <glyph unicode="P" glyph-name="gid42" horiz-adv-x="645" d="M83,0V745H346q74,0 130-28t87.5-80T595,515T563.5,393.5t-87-80T346,285H181V0H83Zm98,375H349q45,0 78,17t51,49t18,74q0,43-18,74.5T427,638t-78,17H181V375Z" />
      <glyph unicode="Q" glyph-name="gid44" horiz-adv-x="878" d="M439-12q-79,0-148,28.5T170.5,97T90,219.5T61,373q0,84 29,154t80.5,122t120,80T439,757t148.5-28.5t120-80t81-121.5T818,373q0-83-29.5-153.5T707.5,97t-120-80.5T439-12Zm0,91q62,0 113,22.5t88.5,63t58,94T719,373T698.5,487t-58,93.5t-88.5,63T439,666q-61,0-112-22.5t-88.5-63T180,487T159,373t21-114.5t58.5-94t88.5-63T439,79ZM640-90L386,298H494L749-90H640Z" />
      <glyph unicode="R" glyph-name="gid45" horiz-adv-x="648" d="M83,0V745H346q74,0 130-28t87.5-80T595,515q0-79-40-134T447,302L620,0H506L324,323l65-38H181V0H83Zm98,375H349q44,0 77,17t51.5,49T496,515q0,43-18.5,74.5T426,638t-77,17H181V375Z" />
      <glyph unicode="S" glyph-name="gid46" horiz-adv-x="646" d="M339-12q-71,0-130,26.5T109,87T50,190l85,35q27-72 80.5-110.5T341,76q44,0 77,14t51.5,39.5T488,189q0,47-26.5,74.5T384,305L247,347q-81,25-124,79T80,550q0,61 29.5,107.5t82,73T311,757t121.5-24T525,668.5T581,576l-84-35q-24,63-72,95.5T312,669q-40,0-70.5-13.5t-47-39T178,556q0-41 26-73t79-49l125-37q88-27 133-77t45-124q0-61-31.5-108t-87-73.5T339-12Z" />
      <glyph unicode="T" glyph-name="gid47" horiz-adv-x="522" d="M213,0V655H11v90H511V655H312V0H213Z" />
      <glyph unicode="U" glyph-name="gid48" horiz-adv-x="706" d="M353-12q-81,0-143.5,34t-97,93.5T78,251V745h99V253q0-51 22.5-90.5t62-61.5T353,79t91.5,22t62,61.5T529,253V745h99V251q0-76-34.5-135.5T497,22T353-12Z" />
      <glyph unicode="V" glyph-name="gid53" horiz-adv-x="667" d="M280,0L11,745H116L344,90H323L551,745H656L388,0H280Z" />
      <glyph unicode="W" glyph-name="gid54" horiz-adv-x="996" d="M220,0L11,745H114L289,89H265L447,745H550L731,89H706L882,745H985L776,0H667L485,653h26L329,0H220Z" />
      <glyph unicode="X" glyph-name="gid55" horiz-adv-x="618" d="M11,0L254,378L17,745H129L330,432H288L489,745H601L364,378L607,0H495L288,324h42L122,0H11Z" />
      <glyph unicode="Y" glyph-name="gid56" horiz-adv-x="635" d="M269,0V341L11,745H122L338,406H298L513,745H624L368,341V0H269Z" />
      <glyph unicode="Z" glyph-name="gid58" horiz-adv-x="580" d="M19,0V72L424,655H43v90H551V673L148,90H561V0H19Z" />
      <glyph unicode="[" glyph-name="gid208" horiz-adv-x="349" d="M94-150V745H314V660H191V-65H314v-85H94Z" />
      <glyph unicode="\" glyph-name="gid199" horiz-adv-x="455" d="M343-120L7,705H112L448-120H343Z" />
      <glyph unicode="]" glyph-name="gid209" horiz-adv-x="349" d="M35-150v85H158V660H35v85H255V-150H35Z" />
      <glyph unicode="^" glyph-name="gid251" horiz-adv-x="624" d="M99,423L268,745h89L526,423H420L293,670h41L204,423H99Z" />
      <glyph unicode="_" glyph-name="gid203" horiz-adv-x="620" d="M79-85V0H541V-85H79Z" />
      <glyph unicode="`" glyph-name="gid278" horiz-adv-x="362" d="M221,640L110,798H235l80-158H221Z" />
      <glyph unicode="a" glyph-name="gid59" horiz-adv-x="575" d="M230-12q-53,0-93.5,19.5T73,61.5T50,141q0,43 18.5,77.5t58,58.5T226,311l200,33V266L247,236q-52-9-75.5-33T148,144q0-33 26.5-55T241,67q51,0 88.5,21.5t59,58.5T410,229V366q0,44-32.5,71.5T292,465q-46,0-81.5-23.5T158,379L77,421q15,37 48,66.5T202,534t92,17q62,0 109-23.5t73.5-65T503,366V0H412V102l17-6q-17-32-46-56T315,2T230-12Z" />
      <glyph unicode="b" glyph-name="gid67" horiz-adv-x="669" d="M351-12q-65,0-118.5,29T150,99l13,16V0H72V757h93V423l-14,23q30,48 82,76.5T352,551q76,0 136.5-37T584,413.5T619,269q0-79-35-143T488.5,25T351-12Zm-7,90q51,0 91,25t62.5,68.5T520,269q0,56-22.5,98.5t-62.5,68T344,461t-91.5-25t-64-68.5T165,269q0-54 23.5-97.5t64-68.5T344,78Z" />
      <glyph unicode="c" glyph-name="gid68" horiz-adv-x="603" d="M322-12q-79,0-140.5,37T85,126T50,270q0,81 35,144t96.5,100T322,551q53,0 99-19t81-51t51-75l-83-40q-19,42-58,68.5T322,461q-49,0-88.5-25T171,368t-23-99q0-54 23-97.5T233.5,103T322,78q51,0 90,26.5T470,175l83-42q-16-42-51-74.5T421,7T322-12Z" />
      <glyph unicode="d" glyph-name="gid70" horiz-adv-x="669" d="M317-12q-76,0-136.5,37T85,126T50,269q0,81 35,144.5T180.5,514T317,551q67,0 119-28.5T518,446l-15-23V757h94V0H506V115l12-16q-28-53-81.5-82T317-12Zm8,90q51,0 91,25t63.5,68.5T503,269q0,55-23.5,98.5T416,436t-91,25q-50,0-90.5-25.5t-63.5-68T148,269q0-54 23-97.5T234,103t91-25Z" />
      <glyph unicode="e" glyph-name="gid72" horiz-adv-x="614" d="M320-12q-78,0-139,37T85,126.5T50,271q0,81 34.5,144t94,99.5T312,551q60,0 106.5-21.5t79-58t50-83T565,292q0-11-1.5-24.5T560,242H118v80H506l-44-36q9,52-10,93t-56,65t-84,24t-86-24t-60.5-68.5T148,270q-4-59 18.5-103.5t64-69T321,73q54,0 91,25t60,64l78-40q-16-37-49.5-67.5T421.5,6T320-12Z" />
      <glyph unicode="f" glyph-name="gid77" horiz-adv-x="397" d="M129,0V450H26v89H129v38q0,58 25.5,98t68,61T317,757q11,0 24.5-1.5T364,752V669q-8,2-19,2.5T328,672q-46,0-75.5-22T223,577V539H351V450H223V0H129Z" />
      <glyph unicode="g" glyph-name="gid78" horiz-adv-x="659" d="M329-220q-57,0-105.5,18t-83,49.5T88-79l87,40q14-38 53.5-64.5T328-130q46,0 83.5,17.5t59.5,52T493,23V144l17-18q-28-55-80.5-84T314,13q-76,0-136,35.5t-94,97T50,282q0,76 34,137t93.5,96.5T313,551q63,0 114.5-28.5T510,444l-14-25V539h91V23q0-70-33-125t-91.5-86.5T329-220Zm-7,323q48,0 86.5,24T470,191.5T493,282q0,49-23,90t-61.5,65T322,461q-49,0-89-24t-62.5-64.5T148,282t22.5-90.5t62-64.5T322,103Z" />
      <glyph unicode="h" glyph-name="gid79" horiz-adv-x="580" d="M72,0V757h93V434l-17,9q20,51 64.5,79.5T317,551q58,0 103.5-26t72-72T519,349V0H425V319q0,45-16.5,76T363,443.5T296,461q-37,0-67-17.5t-47-49T165,319V0H72Z" />
      <glyph unicode="i" glyph-name="gid80" horiz-adv-x="237" d="M72,0V539h93V0H72Zm0,625V745h93V625H72Z" />
      <glyph unicode="j" glyph-name="gid87" horiz-adv-x="237" d="M-20-220q-9,0-22,1t-21,3v84q20-3 40-3q41,0 68,23T72-42V539h93V-42q0-58-24-97.5t-66-60T-20-220ZM72,625V745h93V625H72Z" />
      <glyph unicode="k" glyph-name="gid89" horiz-adv-x="558" d="M72,0V757h93V238l-38,9L413,539H532L325,322L546,0H436L234,292l58,3L135,131l30,68V0H72Z" />
      <glyph unicode="l" glyph-name="gid90" horiz-adv-x="237" d="M72,0V757h93V0H72Z" />
      <glyph unicode="m" glyph-name="gid91" horiz-adv-x="913" d="M72,0V539h91V429l-13,17q20,51 64,78t99,27q63,0 113.5-35T496,424l-26-1q21,63 71,95.5T652,551q56,0 101.5-26T826,453t27-104V0H759V319q0,45-16,76t-43.5,48.5T635,461q-36,0-64.5-17.5t-45-49T509,319V0H415V319q0,45-16,76t-43.5,48.5T291,461q-36,0-64.5-17.5t-45-49T165,319V0H72Z" />
      <glyph unicode="n" glyph-name="gid92" horiz-adv-x="580" d="M72,0V539h91V434l-15,9q20,51 64.5,79.5T317,551q58,0 103.5-26t72-72T519,349V0H425V319q0,45-16,76t-45.5,48.5T296,461t-67.5-17.5t-46.5-49T165,319V0H72Z" />
      <glyph unicode="o" glyph-name="gid94" horiz-adv-x="654" d="M328-12q-78,0-141,36.5T87,125T50,270T86.5,414T186,514t142,37q78,0 141-36.5T568.5,415T605,270T567,124.5T466.5,24.5T328-12Zm0,90q50,0 90.5,25t64,69T506,270q0,55-23.5,97.5t-64,68T328,461q-51,0-91.5-25.5t-64.5-68T148,270q0-54 24-98t64.5-69T328,78Z" />
      <glyph unicode="p" glyph-name="gid102" horiz-adv-x="669" d="M72-200V539h91V423l-12,23q30,48 82,76.5T352,551q76,0 136.5-37T584,413.5T619,269q0-79-35-143T488.5,25T351-12q-65,0-118.5,29T150,99l15,16V-200H72ZM344,78q51,0 91,25t62.5,68.5T520,269q0,56-22.5,98.5t-62.5,68T344,461t-91.5-25t-64-68.5T165,269q0-54 23.5-97.5t64-68.5T344,78Z" />
      <glyph unicode="q" glyph-name="gid104" horiz-adv-x="669" d="M503-200V115l15-16q-28-53-81.5-82T317-12q-76,0-136.5,37T85,126T50,269q0,81 35,144.5T180.5,514T317,551q67,0 119-28.5T518,446l-12-23V539h91V-200H503ZM325,78q51,0 91,25t63.5,68.5T503,269q0,55-23.5,98.5T416,436t-91,25q-50,0-90.5-25.5t-63.5-68T148,269q0-54 23-97.5T234,103t91-25Z" />
      <glyph unicode="r" glyph-name="gid105" horiz-adv-x="350" d="M72,0V539h91V440l-10,14q19,46 58,68.5T306,545h33V457H292q-57,0-92-35.5T165,321V0H72Z" />
      <glyph unicode="s" glyph-name="gid106" horiz-adv-x="511" d="M265-12q-81,0-141,40T39,136l74,36q23-48 63-76t89-28q44,0 73,21t29,55q0,24-13.5,38.5t-32.5,23T286,218l-81,23q-73,21-106.5,60T65,392q0,48 24.5,83.5t67,55.5T252,551q71,0 127.5-36T460,414l-76-35q-18,42-54,66.5T249,470q-41,0-65-20.5T160,398q0-23 12-37.5t29-22T234,326l88-26q66-19 102.5-59T461,145q0-45-25-81T367,8T265-12Z" />
      <glyph unicode="t" glyph-name="gid108" horiz-adv-x="396" d="M291-6Q212-6 169.5,39T127,166V450H29v89H49q36,0 57,22t21,58v44h93V539H341V450H220V169q0-27 8.5-47T257,90.5T310,79q7,0 17.5,1T347,82V0q-13-3-29-4.5T291-6Z" />
      <glyph unicode="u" glyph-name="gid109" horiz-adv-x="580" d="M263-12q-58,0-104.5,27t-72,75.5T61,202V539h93V212q0-40 16.5-70t46-47T284,78t67.5,17t46,49T414,220V539h94V0H417V105l15-9q-19-51-64.5-79.5T263-12Z" />
      <glyph unicode="v" glyph-name="gid114" horiz-adv-x="533" d="M222,0L11,539H115L284,83H248L418,539H522L310,0H222Z" />
      <glyph unicode="w" glyph-name="gid115" horiz-adv-x="826" d="M196,0L11,539H114L261,88l-36,1L369,539h88L601,89l-36-1L713,539H815L630,0H541L399,450h28L285,0H196Z" />
      <glyph unicode="x" glyph-name="gid116" horiz-adv-x="511" d="M11,0L200,270L12,539H124L285,305H228L387,539H500L312,270L499,0H387L228,234h56L125,0H11Z" />
      <glyph unicode="y" glyph-name="gid117" horiz-adv-x="553" d="M101-220q-18,0-36,3T31-207v83q11-2 27.5-4.5T91-131q47,0 71.5,20.5T209-40l34,81l-2-81L11,539H112L291,79H261L439,539H542L299-64q-17-43-43.5-78.5T191-199t-90-21Z" />
      <glyph unicode="z" glyph-name="gid120" horiz-adv-x="460" d="M19,0V79L340,484l16-34H35v89H439V460L121,54L105,89H441V0H19Z" />
      <glyph unicode="{" glyph-name="gid206" horiz-adv-x="344" d="M271-150q-71,0-113,40T116-2V185q0,31-14.5,49.5T56,253H27v85H56q31,0 45.5,18.5T116,406V598q0,67 42,107t113,40h38V660H271q-27,0-42.5-17T214,597V413q1-36-12-65.5T162,296q25-18 39-48.5T214,183V-1q-1-28 14.5-46T271-65h38v-85H271Z" />
      <glyph unicode="|" glyph-name="gid232" horiz-adv-x="332" d="M117-190V845h98V-190H117Z" />
      <glyph unicode="}" glyph-name="gid207" horiz-adv-x="344" d="M35-150v85H73q27,0 43,18T131-1V183q-1,34 12.5,64.5T182,296q-26,22-39.5,51.5T131,413V597q1,29-15,46T73,660H35v85H73q72,0 113.5-40T228,598V406q0-31 15-49.5T288,338h29V253H288q-30,0-45-18.5T228,185V-2q0-68-41.5-108T73-150H35Z" />
      <glyph unicode="~" glyph-name="gid249" horiz-adv-x="624" d="M410,210q-33,0-56.5,10.5t-43,24t-38,24T231,279q-27,0-45-17t-22-48H83q6,73 42.5,110.5T220,362q33,0 56.5-10.5t43-24t38-24T399,293q25,0 41,15.5T462,358h80q-6-72-39.5-110T410,210Z" />
      <glyph unicode="&#xa0;" glyph-name="gid179" horiz-adv-x="173" />
      <glyph unicode="&#xa1;" glyph-name="gid190" horiz-adv-x="312" d="M107-206l6,527h85l7-527H107Zm0,625V539h98V419H107Z" />
      <glyph unicode="&#xa2;" glyph-name="gid234" horiz-adv-x="603" d="M322,92q-79,0-140.5,37T85,230T50,374T85,517.5t96.5,100T322,654q53,0 99-18.5t81-51T553,510l-83-41q-19,43-58,69t-90,26q-49,0-88.5-24.5t-62.5-68T148,373q0-54 23-97.5T233.5,207T322,182q51,0 90,26t58,70l83-42q-16-41-51-73.5T421,111T322,92ZM279,0V745h75V0H279Z" />
      <glyph unicode="&#xa3;" glyph-name="gid238" horiz-adv-x="650" d="M41,0V85H141V531q0,68 29.5,118.5t83,79T378,757q61,0 110-23.5t81.5-66T609,566l-89-23q-7,62-46,94.5T378,670q-65,0-101.5-36.5T240,531V85H574V0H41Zm0,343v71H414V343H41Z" />
      <glyph unicode="&#xa4;" glyph-name="gid235" horiz-adv-x="590" d="M108,24L50,82l77,76q-16,24-25.5,52.5T92,269t9.5,58T127,380L50,457l58,58l77-77q24,16 52,25t58,9t58.5-9T406,438l77,77l58-58l-77-77q16-25 25-52.5t9-58.5t-9-59t-25-52l77-76L483,24l-77,76q-24-15-52-24.5T295,66q-28,0-56.5,8.5T185,100L108,24ZM295,156q31,0 56.5,15t41,41T408,269q0,32-15.5,57.5t-41,41T295,383t-57-15.5t-41.5-41T181,269q0-31 15.5-57T238,171t57-15Z" />
      <glyph unicode="&#xa5;" glyph-name="gid239" horiz-adv-x="635" d="M269,0V341L11,745H122L338,406H298L513,745H624L368,341V0H269ZM131,302v71H504V302H131Zm0-152v72H504V150H131Z" />
      <glyph unicode="&#xa6;" glyph-name="gid233" horiz-adv-x="332" d="M117,428V845h98V428H117Zm0-618V228h98V-190H117Z" />
      <glyph unicode="&#xa7;" glyph-name="gid225" horiz-adv-x="531" d="M276-102q-85,0-148,41.5T39,53l76,36q25-51 67-80.5T276-21q47,0 78,23t31,59q0,25-13.5,41t-34,25.5T299,142l-86,25q-76,22-111.5,62.5T66,324q0,50 26,87.5T162.5,470T262,491l-3-58q-44,0-70.5-25.5T162,343q0-28 13-46t32.5-28.5T246,252l89-26q69-21 107.5-63T481,63q0-48-26-85.5T382.5-81T276-102Zm0,266v56q47,0 78,26t31,69q0,28-14,46.5t-35,30T294,409l-81,24q-76,22-111.5,62.5T66,590q0,50 26,87.5T162.5,736T262,757q73,0 132.5-37.5T479,615l-77-37q-20,45-58,70.5T259,674q-44,0-70.5-21.5T162,596q0-24 13-39.5T206.5,533T241,519l94-27q69-21 107.5-63T481,329q0-48-26-85.5T382.5,185T276,164Z" />
      <glyph unicode="&#xa8;" glyph-name="gid277" horiz-adv-x="469" d="M110,640V753H222V640H110Zm192,0V753H415V640H302Z" />
      <glyph unicode="&#xa9;" glyph-name="gid226" horiz-adv-x="909" d="M455-12q-80,0-150,29.5T182,100T99.5,223T70,373T99.5,522T182,644t122.5,83T455,757q80,0 149.5-30T727,644.5t82.5-122T839,373T809.5,223T727,100T604.5,17.5T455-12Zm0,78q65,0 120.5,23.5T673,155t65.5,98T762,373T738.5,492.5T673,590t-97.5,66T455,680q-64,0-120-23.5T237,591t-65.5-97.5T148,373q0-64 23.5-120T237,155t98-65.5T455,66Zm6,97q-58,0-104.5,27.5t-73,75T257,373q0,61 26.5,108T356,555t105,27q43,0 78.5-14.5t59.5-39T633,475l-71-32q-11,28-37,47.5T461,510q-55,0-89.5-38T337,373t34.5-99T461,236q36,0 62.5,18.5T562,302l71-32q-10-29-34-53.5t-59.5-39T461,163Z" />
      <glyph unicode="&#xaa;" glyph-name="gid126" horiz-adv-x="452" d="M180,359q-59,0-94.5,29.5T50,467q0,48 32.5,79.5T179,588l129,22V544L195,525q-30-6-44-19.5T137,471t16-34t40-13q31,0 54.5,13.5t36.5,36T297,524v97q0,27-20.5,44T223,682q-30,0-53.5-16T136,624L66,658q17,45 62,71t98,26q69,0 111.5-37T380,621V367H301v68l17-1q-21-35-55.5-55T180,359Z" />
      <glyph unicode="&#xab;" glyph-name="gid216" horiz-adv-x="585" d="M187,77L34,269L187,462H295L143,269L295,77H187Zm255,0L289,269L442,462H550L398,269L550,77H442Z" />
      <glyph unicode="&#xac;" glyph-name="gid250" horiz-adv-x="624" d="M475,40V207H62v87H562V40H475Z" />
      <glyph unicode="&#xae;" glyph-name="gid227" horiz-adv-x="653" d="M327,272q-71,0-129.5,34.5t-93,93T70,528q0,71 34.5,129t93,92.5T327,784q53,0 99.5-20T508,709t55-81.5T583,528q0-70-34.5-128.5t-92.5-93T327,272Zm0,62q54,0 97.5,25.5t70,70T521,528t-26.5,98t-70,70T327,722q-55,0-99-26t-70-70t-26-98t26-98t70.5-70T327,334ZM225,394V664H338q42,0 70-22t28-66q0-29-12.5-48T388,498l61-104H379l-53,94H289V394H225Zm64,149h49q16,0 25,9.5t9,23.5t-9,23t-25,9H289V543Z" />
      <glyph unicode="&#xaf;" glyph-name="gid283" horiz-adv-x="445" d="M110,660v83H397V660H110Z" />
      <glyph unicode="&#xb0;" glyph-name="gid229" horiz-adv-x="500" d="M250,434q-46,0-83,21.5t-58.5,58T87,595q0,46 21.5,82.5t58.5,58T250,757t82.5-21.5t58-58T412,595q0-45-21.5-81.5t-58-58T250,434Zm-1,72q37,0 64,25t27,64q0,41-27,66t-64,25t-63-25t-26-66q0-39 26-64t63-25Z" />
      <glyph unicode="&#xb1;" glyph-name="gid248" horiz-adv-x="624" d="M269,158V322H62v87H269V573h87V409H562V322H356V158H269ZM62,0V88H562V0H62Z" />
      <glyph unicode="&#xb2;" glyph-name="gid176" horiz-adv-x="421" d="M34,223v65L177,439q40,43 64,70t34.5,47.5T286,598q0,37-22.5,56.5T207,674q-36,0-62.5-20.5T108,594L31,617q9,43 34.5,73T128,736.5T207,753q50,0 87.5-19t58-51.5T373,607q0-48-26.5-88.5T274,430L149,298H383V223H34Z" />
      <glyph unicode="&#xb3;" glyph-name="gid177" horiz-adv-x="432" d="M209,215q-41,0-78.5,15.5T66.5,274T29,340l75,28q13-35 41-55t64-20q44,0 71.5,25T308,387q0,43-27,68t-72,25q-27,0-50-9l-20,40L276,671H58v74H374V675L240,515l-1,30q47-1 82-20.5T375.5,470T395,389q0-50-24-89t-66-62t-96-23Z" />
      <glyph unicode="&#xb4;" glyph-name="gid279" horiz-adv-x="362" d="M110,640l79,158H315L203,640H110Z" />
      <glyph unicode="&#xb5;" glyph-name="gid252" horiz-adv-x="580" d="M61-140V539h93V212q0-40 16.5-70T216,95t68-17q38,0 67.5,17t46,49T414,220V539h94V0H417V110l12-17q-19-50-63.5-77.5T263-12q-38,0-72,13T132,36l22,30V-140H61Z" />
      <glyph unicode="&#xb6;" glyph-name="gid224" horiz-adv-x="453" d="M238-100V385q-53,0-93.5,23.5T80,473T56,565q0,52 24,92.5t64.5,64T238,745h98V-100H238Z" />
      <glyph unicode="&#xb7;" glyph-name="gid193" horiz-adv-x="317" d="M110,209V329h97V209H110Z" />
      <glyph unicode="&#xb8;" glyph-name="gid284" horiz-adv-x="382" d="M217-232q-28,0-58,9.5T110-197l23,61q15-13 34-20t37-7q22,0 35,10.5T252-125q0,22-23,34.5T156-72l23,82h61L229-35q52-10 79.5-35T336-131q0-45-33.5-73T217-232Z" />
      <glyph unicode="&#xb9;" glyph-name="gid175" horiz-adv-x="306" d="M119,223V670H19v75H207V223H119Z" />
      <glyph unicode="&#xba;" glyph-name="gid127" horiz-adv-x="498" d="M249,359q-54,0-99.5,25.5T77,455T50,557T77,659t72,70.5T249,755q56,0 101-25.5T421.5,659T448,557q0-58-27-102.5t-72-70T249,359Zm0,78q33,0 57.5,16t39,43T360,557q0,35-14.5,62T306,661.5T249,677t-57.5-15.5t-40-42.5T137,557q0-34 14.5-61t40-43T249,437Z" />
      <glyph unicode="&#xbb;" glyph-name="gid217" horiz-adv-x="585" d="M290,77L442,269L290,462H398L550,269L398,77H290ZM35,77L187,269L35,462H143L295,269L143,77H35Z" />
      <glyph unicode="&#xbc;" glyph-name="gid170" horiz-adv-x="888" d="M100,328V678H19v67H179V328H100ZM118,0L564,745h86L204,0H118ZM714,0V92H523v66L709,417h83V158h62V92H792V0H714ZM581,129l-14,29H714V355l20-6L581,129Z" />
      <glyph unicode="&#xbd;" glyph-name="gid169" horiz-adv-x="843" d="M100,328V678H19v67H179V328H100ZM118,0L564,745h86L204,0H118ZM524,0V60L637,179q31,31 48.5,51.5t26,36.5t8.5,31q0,26-16.5,40.5T663,353q-25,0-45-15t-28-44l-69,23q7,33 27.5,57t51,37T663,424q61,0 98.5-33T799,307q0-39-22-71t-54-66L626,68H805V0H524Z" />
      <glyph unicode="&#xbe;" glyph-name="gid171" horiz-adv-x="972" d="M175,321q-51,0-92.5,28T29,424l69,25q10-27 30.5-41.5T175,393q32,0 52.5,18.5T248,462q0,31-19.5,48.5T175,528q-10,0-22.5-2T132,519l-18,38L221,679H53v66H310V682L202,558v29q56,0 90-34.5T326,463q0-40-19.5-72T253,340t-78-19ZM202,0L648,745h86L288,0H202ZM798,0V92H607v66L793,417h83V158h62V92H876V0H798ZM665,129l-14,29H798V355l20-6L665,129Z" />
      <glyph unicode="&#xbf;" glyph-name="gid192" horiz-adv-x="527" d="M262-218q-65,0-112,26T77-123T51-32q0,43 17.5,77t45,62T169,163q32,32 57,67t25,80v11h95V307q0-44-15.5-78.5t-39.5-62T242,114q-35-34-64-66.5T149-31q0-26 13.5-49t39-37T263-131q51,0 88,32t47,85l88-20q-9-55-40-96.5T368-195T262-218ZM247,419V539h97V419H247Z" />
      <glyph unicode="&#xc0;" glyph-name="gid6" horiz-adv-x="672" d="M11,0L278,745H394L661,0H556L495,175H177L116,0H11ZM208,265H464L322,674h28L208,265Zm81,582L178,1005H303l80-158H289Z" />
      <glyph unicode="&#xc1;" glyph-name="gid2" horiz-adv-x="672" d="M11,0L278,745H394L661,0H556L495,175H177L116,0H11ZM208,265H464L322,674h28L208,265Zm82,582l79,158H495L383,847H290Z" />
      <glyph unicode="&#xc2;" glyph-name="gid4" horiz-adv-x="672" d="M11,0L278,745H394L661,0H556L495,175H177L116,0H11ZM208,265H464L322,674h28L208,265ZM164,847l119,155H390L510,847H408l-71,91l-71-91H164Z" />
      <glyph unicode="&#xc3;" glyph-name="gid8" horiz-adv-x="672" d="M11,0L278,745H394L661,0H556L495,175H177L116,0H11ZM208,265H464L322,674h28L208,265ZM400,847q-27,0-43.5,9T328,877t-24,21t-29,9q-16,0-25.5-12.5T240,851H165q0,67 29.5,100.5T271,985q27,0 44-9t29-21t23.5-21t28.5-9q18,0 28,14.5T434,981h74q0-62-30-98t-78-36Z" />
      <glyph unicode="&#xc4;" glyph-name="gid5" horiz-adv-x="672" d="M11,0L278,745H394L661,0H556L495,175H177L116,0H11ZM208,265H464L322,674h28L208,265ZM184,847V960H296V847H184Zm192,0V960H489V847H376Z" />
      <glyph unicode="&#xc5;" glyph-name="gid7" horiz-adv-x="672" d="M11,0L278,745H394L661,0H556L495,175H177L116,0H11ZM208,265H464L322,674h28L208,265ZM337,820q-47,0-81,30t-34,81t33.5,81.5T337,1043q47,0 80.5-30.5T451,931q0-50-33.5-80.5T337,820Zm0,62q20,0 34,13.5T385,931q0,23-14,36.5T337,981t-34.5-13.5T288,931q0-22 14-35.5T337,882Z" />
      <glyph unicode="&#xc6;" glyph-name="gid9" horiz-adv-x="987" d="M11,0L278,745H949V655H562V419H929V329H562V90H949L948,0H463V175H177L116,0H11ZM208,265H463V655H344L208,265Z" />
      <glyph unicode="&#xc7;" glyph-name="gid12" horiz-adv-x="779" d="M426-12q-79,0-145.5,28.5T164.5,97T88,219T61,372q0,84 27,154t76,122t116,80.5T426,757q77,0 138.5-27t104-70T729,568l-90-41q-26,62-81,100.5T426,666q-78,0-138.5-37T193,526T159,372q0-87 34-153t94.5-103T426,79q77,0 132,38.5T639,218l90-41q-18-49-60.5-92t-104-70T426-12Zm12-220q-28,0-58,9.5T331-197l23,61q15-13 34-20t37-7q22,0 35,10.5T473-125q0,22-23,34.5T377-72l23,82h61L450-35q52-10 79.5-35T557-131q0-45-33.5-73T438-232Z" />
      <glyph unicode="&#xc8;" glyph-name="gid19" horiz-adv-x="606" d="M83,0V745H568V655H181V419H548V329H181V90H568V0H83ZM279,847L168,1005H293l80-158H279Z" />
      <glyph unicode="&#xc9;" glyph-name="gid16" horiz-adv-x="606" d="M83,0V745H568V655H181V419H548V329H181V90H568V0H83ZM279,847l79,158H484L372,847H279Z" />
      <glyph unicode="&#xca;" glyph-name="gid17" horiz-adv-x="606" d="M83,0V745H568V655H181V419H548V329H181V90H568V0H83Zm70,847l119,155H379L499,847H397l-71,91l-71-91H153Z" />
      <glyph unicode="&#xcb;" glyph-name="gid18" horiz-adv-x="606" d="M83,0V745H568V655H181V419H548V329H181V90H568V0H83Zm90,847V960H285V847H173Zm192,0V960H478V847H365Z" />
      <glyph unicode="&#xcc;" glyph-name="gid27" horiz-adv-x="264" d="M83,0V745h98V0H83Zm2,847L-26,1005H99l80-158H85Z" />
      <glyph unicode="&#xcd;" glyph-name="gid24" horiz-adv-x="264" d="M83,0V745h98V0H83Zm3,847l79,158H291L179,847H86Z" />
      <glyph unicode="&#xce;" glyph-name="gid25" horiz-adv-x="264" d="M83,0V745h98V0H83ZM-40,847L79,1002H186L306,847H204l-71,91L62,847H-40Z" />
      <glyph unicode="&#xcf;" glyph-name="gid26" horiz-adv-x="264" d="M83,0V745h98V0H83ZM-20,847V960H92V847H-20Zm192,0V960H285V847H172Z" />
      <glyph unicode="&#xd0;" glyph-name="gid14" horiz-adv-x="741" d="M24,331v85H340V331H24ZM83,0V745H327q113,0 197-46T654,569.5T700,373q0-112-46-196T524,46.5T327,0H83Zm98,90H328q83,0 143.5,35T565,223.5T598,373q0,87-33.5,150t-94,97.5T328,655H181V90Z" />
      <glyph unicode="&#xd1;" glyph-name="gid33" horiz-adv-x="738" d="M83,0V745h82L593,143l-37-4V745h99V0H573L147,606l34,4V0H83ZM433,847q-27,0-43.5,9T361,877t-24,21t-29,9q-16,0-25.5-12.5T273,851H198q0,67 29.5,100.5T304,985q27,0 44-9t29-21t23.5-21t28.5-9q18,0 28,14.5T467,981h74q0-62-30-98t-78-36Z" />
      <glyph unicode="&#xd2;" glyph-name="gid38" horiz-adv-x="878" d="M439-12q-79,0-148,28.5T170.5,97T90,219.5T61,373q0,84 29,154t80.5,122t120,80T439,757t148.5-28.5t120-80t81-121.5T818,373q0-83-29.5-153.5T707.5,97t-120-80.5T439-12Zm0,91q62,0 113,22.5t88.5,63t58,94T719,373T698.5,487t-58,93.5t-88.5,63T439,666q-61,0-112-22.5t-88.5-63T180,487T159,373t21-114.5t58.5-94t88.5-63T439,79ZM392,847L281,1005H406l80-158H392Z" />
      <glyph unicode="&#xd3;" glyph-name="gid35" horiz-adv-x="878" d="M439-12q-79,0-148,28.5T170.5,97T90,219.5T61,373q0,84 29,154t80.5,122t120,80T439,757t148.5-28.5t120-80t81-121.5T818,373q0-83-29.5-153.5T707.5,97t-120-80.5T439-12Zm0,91q62,0 113,22.5t88.5,63t58,94T719,373T698.5,487t-58,93.5t-88.5,63T439,666q-61,0-112-22.5t-88.5-63T180,487T159,373t21-114.5t58.5-94t88.5-63T439,79ZM393,847l79,158H598L486,847H393Z" />
      <glyph unicode="&#xd4;" glyph-name="gid36" horiz-adv-x="878" d="M439-12q-79,0-148,28.5T170.5,97T90,219.5T61,373q0,84 29,154t80.5,122t120,80T439,757t148.5-28.5t120-80t81-121.5T818,373q0-83-29.5-153.5T707.5,97t-120-80.5T439-12Zm0,91q62,0 113,22.5t88.5,63t58,94T719,373T698.5,487t-58,93.5t-88.5,63T439,666q-61,0-112-22.5t-88.5-63T180,487T159,373t21-114.5t58.5-94t88.5-63T439,79ZM267,847l119,155H493L613,847H511l-71,91l-71-91H267Z" />
      <glyph unicode="&#xd5;" glyph-name="gid40" horiz-adv-x="878" d="M439-12q-79,0-148,28.5T170.5,97T90,219.5T61,373q0,84 29,154t80.5,122t120,80T439,757t148.5-28.5t120-80t81-121.5T818,373q0-83-29.5-153.5T707.5,97t-120-80.5T439-12Zm0,91q62,0 113,22.5t88.5,63t58,94T719,373T698.5,487t-58,93.5t-88.5,63T439,666q-61,0-112-22.5t-88.5-63T180,487T159,373t21-114.5t58.5-94t88.5-63T439,79Zm64,768q-27,0-43.5,9T431,877t-24,21t-29,9q-16,0-25.5-12.5T343,851H268q0,67 29.5,100.5T374,985q27,0 44-9t29-21t23.5-21t28.5-9q18,0 28,14.5T537,981h74q0-62-30-98t-78-36Z" />
      <glyph unicode="&#xd6;" glyph-name="gid37" horiz-adv-x="878" d="M439-12q-79,0-148,28.5T170.5,97T90,219.5T61,373q0,84 29,154t80.5,122t120,80T439,757t148.5-28.5t120-80t81-121.5T818,373q0-83-29.5-153.5T707.5,97t-120-80.5T439-12Zm0,91q62,0 113,22.5t88.5,63t58,94T719,373T698.5,487t-58,93.5t-88.5,63T439,666q-61,0-112-22.5t-88.5-63T180,487T159,373t21-114.5t58.5-94t88.5-63T439,79ZM287,847V960H399V847H287Zm192,0V960H592V847H479Z" />
      <glyph unicode="&#xd7;" glyph-name="gid243" horiz-adv-x="624" d="M152,0L90,62L250,223L91,382l62,62L312,284L472,444l62-62L374,223L534,62L473,0L312,161L152,0Z" />
      <glyph unicode="&#xd8;" glyph-name="gid39" horiz-adv-x="878" d="M74,0L684,745H804L194,0H74ZM439-12q-79,0-148,28.5T170.5,97T90,219.5T61,373q0,84 29,154t80.5,122t120,80T439,757t148.5-28.5t120-80t81-121.5T818,373q0-83-29.5-153.5T707.5,97t-120-80.5T439-12Zm0,91q62,0 113,22.5t88.5,63t58,94T719,373T698.5,487t-58,93.5t-88.5,63T439,666q-61,0-112-22.5t-88.5-63T180,487T159,373t21-114.5t58.5-94t88.5-63T439,79Z" />
      <glyph unicode="&#xd9;" glyph-name="gid52" horiz-adv-x="706" d="M353-12q-81,0-143.5,34t-97,93.5T78,251V745h99V253q0-51 22.5-90.5t62-61.5T353,79t91.5,22t62,61.5T529,253V745h99V251q0-76-34.5-135.5T497,22T353-12ZM306,847L195,1005H320l80-158H306Z" />
      <glyph unicode="&#xda;" glyph-name="gid49" horiz-adv-x="706" d="M353-12q-81,0-143.5,34t-97,93.5T78,251V745h99V253q0-51 22.5-90.5t62-61.5T353,79t91.5,22t62,61.5T529,253V745h99V251q0-76-34.5-135.5T497,22T353-12ZM307,847l79,158H512L400,847H307Z" />
      <glyph unicode="&#xdb;" glyph-name="gid50" horiz-adv-x="706" d="M353-12q-81,0-143.5,34t-97,93.5T78,251V745h99V253q0-51 22.5-90.5t62-61.5T353,79t91.5,22t62,61.5T529,253V745h99V251q0-76-34.5-135.5T497,22T353-12ZM181,847l119,155H407L527,847H425l-71,91l-71-91H181Z" />
      <glyph unicode="&#xdc;" glyph-name="gid51" horiz-adv-x="706" d="M353-12q-81,0-143.5,34t-97,93.5T78,251V745h99V253q0-51 22.5-90.5t62-61.5T353,79t91.5,22t62,61.5T529,253V745h99V251q0-76-34.5-135.5T497,22T353-12ZM201,847V960H313V847H201Zm192,0V960H506V847H393Z" />
      <glyph unicode="&#xdd;" glyph-name="gid57" horiz-adv-x="635" d="M269,0V341L11,745H122L338,406H298L513,745H624L368,341V0H269Zm3,847l79,158H477L365,847H272Z" />
      <glyph unicode="&#xde;" glyph-name="gid43" horiz-adv-x="640" d="M75,0V745h99V603H339q74,0 130-28.5t87.5-80T588,372q0-70-31.5-121.5T469,171T339,143H174V0H75Zm99,233H342q44,0 77,17t51.5,48.5T489,373t-18.5,74T419,495.5T342,513H174V233Z" />
      <glyph unicode="&#xdf;" glyph-name="gid107" horiz-adv-x="616" d="M83-152V528q0,71 30,122t82.5,79T314,757q67,0 117-25t77.5-69T536,559q0-61-30-107.5T423,387l-6,26q77-27 113-74.5T566,219q0-66-29.5-115.5T453,27T326,0H264V85h59q66,0 105.5,37T468,219t-39.5,97T323,353H264v85h52q36,0 63,15t42.5,42T437,556q0,35-15.5,61t-43,40.5T314,672q-40,0-71-17.5t-49-50T176,528V-152H83Z" />
      <glyph unicode="&#xe0;" glyph-name="gid63" horiz-adv-x="575" d="M230-12q-53,0-93.5,19.5T73,61.5T50,141q0,43 18.5,77.5t58,58.5T226,311l200,33V266L247,236q-52-9-75.5-33T148,144q0-33 26.5-55T241,67q51,0 88.5,21.5t59,58.5T410,229V366q0,44-32.5,71.5T292,465q-46,0-81.5-23.5T158,379L77,421q15,37 48,66.5T202,534t92,17q62,0 109-23.5t73.5-65T503,366V0H412V102l17-6q-17-32-46-56T315,2T230-12Zm18,652L137,798H262l80-158H248Z" />
      <glyph unicode="&#xe1;" glyph-name="gid60" horiz-adv-x="575" d="M230-12q-53,0-93.5,19.5T73,61.5T50,141q0,43 18.5,77.5t58,58.5T226,311l200,33V266L247,236q-52-9-75.5-33T148,144q0-33 26.5-55T241,67q51,0 88.5,21.5t59,58.5T410,229V366q0,44-32.5,71.5T292,465q-46,0-81.5-23.5T158,379L77,421q15,37 48,66.5T202,534t92,17q62,0 109-23.5t73.5-65T503,366V0H412V102l17-6q-17-32-46-56T315,2T230-12Zm18,652l79,158H453L341,640H248Z" />
      <glyph unicode="&#xe2;" glyph-name="gid61" horiz-adv-x="575" d="M230-12q-53,0-93.5,19.5T73,61.5T50,141q0,43 18.5,77.5t58,58.5T226,311l200,33V266L247,236q-52-9-75.5-33T148,144q0-33 26.5-55T241,67q51,0 88.5,21.5t59,58.5T410,229V366q0,44-32.5,71.5T292,465q-46,0-81.5-23.5T158,379L77,421q15,37 48,66.5T202,534t92,17q62,0 109-23.5t73.5-65T503,366V0H412V102l17-6q-17-32-46-56T315,2T230-12ZM122,640L241,795H348L468,640H366l-71,91l-71-91H122Z" />
      <glyph unicode="&#xe3;" glyph-name="gid65" horiz-adv-x="575" d="M230-12q-53,0-93.5,19.5T73,61.5T50,141q0,43 18.5,77.5t58,58.5T226,311l200,33V266L247,236q-52-9-75.5-33T148,144q0-33 26.5-55T241,67q51,0 88.5,21.5t59,58.5T410,229V366q0,44-32.5,71.5T292,465q-46,0-81.5-23.5T158,379L77,421q15,37 48,66.5T202,534t92,17q62,0 109-23.5t73.5-65T503,366V0H412V102l17-6q-17-32-46-56T315,2T230-12ZM358,640q-27,0-43.5,9T286,670t-24,21t-29,9q-16,0-25.5-12.5T198,644H123q0,67 29.5,100.5T229,778q27,0 44-9t29-21t23.5-21t28.5-9q18,0 28,14.5T392,774h74q0-62-30-98t-78-36Z" />
      <glyph unicode="&#xe4;" glyph-name="gid62" horiz-adv-x="575" d="M230-12q-53,0-93.5,19.5T73,61.5T50,141q0,43 18.5,77.5t58,58.5T226,311l200,33V266L247,236q-52-9-75.5-33T148,144q0-33 26.5-55T241,67q51,0 88.5,21.5t59,58.5T410,229V366q0,44-32.5,71.5T292,465q-46,0-81.5-23.5T158,379L77,421q15,37 48,66.5T202,534t92,17q62,0 109-23.5t73.5-65T503,366V0H412V102l17-6q-17-32-46-56T315,2T230-12ZM142,640V753H254V640H142Zm192,0V753H447V640H334Z" />
      <glyph unicode="&#xe5;" glyph-name="gid64" horiz-adv-x="575" d="M230-12q-53,0-93.5,19.5T73,61.5T50,141q0,43 18.5,77.5t58,58.5T226,311l200,33V266L247,236q-52-9-75.5-33T148,144q0-33 26.5-55T241,67q51,0 88.5,21.5t59,58.5T410,229V366q0,44-32.5,71.5T292,465q-46,0-81.5-23.5T158,379L77,421q15,37 48,66.5T202,534t92,17q62,0 109-23.5t73.5-65T503,366V0H412V102l17-6q-17-32-46-56T315,2T230-12Zm65,625q-47,0-81,30t-34,81t33.5,81.5T295,836q47,0 80.5-30.5T409,724q0-50-33.5-80.5T295,613Zm0,62q20,0 34,13.5T343,724q0,23-14,36.5T295,774t-34.5-13.5T246,724q0-22 14-35.5T295,675Z" />
      <glyph unicode="&#xe6;" glyph-name="gid66" horiz-adv-x="978" d="M230-12q-53,0-93.5,19.5T73,61.5T50,141q0,43 18.5,77.5t58,58.5T226,311l184,30v25q0,44-32.5,71.5T292,465q-46,0-81.5-23.5T158,379L77,421q15,37 48,66.5T202,534t92,17q71,0 123-32t73-85l-30,1q35,53 91,84.5T675,551q60,0 106.5-21.5t79.5-58t50-83T928,292q0-11-1-24.5T923,242H511q3-52 27-89.5T600.5,94T684,73q55,0 92,25t60,64l78-40q-16-37-49.5-67.5T786.5,6T689-12q-65,0-119,27T480,93l19,18V0H412V114l15-21q-17-31-46-55T313.5,1T230-12Zm11,79q51,0 88.5,21.5t59,58.5T410,229v34L247,236q-52-9-75.5-33T148,144q0-33 26.5-55T241,67ZM514,322H828q-1,43-21.5,76t-55,51.5T675,468q-39,0-74-17.5T543,400t-29-78Z" />
      <glyph unicode="&#xe7;" glyph-name="gid69" horiz-adv-x="603" d="M322-12q-79,0-140.5,37T85,126T50,270q0,81 35,144t96.5,100T322,551q53,0 99-19t81-51t51-75l-83-40q-19,42-58,68.5T322,461q-49,0-88.5-25T171,368t-23-99q0-54 23-97.5T233.5,103T322,78q51,0 90,26.5T470,175l83-42q-16-42-51-74.5T421,7T322-12Zm12-220q-28,0-58,9.5T227-197l23,61q15-13 34-20t37-7q22,0 35,10.5T369-125q0,22-23,34.5T273-72l23,82h61L346-35q52-10 79.5-35T453-131q0-45-33.5-73T334-232Z" />
      <glyph unicode="&#xe8;" glyph-name="gid76" horiz-adv-x="614" d="M320-12q-78,0-139,37T85,126.5T50,271q0,81 34.5,144t94,99.5T312,551q60,0 106.5-21.5t79-58t50-83T565,292q0-11-1.5-24.5T560,242H118v80H506l-44-36q9,52-10,93t-56,65t-84,24t-86-24t-60.5-68.5T148,270q-4-59 18.5-103.5t64-69T321,73q54,0 91,25t60,64l78-40q-16-37-49.5-67.5T421.5,6T320-12ZM261,640L150,798H275l80-158H261Z" />
      <glyph unicode="&#xe9;" glyph-name="gid73" horiz-adv-x="614" d="M320-12q-78,0-139,37T85,126.5T50,271q0,81 34.5,144t94,99.5T312,551q60,0 106.5-21.5t79-58t50-83T565,292q0-11-1.5-24.5T560,242H118v80H506l-44-36q9,52-10,93t-56,65t-84,24t-86-24t-60.5-68.5T148,270q-4-59 18.5-103.5t64-69T321,73q54,0 91,25t60,64l78-40q-16-37-49.5-67.5T421.5,6T320-12ZM261,640l79,158H466L354,640H261Z" />
      <glyph unicode="&#xea;" glyph-name="gid74" horiz-adv-x="614" d="M320-12q-78,0-139,37T85,126.5T50,271q0,81 34.5,144t94,99.5T312,551q60,0 106.5-21.5t79-58t50-83T565,292q0-11-1.5-24.5T560,242H118v80H506l-44-36q9,52-10,93t-56,65t-84,24t-86-24t-60.5-68.5T148,270q-4-59 18.5-103.5t64-69T321,73q54,0 91,25t60,64l78-40q-16-37-49.5-67.5T421.5,6T320-12ZM135,640L254,795H361L481,640H379l-71,91l-71-91H135Z" />
      <glyph unicode="&#xeb;" glyph-name="gid75" horiz-adv-x="614" d="M320-12q-78,0-139,37T85,126.5T50,271q0,81 34.5,144t94,99.5T312,551q60,0 106.5-21.5t79-58t50-83T565,292q0-11-1.5-24.5T560,242H118v80H506l-44-36q9,52-10,93t-56,65t-84,24t-86-24t-60.5-68.5T148,270q-4-59 18.5-103.5t64-69T321,73q54,0 91,25t60,64l78-40q-16-37-49.5-67.5T421.5,6T320-12ZM156,640V753H268V640H156Zm192,0V753H461V640H348Z" />
      <glyph unicode="&#xec;" glyph-name="gid86" horiz-adv-x="209" d="M58,0V539h93V0H58ZM57,640L-54,798H71l80-158H57Z" />
      <glyph unicode="&#xed;" glyph-name="gid82" horiz-adv-x="209" d="M58,0V539h93V0H58Zm0,640l79,158H263L151,640H58Z" />
      <glyph unicode="&#xee;" glyph-name="gid83" horiz-adv-x="209" d="M58,0V539h93V0H58ZM-68,640L51,795H158L278,640H176l-71,91L34,640H-68Z" />
      <glyph unicode="&#xef;" glyph-name="gid84" horiz-adv-x="209" d="M58,0V539h93V0H58ZM-48,640V753H64V640H-48Zm192,0V753H257V640H144Z" />
      <glyph unicode="&#xf0;" glyph-name="gid71" horiz-adv-x="654" d="M332-12Q272-12 220.5,9T131,67.5T71.5,156T50,266q0,79 36,141t98,98t140,36q36,0 71-9t66.5-29T517,448l-21-43q0,53-15.5,99.5t-43,84.5T372,654t-82.5,41.5T196,710q-28,0-56.5-4.5T82,691L66,771q73,24 139,24q78,0 141.5-25.5t111.5-72T539,591t49.5-129.5T605,319q0-115-37-188.5t-98.5-108T332-12Zm-4,90q50,0 90.5,25t64,68T506,267q0,51-22.5,92.5T421,426t-93,25t-93.5-24.5T171,360t-23-95t24.5-95.5t65.5-67T328,78ZM235,580v59L547,755V695L235,580Z" />
      <glyph unicode="&#xf1;" glyph-name="gid93" horiz-adv-x="580" d="M72,0V539h91V434l-15,9q20,51 64.5,79.5T317,551q58,0 103.5-26t72-72T519,349V0H425V319q0,45-16,76t-45.5,48.5T296,461t-67.5-17.5t-46.5-49T165,319V0H72ZM354,640q-27,0-43.5,9T282,670t-24,21t-29,9q-16,0-25.5-12.5T194,644H119q0,67 29.5,100.5T225,778q27,0 44-9t29-21t23.5-21t28.5-9q18,0 28,14.5T388,774h74q0-62-30-98t-78-36Z" />
      <glyph unicode="&#xf2;" glyph-name="gid98" horiz-adv-x="654" d="M328-12q-78,0-141,36.5T87,125T50,270T86.5,414T186,514t142,37q78,0 141-36.5T568.5,415T605,270T567,124.5T466.5,24.5T328-12Zm0,90q50,0 90.5,25t64,69T506,270q0,55-23.5,97.5t-64,68T328,461q-51,0-91.5-25.5t-64.5-68T148,270q0-54 24-98t64.5-69T328,78ZM281,640L170,798H295l80-158H281Z" />
      <glyph unicode="&#xf3;" glyph-name="gid95" horiz-adv-x="654" d="M328-12q-78,0-141,36.5T87,125T50,270T86.5,414T186,514t142,37q78,0 141-36.5T568.5,415T605,270T567,124.5T466.5,24.5T328-12Zm0,90q50,0 90.5,25t64,69T506,270q0,55-23.5,97.5t-64,68T328,461q-51,0-91.5-25.5t-64.5-68T148,270q0-54 24-98t64.5-69T328,78ZM281,640l79,158H486L374,640H281Z" />
      <glyph unicode="&#xf4;" glyph-name="gid96" horiz-adv-x="654" d="M328-12q-78,0-141,36.5T87,125T50,270T86.5,414T186,514t142,37q78,0 141-36.5T568.5,415T605,270T567,124.5T466.5,24.5T328-12Zm0,90q50,0 90.5,25t64,69T506,270q0,55-23.5,97.5t-64,68T328,461q-51,0-91.5-25.5t-64.5-68T148,270q0-54 24-98t64.5-69T328,78ZM155,640L274,795H381L501,640H399l-71,91l-71-91H155Z" />
      <glyph unicode="&#xf5;" glyph-name="gid100" horiz-adv-x="654" d="M328-12q-78,0-141,36.5T87,125T50,270T86.5,414T186,514t142,37q78,0 141-36.5T568.5,415T605,270T567,124.5T466.5,24.5T328-12Zm0,90q50,0 90.5,25t64,69T506,270q0,55-23.5,97.5t-64,68T328,461q-51,0-91.5-25.5t-64.5-68T148,270q0-54 24-98t64.5-69T328,78Zm63,562q-27,0-43.5,9T319,670t-24,21t-29,9q-16,0-25.5-12.5T231,644H156q0,67 29.5,100.5T262,778q27,0 44-9t29-21t23.5-21t28.5-9q18,0 28,14.5T425,774h74q0-62-30-98t-78-36Z" />
      <glyph unicode="&#xf6;" glyph-name="gid97" horiz-adv-x="654" d="M328-12q-78,0-141,36.5T87,125T50,270T86.5,414T186,514t142,37q78,0 141-36.5T568.5,415T605,270T567,124.5T466.5,24.5T328-12Zm0,90q50,0 90.5,25t64,69T506,270q0,55-23.5,97.5t-64,68T328,461q-51,0-91.5-25.5t-64.5-68T148,270q0-54 24-98t64.5-69T328,78ZM176,640V753H288V640H176Zm192,0V753H481V640H368Z" />
      <glyph unicode="&#xf7;" glyph-name="gid244" horiz-adv-x="624" d="M62,207v87H562V207H62ZM263,0V107h98V0H263Zm0,393V500h98V393H263Z" />
      <glyph unicode="&#xf8;" glyph-name="gid99" horiz-adv-x="654" d="M33,0L502,539H622L153,0H33ZM328-12q-78,0-141,36.5T87,125T50,270T86.5,414T186,514t142,37q78,0 141-36.5T568.5,415T605,270T567,124.5T466.5,24.5T328-12Zm0,90q50,0 90.5,25t64,69T506,270q0,55-23.5,97.5t-64,68T328,461q-51,0-91.5-25.5t-64.5-68T148,270q0-54 24-98t64.5-69T328,78Z" />
      <glyph unicode="&#xf9;" glyph-name="gid113" horiz-adv-x="580" d="M263-12q-58,0-104.5,27t-72,75.5T61,202V539h93V212q0-40 16.5-70t46-47T284,78t67.5,17t46,49T414,220V539h94V0H417V105l15-9q-19-51-64.5-79.5T263-12ZM244,640L133,798H258l80-158H244Z" />
      <glyph unicode="&#xfa;" glyph-name="gid110" horiz-adv-x="580" d="M263-12q-58,0-104.5,27t-72,75.5T61,202V539h93V212q0-40 16.5-70t46-47T284,78t67.5,17t46,49T414,220V539h94V0H417V105l15-9q-19-51-64.5-79.5T263-12ZM244,640l79,158H449L337,640H244Z" />
      <glyph unicode="&#xfb;" glyph-name="gid111" horiz-adv-x="580" d="M263-12q-58,0-104.5,27t-72,75.5T61,202V539h93V212q0-40 16.5-70t46-47T284,78t67.5,17t46,49T414,220V539h94V0H417V105l15-9q-19-51-64.5-79.5T263-12ZM118,640L237,795H344L464,640H362l-71,91l-71-91H118Z" />
      <glyph unicode="&#xfc;" glyph-name="gid112" horiz-adv-x="580" d="M263-12q-58,0-104.5,27t-72,75.5T61,202V539h93V212q0-40 16.5-70t46-47T284,78t67.5,17t46,49T414,220V539h94V0H417V105l15-9q-19-51-64.5-79.5T263-12ZM138,640V753H250V640H138Zm192,0V753H443V640H330Z" />
      <glyph unicode="&#xfd;" glyph-name="gid118" horiz-adv-x="553" d="M101-220q-18,0-36,3T31-207v83q11-2 27.5-4.5T91-131q47,0 71.5,20.5T209-40l34,81l-2-81L11,539H112L291,79H261L439,539H542L299-64q-17-43-43.5-78.5T191-199t-90-21ZM230,640l79,158H435L323,640H230Z" />
      <glyph unicode="&#xfe;" glyph-name="gid103" horiz-adv-x="669" d="M72-200V745h91V423l-12,23q30,48 82,76.5T352,551q76,0 136.5-37T584,413.5T619,269q0-79-35-143T488.5,25T351-12q-65,0-118.5,29T150,99l15,16V-200H72ZM344,78q51,0 91,25t62.5,68.5T520,269q0,56-22.5,98.5t-62.5,68T344,461t-91.5-25t-64-68.5T165,269q0-54 23.5-97.5t64-68.5T344,78Z" />
      <glyph unicode="&#xff;" glyph-name="gid119" horiz-adv-x="553" d="M101-220q-18,0-36,3T31-207v83q11-2 27.5-4.5T91-131q47,0 71.5,20.5T209-40l34,81l-2-81L11,539H112L291,79H261L439,539H542L299-64q-17-43-43.5-78.5T191-199t-90-21Zm23,860V753H236V640H124Zm192,0V753H429V640H316Z" />
      <glyph unicode="&#x2013;" glyph-name="gid201" horiz-adv-x="597" d="M79,227v85H519V227H79Z" />
      <glyph unicode="&#x2014;" glyph-name="gid202" horiz-adv-x="927" d="M79,227v85H849V227H79Z" />
      <glyph unicode="&#x2018;" glyph-name="gid214" horiz-adv-x="299" d="M88,508v85q0,66 29.5,108.5T205,757V712q-31-8-46.5-29.5T140,628h45V508H88Z" />
      <glyph unicode="&#x2019;" glyph-name="gid215" horiz-adv-x="299" d="M88,496v45q31,8 46.5,29.5T153,625H108V745h97V660q0-65-29.5-107.5T88,496Z" />
      <glyph unicode="&#x201a;" glyph-name="gid210" horiz-adv-x="299" d="M88-129v45q31,8 46.5,29.5T153,0H108V120h97V35q0-65-29.5-107.5T88-129Z" />
      <glyph unicode="&#x201c;" glyph-name="gid212" horiz-adv-x="467" d="M255,508v85q0,66 30,108.5T373,757V712q-32-8-47-29.5T307,628h46V508H255ZM88,508v85q0,66 29.5,108.5T205,757V712q-31-8-46.5-29.5T140,628h45V508H88Z" />
      <glyph unicode="&#x201d;" glyph-name="gid213" horiz-adv-x="467" d="M255,496v45q31,8 47,29.5T320,625H275V745h98V660q0-65-29.5-107.5T255,496ZM88,496v45q31,8 46.5,29.5T153,625H108V745h97V660q0-65-29.5-107.5T88,496Z" />
      <glyph unicode="&#x201e;" glyph-name="gid211" horiz-adv-x="467" d="M88-129v45q31,8 46.5,29.5T153,0H108V120h97V35q0-65-29.5-107.5T88-129Zm167,0v45q31,8 47,29.5T320,0H275V120h98V35q0-65-29.5-107.5T255-129Z" />
      <glyph unicode="&#x2022;" glyph-name="gid195" horiz-adv-x="577" d="M291,89q-51,0-92.5,24t-65,65T110,271q0,50 23,89.5t64,63T291,447q50,0 89-23.5T442.5,360T467,271q0-52-23.5-93t-63-65T291,89Z" />
      <glyph unicode="&#x2039;" glyph-name="gid218" horiz-adv-x="330" d="M187,77L34,269L187,462H295L143,269L295,77H187Z" />
      <glyph unicode="&#x203a;" glyph-name="gid219" horiz-adv-x="330" d="M35,77L187,269L35,462H143L295,269L143,77H35Z" />
    </font>
</defs>
</svg>
